G04 #@! TF.GenerationSoftware,KiCad,Pcbnew,(5.1.2-1)-1*
G04 #@! TF.CreationDate,2019-12-03T13:00:22-07:00*
G04 #@! TF.ProjectId,luna_rev0,6c756e61-5f72-4657-9630-2e6b69636164,rev?*
G04 #@! TF.SameCoordinates,Original*
G04 #@! TF.FileFunction,Legend,Bot*
G04 #@! TF.FilePolarity,Positive*
%FSLAX46Y46*%
G04 Gerber Fmt 4.6, Leading zero omitted, Abs format (unit mm)*
G04 Created by KiCad (PCBNEW (5.1.2-1)-1) date 2019-12-03 13:00:22*
%MOMM*%
%LPD*%
G04 APERTURE LIST*
%ADD10C,0.150000*%
%ADD11C,0.203200*%
%ADD12C,0.300000*%
%ADD13C,0.750000*%
%ADD14C,0.010000*%
%ADD15C,0.120000*%
G04 APERTURE END LIST*
D10*
X102470976Y-78271642D02*
X102518595Y-78319261D01*
X102661452Y-78366880D01*
X102756690Y-78366880D01*
X102899547Y-78319261D01*
X102994785Y-78224023D01*
X103042404Y-78128785D01*
X103090023Y-77938309D01*
X103090023Y-77795452D01*
X103042404Y-77604976D01*
X102994785Y-77509738D01*
X102899547Y-77414500D01*
X102756690Y-77366880D01*
X102661452Y-77366880D01*
X102518595Y-77414500D01*
X102470976Y-77462119D01*
X101899547Y-78366880D02*
X101994785Y-78319261D01*
X102042404Y-78271642D01*
X102090023Y-78176404D01*
X102090023Y-77890690D01*
X102042404Y-77795452D01*
X101994785Y-77747833D01*
X101899547Y-77700214D01*
X101756690Y-77700214D01*
X101661452Y-77747833D01*
X101613833Y-77795452D01*
X101566214Y-77890690D01*
X101566214Y-78176404D01*
X101613833Y-78271642D01*
X101661452Y-78319261D01*
X101756690Y-78366880D01*
X101899547Y-78366880D01*
X101137642Y-77700214D02*
X101137642Y-78366880D01*
X101137642Y-77795452D02*
X101090023Y-77747833D01*
X100994785Y-77700214D01*
X100851928Y-77700214D01*
X100756690Y-77747833D01*
X100709071Y-77843071D01*
X100709071Y-78366880D01*
X100375738Y-77700214D02*
X99994785Y-77700214D01*
X100232880Y-77366880D02*
X100232880Y-78224023D01*
X100185261Y-78319261D01*
X100090023Y-78366880D01*
X99994785Y-78366880D01*
X99661452Y-78366880D02*
X99661452Y-77700214D01*
X99661452Y-77890690D02*
X99613833Y-77795452D01*
X99566214Y-77747833D01*
X99470976Y-77700214D01*
X99375738Y-77700214D01*
X98899547Y-78366880D02*
X98994785Y-78319261D01*
X99042404Y-78271642D01*
X99090023Y-78176404D01*
X99090023Y-77890690D01*
X99042404Y-77795452D01*
X98994785Y-77747833D01*
X98899547Y-77700214D01*
X98756690Y-77700214D01*
X98661452Y-77747833D01*
X98613833Y-77795452D01*
X98566214Y-77890690D01*
X98566214Y-78176404D01*
X98613833Y-78271642D01*
X98661452Y-78319261D01*
X98756690Y-78366880D01*
X98899547Y-78366880D01*
X97994785Y-78366880D02*
X98090023Y-78319261D01*
X98137642Y-78224023D01*
X98137642Y-77366880D01*
X96851928Y-78366880D02*
X96851928Y-77366880D01*
X96851928Y-77843071D02*
X96280500Y-77843071D01*
X96280500Y-78366880D02*
X96280500Y-77366880D01*
X95661452Y-78366880D02*
X95756690Y-78319261D01*
X95804309Y-78271642D01*
X95851928Y-78176404D01*
X95851928Y-77890690D01*
X95804309Y-77795452D01*
X95756690Y-77747833D01*
X95661452Y-77700214D01*
X95518595Y-77700214D01*
X95423357Y-77747833D01*
X95375738Y-77795452D01*
X95328119Y-77890690D01*
X95328119Y-78176404D01*
X95375738Y-78271642D01*
X95423357Y-78319261D01*
X95518595Y-78366880D01*
X95661452Y-78366880D01*
X94947166Y-78319261D02*
X94851928Y-78366880D01*
X94661452Y-78366880D01*
X94566214Y-78319261D01*
X94518595Y-78224023D01*
X94518595Y-78176404D01*
X94566214Y-78081166D01*
X94661452Y-78033547D01*
X94804309Y-78033547D01*
X94899547Y-77985928D01*
X94947166Y-77890690D01*
X94947166Y-77843071D01*
X94899547Y-77747833D01*
X94804309Y-77700214D01*
X94661452Y-77700214D01*
X94566214Y-77747833D01*
X94232880Y-77700214D02*
X93851928Y-77700214D01*
X94090023Y-77366880D02*
X94090023Y-78224023D01*
X94042404Y-78319261D01*
X93947166Y-78366880D01*
X93851928Y-78366880D01*
D11*
X94107000Y-103505000D02*
X128841500Y-103505000D01*
X98425000Y-81915000D02*
X98742500Y-82232500D01*
X98425000Y-81915000D02*
X98742500Y-81597500D01*
X99060000Y-81915000D02*
X98425000Y-81915000D01*
X100965000Y-81915000D02*
X99060000Y-81915000D01*
X100965000Y-78740000D02*
X100965000Y-81915000D01*
X98425000Y-100330000D02*
X98742500Y-100647500D01*
X98425000Y-100330000D02*
X98742500Y-100012500D01*
X99695000Y-100330000D02*
X98425000Y-100330000D01*
X99695000Y-102235000D02*
X99695000Y-100330000D01*
X101600000Y-102235000D02*
X99695000Y-102235000D01*
X123825000Y-77152500D02*
X123825000Y-77787500D01*
X125730000Y-77152500D02*
X123825000Y-77152500D01*
X125730000Y-77152500D02*
X125285500Y-77470000D01*
X125730000Y-77152500D02*
X125285500Y-76835000D01*
D10*
X124499119Y-90485261D02*
X124499119Y-89913833D01*
X123499119Y-90199547D02*
X124499119Y-90199547D01*
X123499119Y-89151928D02*
X124022928Y-89151928D01*
X124118166Y-89199547D01*
X124165785Y-89294785D01*
X124165785Y-89485261D01*
X124118166Y-89580500D01*
X123546738Y-89151928D02*
X123499119Y-89247166D01*
X123499119Y-89485261D01*
X123546738Y-89580500D01*
X123641976Y-89628119D01*
X123737214Y-89628119D01*
X123832452Y-89580500D01*
X123880071Y-89485261D01*
X123880071Y-89247166D01*
X123927690Y-89151928D01*
X123499119Y-88675738D02*
X124165785Y-88675738D01*
X123975309Y-88675738D02*
X124070547Y-88628119D01*
X124118166Y-88580500D01*
X124165785Y-88485261D01*
X124165785Y-88390023D01*
X124165785Y-87628119D02*
X123356261Y-87628119D01*
X123261023Y-87675738D01*
X123213404Y-87723357D01*
X123165785Y-87818595D01*
X123165785Y-87961452D01*
X123213404Y-88056690D01*
X123546738Y-87628119D02*
X123499119Y-87723357D01*
X123499119Y-87913833D01*
X123546738Y-88009071D01*
X123594357Y-88056690D01*
X123689595Y-88104309D01*
X123975309Y-88104309D01*
X124070547Y-88056690D01*
X124118166Y-88009071D01*
X124165785Y-87913833D01*
X124165785Y-87723357D01*
X124118166Y-87628119D01*
X123546738Y-86770976D02*
X123499119Y-86866214D01*
X123499119Y-87056690D01*
X123546738Y-87151928D01*
X123641976Y-87199547D01*
X124022928Y-87199547D01*
X124118166Y-87151928D01*
X124165785Y-87056690D01*
X124165785Y-86866214D01*
X124118166Y-86770976D01*
X124022928Y-86723357D01*
X123927690Y-86723357D01*
X123832452Y-87199547D01*
X124165785Y-86437642D02*
X124165785Y-86056690D01*
X124499119Y-86294785D02*
X123641976Y-86294785D01*
X123546738Y-86247166D01*
X123499119Y-86151928D01*
X123499119Y-86056690D01*
X124499119Y-84961452D02*
X123689595Y-84961452D01*
X123594357Y-84913833D01*
X123546738Y-84866214D01*
X123499119Y-84770976D01*
X123499119Y-84580500D01*
X123546738Y-84485261D01*
X123594357Y-84437642D01*
X123689595Y-84390023D01*
X124499119Y-84390023D01*
X123546738Y-83961452D02*
X123499119Y-83818595D01*
X123499119Y-83580500D01*
X123546738Y-83485261D01*
X123594357Y-83437642D01*
X123689595Y-83390023D01*
X123784833Y-83390023D01*
X123880071Y-83437642D01*
X123927690Y-83485261D01*
X123975309Y-83580500D01*
X124022928Y-83770976D01*
X124070547Y-83866214D01*
X124118166Y-83913833D01*
X124213404Y-83961452D01*
X124308642Y-83961452D01*
X124403880Y-83913833D01*
X124451500Y-83866214D01*
X124499119Y-83770976D01*
X124499119Y-83532880D01*
X124451500Y-83390023D01*
X124022928Y-82628119D02*
X123975309Y-82485261D01*
X123927690Y-82437642D01*
X123832452Y-82390023D01*
X123689595Y-82390023D01*
X123594357Y-82437642D01*
X123546738Y-82485261D01*
X123499119Y-82580500D01*
X123499119Y-82961452D01*
X124499119Y-82961452D01*
X124499119Y-82628119D01*
X124451500Y-82532880D01*
X124403880Y-82485261D01*
X124308642Y-82437642D01*
X124213404Y-82437642D01*
X124118166Y-82485261D01*
X124070547Y-82532880D01*
X124022928Y-82628119D01*
X124022928Y-82961452D01*
X123499119Y-81199547D02*
X124499119Y-81199547D01*
X124022928Y-81199547D02*
X124022928Y-80628119D01*
X123499119Y-80628119D02*
X124499119Y-80628119D01*
X123499119Y-80009071D02*
X123546738Y-80104309D01*
X123594357Y-80151928D01*
X123689595Y-80199547D01*
X123975309Y-80199547D01*
X124070547Y-80151928D01*
X124118166Y-80104309D01*
X124165785Y-80009071D01*
X124165785Y-79866214D01*
X124118166Y-79770976D01*
X124070547Y-79723357D01*
X123975309Y-79675738D01*
X123689595Y-79675738D01*
X123594357Y-79723357D01*
X123546738Y-79770976D01*
X123499119Y-79866214D01*
X123499119Y-80009071D01*
X123546738Y-79294785D02*
X123499119Y-79199547D01*
X123499119Y-79009071D01*
X123546738Y-78913833D01*
X123641976Y-78866214D01*
X123689595Y-78866214D01*
X123784833Y-78913833D01*
X123832452Y-79009071D01*
X123832452Y-79151928D01*
X123880071Y-79247166D01*
X123975309Y-79294785D01*
X124022928Y-79294785D01*
X124118166Y-79247166D01*
X124165785Y-79151928D01*
X124165785Y-79009071D01*
X124118166Y-78913833D01*
X124165785Y-78580500D02*
X124165785Y-78199547D01*
X124499119Y-78437642D02*
X123641976Y-78437642D01*
X123546738Y-78390023D01*
X123499119Y-78294785D01*
X123499119Y-78199547D01*
X121849119Y-90199547D02*
X121896738Y-90294785D01*
X121944357Y-90342404D01*
X122039595Y-90390023D01*
X122325309Y-90390023D01*
X122420547Y-90342404D01*
X122468166Y-90294785D01*
X122515785Y-90199547D01*
X122515785Y-90056690D01*
X122468166Y-89961452D01*
X122420547Y-89913833D01*
X122325309Y-89866214D01*
X122039595Y-89866214D01*
X121944357Y-89913833D01*
X121896738Y-89961452D01*
X121849119Y-90056690D01*
X121849119Y-90199547D01*
X121849119Y-89437642D02*
X122515785Y-89437642D01*
X122325309Y-89437642D02*
X122420547Y-89390023D01*
X122468166Y-89342404D01*
X122515785Y-89247166D01*
X122515785Y-89151928D01*
X122134833Y-88104309D02*
X122134833Y-87628119D01*
X121849119Y-88199547D02*
X122849119Y-87866214D01*
X121849119Y-87532880D01*
X122515785Y-87199547D02*
X121849119Y-87199547D01*
X122420547Y-87199547D02*
X122468166Y-87151928D01*
X122515785Y-87056690D01*
X122515785Y-86913833D01*
X122468166Y-86818595D01*
X122372928Y-86770976D01*
X121849119Y-86770976D01*
X121849119Y-85866214D02*
X122372928Y-85866214D01*
X122468166Y-85913833D01*
X122515785Y-86009071D01*
X122515785Y-86199547D01*
X122468166Y-86294785D01*
X121896738Y-85866214D02*
X121849119Y-85961452D01*
X121849119Y-86199547D01*
X121896738Y-86294785D01*
X121991976Y-86342404D01*
X122087214Y-86342404D01*
X122182452Y-86294785D01*
X122230071Y-86199547D01*
X122230071Y-85961452D01*
X122277690Y-85866214D01*
X121849119Y-85247166D02*
X121896738Y-85342404D01*
X121991976Y-85390023D01*
X122849119Y-85390023D01*
X122515785Y-84961452D02*
X121849119Y-84723357D01*
X122515785Y-84485261D02*
X121849119Y-84723357D01*
X121611023Y-84818595D01*
X121563404Y-84866214D01*
X121515785Y-84961452D01*
X121896738Y-84151928D02*
X121849119Y-84056690D01*
X121849119Y-83866214D01*
X121896738Y-83770976D01*
X121991976Y-83723357D01*
X122039595Y-83723357D01*
X122134833Y-83770976D01*
X122182452Y-83866214D01*
X122182452Y-84009071D01*
X122230071Y-84104309D01*
X122325309Y-84151928D01*
X122372928Y-84151928D01*
X122468166Y-84104309D01*
X122515785Y-84009071D01*
X122515785Y-83866214D01*
X122468166Y-83770976D01*
X121849119Y-83294785D02*
X122515785Y-83294785D01*
X122849119Y-83294785D02*
X122801500Y-83342404D01*
X122753880Y-83294785D01*
X122801500Y-83247166D01*
X122849119Y-83294785D01*
X122753880Y-83294785D01*
X121896738Y-82866214D02*
X121849119Y-82770976D01*
X121849119Y-82580500D01*
X121896738Y-82485261D01*
X121991976Y-82437642D01*
X122039595Y-82437642D01*
X122134833Y-82485261D01*
X122182452Y-82580500D01*
X122182452Y-82723357D01*
X122230071Y-82818595D01*
X122325309Y-82866214D01*
X122372928Y-82866214D01*
X122468166Y-82818595D01*
X122515785Y-82723357D01*
X122515785Y-82580500D01*
X122468166Y-82485261D01*
X121849119Y-81247166D02*
X122849119Y-81247166D01*
X122849119Y-80866214D01*
X122801500Y-80770976D01*
X122753880Y-80723357D01*
X122658642Y-80675738D01*
X122515785Y-80675738D01*
X122420547Y-80723357D01*
X122372928Y-80770976D01*
X122325309Y-80866214D01*
X122325309Y-81247166D01*
X121849119Y-80104309D02*
X121896738Y-80199547D01*
X121944357Y-80247166D01*
X122039595Y-80294785D01*
X122325309Y-80294785D01*
X122420547Y-80247166D01*
X122468166Y-80199547D01*
X122515785Y-80104309D01*
X122515785Y-79961452D01*
X122468166Y-79866214D01*
X122420547Y-79818595D01*
X122325309Y-79770976D01*
X122039595Y-79770976D01*
X121944357Y-79818595D01*
X121896738Y-79866214D01*
X121849119Y-79961452D01*
X121849119Y-80104309D01*
X121849119Y-79342404D02*
X122515785Y-79342404D01*
X122325309Y-79342404D02*
X122420547Y-79294785D01*
X122468166Y-79247166D01*
X122515785Y-79151928D01*
X122515785Y-79056690D01*
X122515785Y-78866214D02*
X122515785Y-78485261D01*
X122849119Y-78723357D02*
X121991976Y-78723357D01*
X121896738Y-78675738D01*
X121849119Y-78580500D01*
X121849119Y-78485261D01*
X122134833Y-77437642D02*
X122134833Y-76961452D01*
X121849119Y-77532880D02*
X122849119Y-77199547D01*
X121849119Y-76866214D01*
D11*
X135890000Y-97345500D02*
X135636000Y-97599500D01*
X135890000Y-97345500D02*
X136144000Y-97599500D01*
X135890000Y-98044000D02*
X134874000Y-98044000D01*
X135890000Y-97790000D02*
X135890000Y-98044000D01*
X135890000Y-97790000D02*
X135890000Y-97345500D01*
X128841500Y-111061500D02*
X128841500Y-103505000D01*
X94107000Y-111061500D02*
X128841500Y-111061500D01*
X94107000Y-103505000D02*
X94107000Y-111061500D01*
D12*
X111284642Y-104376500D02*
X111284642Y-106076500D01*
X111215595Y-106276500D01*
X111146547Y-106376500D01*
X111008452Y-106476500D01*
X110732261Y-106476500D01*
X110594166Y-106376500D01*
X110525119Y-106276500D01*
X110456071Y-106076500D01*
X110456071Y-104376500D01*
X109834642Y-106376500D02*
X109627500Y-106476500D01*
X109282261Y-106476500D01*
X109144166Y-106376500D01*
X109075119Y-106276500D01*
X109006071Y-106076500D01*
X109006071Y-105876500D01*
X109075119Y-105676500D01*
X109144166Y-105576500D01*
X109282261Y-105476500D01*
X109558452Y-105376500D01*
X109696547Y-105276500D01*
X109765595Y-105176500D01*
X109834642Y-104976500D01*
X109834642Y-104776500D01*
X109765595Y-104576500D01*
X109696547Y-104476500D01*
X109558452Y-104376500D01*
X109213214Y-104376500D01*
X109006071Y-104476500D01*
X107901309Y-105376500D02*
X107694166Y-105476500D01*
X107625119Y-105576500D01*
X107556071Y-105776500D01*
X107556071Y-106076500D01*
X107625119Y-106276500D01*
X107694166Y-106376500D01*
X107832261Y-106476500D01*
X108384642Y-106476500D01*
X108384642Y-104376500D01*
X107901309Y-104376500D01*
X107763214Y-104476500D01*
X107694166Y-104576500D01*
X107625119Y-104776500D01*
X107625119Y-104976500D01*
X107694166Y-105176500D01*
X107763214Y-105276500D01*
X107901309Y-105376500D01*
X108384642Y-105376500D01*
X112907261Y-109926500D02*
X112907261Y-107826500D01*
X112423928Y-109326500D01*
X111940595Y-107826500D01*
X111940595Y-109926500D01*
X110628690Y-108526500D02*
X110628690Y-109926500D01*
X111250119Y-108526500D02*
X111250119Y-109626500D01*
X111181071Y-109826500D01*
X111042976Y-109926500D01*
X110835833Y-109926500D01*
X110697738Y-109826500D01*
X110628690Y-109726500D01*
X110145357Y-108526500D02*
X109592976Y-108526500D01*
X109938214Y-107826500D02*
X109938214Y-109626500D01*
X109869166Y-109826500D01*
X109731071Y-109926500D01*
X109592976Y-109926500D01*
X109109642Y-109926500D02*
X109109642Y-108526500D01*
X109109642Y-107826500D02*
X109178690Y-107926500D01*
X109109642Y-108026500D01*
X109040595Y-107926500D01*
X109109642Y-107826500D01*
X109109642Y-108026500D01*
X108626309Y-108526500D02*
X108073928Y-108526500D01*
X108419166Y-107826500D02*
X108419166Y-109626500D01*
X108350119Y-109826500D01*
X108212023Y-109926500D01*
X108073928Y-109926500D01*
X107383452Y-109926500D02*
X107521547Y-109826500D01*
X107590595Y-109726500D01*
X107659642Y-109526500D01*
X107659642Y-108926500D01*
X107590595Y-108726500D01*
X107521547Y-108626500D01*
X107383452Y-108526500D01*
X107176309Y-108526500D01*
X107038214Y-108626500D01*
X106969166Y-108726500D01*
X106900119Y-108926500D01*
X106900119Y-109526500D01*
X106969166Y-109726500D01*
X107038214Y-109826500D01*
X107176309Y-109926500D01*
X107383452Y-109926500D01*
X106071547Y-109926500D02*
X106209642Y-109826500D01*
X106278690Y-109726500D01*
X106347738Y-109526500D01*
X106347738Y-108926500D01*
X106278690Y-108726500D01*
X106209642Y-108626500D01*
X106071547Y-108526500D01*
X105864404Y-108526500D01*
X105726309Y-108626500D01*
X105657261Y-108726500D01*
X105588214Y-108926500D01*
X105588214Y-109526500D01*
X105657261Y-109726500D01*
X105726309Y-109826500D01*
X105864404Y-109926500D01*
X106071547Y-109926500D01*
X104759642Y-109926500D02*
X104897738Y-109826500D01*
X104966785Y-109626500D01*
X104966785Y-107826500D01*
D13*
X125888166Y-109753500D02*
X127792928Y-109753500D01*
X127792928Y-104503500D01*
X124554833Y-104503500D02*
X124554833Y-108753500D01*
X124364357Y-109253500D01*
X124173880Y-109503500D01*
X123792928Y-109753500D01*
X123031023Y-109753500D01*
X122650071Y-109503500D01*
X122459595Y-109253500D01*
X122269119Y-108753500D01*
X122269119Y-104503500D01*
X120364357Y-109753500D02*
X120364357Y-104503500D01*
X118078642Y-109753500D01*
X118078642Y-104503500D01*
X116364357Y-108253500D02*
X114459595Y-108253500D01*
X116745309Y-109753500D02*
X115411976Y-104503500D01*
X114078642Y-109753500D01*
D10*
X113456404Y-102814380D02*
X113456404Y-101814380D01*
X113218309Y-101814380D01*
X113075452Y-101862000D01*
X112980214Y-101957238D01*
X112932595Y-102052476D01*
X112884976Y-102242952D01*
X112884976Y-102385809D01*
X112932595Y-102576285D01*
X112980214Y-102671523D01*
X113075452Y-102766761D01*
X113218309Y-102814380D01*
X113456404Y-102814380D01*
X112075452Y-102766761D02*
X112170690Y-102814380D01*
X112361166Y-102814380D01*
X112456404Y-102766761D01*
X112504023Y-102671523D01*
X112504023Y-102290571D01*
X112456404Y-102195333D01*
X112361166Y-102147714D01*
X112170690Y-102147714D01*
X112075452Y-102195333D01*
X112027833Y-102290571D01*
X112027833Y-102385809D01*
X112504023Y-102481047D01*
X111599261Y-102814380D02*
X111599261Y-101814380D01*
X111599261Y-102195333D02*
X111504023Y-102147714D01*
X111313547Y-102147714D01*
X111218309Y-102195333D01*
X111170690Y-102242952D01*
X111123071Y-102338190D01*
X111123071Y-102623904D01*
X111170690Y-102719142D01*
X111218309Y-102766761D01*
X111313547Y-102814380D01*
X111504023Y-102814380D01*
X111599261Y-102766761D01*
X110265928Y-102147714D02*
X110265928Y-102814380D01*
X110694500Y-102147714D02*
X110694500Y-102671523D01*
X110646880Y-102766761D01*
X110551642Y-102814380D01*
X110408785Y-102814380D01*
X110313547Y-102766761D01*
X110265928Y-102719142D01*
X109361166Y-102147714D02*
X109361166Y-102957238D01*
X109408785Y-103052476D01*
X109456404Y-103100095D01*
X109551642Y-103147714D01*
X109694500Y-103147714D01*
X109789738Y-103100095D01*
X109361166Y-102766761D02*
X109456404Y-102814380D01*
X109646880Y-102814380D01*
X109742119Y-102766761D01*
X109789738Y-102719142D01*
X109837357Y-102623904D01*
X109837357Y-102338190D01*
X109789738Y-102242952D01*
X109742119Y-102195333D01*
X109646880Y-102147714D01*
X109456404Y-102147714D01*
X109361166Y-102195333D01*
X108170690Y-101766761D02*
X109027833Y-103052476D01*
X107884976Y-102528666D02*
X107408785Y-102528666D01*
X107980214Y-102814380D02*
X107646880Y-101814380D01*
X107313547Y-102814380D01*
X106837357Y-102814380D02*
X106932595Y-102766761D01*
X106980214Y-102671523D01*
X106980214Y-101814380D01*
X106599261Y-102147714D02*
X106218309Y-102147714D01*
X106456404Y-101814380D02*
X106456404Y-102671523D01*
X106408785Y-102766761D01*
X106313547Y-102814380D01*
X106218309Y-102814380D01*
X105123071Y-102814380D02*
X105123071Y-101814380D01*
X104742119Y-101814380D01*
X104646880Y-101862000D01*
X104599261Y-101909619D01*
X104551642Y-102004857D01*
X104551642Y-102147714D01*
X104599261Y-102242952D01*
X104646880Y-102290571D01*
X104742119Y-102338190D01*
X105123071Y-102338190D01*
X103980214Y-102814380D02*
X104075452Y-102766761D01*
X104123071Y-102719142D01*
X104170690Y-102623904D01*
X104170690Y-102338190D01*
X104123071Y-102242952D01*
X104075452Y-102195333D01*
X103980214Y-102147714D01*
X103837357Y-102147714D01*
X103742119Y-102195333D01*
X103694500Y-102242952D01*
X103646880Y-102338190D01*
X103646880Y-102623904D01*
X103694500Y-102719142D01*
X103742119Y-102766761D01*
X103837357Y-102814380D01*
X103980214Y-102814380D01*
X103218309Y-102814380D02*
X103218309Y-102147714D01*
X103218309Y-102338190D02*
X103170690Y-102242952D01*
X103123071Y-102195333D01*
X103027833Y-102147714D01*
X102932595Y-102147714D01*
X102742119Y-102147714D02*
X102361166Y-102147714D01*
X102599261Y-101814380D02*
X102599261Y-102671523D01*
X102551642Y-102766761D01*
X102456404Y-102814380D01*
X102361166Y-102814380D01*
X134490761Y-95464880D02*
X133919333Y-95464880D01*
X134205047Y-96464880D02*
X134205047Y-95464880D01*
X133157428Y-96464880D02*
X133157428Y-95941071D01*
X133205047Y-95845833D01*
X133300285Y-95798214D01*
X133490761Y-95798214D01*
X133586000Y-95845833D01*
X133157428Y-96417261D02*
X133252666Y-96464880D01*
X133490761Y-96464880D01*
X133586000Y-96417261D01*
X133633619Y-96322023D01*
X133633619Y-96226785D01*
X133586000Y-96131547D01*
X133490761Y-96083928D01*
X133252666Y-96083928D01*
X133157428Y-96036309D01*
X132681238Y-96464880D02*
X132681238Y-95798214D01*
X132681238Y-95988690D02*
X132633619Y-95893452D01*
X132586000Y-95845833D01*
X132490761Y-95798214D01*
X132395523Y-95798214D01*
X131633619Y-95798214D02*
X131633619Y-96607738D01*
X131681238Y-96702976D01*
X131728857Y-96750595D01*
X131824095Y-96798214D01*
X131966952Y-96798214D01*
X132062190Y-96750595D01*
X131633619Y-96417261D02*
X131728857Y-96464880D01*
X131919333Y-96464880D01*
X132014571Y-96417261D01*
X132062190Y-96369642D01*
X132109809Y-96274404D01*
X132109809Y-95988690D01*
X132062190Y-95893452D01*
X132014571Y-95845833D01*
X131919333Y-95798214D01*
X131728857Y-95798214D01*
X131633619Y-95845833D01*
X130776476Y-96417261D02*
X130871714Y-96464880D01*
X131062190Y-96464880D01*
X131157428Y-96417261D01*
X131205047Y-96322023D01*
X131205047Y-95941071D01*
X131157428Y-95845833D01*
X131062190Y-95798214D01*
X130871714Y-95798214D01*
X130776476Y-95845833D01*
X130728857Y-95941071D01*
X130728857Y-96036309D01*
X131205047Y-96131547D01*
X130443142Y-95798214D02*
X130062190Y-95798214D01*
X130300285Y-95464880D02*
X130300285Y-96322023D01*
X130252666Y-96417261D01*
X130157428Y-96464880D01*
X130062190Y-96464880D01*
X128966952Y-95464880D02*
X128966952Y-96274404D01*
X128919333Y-96369642D01*
X128871714Y-96417261D01*
X128776476Y-96464880D01*
X128586000Y-96464880D01*
X128490761Y-96417261D01*
X128443142Y-96369642D01*
X128395523Y-96274404D01*
X128395523Y-95464880D01*
X127966952Y-96417261D02*
X127824095Y-96464880D01*
X127586000Y-96464880D01*
X127490761Y-96417261D01*
X127443142Y-96369642D01*
X127395523Y-96274404D01*
X127395523Y-96179166D01*
X127443142Y-96083928D01*
X127490761Y-96036309D01*
X127586000Y-95988690D01*
X127776476Y-95941071D01*
X127871714Y-95893452D01*
X127919333Y-95845833D01*
X127966952Y-95750595D01*
X127966952Y-95655357D01*
X127919333Y-95560119D01*
X127871714Y-95512500D01*
X127776476Y-95464880D01*
X127538380Y-95464880D01*
X127395523Y-95512500D01*
X126633619Y-95941071D02*
X126490761Y-95988690D01*
X126443142Y-96036309D01*
X126395523Y-96131547D01*
X126395523Y-96274404D01*
X126443142Y-96369642D01*
X126490761Y-96417261D01*
X126586000Y-96464880D01*
X126966952Y-96464880D01*
X126966952Y-95464880D01*
X126633619Y-95464880D01*
X126538380Y-95512500D01*
X126490761Y-95560119D01*
X126443142Y-95655357D01*
X126443142Y-95750595D01*
X126490761Y-95845833D01*
X126538380Y-95893452D01*
X126633619Y-95941071D01*
X126966952Y-95941071D01*
X125205047Y-96464880D02*
X125205047Y-95464880D01*
X124966952Y-95464880D01*
X124824095Y-95512500D01*
X124728857Y-95607738D01*
X124681238Y-95702976D01*
X124633619Y-95893452D01*
X124633619Y-96036309D01*
X124681238Y-96226785D01*
X124728857Y-96322023D01*
X124824095Y-96417261D01*
X124966952Y-96464880D01*
X125205047Y-96464880D01*
X123824095Y-96417261D02*
X123919333Y-96464880D01*
X124109809Y-96464880D01*
X124205047Y-96417261D01*
X124252666Y-96322023D01*
X124252666Y-95941071D01*
X124205047Y-95845833D01*
X124109809Y-95798214D01*
X123919333Y-95798214D01*
X123824095Y-95845833D01*
X123776476Y-95941071D01*
X123776476Y-96036309D01*
X124252666Y-96131547D01*
X123443142Y-95798214D02*
X123205047Y-96464880D01*
X122966952Y-95798214D01*
X122586000Y-96464880D02*
X122586000Y-95798214D01*
X122586000Y-95464880D02*
X122633619Y-95512500D01*
X122586000Y-95560119D01*
X122538380Y-95512500D01*
X122586000Y-95464880D01*
X122586000Y-95560119D01*
X121681238Y-96417261D02*
X121776476Y-96464880D01*
X121966952Y-96464880D01*
X122062190Y-96417261D01*
X122109809Y-96369642D01*
X122157428Y-96274404D01*
X122157428Y-95988690D01*
X122109809Y-95893452D01*
X122062190Y-95845833D01*
X121966952Y-95798214D01*
X121776476Y-95798214D01*
X121681238Y-95845833D01*
X120871714Y-96417261D02*
X120966952Y-96464880D01*
X121157428Y-96464880D01*
X121252666Y-96417261D01*
X121300285Y-96322023D01*
X121300285Y-95941071D01*
X121252666Y-95845833D01*
X121157428Y-95798214D01*
X120966952Y-95798214D01*
X120871714Y-95845833D01*
X120824095Y-95941071D01*
X120824095Y-96036309D01*
X121300285Y-96131547D01*
X134205047Y-98114880D02*
X134300285Y-98067261D01*
X134347904Y-98019642D01*
X134395523Y-97924404D01*
X134395523Y-97638690D01*
X134347904Y-97543452D01*
X134300285Y-97495833D01*
X134205047Y-97448214D01*
X134062190Y-97448214D01*
X133966952Y-97495833D01*
X133919333Y-97543452D01*
X133871714Y-97638690D01*
X133871714Y-97924404D01*
X133919333Y-98019642D01*
X133966952Y-98067261D01*
X134062190Y-98114880D01*
X134205047Y-98114880D01*
X133443142Y-98114880D02*
X133443142Y-97448214D01*
X133443142Y-97638690D02*
X133395523Y-97543452D01*
X133347904Y-97495833D01*
X133252666Y-97448214D01*
X133157428Y-97448214D01*
X132109809Y-97829166D02*
X131633619Y-97829166D01*
X132205047Y-98114880D02*
X131871714Y-97114880D01*
X131538380Y-98114880D01*
X131205047Y-97448214D02*
X131205047Y-98114880D01*
X131205047Y-97543452D02*
X131157428Y-97495833D01*
X131062190Y-97448214D01*
X130919333Y-97448214D01*
X130824095Y-97495833D01*
X130776476Y-97591071D01*
X130776476Y-98114880D01*
X129871714Y-98114880D02*
X129871714Y-97591071D01*
X129919333Y-97495833D01*
X130014571Y-97448214D01*
X130205047Y-97448214D01*
X130300285Y-97495833D01*
X129871714Y-98067261D02*
X129966952Y-98114880D01*
X130205047Y-98114880D01*
X130300285Y-98067261D01*
X130347904Y-97972023D01*
X130347904Y-97876785D01*
X130300285Y-97781547D01*
X130205047Y-97733928D01*
X129966952Y-97733928D01*
X129871714Y-97686309D01*
X129252666Y-98114880D02*
X129347904Y-98067261D01*
X129395523Y-97972023D01*
X129395523Y-97114880D01*
X128966952Y-97448214D02*
X128728857Y-98114880D01*
X128490761Y-97448214D02*
X128728857Y-98114880D01*
X128824095Y-98352976D01*
X128871714Y-98400595D01*
X128966952Y-98448214D01*
X128157428Y-98067261D02*
X128062190Y-98114880D01*
X127871714Y-98114880D01*
X127776476Y-98067261D01*
X127728857Y-97972023D01*
X127728857Y-97924404D01*
X127776476Y-97829166D01*
X127871714Y-97781547D01*
X128014571Y-97781547D01*
X128109809Y-97733928D01*
X128157428Y-97638690D01*
X128157428Y-97591071D01*
X128109809Y-97495833D01*
X128014571Y-97448214D01*
X127871714Y-97448214D01*
X127776476Y-97495833D01*
X127300285Y-98114880D02*
X127300285Y-97448214D01*
X127300285Y-97114880D02*
X127347904Y-97162500D01*
X127300285Y-97210119D01*
X127252666Y-97162500D01*
X127300285Y-97114880D01*
X127300285Y-97210119D01*
X126871714Y-98067261D02*
X126776476Y-98114880D01*
X126586000Y-98114880D01*
X126490761Y-98067261D01*
X126443142Y-97972023D01*
X126443142Y-97924404D01*
X126490761Y-97829166D01*
X126586000Y-97781547D01*
X126728857Y-97781547D01*
X126824095Y-97733928D01*
X126871714Y-97638690D01*
X126871714Y-97591071D01*
X126824095Y-97495833D01*
X126728857Y-97448214D01*
X126586000Y-97448214D01*
X126490761Y-97495833D01*
X125252666Y-98114880D02*
X125252666Y-97114880D01*
X124871714Y-97114880D01*
X124776476Y-97162500D01*
X124728857Y-97210119D01*
X124681238Y-97305357D01*
X124681238Y-97448214D01*
X124728857Y-97543452D01*
X124776476Y-97591071D01*
X124871714Y-97638690D01*
X125252666Y-97638690D01*
X124109809Y-98114880D02*
X124205047Y-98067261D01*
X124252666Y-98019642D01*
X124300285Y-97924404D01*
X124300285Y-97638690D01*
X124252666Y-97543452D01*
X124205047Y-97495833D01*
X124109809Y-97448214D01*
X123966952Y-97448214D01*
X123871714Y-97495833D01*
X123824095Y-97543452D01*
X123776476Y-97638690D01*
X123776476Y-97924404D01*
X123824095Y-98019642D01*
X123871714Y-98067261D01*
X123966952Y-98114880D01*
X124109809Y-98114880D01*
X123347904Y-98114880D02*
X123347904Y-97448214D01*
X123347904Y-97638690D02*
X123300285Y-97543452D01*
X123252666Y-97495833D01*
X123157428Y-97448214D01*
X123062190Y-97448214D01*
X122871714Y-97448214D02*
X122490761Y-97448214D01*
X122728857Y-97114880D02*
X122728857Y-97972023D01*
X122681238Y-98067261D01*
X122586000Y-98114880D01*
X122490761Y-98114880D01*
X121062190Y-97591071D02*
X120919333Y-97638690D01*
X120871714Y-97686309D01*
X120824095Y-97781547D01*
X120824095Y-97924404D01*
X120871714Y-98019642D01*
X120919333Y-98067261D01*
X121014571Y-98114880D01*
X121395523Y-98114880D01*
X121395523Y-97114880D01*
X121062190Y-97114880D01*
X120966952Y-97162500D01*
X120919333Y-97210119D01*
X120871714Y-97305357D01*
X120871714Y-97400595D01*
X120919333Y-97495833D01*
X120966952Y-97543452D01*
X121062190Y-97591071D01*
X121395523Y-97591071D01*
D11*
X131572000Y-81788000D02*
X131572000Y-86106000D01*
X130429000Y-93091000D02*
X130429000Y-81788000D01*
X130556000Y-93091000D02*
X130429000Y-93091000D01*
X135128000Y-93091000D02*
X130556000Y-93091000D01*
X131572000Y-87376000D02*
X132334000Y-86233000D01*
X131572000Y-91948000D02*
X131572000Y-87376000D01*
X131699000Y-91948000D02*
X131572000Y-91948000D01*
X135128000Y-91948000D02*
X131699000Y-91948000D01*
X131191000Y-92329000D02*
X131191000Y-81788000D01*
X135128000Y-92329000D02*
X131191000Y-92329000D01*
X130810000Y-92710000D02*
X130810000Y-81788000D01*
X131191000Y-92710000D02*
X130810000Y-92710000D01*
X131191000Y-92710000D02*
X135128000Y-92710000D01*
X97790000Y-102108000D02*
X92075000Y-102108000D01*
X97790000Y-93853000D02*
X97790000Y-102108000D01*
X92075000Y-93853000D02*
X97790000Y-93853000D01*
X97917000Y-89027000D02*
X92075000Y-89027000D01*
X97917000Y-80772000D02*
X97917000Y-89027000D01*
X92075000Y-80772000D02*
X97917000Y-80772000D01*
X135128000Y-96901000D02*
X140970000Y-96901000D01*
X135128000Y-88646000D02*
X135128000Y-96901000D01*
X140970000Y-88646000D02*
X135128000Y-88646000D01*
X126492000Y-81788000D02*
X140970000Y-81788000D01*
X126492000Y-68834000D02*
X126492000Y-81788000D01*
X140970000Y-68834000D02*
X126492000Y-68834000D01*
D14*
G36*
X117277114Y-99104505D02*
G01*
X117202461Y-99141727D01*
X117136569Y-99210261D01*
X117118423Y-99235648D01*
X117098655Y-99268866D01*
X117085828Y-99304945D01*
X117078490Y-99353098D01*
X117075187Y-99422536D01*
X117074462Y-99514206D01*
X117077737Y-99639830D01*
X117089123Y-99734154D01*
X117110959Y-99804523D01*
X117145581Y-99858286D01*
X117195330Y-99902788D01*
X117198986Y-99905423D01*
X117248015Y-99932377D01*
X117307055Y-99945712D01*
X117382141Y-99949000D01*
X117504205Y-99949000D01*
X117504256Y-100067497D01*
X117505392Y-100133492D01*
X117512314Y-100172202D01*
X117530402Y-100195419D01*
X117565038Y-100214933D01*
X117573355Y-100218920D01*
X117612280Y-100237603D01*
X117642417Y-100249403D01*
X117664826Y-100250422D01*
X117680567Y-100236761D01*
X117690698Y-100204522D01*
X117696277Y-100149804D01*
X117698365Y-100068711D01*
X117698019Y-99957344D01*
X117696300Y-99811802D01*
X117695763Y-99768269D01*
X117693828Y-99618205D01*
X117692096Y-99520042D01*
X117504308Y-99520042D01*
X117503252Y-99603364D01*
X117498562Y-99657880D01*
X117487949Y-99693837D01*
X117469128Y-99721482D01*
X117456350Y-99734965D01*
X117404110Y-99774417D01*
X117357858Y-99777628D01*
X117310133Y-99745049D01*
X117308923Y-99743846D01*
X117289506Y-99718668D01*
X117277693Y-99684447D01*
X117271735Y-99631748D01*
X117269880Y-99551131D01*
X117269846Y-99533271D01*
X117274330Y-99422175D01*
X117288926Y-99345161D01*
X117315350Y-99298147D01*
X117355317Y-99277050D01*
X117378416Y-99274923D01*
X117433238Y-99284900D01*
X117470842Y-99317752D01*
X117493477Y-99377857D01*
X117503394Y-99469598D01*
X117504308Y-99520042D01*
X117692096Y-99520042D01*
X117691778Y-99502060D01*
X117689127Y-99414679D01*
X117685394Y-99350905D01*
X117680093Y-99305582D01*
X117672742Y-99273555D01*
X117662857Y-99249668D01*
X117649954Y-99228764D01*
X117644421Y-99220898D01*
X117571031Y-99146595D01*
X117478240Y-99104467D01*
X117370904Y-99092722D01*
X117277114Y-99104505D01*
X117277114Y-99104505D01*
G37*
X117277114Y-99104505D02*
X117202461Y-99141727D01*
X117136569Y-99210261D01*
X117118423Y-99235648D01*
X117098655Y-99268866D01*
X117085828Y-99304945D01*
X117078490Y-99353098D01*
X117075187Y-99422536D01*
X117074462Y-99514206D01*
X117077737Y-99639830D01*
X117089123Y-99734154D01*
X117110959Y-99804523D01*
X117145581Y-99858286D01*
X117195330Y-99902788D01*
X117198986Y-99905423D01*
X117248015Y-99932377D01*
X117307055Y-99945712D01*
X117382141Y-99949000D01*
X117504205Y-99949000D01*
X117504256Y-100067497D01*
X117505392Y-100133492D01*
X117512314Y-100172202D01*
X117530402Y-100195419D01*
X117565038Y-100214933D01*
X117573355Y-100218920D01*
X117612280Y-100237603D01*
X117642417Y-100249403D01*
X117664826Y-100250422D01*
X117680567Y-100236761D01*
X117690698Y-100204522D01*
X117696277Y-100149804D01*
X117698365Y-100068711D01*
X117698019Y-99957344D01*
X117696300Y-99811802D01*
X117695763Y-99768269D01*
X117693828Y-99618205D01*
X117692096Y-99520042D01*
X117504308Y-99520042D01*
X117503252Y-99603364D01*
X117498562Y-99657880D01*
X117487949Y-99693837D01*
X117469128Y-99721482D01*
X117456350Y-99734965D01*
X117404110Y-99774417D01*
X117357858Y-99777628D01*
X117310133Y-99745049D01*
X117308923Y-99743846D01*
X117289506Y-99718668D01*
X117277693Y-99684447D01*
X117271735Y-99631748D01*
X117269880Y-99551131D01*
X117269846Y-99533271D01*
X117274330Y-99422175D01*
X117288926Y-99345161D01*
X117315350Y-99298147D01*
X117355317Y-99277050D01*
X117378416Y-99274923D01*
X117433238Y-99284900D01*
X117470842Y-99317752D01*
X117493477Y-99377857D01*
X117503394Y-99469598D01*
X117504308Y-99520042D01*
X117692096Y-99520042D01*
X117691778Y-99502060D01*
X117689127Y-99414679D01*
X117685394Y-99350905D01*
X117680093Y-99305582D01*
X117672742Y-99273555D01*
X117662857Y-99249668D01*
X117649954Y-99228764D01*
X117644421Y-99220898D01*
X117571031Y-99146595D01*
X117478240Y-99104467D01*
X117370904Y-99092722D01*
X117277114Y-99104505D01*
G36*
X115774336Y-99115089D02*
G01*
X115711633Y-99151358D01*
X115668039Y-99187358D01*
X115636155Y-99225075D01*
X115614190Y-99271199D01*
X115600351Y-99332421D01*
X115592847Y-99415431D01*
X115589883Y-99526919D01*
X115589539Y-99607062D01*
X115589539Y-99902065D01*
X115755615Y-99976515D01*
X115765385Y-99653402D01*
X115769421Y-99532729D01*
X115773656Y-99445141D01*
X115778903Y-99384650D01*
X115785975Y-99345268D01*
X115795689Y-99321007D01*
X115808856Y-99305880D01*
X115813081Y-99302606D01*
X115877091Y-99277034D01*
X115941792Y-99287153D01*
X115980308Y-99314000D01*
X115995975Y-99333024D01*
X116006820Y-99357988D01*
X116013712Y-99395834D01*
X116017521Y-99453502D01*
X116019117Y-99537935D01*
X116019385Y-99625928D01*
X116019437Y-99736323D01*
X116021328Y-99814463D01*
X116027655Y-99867165D01*
X116041017Y-99901242D01*
X116064015Y-99923511D01*
X116099246Y-99940787D01*
X116146303Y-99958738D01*
X116197697Y-99978278D01*
X116191579Y-99631485D01*
X116189116Y-99506468D01*
X116186233Y-99414082D01*
X116182102Y-99347881D01*
X116175893Y-99301420D01*
X116166774Y-99268256D01*
X116153917Y-99241944D01*
X116138416Y-99218729D01*
X116063629Y-99144569D01*
X115972372Y-99101684D01*
X115873117Y-99091412D01*
X115774336Y-99115089D01*
X115774336Y-99115089D01*
G37*
X115774336Y-99115089D02*
X115711633Y-99151358D01*
X115668039Y-99187358D01*
X115636155Y-99225075D01*
X115614190Y-99271199D01*
X115600351Y-99332421D01*
X115592847Y-99415431D01*
X115589883Y-99526919D01*
X115589539Y-99607062D01*
X115589539Y-99902065D01*
X115755615Y-99976515D01*
X115765385Y-99653402D01*
X115769421Y-99532729D01*
X115773656Y-99445141D01*
X115778903Y-99384650D01*
X115785975Y-99345268D01*
X115795689Y-99321007D01*
X115808856Y-99305880D01*
X115813081Y-99302606D01*
X115877091Y-99277034D01*
X115941792Y-99287153D01*
X115980308Y-99314000D01*
X115995975Y-99333024D01*
X116006820Y-99357988D01*
X116013712Y-99395834D01*
X116017521Y-99453502D01*
X116019117Y-99537935D01*
X116019385Y-99625928D01*
X116019437Y-99736323D01*
X116021328Y-99814463D01*
X116027655Y-99867165D01*
X116041017Y-99901242D01*
X116064015Y-99923511D01*
X116099246Y-99940787D01*
X116146303Y-99958738D01*
X116197697Y-99978278D01*
X116191579Y-99631485D01*
X116189116Y-99506468D01*
X116186233Y-99414082D01*
X116182102Y-99347881D01*
X116175893Y-99301420D01*
X116166774Y-99268256D01*
X116153917Y-99241944D01*
X116138416Y-99218729D01*
X116063629Y-99144569D01*
X115972372Y-99101684D01*
X115873117Y-99091412D01*
X115774336Y-99115089D01*
G36*
X118029114Y-99107256D02*
G01*
X117937536Y-99155409D01*
X117869951Y-99232905D01*
X117845943Y-99282727D01*
X117827262Y-99357533D01*
X117817699Y-99452052D01*
X117816792Y-99555210D01*
X117824079Y-99655935D01*
X117839097Y-99743153D01*
X117861385Y-99805791D01*
X117868235Y-99816579D01*
X117949368Y-99897105D01*
X118045734Y-99945336D01*
X118150299Y-99959450D01*
X118256032Y-99937629D01*
X118285457Y-99924547D01*
X118342759Y-99884231D01*
X118393050Y-99830775D01*
X118397803Y-99823995D01*
X118417122Y-99791321D01*
X118429892Y-99756394D01*
X118437436Y-99710414D01*
X118441076Y-99644584D01*
X118442135Y-99550105D01*
X118442154Y-99528923D01*
X118442106Y-99522182D01*
X118246769Y-99522182D01*
X118245632Y-99611349D01*
X118241159Y-99670520D01*
X118231754Y-99708741D01*
X118215824Y-99735053D01*
X118207692Y-99743846D01*
X118160942Y-99777261D01*
X118115553Y-99775737D01*
X118069660Y-99746752D01*
X118042288Y-99715809D01*
X118026077Y-99670643D01*
X118016974Y-99599420D01*
X118016349Y-99591114D01*
X118014796Y-99462037D01*
X118031035Y-99366172D01*
X118064848Y-99304107D01*
X118116016Y-99276432D01*
X118134280Y-99274923D01*
X118182240Y-99282513D01*
X118215047Y-99308808D01*
X118235105Y-99359095D01*
X118244822Y-99438664D01*
X118246769Y-99522182D01*
X118442106Y-99522182D01*
X118441426Y-99428249D01*
X118438371Y-99357906D01*
X118431678Y-99309163D01*
X118420040Y-99273288D01*
X118402147Y-99241548D01*
X118398192Y-99235648D01*
X118331733Y-99156104D01*
X118259315Y-99109929D01*
X118171151Y-99091599D01*
X118141213Y-99090703D01*
X118029114Y-99107256D01*
X118029114Y-99107256D01*
G37*
X118029114Y-99107256D02*
X117937536Y-99155409D01*
X117869951Y-99232905D01*
X117845943Y-99282727D01*
X117827262Y-99357533D01*
X117817699Y-99452052D01*
X117816792Y-99555210D01*
X117824079Y-99655935D01*
X117839097Y-99743153D01*
X117861385Y-99805791D01*
X117868235Y-99816579D01*
X117949368Y-99897105D01*
X118045734Y-99945336D01*
X118150299Y-99959450D01*
X118256032Y-99937629D01*
X118285457Y-99924547D01*
X118342759Y-99884231D01*
X118393050Y-99830775D01*
X118397803Y-99823995D01*
X118417122Y-99791321D01*
X118429892Y-99756394D01*
X118437436Y-99710414D01*
X118441076Y-99644584D01*
X118442135Y-99550105D01*
X118442154Y-99528923D01*
X118442106Y-99522182D01*
X118246769Y-99522182D01*
X118245632Y-99611349D01*
X118241159Y-99670520D01*
X118231754Y-99708741D01*
X118215824Y-99735053D01*
X118207692Y-99743846D01*
X118160942Y-99777261D01*
X118115553Y-99775737D01*
X118069660Y-99746752D01*
X118042288Y-99715809D01*
X118026077Y-99670643D01*
X118016974Y-99599420D01*
X118016349Y-99591114D01*
X118014796Y-99462037D01*
X118031035Y-99366172D01*
X118064848Y-99304107D01*
X118116016Y-99276432D01*
X118134280Y-99274923D01*
X118182240Y-99282513D01*
X118215047Y-99308808D01*
X118235105Y-99359095D01*
X118244822Y-99438664D01*
X118246769Y-99522182D01*
X118442106Y-99522182D01*
X118441426Y-99428249D01*
X118438371Y-99357906D01*
X118431678Y-99309163D01*
X118420040Y-99273288D01*
X118402147Y-99241548D01*
X118398192Y-99235648D01*
X118331733Y-99156104D01*
X118259315Y-99109929D01*
X118171151Y-99091599D01*
X118141213Y-99090703D01*
X118029114Y-99107256D01*
G36*
X116511746Y-99119745D02*
G01*
X116434714Y-99171567D01*
X116375184Y-99246412D01*
X116339622Y-99341654D01*
X116332429Y-99411756D01*
X116333246Y-99441009D01*
X116340086Y-99463407D01*
X116358888Y-99483474D01*
X116395592Y-99505733D01*
X116456138Y-99534709D01*
X116546466Y-99574927D01*
X116546923Y-99575129D01*
X116630067Y-99613210D01*
X116698247Y-99647025D01*
X116744495Y-99672933D01*
X116761842Y-99687295D01*
X116761846Y-99687411D01*
X116746557Y-99718685D01*
X116710804Y-99753157D01*
X116669758Y-99777990D01*
X116648963Y-99782923D01*
X116592230Y-99765862D01*
X116543373Y-99723133D01*
X116519535Y-99676155D01*
X116496603Y-99641522D01*
X116451682Y-99602081D01*
X116398877Y-99568009D01*
X116352290Y-99549480D01*
X116342548Y-99548462D01*
X116331582Y-99565215D01*
X116330921Y-99608039D01*
X116338980Y-99665781D01*
X116354173Y-99727289D01*
X116374914Y-99781409D01*
X116375962Y-99783510D01*
X116438379Y-99870660D01*
X116519274Y-99929939D01*
X116611144Y-99959034D01*
X116706487Y-99955634D01*
X116797802Y-99917428D01*
X116801862Y-99914741D01*
X116873694Y-99849642D01*
X116920927Y-99764705D01*
X116947066Y-99653021D01*
X116950574Y-99621643D01*
X116956787Y-99473536D01*
X116949339Y-99404468D01*
X116761846Y-99404468D01*
X116759410Y-99447552D01*
X116746086Y-99460126D01*
X116712868Y-99450719D01*
X116660506Y-99428483D01*
X116601976Y-99400610D01*
X116600521Y-99399872D01*
X116550911Y-99373777D01*
X116531000Y-99356363D01*
X116535910Y-99338107D01*
X116556584Y-99314120D01*
X116609181Y-99279406D01*
X116665823Y-99276856D01*
X116716631Y-99302119D01*
X116751724Y-99350847D01*
X116761846Y-99404468D01*
X116949339Y-99404468D01*
X116944008Y-99355036D01*
X116911222Y-99261055D01*
X116865579Y-99195215D01*
X116783198Y-99128681D01*
X116692454Y-99095676D01*
X116599815Y-99093573D01*
X116511746Y-99119745D01*
X116511746Y-99119745D01*
G37*
X116511746Y-99119745D02*
X116434714Y-99171567D01*
X116375184Y-99246412D01*
X116339622Y-99341654D01*
X116332429Y-99411756D01*
X116333246Y-99441009D01*
X116340086Y-99463407D01*
X116358888Y-99483474D01*
X116395592Y-99505733D01*
X116456138Y-99534709D01*
X116546466Y-99574927D01*
X116546923Y-99575129D01*
X116630067Y-99613210D01*
X116698247Y-99647025D01*
X116744495Y-99672933D01*
X116761842Y-99687295D01*
X116761846Y-99687411D01*
X116746557Y-99718685D01*
X116710804Y-99753157D01*
X116669758Y-99777990D01*
X116648963Y-99782923D01*
X116592230Y-99765862D01*
X116543373Y-99723133D01*
X116519535Y-99676155D01*
X116496603Y-99641522D01*
X116451682Y-99602081D01*
X116398877Y-99568009D01*
X116352290Y-99549480D01*
X116342548Y-99548462D01*
X116331582Y-99565215D01*
X116330921Y-99608039D01*
X116338980Y-99665781D01*
X116354173Y-99727289D01*
X116374914Y-99781409D01*
X116375962Y-99783510D01*
X116438379Y-99870660D01*
X116519274Y-99929939D01*
X116611144Y-99959034D01*
X116706487Y-99955634D01*
X116797802Y-99917428D01*
X116801862Y-99914741D01*
X116873694Y-99849642D01*
X116920927Y-99764705D01*
X116947066Y-99653021D01*
X116950574Y-99621643D01*
X116956787Y-99473536D01*
X116949339Y-99404468D01*
X116761846Y-99404468D01*
X116759410Y-99447552D01*
X116746086Y-99460126D01*
X116712868Y-99450719D01*
X116660506Y-99428483D01*
X116601976Y-99400610D01*
X116600521Y-99399872D01*
X116550911Y-99373777D01*
X116531000Y-99356363D01*
X116535910Y-99338107D01*
X116556584Y-99314120D01*
X116609181Y-99279406D01*
X116665823Y-99276856D01*
X116716631Y-99302119D01*
X116751724Y-99350847D01*
X116761846Y-99404468D01*
X116949339Y-99404468D01*
X116944008Y-99355036D01*
X116911222Y-99261055D01*
X116865579Y-99195215D01*
X116783198Y-99128681D01*
X116692454Y-99095676D01*
X116599815Y-99093573D01*
X116511746Y-99119745D01*
G36*
X114886154Y-99012120D02*
G01*
X114880428Y-99091980D01*
X114873851Y-99139039D01*
X114864738Y-99159566D01*
X114851402Y-99159829D01*
X114847077Y-99157378D01*
X114789556Y-99139636D01*
X114714732Y-99140672D01*
X114638661Y-99158910D01*
X114591082Y-99182505D01*
X114542298Y-99220198D01*
X114506636Y-99262855D01*
X114482155Y-99317057D01*
X114466913Y-99389384D01*
X114458970Y-99486419D01*
X114456384Y-99614742D01*
X114456338Y-99639358D01*
X114456308Y-99915870D01*
X114517839Y-99937320D01*
X114561541Y-99951912D01*
X114585518Y-99958706D01*
X114586223Y-99958769D01*
X114588585Y-99940345D01*
X114590594Y-99889526D01*
X114592099Y-99812993D01*
X114592947Y-99717430D01*
X114593077Y-99659329D01*
X114593349Y-99544771D01*
X114594748Y-99462667D01*
X114598151Y-99406393D01*
X114604433Y-99369326D01*
X114614471Y-99344844D01*
X114629139Y-99326325D01*
X114638298Y-99317406D01*
X114701211Y-99281466D01*
X114769864Y-99278775D01*
X114832152Y-99309170D01*
X114843671Y-99320144D01*
X114860567Y-99340779D01*
X114872286Y-99365256D01*
X114879767Y-99400647D01*
X114883946Y-99454026D01*
X114885763Y-99532466D01*
X114886154Y-99640617D01*
X114886154Y-99915870D01*
X114947685Y-99937320D01*
X114991387Y-99951912D01*
X115015364Y-99958706D01*
X115016070Y-99958769D01*
X115017874Y-99940069D01*
X115019500Y-99887322D01*
X115020883Y-99805557D01*
X115021958Y-99699805D01*
X115022660Y-99575094D01*
X115022923Y-99436455D01*
X115022923Y-98901806D01*
X114895923Y-98848236D01*
X114886154Y-99012120D01*
X114886154Y-99012120D01*
G37*
X114886154Y-99012120D02*
X114880428Y-99091980D01*
X114873851Y-99139039D01*
X114864738Y-99159566D01*
X114851402Y-99159829D01*
X114847077Y-99157378D01*
X114789556Y-99139636D01*
X114714732Y-99140672D01*
X114638661Y-99158910D01*
X114591082Y-99182505D01*
X114542298Y-99220198D01*
X114506636Y-99262855D01*
X114482155Y-99317057D01*
X114466913Y-99389384D01*
X114458970Y-99486419D01*
X114456384Y-99614742D01*
X114456338Y-99639358D01*
X114456308Y-99915870D01*
X114517839Y-99937320D01*
X114561541Y-99951912D01*
X114585518Y-99958706D01*
X114586223Y-99958769D01*
X114588585Y-99940345D01*
X114590594Y-99889526D01*
X114592099Y-99812993D01*
X114592947Y-99717430D01*
X114593077Y-99659329D01*
X114593349Y-99544771D01*
X114594748Y-99462667D01*
X114598151Y-99406393D01*
X114604433Y-99369326D01*
X114614471Y-99344844D01*
X114629139Y-99326325D01*
X114638298Y-99317406D01*
X114701211Y-99281466D01*
X114769864Y-99278775D01*
X114832152Y-99309170D01*
X114843671Y-99320144D01*
X114860567Y-99340779D01*
X114872286Y-99365256D01*
X114879767Y-99400647D01*
X114883946Y-99454026D01*
X114885763Y-99532466D01*
X114886154Y-99640617D01*
X114886154Y-99915870D01*
X114947685Y-99937320D01*
X114991387Y-99951912D01*
X115015364Y-99958706D01*
X115016070Y-99958769D01*
X115017874Y-99940069D01*
X115019500Y-99887322D01*
X115020883Y-99805557D01*
X115021958Y-99699805D01*
X115022660Y-99575094D01*
X115022923Y-99436455D01*
X115022923Y-98901806D01*
X114895923Y-98848236D01*
X114886154Y-99012120D01*
G36*
X113992499Y-99146303D02*
G01*
X113915940Y-99174733D01*
X113915064Y-99175279D01*
X113867715Y-99210127D01*
X113832759Y-99250852D01*
X113808175Y-99303925D01*
X113791938Y-99375814D01*
X113782025Y-99472992D01*
X113776414Y-99601928D01*
X113775923Y-99620298D01*
X113768859Y-99897287D01*
X113828305Y-99928028D01*
X113871319Y-99948802D01*
X113897290Y-99958646D01*
X113898491Y-99958769D01*
X113902986Y-99940606D01*
X113906556Y-99891612D01*
X113908752Y-99820031D01*
X113909231Y-99762068D01*
X113909242Y-99668170D01*
X113913534Y-99609203D01*
X113928497Y-99581079D01*
X113960518Y-99579706D01*
X114015986Y-99600998D01*
X114099731Y-99640136D01*
X114161311Y-99672643D01*
X114192983Y-99700845D01*
X114202294Y-99731582D01*
X114202308Y-99733104D01*
X114186943Y-99786054D01*
X114141453Y-99814660D01*
X114071834Y-99818803D01*
X114021687Y-99818084D01*
X113995246Y-99832527D01*
X113978757Y-99867218D01*
X113969267Y-99911416D01*
X113982943Y-99936493D01*
X113988093Y-99940082D01*
X114036575Y-99954496D01*
X114104469Y-99956537D01*
X114174388Y-99946983D01*
X114223932Y-99929522D01*
X114292430Y-99871364D01*
X114331366Y-99790408D01*
X114339077Y-99727160D01*
X114333193Y-99670111D01*
X114311899Y-99623542D01*
X114269735Y-99582181D01*
X114201241Y-99540755D01*
X114100956Y-99493993D01*
X114094846Y-99491350D01*
X114004510Y-99449617D01*
X113948765Y-99415391D01*
X113924871Y-99384635D01*
X113930087Y-99353311D01*
X113961672Y-99317383D01*
X113971117Y-99309116D01*
X114034383Y-99277058D01*
X114099936Y-99278407D01*
X114157028Y-99309838D01*
X114194907Y-99368024D01*
X114198426Y-99379446D01*
X114232700Y-99434837D01*
X114276191Y-99461518D01*
X114339077Y-99487960D01*
X114339077Y-99419548D01*
X114319948Y-99320110D01*
X114263169Y-99228902D01*
X114233622Y-99198389D01*
X114166458Y-99159228D01*
X114081044Y-99141500D01*
X113992499Y-99146303D01*
X113992499Y-99146303D01*
G37*
X113992499Y-99146303D02*
X113915940Y-99174733D01*
X113915064Y-99175279D01*
X113867715Y-99210127D01*
X113832759Y-99250852D01*
X113808175Y-99303925D01*
X113791938Y-99375814D01*
X113782025Y-99472992D01*
X113776414Y-99601928D01*
X113775923Y-99620298D01*
X113768859Y-99897287D01*
X113828305Y-99928028D01*
X113871319Y-99948802D01*
X113897290Y-99958646D01*
X113898491Y-99958769D01*
X113902986Y-99940606D01*
X113906556Y-99891612D01*
X113908752Y-99820031D01*
X113909231Y-99762068D01*
X113909242Y-99668170D01*
X113913534Y-99609203D01*
X113928497Y-99581079D01*
X113960518Y-99579706D01*
X114015986Y-99600998D01*
X114099731Y-99640136D01*
X114161311Y-99672643D01*
X114192983Y-99700845D01*
X114202294Y-99731582D01*
X114202308Y-99733104D01*
X114186943Y-99786054D01*
X114141453Y-99814660D01*
X114071834Y-99818803D01*
X114021687Y-99818084D01*
X113995246Y-99832527D01*
X113978757Y-99867218D01*
X113969267Y-99911416D01*
X113982943Y-99936493D01*
X113988093Y-99940082D01*
X114036575Y-99954496D01*
X114104469Y-99956537D01*
X114174388Y-99946983D01*
X114223932Y-99929522D01*
X114292430Y-99871364D01*
X114331366Y-99790408D01*
X114339077Y-99727160D01*
X114333193Y-99670111D01*
X114311899Y-99623542D01*
X114269735Y-99582181D01*
X114201241Y-99540755D01*
X114100956Y-99493993D01*
X114094846Y-99491350D01*
X114004510Y-99449617D01*
X113948765Y-99415391D01*
X113924871Y-99384635D01*
X113930087Y-99353311D01*
X113961672Y-99317383D01*
X113971117Y-99309116D01*
X114034383Y-99277058D01*
X114099936Y-99278407D01*
X114157028Y-99309838D01*
X114194907Y-99368024D01*
X114198426Y-99379446D01*
X114232700Y-99434837D01*
X114276191Y-99461518D01*
X114339077Y-99487960D01*
X114339077Y-99419548D01*
X114319948Y-99320110D01*
X114263169Y-99228902D01*
X114233622Y-99198389D01*
X114166458Y-99159228D01*
X114081044Y-99141500D01*
X113992499Y-99146303D01*
G36*
X113332638Y-99144670D02*
G01*
X113243883Y-99177421D01*
X113171978Y-99235350D01*
X113143856Y-99276128D01*
X113113198Y-99350954D01*
X113113835Y-99405058D01*
X113146013Y-99441446D01*
X113157919Y-99447633D01*
X113209325Y-99466925D01*
X113235578Y-99461982D01*
X113244470Y-99429587D01*
X113244923Y-99411692D01*
X113261203Y-99345859D01*
X113303635Y-99299807D01*
X113362612Y-99277564D01*
X113428525Y-99283161D01*
X113482105Y-99312229D01*
X113500202Y-99328810D01*
X113513029Y-99348925D01*
X113521694Y-99379332D01*
X113527304Y-99426788D01*
X113530965Y-99498050D01*
X113533785Y-99599875D01*
X113534516Y-99632115D01*
X113537180Y-99742410D01*
X113540208Y-99820036D01*
X113544750Y-99871396D01*
X113551954Y-99902890D01*
X113562967Y-99920920D01*
X113578940Y-99931888D01*
X113589166Y-99936733D01*
X113632594Y-99953301D01*
X113658158Y-99958769D01*
X113666605Y-99940507D01*
X113671761Y-99885296D01*
X113673654Y-99792499D01*
X113672311Y-99661478D01*
X113671893Y-99641269D01*
X113668942Y-99521733D01*
X113665452Y-99434449D01*
X113660486Y-99372591D01*
X113653107Y-99329336D01*
X113642376Y-99297860D01*
X113627355Y-99271339D01*
X113619498Y-99259975D01*
X113574447Y-99209692D01*
X113524060Y-99170581D01*
X113517892Y-99167167D01*
X113427542Y-99140212D01*
X113332638Y-99144670D01*
X113332638Y-99144670D01*
G37*
X113332638Y-99144670D02*
X113243883Y-99177421D01*
X113171978Y-99235350D01*
X113143856Y-99276128D01*
X113113198Y-99350954D01*
X113113835Y-99405058D01*
X113146013Y-99441446D01*
X113157919Y-99447633D01*
X113209325Y-99466925D01*
X113235578Y-99461982D01*
X113244470Y-99429587D01*
X113244923Y-99411692D01*
X113261203Y-99345859D01*
X113303635Y-99299807D01*
X113362612Y-99277564D01*
X113428525Y-99283161D01*
X113482105Y-99312229D01*
X113500202Y-99328810D01*
X113513029Y-99348925D01*
X113521694Y-99379332D01*
X113527304Y-99426788D01*
X113530965Y-99498050D01*
X113533785Y-99599875D01*
X113534516Y-99632115D01*
X113537180Y-99742410D01*
X113540208Y-99820036D01*
X113544750Y-99871396D01*
X113551954Y-99902890D01*
X113562967Y-99920920D01*
X113578940Y-99931888D01*
X113589166Y-99936733D01*
X113632594Y-99953301D01*
X113658158Y-99958769D01*
X113666605Y-99940507D01*
X113671761Y-99885296D01*
X113673654Y-99792499D01*
X113672311Y-99661478D01*
X113671893Y-99641269D01*
X113668942Y-99521733D01*
X113665452Y-99434449D01*
X113660486Y-99372591D01*
X113653107Y-99329336D01*
X113642376Y-99297860D01*
X113627355Y-99271339D01*
X113619498Y-99259975D01*
X113574447Y-99209692D01*
X113524060Y-99170581D01*
X113517892Y-99167167D01*
X113427542Y-99140212D01*
X113332638Y-99144670D01*
G36*
X112443919Y-99300289D02*
G01*
X112444167Y-99446320D01*
X112445128Y-99558655D01*
X112447206Y-99642678D01*
X112450807Y-99703769D01*
X112456335Y-99747309D01*
X112464196Y-99778679D01*
X112474793Y-99803262D01*
X112482818Y-99817294D01*
X112549272Y-99893388D01*
X112633530Y-99941084D01*
X112726751Y-99958199D01*
X112820100Y-99942546D01*
X112875688Y-99914418D01*
X112934043Y-99865760D01*
X112973814Y-99806333D01*
X112997810Y-99728507D01*
X113008839Y-99624652D01*
X113010401Y-99548462D01*
X113010191Y-99542986D01*
X112873692Y-99542986D01*
X112872859Y-99630355D01*
X112869039Y-99688192D01*
X112860254Y-99726029D01*
X112844526Y-99753398D01*
X112825734Y-99774042D01*
X112762625Y-99813890D01*
X112694863Y-99817295D01*
X112630821Y-99784025D01*
X112625836Y-99779517D01*
X112604561Y-99756067D01*
X112591221Y-99728166D01*
X112583999Y-99686641D01*
X112581077Y-99622316D01*
X112580615Y-99551200D01*
X112581617Y-99461858D01*
X112585762Y-99402258D01*
X112594764Y-99363089D01*
X112610333Y-99335040D01*
X112623098Y-99320144D01*
X112682400Y-99282575D01*
X112750699Y-99278057D01*
X112815890Y-99306753D01*
X112828472Y-99317406D01*
X112849889Y-99341063D01*
X112863256Y-99369251D01*
X112870434Y-99411245D01*
X112873281Y-99476319D01*
X112873692Y-99542986D01*
X113010191Y-99542986D01*
X113005678Y-99425765D01*
X112989638Y-99333577D01*
X112959472Y-99264269D01*
X112912371Y-99210211D01*
X112875688Y-99182505D01*
X112809010Y-99152572D01*
X112731728Y-99138678D01*
X112659890Y-99142397D01*
X112619692Y-99157400D01*
X112603918Y-99161670D01*
X112593450Y-99145750D01*
X112586144Y-99103089D01*
X112580615Y-99038106D01*
X112574563Y-98965732D01*
X112566156Y-98922187D01*
X112550859Y-98897287D01*
X112524136Y-98880845D01*
X112507346Y-98873564D01*
X112443846Y-98846963D01*
X112443919Y-99300289D01*
X112443919Y-99300289D01*
G37*
X112443919Y-99300289D02*
X112444167Y-99446320D01*
X112445128Y-99558655D01*
X112447206Y-99642678D01*
X112450807Y-99703769D01*
X112456335Y-99747309D01*
X112464196Y-99778679D01*
X112474793Y-99803262D01*
X112482818Y-99817294D01*
X112549272Y-99893388D01*
X112633530Y-99941084D01*
X112726751Y-99958199D01*
X112820100Y-99942546D01*
X112875688Y-99914418D01*
X112934043Y-99865760D01*
X112973814Y-99806333D01*
X112997810Y-99728507D01*
X113008839Y-99624652D01*
X113010401Y-99548462D01*
X113010191Y-99542986D01*
X112873692Y-99542986D01*
X112872859Y-99630355D01*
X112869039Y-99688192D01*
X112860254Y-99726029D01*
X112844526Y-99753398D01*
X112825734Y-99774042D01*
X112762625Y-99813890D01*
X112694863Y-99817295D01*
X112630821Y-99784025D01*
X112625836Y-99779517D01*
X112604561Y-99756067D01*
X112591221Y-99728166D01*
X112583999Y-99686641D01*
X112581077Y-99622316D01*
X112580615Y-99551200D01*
X112581617Y-99461858D01*
X112585762Y-99402258D01*
X112594764Y-99363089D01*
X112610333Y-99335040D01*
X112623098Y-99320144D01*
X112682400Y-99282575D01*
X112750699Y-99278057D01*
X112815890Y-99306753D01*
X112828472Y-99317406D01*
X112849889Y-99341063D01*
X112863256Y-99369251D01*
X112870434Y-99411245D01*
X112873281Y-99476319D01*
X112873692Y-99542986D01*
X113010191Y-99542986D01*
X113005678Y-99425765D01*
X112989638Y-99333577D01*
X112959472Y-99264269D01*
X112912371Y-99210211D01*
X112875688Y-99182505D01*
X112809010Y-99152572D01*
X112731728Y-99138678D01*
X112659890Y-99142397D01*
X112619692Y-99157400D01*
X112603918Y-99161670D01*
X112593450Y-99145750D01*
X112586144Y-99103089D01*
X112580615Y-99038106D01*
X112574563Y-98965732D01*
X112566156Y-98922187D01*
X112550859Y-98897287D01*
X112524136Y-98880845D01*
X112507346Y-98873564D01*
X112443846Y-98846963D01*
X112443919Y-99300289D01*
G36*
X111650071Y-99156662D02*
G01*
X111647089Y-99208068D01*
X111644753Y-99286192D01*
X111643251Y-99384857D01*
X111642769Y-99488343D01*
X111642769Y-99838533D01*
X111704599Y-99900363D01*
X111747207Y-99938462D01*
X111784610Y-99953895D01*
X111835730Y-99952918D01*
X111856022Y-99950433D01*
X111919446Y-99943200D01*
X111971905Y-99939055D01*
X111984692Y-99938672D01*
X112027801Y-99941176D01*
X112089456Y-99947462D01*
X112113362Y-99950433D01*
X112172078Y-99955028D01*
X112211536Y-99945046D01*
X112250662Y-99914228D01*
X112264785Y-99900363D01*
X112326615Y-99838533D01*
X112326615Y-99183503D01*
X112276850Y-99160829D01*
X112233998Y-99144034D01*
X112208927Y-99138154D01*
X112202499Y-99156736D01*
X112196491Y-99208655D01*
X112191303Y-99288172D01*
X112187336Y-99389546D01*
X112185423Y-99475192D01*
X112180077Y-99812231D01*
X112133440Y-99818825D01*
X112091024Y-99814214D01*
X112070240Y-99799287D01*
X112064430Y-99771377D01*
X112059470Y-99711925D01*
X112055754Y-99628466D01*
X112053676Y-99528532D01*
X112053376Y-99477104D01*
X112053077Y-99181054D01*
X111991546Y-99159604D01*
X111947996Y-99145020D01*
X111924306Y-99138219D01*
X111923623Y-99138154D01*
X111921246Y-99156642D01*
X111918634Y-99207906D01*
X111916005Y-99285649D01*
X111913579Y-99383574D01*
X111911885Y-99475192D01*
X111906539Y-99812231D01*
X111789308Y-99812231D01*
X111783928Y-99504746D01*
X111778549Y-99197261D01*
X111721399Y-99167707D01*
X111679203Y-99147413D01*
X111654230Y-99138204D01*
X111653509Y-99138154D01*
X111650071Y-99156662D01*
X111650071Y-99156662D01*
G37*
X111650071Y-99156662D02*
X111647089Y-99208068D01*
X111644753Y-99286192D01*
X111643251Y-99384857D01*
X111642769Y-99488343D01*
X111642769Y-99838533D01*
X111704599Y-99900363D01*
X111747207Y-99938462D01*
X111784610Y-99953895D01*
X111835730Y-99952918D01*
X111856022Y-99950433D01*
X111919446Y-99943200D01*
X111971905Y-99939055D01*
X111984692Y-99938672D01*
X112027801Y-99941176D01*
X112089456Y-99947462D01*
X112113362Y-99950433D01*
X112172078Y-99955028D01*
X112211536Y-99945046D01*
X112250662Y-99914228D01*
X112264785Y-99900363D01*
X112326615Y-99838533D01*
X112326615Y-99183503D01*
X112276850Y-99160829D01*
X112233998Y-99144034D01*
X112208927Y-99138154D01*
X112202499Y-99156736D01*
X112196491Y-99208655D01*
X112191303Y-99288172D01*
X112187336Y-99389546D01*
X112185423Y-99475192D01*
X112180077Y-99812231D01*
X112133440Y-99818825D01*
X112091024Y-99814214D01*
X112070240Y-99799287D01*
X112064430Y-99771377D01*
X112059470Y-99711925D01*
X112055754Y-99628466D01*
X112053676Y-99528532D01*
X112053376Y-99477104D01*
X112053077Y-99181054D01*
X111991546Y-99159604D01*
X111947996Y-99145020D01*
X111924306Y-99138219D01*
X111923623Y-99138154D01*
X111921246Y-99156642D01*
X111918634Y-99207906D01*
X111916005Y-99285649D01*
X111913579Y-99383574D01*
X111911885Y-99475192D01*
X111906539Y-99812231D01*
X111789308Y-99812231D01*
X111783928Y-99504746D01*
X111778549Y-99197261D01*
X111721399Y-99167707D01*
X111679203Y-99147413D01*
X111654230Y-99138204D01*
X111653509Y-99138154D01*
X111650071Y-99156662D01*
G36*
X111158667Y-99153528D02*
G01*
X111102410Y-99179117D01*
X111058253Y-99210124D01*
X111025899Y-99244795D01*
X111003562Y-99289520D01*
X110989454Y-99350692D01*
X110981789Y-99434701D01*
X110978780Y-99547940D01*
X110978462Y-99622509D01*
X110978462Y-99913420D01*
X111028227Y-99936095D01*
X111067424Y-99952667D01*
X111086843Y-99958769D01*
X111090558Y-99940610D01*
X111093505Y-99891648D01*
X111095309Y-99820153D01*
X111095692Y-99763385D01*
X111097339Y-99681371D01*
X111101778Y-99616309D01*
X111108260Y-99576467D01*
X111113410Y-99568000D01*
X111148023Y-99576646D01*
X111202360Y-99598823D01*
X111265278Y-99628886D01*
X111325632Y-99661192D01*
X111372279Y-99690098D01*
X111394074Y-99709961D01*
X111394161Y-99710175D01*
X111392286Y-99746935D01*
X111375475Y-99782026D01*
X111345961Y-99810528D01*
X111302884Y-99820061D01*
X111266068Y-99818950D01*
X111213926Y-99818133D01*
X111186556Y-99830349D01*
X111170118Y-99862624D01*
X111168045Y-99868710D01*
X111160919Y-99914739D01*
X111179976Y-99942687D01*
X111229647Y-99956007D01*
X111283303Y-99958470D01*
X111379858Y-99940210D01*
X111429841Y-99914131D01*
X111491571Y-99852868D01*
X111524310Y-99777670D01*
X111527247Y-99698211D01*
X111499576Y-99624167D01*
X111457953Y-99577769D01*
X111416396Y-99551793D01*
X111351078Y-99518907D01*
X111274962Y-99485557D01*
X111262274Y-99480461D01*
X111178667Y-99443565D01*
X111130470Y-99411046D01*
X111114970Y-99378718D01*
X111129450Y-99342394D01*
X111154308Y-99314000D01*
X111213061Y-99279039D01*
X111277707Y-99276417D01*
X111336992Y-99303358D01*
X111379661Y-99357088D01*
X111385261Y-99370950D01*
X111417867Y-99421936D01*
X111465470Y-99459787D01*
X111525539Y-99490850D01*
X111525539Y-99402768D01*
X111522003Y-99348951D01*
X111506844Y-99306534D01*
X111473232Y-99261279D01*
X111440965Y-99226420D01*
X111390791Y-99177062D01*
X111351807Y-99150547D01*
X111309936Y-99139911D01*
X111262540Y-99138154D01*
X111158667Y-99153528D01*
X111158667Y-99153528D01*
G37*
X111158667Y-99153528D02*
X111102410Y-99179117D01*
X111058253Y-99210124D01*
X111025899Y-99244795D01*
X111003562Y-99289520D01*
X110989454Y-99350692D01*
X110981789Y-99434701D01*
X110978780Y-99547940D01*
X110978462Y-99622509D01*
X110978462Y-99913420D01*
X111028227Y-99936095D01*
X111067424Y-99952667D01*
X111086843Y-99958769D01*
X111090558Y-99940610D01*
X111093505Y-99891648D01*
X111095309Y-99820153D01*
X111095692Y-99763385D01*
X111097339Y-99681371D01*
X111101778Y-99616309D01*
X111108260Y-99576467D01*
X111113410Y-99568000D01*
X111148023Y-99576646D01*
X111202360Y-99598823D01*
X111265278Y-99628886D01*
X111325632Y-99661192D01*
X111372279Y-99690098D01*
X111394074Y-99709961D01*
X111394161Y-99710175D01*
X111392286Y-99746935D01*
X111375475Y-99782026D01*
X111345961Y-99810528D01*
X111302884Y-99820061D01*
X111266068Y-99818950D01*
X111213926Y-99818133D01*
X111186556Y-99830349D01*
X111170118Y-99862624D01*
X111168045Y-99868710D01*
X111160919Y-99914739D01*
X111179976Y-99942687D01*
X111229647Y-99956007D01*
X111283303Y-99958470D01*
X111379858Y-99940210D01*
X111429841Y-99914131D01*
X111491571Y-99852868D01*
X111524310Y-99777670D01*
X111527247Y-99698211D01*
X111499576Y-99624167D01*
X111457953Y-99577769D01*
X111416396Y-99551793D01*
X111351078Y-99518907D01*
X111274962Y-99485557D01*
X111262274Y-99480461D01*
X111178667Y-99443565D01*
X111130470Y-99411046D01*
X111114970Y-99378718D01*
X111129450Y-99342394D01*
X111154308Y-99314000D01*
X111213061Y-99279039D01*
X111277707Y-99276417D01*
X111336992Y-99303358D01*
X111379661Y-99357088D01*
X111385261Y-99370950D01*
X111417867Y-99421936D01*
X111465470Y-99459787D01*
X111525539Y-99490850D01*
X111525539Y-99402768D01*
X111522003Y-99348951D01*
X111506844Y-99306534D01*
X111473232Y-99261279D01*
X111440965Y-99226420D01*
X111390791Y-99177062D01*
X111351807Y-99150547D01*
X111309936Y-99139911D01*
X111262540Y-99138154D01*
X111158667Y-99153528D01*
G36*
X110475193Y-99156782D02*
G01*
X110451839Y-99166988D01*
X110396098Y-99211134D01*
X110348431Y-99274967D01*
X110318952Y-99343087D01*
X110314154Y-99376670D01*
X110330240Y-99423556D01*
X110365525Y-99448365D01*
X110403356Y-99463387D01*
X110420679Y-99466155D01*
X110429114Y-99446066D01*
X110445770Y-99402351D01*
X110453077Y-99382598D01*
X110494052Y-99314271D01*
X110553378Y-99280191D01*
X110629448Y-99281239D01*
X110635082Y-99282581D01*
X110675695Y-99301836D01*
X110705552Y-99339375D01*
X110725945Y-99399809D01*
X110738164Y-99487751D01*
X110743500Y-99607813D01*
X110744000Y-99671698D01*
X110744248Y-99772403D01*
X110745874Y-99841054D01*
X110750199Y-99884673D01*
X110758546Y-99910282D01*
X110772235Y-99924903D01*
X110792589Y-99935558D01*
X110793766Y-99936095D01*
X110832962Y-99952667D01*
X110852381Y-99958769D01*
X110855365Y-99940319D01*
X110857919Y-99889323D01*
X110859860Y-99812308D01*
X110861003Y-99715805D01*
X110861231Y-99645184D01*
X110860068Y-99508525D01*
X110855521Y-99404851D01*
X110846001Y-99328108D01*
X110829919Y-99272246D01*
X110805687Y-99231212D01*
X110771714Y-99198954D01*
X110738167Y-99176440D01*
X110657501Y-99146476D01*
X110563619Y-99139718D01*
X110475193Y-99156782D01*
X110475193Y-99156782D01*
G37*
X110475193Y-99156782D02*
X110451839Y-99166988D01*
X110396098Y-99211134D01*
X110348431Y-99274967D01*
X110318952Y-99343087D01*
X110314154Y-99376670D01*
X110330240Y-99423556D01*
X110365525Y-99448365D01*
X110403356Y-99463387D01*
X110420679Y-99466155D01*
X110429114Y-99446066D01*
X110445770Y-99402351D01*
X110453077Y-99382598D01*
X110494052Y-99314271D01*
X110553378Y-99280191D01*
X110629448Y-99281239D01*
X110635082Y-99282581D01*
X110675695Y-99301836D01*
X110705552Y-99339375D01*
X110725945Y-99399809D01*
X110738164Y-99487751D01*
X110743500Y-99607813D01*
X110744000Y-99671698D01*
X110744248Y-99772403D01*
X110745874Y-99841054D01*
X110750199Y-99884673D01*
X110758546Y-99910282D01*
X110772235Y-99924903D01*
X110792589Y-99935558D01*
X110793766Y-99936095D01*
X110832962Y-99952667D01*
X110852381Y-99958769D01*
X110855365Y-99940319D01*
X110857919Y-99889323D01*
X110859860Y-99812308D01*
X110861003Y-99715805D01*
X110861231Y-99645184D01*
X110860068Y-99508525D01*
X110855521Y-99404851D01*
X110846001Y-99328108D01*
X110829919Y-99272246D01*
X110805687Y-99231212D01*
X110771714Y-99198954D01*
X110738167Y-99176440D01*
X110657501Y-99146476D01*
X110563619Y-99139718D01*
X110475193Y-99156782D01*
G36*
X109800776Y-99167838D02*
G01*
X109723472Y-99218361D01*
X109686186Y-99263590D01*
X109656647Y-99345663D01*
X109654301Y-99410607D01*
X109659615Y-99497445D01*
X109859885Y-99585103D01*
X109957261Y-99629887D01*
X110020887Y-99665913D01*
X110053971Y-99697117D01*
X110059720Y-99727436D01*
X110041342Y-99760805D01*
X110021077Y-99782923D01*
X109962111Y-99818393D01*
X109897976Y-99820879D01*
X109839074Y-99793235D01*
X109795803Y-99738320D01*
X109788064Y-99718928D01*
X109750994Y-99658364D01*
X109708346Y-99632552D01*
X109649846Y-99610471D01*
X109649846Y-99694184D01*
X109655018Y-99751150D01*
X109675277Y-99799189D01*
X109717738Y-99854346D01*
X109724049Y-99861514D01*
X109771280Y-99910585D01*
X109811879Y-99936920D01*
X109862672Y-99949035D01*
X109904780Y-99953003D01*
X109980098Y-99953991D01*
X110033714Y-99941466D01*
X110067162Y-99922869D01*
X110119732Y-99881975D01*
X110156121Y-99837748D01*
X110179150Y-99782126D01*
X110191641Y-99707047D01*
X110196413Y-99604449D01*
X110196794Y-99552376D01*
X110195499Y-99489948D01*
X110077529Y-99489948D01*
X110076161Y-99523438D01*
X110072751Y-99528923D01*
X110050247Y-99521472D01*
X110001818Y-99501753D01*
X109937092Y-99473718D01*
X109923557Y-99467692D01*
X109841756Y-99426096D01*
X109796688Y-99389538D01*
X109786783Y-99355296D01*
X109810474Y-99320648D01*
X109830040Y-99305339D01*
X109900640Y-99274721D01*
X109966720Y-99279780D01*
X110022041Y-99317151D01*
X110060364Y-99383473D01*
X110072651Y-99436116D01*
X110077529Y-99489948D01*
X110195499Y-99489948D01*
X110194270Y-99430720D01*
X110184968Y-99340710D01*
X110166540Y-99275167D01*
X110136640Y-99226912D01*
X110092920Y-99188767D01*
X110073859Y-99176440D01*
X109987274Y-99144336D01*
X109892478Y-99142316D01*
X109800776Y-99167838D01*
X109800776Y-99167838D01*
G37*
X109800776Y-99167838D02*
X109723472Y-99218361D01*
X109686186Y-99263590D01*
X109656647Y-99345663D01*
X109654301Y-99410607D01*
X109659615Y-99497445D01*
X109859885Y-99585103D01*
X109957261Y-99629887D01*
X110020887Y-99665913D01*
X110053971Y-99697117D01*
X110059720Y-99727436D01*
X110041342Y-99760805D01*
X110021077Y-99782923D01*
X109962111Y-99818393D01*
X109897976Y-99820879D01*
X109839074Y-99793235D01*
X109795803Y-99738320D01*
X109788064Y-99718928D01*
X109750994Y-99658364D01*
X109708346Y-99632552D01*
X109649846Y-99610471D01*
X109649846Y-99694184D01*
X109655018Y-99751150D01*
X109675277Y-99799189D01*
X109717738Y-99854346D01*
X109724049Y-99861514D01*
X109771280Y-99910585D01*
X109811879Y-99936920D01*
X109862672Y-99949035D01*
X109904780Y-99953003D01*
X109980098Y-99953991D01*
X110033714Y-99941466D01*
X110067162Y-99922869D01*
X110119732Y-99881975D01*
X110156121Y-99837748D01*
X110179150Y-99782126D01*
X110191641Y-99707047D01*
X110196413Y-99604449D01*
X110196794Y-99552376D01*
X110195499Y-99489948D01*
X110077529Y-99489948D01*
X110076161Y-99523438D01*
X110072751Y-99528923D01*
X110050247Y-99521472D01*
X110001818Y-99501753D01*
X109937092Y-99473718D01*
X109923557Y-99467692D01*
X109841756Y-99426096D01*
X109796688Y-99389538D01*
X109786783Y-99355296D01*
X109810474Y-99320648D01*
X109830040Y-99305339D01*
X109900640Y-99274721D01*
X109966720Y-99279780D01*
X110022041Y-99317151D01*
X110060364Y-99383473D01*
X110072651Y-99436116D01*
X110077529Y-99489948D01*
X110195499Y-99489948D01*
X110194270Y-99430720D01*
X110184968Y-99340710D01*
X110166540Y-99275167D01*
X110136640Y-99226912D01*
X110092920Y-99188767D01*
X110073859Y-99176440D01*
X109987274Y-99144336D01*
X109892478Y-99142316D01*
X109800776Y-99167838D01*
G36*
X113906122Y-92807776D02*
G01*
X113800388Y-92808355D01*
X113723868Y-92809922D01*
X113671628Y-92812972D01*
X113638737Y-92817996D01*
X113620263Y-92825489D01*
X113611273Y-92835944D01*
X113606837Y-92849853D01*
X113606406Y-92851654D01*
X113599667Y-92884145D01*
X113587192Y-92948252D01*
X113570281Y-93037151D01*
X113550229Y-93144019D01*
X113528336Y-93262033D01*
X113527571Y-93266178D01*
X113505641Y-93381831D01*
X113485123Y-93484014D01*
X113467341Y-93566598D01*
X113453619Y-93623456D01*
X113445282Y-93648458D01*
X113444884Y-93648901D01*
X113420323Y-93661110D01*
X113369685Y-93681456D01*
X113303905Y-93705545D01*
X113303539Y-93705674D01*
X113220683Y-93736818D01*
X113123000Y-93776491D01*
X113030923Y-93816381D01*
X113026566Y-93818353D01*
X112876593Y-93886420D01*
X112544502Y-93659639D01*
X112442626Y-93590504D01*
X112350343Y-93528697D01*
X112272997Y-93477733D01*
X112215936Y-93441127D01*
X112184505Y-93422394D01*
X112181521Y-93421004D01*
X112158679Y-93427190D01*
X112116018Y-93457035D01*
X112051872Y-93511947D01*
X111964579Y-93593334D01*
X111875465Y-93679922D01*
X111789559Y-93765247D01*
X111712673Y-93843108D01*
X111649436Y-93908697D01*
X111604477Y-93957205D01*
X111582424Y-93983825D01*
X111581604Y-93985195D01*
X111579166Y-94003463D01*
X111588350Y-94033295D01*
X111611426Y-94078721D01*
X111650663Y-94143770D01*
X111708330Y-94232470D01*
X111785205Y-94346657D01*
X111853430Y-94447162D01*
X111914418Y-94537303D01*
X111964644Y-94611849D01*
X112000584Y-94665565D01*
X112018713Y-94693218D01*
X112019854Y-94695095D01*
X112017641Y-94721590D01*
X112000862Y-94773086D01*
X111972858Y-94839851D01*
X111962878Y-94861172D01*
X111919328Y-94956159D01*
X111872866Y-95063937D01*
X111835123Y-95157192D01*
X111807927Y-95226406D01*
X111786325Y-95279006D01*
X111773842Y-95306497D01*
X111772291Y-95308616D01*
X111749332Y-95312124D01*
X111695214Y-95321738D01*
X111617132Y-95336089D01*
X111522281Y-95353807D01*
X111417857Y-95373525D01*
X111311056Y-95393874D01*
X111209074Y-95413486D01*
X111119106Y-95430991D01*
X111048347Y-95445022D01*
X111003994Y-95454209D01*
X110993115Y-95456807D01*
X110981878Y-95463218D01*
X110973395Y-95477697D01*
X110967286Y-95505133D01*
X110963168Y-95550411D01*
X110960659Y-95618420D01*
X110959379Y-95714047D01*
X110958946Y-95842180D01*
X110958923Y-95894701D01*
X110958923Y-96321845D01*
X111061500Y-96342091D01*
X111118569Y-96353070D01*
X111203731Y-96369095D01*
X111306628Y-96388233D01*
X111416904Y-96408551D01*
X111447385Y-96414132D01*
X111549145Y-96433917D01*
X111637795Y-96453373D01*
X111705892Y-96470697D01*
X111745996Y-96484088D01*
X111752677Y-96488079D01*
X111769081Y-96516342D01*
X111792601Y-96571109D01*
X111818684Y-96641588D01*
X111823858Y-96656769D01*
X111858044Y-96750896D01*
X111900477Y-96857101D01*
X111942003Y-96952473D01*
X111942208Y-96952916D01*
X112011360Y-97102525D01*
X111556488Y-97771617D01*
X111848500Y-98064116D01*
X111936820Y-98151170D01*
X112017375Y-98227909D01*
X112085640Y-98290237D01*
X112137092Y-98334056D01*
X112167206Y-98355270D01*
X112171526Y-98356616D01*
X112196889Y-98346016D01*
X112248642Y-98316547D01*
X112321132Y-98271705D01*
X112408706Y-98214984D01*
X112503388Y-98151462D01*
X112599484Y-98086668D01*
X112685163Y-98030287D01*
X112754984Y-97985788D01*
X112803506Y-97956639D01*
X112825218Y-97946308D01*
X112851707Y-97955050D01*
X112901938Y-97978087D01*
X112965549Y-98010631D01*
X112972292Y-98014249D01*
X113057954Y-98057210D01*
X113116694Y-98078279D01*
X113153228Y-98078503D01*
X113172269Y-98058928D01*
X113172380Y-98058654D01*
X113181898Y-98035472D01*
X113204597Y-97980441D01*
X113238718Y-97897822D01*
X113282500Y-97791872D01*
X113334184Y-97666852D01*
X113392008Y-97527020D01*
X113448009Y-97391637D01*
X113509553Y-97242234D01*
X113566061Y-97103832D01*
X113615839Y-96980673D01*
X113657194Y-96877002D01*
X113688432Y-96797059D01*
X113707859Y-96745088D01*
X113713846Y-96725692D01*
X113698832Y-96703443D01*
X113659561Y-96667982D01*
X113607193Y-96628887D01*
X113458059Y-96505245D01*
X113341489Y-96363522D01*
X113258882Y-96206704D01*
X113211634Y-96037775D01*
X113201143Y-95859722D01*
X113208769Y-95777539D01*
X113250318Y-95607031D01*
X113321877Y-95456459D01*
X113419005Y-95327309D01*
X113537266Y-95221064D01*
X113672220Y-95139210D01*
X113819429Y-95083232D01*
X113974456Y-95054615D01*
X114132861Y-95054844D01*
X114290206Y-95085405D01*
X114442054Y-95147782D01*
X114583965Y-95243460D01*
X114643197Y-95297572D01*
X114756797Y-95436520D01*
X114835894Y-95588361D01*
X114881014Y-95748667D01*
X114892684Y-95913012D01*
X114871431Y-96076971D01*
X114817780Y-96236118D01*
X114732260Y-96386025D01*
X114615395Y-96522267D01*
X114484807Y-96628887D01*
X114430412Y-96669642D01*
X114391986Y-96704718D01*
X114378154Y-96725726D01*
X114385397Y-96748635D01*
X114405995Y-96803365D01*
X114438254Y-96885672D01*
X114480479Y-96991315D01*
X114530977Y-97116050D01*
X114588052Y-97255636D01*
X114644146Y-97391670D01*
X114706033Y-97541201D01*
X114763356Y-97679767D01*
X114814356Y-97803107D01*
X114857273Y-97906964D01*
X114890347Y-97987080D01*
X114911819Y-98039195D01*
X114919775Y-98058654D01*
X114938571Y-98078423D01*
X114974926Y-98078365D01*
X115033521Y-98057441D01*
X115119032Y-98014613D01*
X115119708Y-98014249D01*
X115184093Y-97981012D01*
X115236139Y-97956802D01*
X115265488Y-97946404D01*
X115266783Y-97946308D01*
X115288876Y-97956855D01*
X115337652Y-97986184D01*
X115407669Y-98030827D01*
X115493486Y-98087314D01*
X115588612Y-98151462D01*
X115685460Y-98216411D01*
X115772747Y-98272896D01*
X115844819Y-98317421D01*
X115896023Y-98346490D01*
X115920474Y-98356616D01*
X115942990Y-98343307D01*
X115988258Y-98306112D01*
X116051756Y-98249128D01*
X116128961Y-98176449D01*
X116215349Y-98092171D01*
X116243601Y-98064016D01*
X116535713Y-97771416D01*
X116313369Y-97445104D01*
X116245798Y-97344897D01*
X116186493Y-97254963D01*
X116138783Y-97180510D01*
X116105993Y-97126751D01*
X116091452Y-97098894D01*
X116091026Y-97096912D01*
X116098692Y-97070655D01*
X116119311Y-97017837D01*
X116149315Y-96947310D01*
X116170375Y-96900093D01*
X116209752Y-96809694D01*
X116246835Y-96718366D01*
X116275585Y-96641200D01*
X116283395Y-96617692D01*
X116305583Y-96554916D01*
X116327273Y-96506411D01*
X116339187Y-96488079D01*
X116365477Y-96476859D01*
X116422858Y-96460954D01*
X116503882Y-96442167D01*
X116601105Y-96422299D01*
X116644615Y-96414132D01*
X116755104Y-96393829D01*
X116861084Y-96374170D01*
X116952199Y-96357088D01*
X117018092Y-96344518D01*
X117030500Y-96342091D01*
X117133077Y-96321845D01*
X117133077Y-95894701D01*
X117132847Y-95754246D01*
X117131901Y-95647979D01*
X117129859Y-95571013D01*
X117126338Y-95518460D01*
X117120957Y-95485433D01*
X117113334Y-95467045D01*
X117103088Y-95458408D01*
X117098885Y-95456807D01*
X117073530Y-95451127D01*
X117017516Y-95439795D01*
X116938036Y-95424179D01*
X116842288Y-95405647D01*
X116737467Y-95385569D01*
X116630768Y-95365312D01*
X116529387Y-95346246D01*
X116440521Y-95329739D01*
X116371363Y-95317159D01*
X116329111Y-95309875D01*
X116319710Y-95308616D01*
X116311193Y-95291763D01*
X116292340Y-95246870D01*
X116266676Y-95182430D01*
X116256877Y-95157192D01*
X116217352Y-95059686D01*
X116170808Y-94951959D01*
X116129123Y-94861172D01*
X116098450Y-94791753D01*
X116078044Y-94734710D01*
X116071232Y-94699777D01*
X116072318Y-94695095D01*
X116086715Y-94672991D01*
X116119588Y-94623831D01*
X116167410Y-94552848D01*
X116226652Y-94465278D01*
X116293785Y-94366357D01*
X116307059Y-94346830D01*
X116384954Y-94231140D01*
X116442213Y-94143044D01*
X116481119Y-94078486D01*
X116503956Y-94033411D01*
X116513006Y-94003763D01*
X116510552Y-93985485D01*
X116510489Y-93985369D01*
X116491173Y-93961361D01*
X116448449Y-93914947D01*
X116386949Y-93850937D01*
X116311302Y-93774145D01*
X116226139Y-93689382D01*
X116216535Y-93679922D01*
X116109210Y-93575989D01*
X116026385Y-93499675D01*
X115966395Y-93449571D01*
X115927577Y-93424270D01*
X115910480Y-93421004D01*
X115885527Y-93435250D01*
X115833745Y-93468156D01*
X115760480Y-93516208D01*
X115671080Y-93575890D01*
X115570889Y-93643688D01*
X115547499Y-93659639D01*
X115215407Y-93886420D01*
X115065435Y-93818353D01*
X114974230Y-93778685D01*
X114876331Y-93738791D01*
X114792169Y-93706983D01*
X114788462Y-93705674D01*
X114722631Y-93681576D01*
X114671884Y-93661200D01*
X114647158Y-93648936D01*
X114647116Y-93648901D01*
X114639271Y-93626734D01*
X114625934Y-93572217D01*
X114608430Y-93491480D01*
X114588083Y-93390650D01*
X114566218Y-93275856D01*
X114564429Y-93266178D01*
X114542496Y-93147904D01*
X114522360Y-93040542D01*
X114505320Y-92950917D01*
X114492672Y-92885851D01*
X114485716Y-92852168D01*
X114485594Y-92851654D01*
X114481361Y-92837325D01*
X114473129Y-92826507D01*
X114455967Y-92818706D01*
X114424942Y-92813429D01*
X114375122Y-92810182D01*
X114301576Y-92808472D01*
X114199371Y-92807807D01*
X114063575Y-92807693D01*
X114046000Y-92807692D01*
X113906122Y-92807776D01*
X113906122Y-92807776D01*
G37*
X113906122Y-92807776D02*
X113800388Y-92808355D01*
X113723868Y-92809922D01*
X113671628Y-92812972D01*
X113638737Y-92817996D01*
X113620263Y-92825489D01*
X113611273Y-92835944D01*
X113606837Y-92849853D01*
X113606406Y-92851654D01*
X113599667Y-92884145D01*
X113587192Y-92948252D01*
X113570281Y-93037151D01*
X113550229Y-93144019D01*
X113528336Y-93262033D01*
X113527571Y-93266178D01*
X113505641Y-93381831D01*
X113485123Y-93484014D01*
X113467341Y-93566598D01*
X113453619Y-93623456D01*
X113445282Y-93648458D01*
X113444884Y-93648901D01*
X113420323Y-93661110D01*
X113369685Y-93681456D01*
X113303905Y-93705545D01*
X113303539Y-93705674D01*
X113220683Y-93736818D01*
X113123000Y-93776491D01*
X113030923Y-93816381D01*
X113026566Y-93818353D01*
X112876593Y-93886420D01*
X112544502Y-93659639D01*
X112442626Y-93590504D01*
X112350343Y-93528697D01*
X112272997Y-93477733D01*
X112215936Y-93441127D01*
X112184505Y-93422394D01*
X112181521Y-93421004D01*
X112158679Y-93427190D01*
X112116018Y-93457035D01*
X112051872Y-93511947D01*
X111964579Y-93593334D01*
X111875465Y-93679922D01*
X111789559Y-93765247D01*
X111712673Y-93843108D01*
X111649436Y-93908697D01*
X111604477Y-93957205D01*
X111582424Y-93983825D01*
X111581604Y-93985195D01*
X111579166Y-94003463D01*
X111588350Y-94033295D01*
X111611426Y-94078721D01*
X111650663Y-94143770D01*
X111708330Y-94232470D01*
X111785205Y-94346657D01*
X111853430Y-94447162D01*
X111914418Y-94537303D01*
X111964644Y-94611849D01*
X112000584Y-94665565D01*
X112018713Y-94693218D01*
X112019854Y-94695095D01*
X112017641Y-94721590D01*
X112000862Y-94773086D01*
X111972858Y-94839851D01*
X111962878Y-94861172D01*
X111919328Y-94956159D01*
X111872866Y-95063937D01*
X111835123Y-95157192D01*
X111807927Y-95226406D01*
X111786325Y-95279006D01*
X111773842Y-95306497D01*
X111772291Y-95308616D01*
X111749332Y-95312124D01*
X111695214Y-95321738D01*
X111617132Y-95336089D01*
X111522281Y-95353807D01*
X111417857Y-95373525D01*
X111311056Y-95393874D01*
X111209074Y-95413486D01*
X111119106Y-95430991D01*
X111048347Y-95445022D01*
X111003994Y-95454209D01*
X110993115Y-95456807D01*
X110981878Y-95463218D01*
X110973395Y-95477697D01*
X110967286Y-95505133D01*
X110963168Y-95550411D01*
X110960659Y-95618420D01*
X110959379Y-95714047D01*
X110958946Y-95842180D01*
X110958923Y-95894701D01*
X110958923Y-96321845D01*
X111061500Y-96342091D01*
X111118569Y-96353070D01*
X111203731Y-96369095D01*
X111306628Y-96388233D01*
X111416904Y-96408551D01*
X111447385Y-96414132D01*
X111549145Y-96433917D01*
X111637795Y-96453373D01*
X111705892Y-96470697D01*
X111745996Y-96484088D01*
X111752677Y-96488079D01*
X111769081Y-96516342D01*
X111792601Y-96571109D01*
X111818684Y-96641588D01*
X111823858Y-96656769D01*
X111858044Y-96750896D01*
X111900477Y-96857101D01*
X111942003Y-96952473D01*
X111942208Y-96952916D01*
X112011360Y-97102525D01*
X111556488Y-97771617D01*
X111848500Y-98064116D01*
X111936820Y-98151170D01*
X112017375Y-98227909D01*
X112085640Y-98290237D01*
X112137092Y-98334056D01*
X112167206Y-98355270D01*
X112171526Y-98356616D01*
X112196889Y-98346016D01*
X112248642Y-98316547D01*
X112321132Y-98271705D01*
X112408706Y-98214984D01*
X112503388Y-98151462D01*
X112599484Y-98086668D01*
X112685163Y-98030287D01*
X112754984Y-97985788D01*
X112803506Y-97956639D01*
X112825218Y-97946308D01*
X112851707Y-97955050D01*
X112901938Y-97978087D01*
X112965549Y-98010631D01*
X112972292Y-98014249D01*
X113057954Y-98057210D01*
X113116694Y-98078279D01*
X113153228Y-98078503D01*
X113172269Y-98058928D01*
X113172380Y-98058654D01*
X113181898Y-98035472D01*
X113204597Y-97980441D01*
X113238718Y-97897822D01*
X113282500Y-97791872D01*
X113334184Y-97666852D01*
X113392008Y-97527020D01*
X113448009Y-97391637D01*
X113509553Y-97242234D01*
X113566061Y-97103832D01*
X113615839Y-96980673D01*
X113657194Y-96877002D01*
X113688432Y-96797059D01*
X113707859Y-96745088D01*
X113713846Y-96725692D01*
X113698832Y-96703443D01*
X113659561Y-96667982D01*
X113607193Y-96628887D01*
X113458059Y-96505245D01*
X113341489Y-96363522D01*
X113258882Y-96206704D01*
X113211634Y-96037775D01*
X113201143Y-95859722D01*
X113208769Y-95777539D01*
X113250318Y-95607031D01*
X113321877Y-95456459D01*
X113419005Y-95327309D01*
X113537266Y-95221064D01*
X113672220Y-95139210D01*
X113819429Y-95083232D01*
X113974456Y-95054615D01*
X114132861Y-95054844D01*
X114290206Y-95085405D01*
X114442054Y-95147782D01*
X114583965Y-95243460D01*
X114643197Y-95297572D01*
X114756797Y-95436520D01*
X114835894Y-95588361D01*
X114881014Y-95748667D01*
X114892684Y-95913012D01*
X114871431Y-96076971D01*
X114817780Y-96236118D01*
X114732260Y-96386025D01*
X114615395Y-96522267D01*
X114484807Y-96628887D01*
X114430412Y-96669642D01*
X114391986Y-96704718D01*
X114378154Y-96725726D01*
X114385397Y-96748635D01*
X114405995Y-96803365D01*
X114438254Y-96885672D01*
X114480479Y-96991315D01*
X114530977Y-97116050D01*
X114588052Y-97255636D01*
X114644146Y-97391670D01*
X114706033Y-97541201D01*
X114763356Y-97679767D01*
X114814356Y-97803107D01*
X114857273Y-97906964D01*
X114890347Y-97987080D01*
X114911819Y-98039195D01*
X114919775Y-98058654D01*
X114938571Y-98078423D01*
X114974926Y-98078365D01*
X115033521Y-98057441D01*
X115119032Y-98014613D01*
X115119708Y-98014249D01*
X115184093Y-97981012D01*
X115236139Y-97956802D01*
X115265488Y-97946404D01*
X115266783Y-97946308D01*
X115288876Y-97956855D01*
X115337652Y-97986184D01*
X115407669Y-98030827D01*
X115493486Y-98087314D01*
X115588612Y-98151462D01*
X115685460Y-98216411D01*
X115772747Y-98272896D01*
X115844819Y-98317421D01*
X115896023Y-98346490D01*
X115920474Y-98356616D01*
X115942990Y-98343307D01*
X115988258Y-98306112D01*
X116051756Y-98249128D01*
X116128961Y-98176449D01*
X116215349Y-98092171D01*
X116243601Y-98064016D01*
X116535713Y-97771416D01*
X116313369Y-97445104D01*
X116245798Y-97344897D01*
X116186493Y-97254963D01*
X116138783Y-97180510D01*
X116105993Y-97126751D01*
X116091452Y-97098894D01*
X116091026Y-97096912D01*
X116098692Y-97070655D01*
X116119311Y-97017837D01*
X116149315Y-96947310D01*
X116170375Y-96900093D01*
X116209752Y-96809694D01*
X116246835Y-96718366D01*
X116275585Y-96641200D01*
X116283395Y-96617692D01*
X116305583Y-96554916D01*
X116327273Y-96506411D01*
X116339187Y-96488079D01*
X116365477Y-96476859D01*
X116422858Y-96460954D01*
X116503882Y-96442167D01*
X116601105Y-96422299D01*
X116644615Y-96414132D01*
X116755104Y-96393829D01*
X116861084Y-96374170D01*
X116952199Y-96357088D01*
X117018092Y-96344518D01*
X117030500Y-96342091D01*
X117133077Y-96321845D01*
X117133077Y-95894701D01*
X117132847Y-95754246D01*
X117131901Y-95647979D01*
X117129859Y-95571013D01*
X117126338Y-95518460D01*
X117120957Y-95485433D01*
X117113334Y-95467045D01*
X117103088Y-95458408D01*
X117098885Y-95456807D01*
X117073530Y-95451127D01*
X117017516Y-95439795D01*
X116938036Y-95424179D01*
X116842288Y-95405647D01*
X116737467Y-95385569D01*
X116630768Y-95365312D01*
X116529387Y-95346246D01*
X116440521Y-95329739D01*
X116371363Y-95317159D01*
X116329111Y-95309875D01*
X116319710Y-95308616D01*
X116311193Y-95291763D01*
X116292340Y-95246870D01*
X116266676Y-95182430D01*
X116256877Y-95157192D01*
X116217352Y-95059686D01*
X116170808Y-94951959D01*
X116129123Y-94861172D01*
X116098450Y-94791753D01*
X116078044Y-94734710D01*
X116071232Y-94699777D01*
X116072318Y-94695095D01*
X116086715Y-94672991D01*
X116119588Y-94623831D01*
X116167410Y-94552848D01*
X116226652Y-94465278D01*
X116293785Y-94366357D01*
X116307059Y-94346830D01*
X116384954Y-94231140D01*
X116442213Y-94143044D01*
X116481119Y-94078486D01*
X116503956Y-94033411D01*
X116513006Y-94003763D01*
X116510552Y-93985485D01*
X116510489Y-93985369D01*
X116491173Y-93961361D01*
X116448449Y-93914947D01*
X116386949Y-93850937D01*
X116311302Y-93774145D01*
X116226139Y-93689382D01*
X116216535Y-93679922D01*
X116109210Y-93575989D01*
X116026385Y-93499675D01*
X115966395Y-93449571D01*
X115927577Y-93424270D01*
X115910480Y-93421004D01*
X115885527Y-93435250D01*
X115833745Y-93468156D01*
X115760480Y-93516208D01*
X115671080Y-93575890D01*
X115570889Y-93643688D01*
X115547499Y-93659639D01*
X115215407Y-93886420D01*
X115065435Y-93818353D01*
X114974230Y-93778685D01*
X114876331Y-93738791D01*
X114792169Y-93706983D01*
X114788462Y-93705674D01*
X114722631Y-93681576D01*
X114671884Y-93661200D01*
X114647158Y-93648936D01*
X114647116Y-93648901D01*
X114639271Y-93626734D01*
X114625934Y-93572217D01*
X114608430Y-93491480D01*
X114588083Y-93390650D01*
X114566218Y-93275856D01*
X114564429Y-93266178D01*
X114542496Y-93147904D01*
X114522360Y-93040542D01*
X114505320Y-92950917D01*
X114492672Y-92885851D01*
X114485716Y-92852168D01*
X114485594Y-92851654D01*
X114481361Y-92837325D01*
X114473129Y-92826507D01*
X114455967Y-92818706D01*
X114424942Y-92813429D01*
X114375122Y-92810182D01*
X114301576Y-92808472D01*
X114199371Y-92807807D01*
X114063575Y-92807693D01*
X114046000Y-92807692D01*
X113906122Y-92807776D01*
G36*
X94727652Y-107086692D02*
G01*
X94749891Y-107138667D01*
X94795518Y-107204783D01*
X94867524Y-107289827D01*
X94968903Y-107398585D01*
X95102645Y-107535845D01*
X95167449Y-107601390D01*
X95291894Y-107725517D01*
X95407452Y-107838081D01*
X95508466Y-107933788D01*
X95589282Y-108007341D01*
X95644244Y-108053445D01*
X95664177Y-108066499D01*
X95710614Y-108075811D01*
X95761722Y-108064767D01*
X95823689Y-108029345D01*
X95902701Y-107965522D01*
X96004947Y-107869275D01*
X96074939Y-107799431D01*
X96290278Y-107581700D01*
X97962329Y-107581700D01*
X98294511Y-107581738D01*
X98579429Y-107581922D01*
X98820616Y-107582353D01*
X99021609Y-107583133D01*
X99185943Y-107584363D01*
X99317153Y-107586145D01*
X99418773Y-107588582D01*
X99494340Y-107591774D01*
X99547387Y-107595824D01*
X99581451Y-107600833D01*
X99600067Y-107606903D01*
X99606769Y-107614136D01*
X99605093Y-107622634D01*
X99601190Y-107628877D01*
X99562946Y-107676071D01*
X99497442Y-107749420D01*
X99411204Y-107842251D01*
X99310763Y-107947891D01*
X99202646Y-108059668D01*
X99093382Y-108170908D01*
X98989500Y-108274938D01*
X98897527Y-108365086D01*
X98823994Y-108434679D01*
X98775427Y-108477043D01*
X98762811Y-108485794D01*
X98729580Y-108497373D01*
X98676055Y-108506323D01*
X98596650Y-108512920D01*
X98485777Y-108517444D01*
X98337852Y-108520170D01*
X98147287Y-108521378D01*
X98044106Y-108521500D01*
X97845812Y-108521602D01*
X97692015Y-108522259D01*
X97576415Y-108523993D01*
X97492710Y-108527326D01*
X97434598Y-108532781D01*
X97395777Y-108540881D01*
X97369945Y-108552147D01*
X97350801Y-108567104D01*
X97337995Y-108580059D01*
X97300485Y-108619127D01*
X97235735Y-108686402D01*
X97151783Y-108773540D01*
X97056669Y-108872194D01*
X97021649Y-108908499D01*
X96904549Y-109032122D01*
X96822492Y-109128280D01*
X96774130Y-109204957D01*
X96758117Y-109270133D01*
X96773105Y-109331792D01*
X96817748Y-109397915D01*
X96890698Y-109476484D01*
X96920733Y-109506483D01*
X97011535Y-109592501D01*
X97084587Y-109646317D01*
X97148776Y-109666751D01*
X97212988Y-109652627D01*
X97286109Y-109602765D01*
X97377025Y-109515988D01*
X97452980Y-109435900D01*
X97666292Y-109207300D01*
X98159946Y-109206924D01*
X98403240Y-109204549D01*
X98604476Y-109195590D01*
X98772291Y-109176685D01*
X98915324Y-109144474D01*
X99042215Y-109095596D01*
X99161601Y-109026691D01*
X99282122Y-108934397D01*
X99412416Y-108815353D01*
X99561122Y-108666198D01*
X99568000Y-108659122D01*
X99701748Y-108520468D01*
X99850370Y-108364859D01*
X99999379Y-108207557D01*
X100134287Y-108063822D01*
X100190300Y-108003569D01*
X100322364Y-107865312D01*
X100436509Y-107754760D01*
X100528195Y-107676097D01*
X100590073Y-107634859D01*
X100620130Y-107620977D01*
X100651950Y-107609745D01*
X100690982Y-107600884D01*
X100742674Y-107594114D01*
X100812474Y-107589153D01*
X100905830Y-107585723D01*
X101028191Y-107583543D01*
X101185003Y-107582332D01*
X101381716Y-107581811D01*
X101623777Y-107581700D01*
X102550122Y-107581700D01*
X102602597Y-107700326D01*
X102706229Y-107876502D01*
X102847972Y-108032754D01*
X103016757Y-108159246D01*
X103201514Y-108246145D01*
X103225600Y-108253861D01*
X103353041Y-108279123D01*
X103508020Y-108290307D01*
X103669263Y-108287413D01*
X103815496Y-108270441D01*
X103886000Y-108253861D01*
X104073780Y-108171763D01*
X104245431Y-108048208D01*
X104391580Y-107892086D01*
X104502852Y-107712290D01*
X104534309Y-107638902D01*
X104577741Y-107478965D01*
X104599008Y-107300245D01*
X104596907Y-107123917D01*
X104571947Y-106977114D01*
X104487137Y-106761981D01*
X104363310Y-106576990D01*
X104203151Y-106425911D01*
X104156121Y-106392805D01*
X104031365Y-106316617D01*
X103921015Y-106266979D01*
X103804628Y-106237067D01*
X103661757Y-106220057D01*
X103632000Y-106217862D01*
X103395864Y-106224416D01*
X103177511Y-106276043D01*
X102981368Y-106370192D01*
X102811863Y-106504311D01*
X102673420Y-106675849D01*
X102598928Y-106813350D01*
X102550122Y-106921300D01*
X102313186Y-106921300D01*
X102197584Y-106919490D01*
X102091717Y-106914658D01*
X102012650Y-106907699D01*
X101992103Y-106904470D01*
X101962593Y-106896176D01*
X101930340Y-106880713D01*
X101891662Y-106854586D01*
X101842875Y-106814302D01*
X101780295Y-106756367D01*
X101700240Y-106677289D01*
X101599025Y-106573574D01*
X101472969Y-106441727D01*
X101318386Y-106278257D01*
X101206300Y-106159167D01*
X101046430Y-105989603D01*
X100915967Y-105852834D01*
X100809870Y-105744316D01*
X100723095Y-105659508D01*
X100650602Y-105593870D01*
X100587348Y-105542859D01*
X100528291Y-105501934D01*
X100468389Y-105466554D01*
X100402601Y-105432177D01*
X100394893Y-105428315D01*
X100205787Y-105333800D01*
X98114463Y-105308400D01*
X97904473Y-105111550D01*
X97791858Y-105010345D01*
X97704259Y-104945600D01*
X97633083Y-104915677D01*
X97569737Y-104918942D01*
X97505630Y-104953760D01*
X97432168Y-105018495D01*
X97429459Y-105021148D01*
X97320996Y-105127597D01*
X97261761Y-105071948D01*
X97190120Y-105024636D01*
X97113889Y-105017799D01*
X97026785Y-105052741D01*
X96922524Y-105130765D01*
X96905408Y-105145913D01*
X96828447Y-105219018D01*
X96784185Y-105273535D01*
X96764609Y-105321256D01*
X96761300Y-105357927D01*
X96763107Y-105396661D01*
X96772216Y-105431298D01*
X96794161Y-105468810D01*
X96834473Y-105516169D01*
X96898684Y-105580348D01*
X96992327Y-105668319D01*
X97049623Y-105721290D01*
X97159818Y-105817815D01*
X97245326Y-105877766D01*
X97314242Y-105903377D01*
X97374660Y-105896883D01*
X97434673Y-105860516D01*
X97463226Y-105835450D01*
X97539043Y-105764884D01*
X97590921Y-105726973D01*
X97633244Y-105721849D01*
X97680396Y-105749647D01*
X97746762Y-105810497D01*
X97775838Y-105838338D01*
X97925928Y-105981500D01*
X98957330Y-105981500D01*
X99225268Y-105981810D01*
X99446950Y-105982839D01*
X99626917Y-105984732D01*
X99769710Y-105987636D01*
X99879869Y-105991696D01*
X99961936Y-105997060D01*
X100020450Y-106003873D01*
X100059954Y-106012281D01*
X100074843Y-106017479D01*
X100102647Y-106031702D01*
X100136318Y-106054948D01*
X100179497Y-106090778D01*
X100235824Y-106142755D01*
X100308942Y-106214438D01*
X100402491Y-106309392D01*
X100520112Y-106431176D01*
X100665446Y-106583352D01*
X100823117Y-106749415D01*
X100986034Y-106921300D01*
X97899703Y-106921300D01*
X97439094Y-106921324D01*
X97026592Y-106921422D01*
X96659508Y-106921636D01*
X96335151Y-106922004D01*
X96050827Y-106922567D01*
X95803847Y-106923364D01*
X95591519Y-106924436D01*
X95411152Y-106925822D01*
X95260054Y-106927563D01*
X95135534Y-106929698D01*
X95034900Y-106932268D01*
X94955462Y-106935312D01*
X94894528Y-106938870D01*
X94849406Y-106942983D01*
X94817406Y-106947690D01*
X94795835Y-106953031D01*
X94782003Y-106959046D01*
X94773219Y-106965775D01*
X94771336Y-106967750D01*
X94741367Y-107006020D01*
X94725808Y-107044072D01*
X94727652Y-107086692D01*
X94727652Y-107086692D01*
G37*
X94727652Y-107086692D02*
X94749891Y-107138667D01*
X94795518Y-107204783D01*
X94867524Y-107289827D01*
X94968903Y-107398585D01*
X95102645Y-107535845D01*
X95167449Y-107601390D01*
X95291894Y-107725517D01*
X95407452Y-107838081D01*
X95508466Y-107933788D01*
X95589282Y-108007341D01*
X95644244Y-108053445D01*
X95664177Y-108066499D01*
X95710614Y-108075811D01*
X95761722Y-108064767D01*
X95823689Y-108029345D01*
X95902701Y-107965522D01*
X96004947Y-107869275D01*
X96074939Y-107799431D01*
X96290278Y-107581700D01*
X97962329Y-107581700D01*
X98294511Y-107581738D01*
X98579429Y-107581922D01*
X98820616Y-107582353D01*
X99021609Y-107583133D01*
X99185943Y-107584363D01*
X99317153Y-107586145D01*
X99418773Y-107588582D01*
X99494340Y-107591774D01*
X99547387Y-107595824D01*
X99581451Y-107600833D01*
X99600067Y-107606903D01*
X99606769Y-107614136D01*
X99605093Y-107622634D01*
X99601190Y-107628877D01*
X99562946Y-107676071D01*
X99497442Y-107749420D01*
X99411204Y-107842251D01*
X99310763Y-107947891D01*
X99202646Y-108059668D01*
X99093382Y-108170908D01*
X98989500Y-108274938D01*
X98897527Y-108365086D01*
X98823994Y-108434679D01*
X98775427Y-108477043D01*
X98762811Y-108485794D01*
X98729580Y-108497373D01*
X98676055Y-108506323D01*
X98596650Y-108512920D01*
X98485777Y-108517444D01*
X98337852Y-108520170D01*
X98147287Y-108521378D01*
X98044106Y-108521500D01*
X97845812Y-108521602D01*
X97692015Y-108522259D01*
X97576415Y-108523993D01*
X97492710Y-108527326D01*
X97434598Y-108532781D01*
X97395777Y-108540881D01*
X97369945Y-108552147D01*
X97350801Y-108567104D01*
X97337995Y-108580059D01*
X97300485Y-108619127D01*
X97235735Y-108686402D01*
X97151783Y-108773540D01*
X97056669Y-108872194D01*
X97021649Y-108908499D01*
X96904549Y-109032122D01*
X96822492Y-109128280D01*
X96774130Y-109204957D01*
X96758117Y-109270133D01*
X96773105Y-109331792D01*
X96817748Y-109397915D01*
X96890698Y-109476484D01*
X96920733Y-109506483D01*
X97011535Y-109592501D01*
X97084587Y-109646317D01*
X97148776Y-109666751D01*
X97212988Y-109652627D01*
X97286109Y-109602765D01*
X97377025Y-109515988D01*
X97452980Y-109435900D01*
X97666292Y-109207300D01*
X98159946Y-109206924D01*
X98403240Y-109204549D01*
X98604476Y-109195590D01*
X98772291Y-109176685D01*
X98915324Y-109144474D01*
X99042215Y-109095596D01*
X99161601Y-109026691D01*
X99282122Y-108934397D01*
X99412416Y-108815353D01*
X99561122Y-108666198D01*
X99568000Y-108659122D01*
X99701748Y-108520468D01*
X99850370Y-108364859D01*
X99999379Y-108207557D01*
X100134287Y-108063822D01*
X100190300Y-108003569D01*
X100322364Y-107865312D01*
X100436509Y-107754760D01*
X100528195Y-107676097D01*
X100590073Y-107634859D01*
X100620130Y-107620977D01*
X100651950Y-107609745D01*
X100690982Y-107600884D01*
X100742674Y-107594114D01*
X100812474Y-107589153D01*
X100905830Y-107585723D01*
X101028191Y-107583543D01*
X101185003Y-107582332D01*
X101381716Y-107581811D01*
X101623777Y-107581700D01*
X102550122Y-107581700D01*
X102602597Y-107700326D01*
X102706229Y-107876502D01*
X102847972Y-108032754D01*
X103016757Y-108159246D01*
X103201514Y-108246145D01*
X103225600Y-108253861D01*
X103353041Y-108279123D01*
X103508020Y-108290307D01*
X103669263Y-108287413D01*
X103815496Y-108270441D01*
X103886000Y-108253861D01*
X104073780Y-108171763D01*
X104245431Y-108048208D01*
X104391580Y-107892086D01*
X104502852Y-107712290D01*
X104534309Y-107638902D01*
X104577741Y-107478965D01*
X104599008Y-107300245D01*
X104596907Y-107123917D01*
X104571947Y-106977114D01*
X104487137Y-106761981D01*
X104363310Y-106576990D01*
X104203151Y-106425911D01*
X104156121Y-106392805D01*
X104031365Y-106316617D01*
X103921015Y-106266979D01*
X103804628Y-106237067D01*
X103661757Y-106220057D01*
X103632000Y-106217862D01*
X103395864Y-106224416D01*
X103177511Y-106276043D01*
X102981368Y-106370192D01*
X102811863Y-106504311D01*
X102673420Y-106675849D01*
X102598928Y-106813350D01*
X102550122Y-106921300D01*
X102313186Y-106921300D01*
X102197584Y-106919490D01*
X102091717Y-106914658D01*
X102012650Y-106907699D01*
X101992103Y-106904470D01*
X101962593Y-106896176D01*
X101930340Y-106880713D01*
X101891662Y-106854586D01*
X101842875Y-106814302D01*
X101780295Y-106756367D01*
X101700240Y-106677289D01*
X101599025Y-106573574D01*
X101472969Y-106441727D01*
X101318386Y-106278257D01*
X101206300Y-106159167D01*
X101046430Y-105989603D01*
X100915967Y-105852834D01*
X100809870Y-105744316D01*
X100723095Y-105659508D01*
X100650602Y-105593870D01*
X100587348Y-105542859D01*
X100528291Y-105501934D01*
X100468389Y-105466554D01*
X100402601Y-105432177D01*
X100394893Y-105428315D01*
X100205787Y-105333800D01*
X98114463Y-105308400D01*
X97904473Y-105111550D01*
X97791858Y-105010345D01*
X97704259Y-104945600D01*
X97633083Y-104915677D01*
X97569737Y-104918942D01*
X97505630Y-104953760D01*
X97432168Y-105018495D01*
X97429459Y-105021148D01*
X97320996Y-105127597D01*
X97261761Y-105071948D01*
X97190120Y-105024636D01*
X97113889Y-105017799D01*
X97026785Y-105052741D01*
X96922524Y-105130765D01*
X96905408Y-105145913D01*
X96828447Y-105219018D01*
X96784185Y-105273535D01*
X96764609Y-105321256D01*
X96761300Y-105357927D01*
X96763107Y-105396661D01*
X96772216Y-105431298D01*
X96794161Y-105468810D01*
X96834473Y-105516169D01*
X96898684Y-105580348D01*
X96992327Y-105668319D01*
X97049623Y-105721290D01*
X97159818Y-105817815D01*
X97245326Y-105877766D01*
X97314242Y-105903377D01*
X97374660Y-105896883D01*
X97434673Y-105860516D01*
X97463226Y-105835450D01*
X97539043Y-105764884D01*
X97590921Y-105726973D01*
X97633244Y-105721849D01*
X97680396Y-105749647D01*
X97746762Y-105810497D01*
X97775838Y-105838338D01*
X97925928Y-105981500D01*
X98957330Y-105981500D01*
X99225268Y-105981810D01*
X99446950Y-105982839D01*
X99626917Y-105984732D01*
X99769710Y-105987636D01*
X99879869Y-105991696D01*
X99961936Y-105997060D01*
X100020450Y-106003873D01*
X100059954Y-106012281D01*
X100074843Y-106017479D01*
X100102647Y-106031702D01*
X100136318Y-106054948D01*
X100179497Y-106090778D01*
X100235824Y-106142755D01*
X100308942Y-106214438D01*
X100402491Y-106309392D01*
X100520112Y-106431176D01*
X100665446Y-106583352D01*
X100823117Y-106749415D01*
X100986034Y-106921300D01*
X97899703Y-106921300D01*
X97439094Y-106921324D01*
X97026592Y-106921422D01*
X96659508Y-106921636D01*
X96335151Y-106922004D01*
X96050827Y-106922567D01*
X95803847Y-106923364D01*
X95591519Y-106924436D01*
X95411152Y-106925822D01*
X95260054Y-106927563D01*
X95135534Y-106929698D01*
X95034900Y-106932268D01*
X94955462Y-106935312D01*
X94894528Y-106938870D01*
X94849406Y-106942983D01*
X94817406Y-106947690D01*
X94795835Y-106953031D01*
X94782003Y-106959046D01*
X94773219Y-106965775D01*
X94771336Y-106967750D01*
X94741367Y-107006020D01*
X94725808Y-107044072D01*
X94727652Y-107086692D01*
D15*
X114302000Y-80553779D02*
X114302000Y-80228221D01*
X113282000Y-80553779D02*
X113282000Y-80228221D01*
X108739400Y-90921621D02*
X108739400Y-91247179D01*
X107719400Y-90921621D02*
X107719400Y-91247179D01*
X98943279Y-74674000D02*
X98617721Y-74674000D01*
X98943279Y-75694000D02*
X98617721Y-75694000D01*
X114416721Y-83437000D02*
X114742279Y-83437000D01*
X114416721Y-84457000D02*
X114742279Y-84457000D01*
X122354221Y-74610500D02*
X122679779Y-74610500D01*
X122354221Y-75630500D02*
X122679779Y-75630500D01*
X106134119Y-78402720D02*
X105808561Y-78402720D01*
X106134119Y-79422720D02*
X105808561Y-79422720D01*
X99400479Y-92098400D02*
X99074921Y-92098400D01*
X99400479Y-93118400D02*
X99074921Y-93118400D01*
X103820079Y-95963200D02*
X103494521Y-95963200D01*
X103820079Y-94943200D02*
X103494521Y-94943200D01*
X128661700Y-84785319D02*
X128661700Y-84459761D01*
X129681700Y-84785319D02*
X129681700Y-84459761D01*
X125321600Y-86603521D02*
X125321600Y-86929079D01*
X126341600Y-86603521D02*
X126341600Y-86929079D01*
X100734400Y-84566879D02*
X100734400Y-84241321D01*
X101754400Y-84566879D02*
X101754400Y-84241321D01*
X102245279Y-87272400D02*
X101919721Y-87272400D01*
X102245279Y-88292400D02*
X101919721Y-88292400D01*
M02*
