G04 #@! TF.GenerationSoftware,KiCad,Pcbnew,(5.1.2-1)-1*
G04 #@! TF.CreationDate,2019-12-03T13:00:22-07:00*
G04 #@! TF.ProjectId,luna_rev0,6c756e61-5f72-4657-9630-2e6b69636164,rev?*
G04 #@! TF.SameCoordinates,Original*
G04 #@! TF.FileFunction,Soldermask,Bot*
G04 #@! TF.FilePolarity,Negative*
%FSLAX46Y46*%
G04 Gerber Fmt 4.6, Leading zero omitted, Abs format (unit mm)*
G04 Created by KiCad (PCBNEW (5.1.2-1)-1) date 2019-12-03 13:00:22*
%MOMM*%
%LPD*%
G04 APERTURE LIST*
%ADD10O,1.754000X1.354000*%
%ADD11O,1.954000X1.604000*%
%ADD12R,1.954000X1.954000*%
%ADD13O,1.954000X1.954000*%
%ADD14C,0.100000*%
%ADD15C,1.129000*%
%ADD16C,0.844000*%
%ADD17C,1.854000*%
%ADD18C,3.504000*%
%ADD19R,1.320800X1.320800*%
%ADD20C,1.320800*%
%ADD21C,1.016000*%
%ADD22R,1.778000X4.318000*%
%ADD23C,1.754000*%
%ADD24C,2.254000*%
G04 APERTURE END LIST*
D10*
X136060500Y-95201000D03*
X136060500Y-90361000D03*
D11*
X139060500Y-95511000D03*
X139060500Y-90051000D03*
X93881000Y-87604500D03*
X93881000Y-82144500D03*
D10*
X96881000Y-87294500D03*
X96881000Y-82454500D03*
X96817500Y-95535500D03*
X96817500Y-100375500D03*
D11*
X93817500Y-95225500D03*
X93817500Y-100685500D03*
D12*
X98679000Y-70358000D03*
D13*
X98679000Y-67818000D03*
X101219000Y-70358000D03*
X101219000Y-67818000D03*
X103759000Y-70358000D03*
X103759000Y-67818000D03*
D14*
G36*
X114139415Y-80615359D02*
G01*
X114166814Y-80619423D01*
X114193683Y-80626154D01*
X114219762Y-80635485D01*
X114244802Y-80647328D01*
X114268560Y-80661568D01*
X114290808Y-80678068D01*
X114311331Y-80696669D01*
X114329932Y-80717192D01*
X114346432Y-80739440D01*
X114360672Y-80763198D01*
X114372515Y-80788238D01*
X114381846Y-80814317D01*
X114388577Y-80841186D01*
X114392641Y-80868585D01*
X114394000Y-80896250D01*
X114394000Y-81460750D01*
X114392641Y-81488415D01*
X114388577Y-81515814D01*
X114381846Y-81542683D01*
X114372515Y-81568762D01*
X114360672Y-81593802D01*
X114346432Y-81617560D01*
X114329932Y-81639808D01*
X114311331Y-81660331D01*
X114290808Y-81678932D01*
X114268560Y-81695432D01*
X114244802Y-81709672D01*
X114219762Y-81721515D01*
X114193683Y-81730846D01*
X114166814Y-81737577D01*
X114139415Y-81741641D01*
X114111750Y-81743000D01*
X113472250Y-81743000D01*
X113444585Y-81741641D01*
X113417186Y-81737577D01*
X113390317Y-81730846D01*
X113364238Y-81721515D01*
X113339198Y-81709672D01*
X113315440Y-81695432D01*
X113293192Y-81678932D01*
X113272669Y-81660331D01*
X113254068Y-81639808D01*
X113237568Y-81617560D01*
X113223328Y-81593802D01*
X113211485Y-81568762D01*
X113202154Y-81542683D01*
X113195423Y-81515814D01*
X113191359Y-81488415D01*
X113190000Y-81460750D01*
X113190000Y-80896250D01*
X113191359Y-80868585D01*
X113195423Y-80841186D01*
X113202154Y-80814317D01*
X113211485Y-80788238D01*
X113223328Y-80763198D01*
X113237568Y-80739440D01*
X113254068Y-80717192D01*
X113272669Y-80696669D01*
X113293192Y-80678068D01*
X113315440Y-80661568D01*
X113339198Y-80647328D01*
X113364238Y-80635485D01*
X113390317Y-80626154D01*
X113417186Y-80619423D01*
X113444585Y-80615359D01*
X113472250Y-80614000D01*
X114111750Y-80614000D01*
X114139415Y-80615359D01*
X114139415Y-80615359D01*
G37*
D15*
X113792000Y-81178500D03*
D14*
G36*
X114139415Y-79040359D02*
G01*
X114166814Y-79044423D01*
X114193683Y-79051154D01*
X114219762Y-79060485D01*
X114244802Y-79072328D01*
X114268560Y-79086568D01*
X114290808Y-79103068D01*
X114311331Y-79121669D01*
X114329932Y-79142192D01*
X114346432Y-79164440D01*
X114360672Y-79188198D01*
X114372515Y-79213238D01*
X114381846Y-79239317D01*
X114388577Y-79266186D01*
X114392641Y-79293585D01*
X114394000Y-79321250D01*
X114394000Y-79885750D01*
X114392641Y-79913415D01*
X114388577Y-79940814D01*
X114381846Y-79967683D01*
X114372515Y-79993762D01*
X114360672Y-80018802D01*
X114346432Y-80042560D01*
X114329932Y-80064808D01*
X114311331Y-80085331D01*
X114290808Y-80103932D01*
X114268560Y-80120432D01*
X114244802Y-80134672D01*
X114219762Y-80146515D01*
X114193683Y-80155846D01*
X114166814Y-80162577D01*
X114139415Y-80166641D01*
X114111750Y-80168000D01*
X113472250Y-80168000D01*
X113444585Y-80166641D01*
X113417186Y-80162577D01*
X113390317Y-80155846D01*
X113364238Y-80146515D01*
X113339198Y-80134672D01*
X113315440Y-80120432D01*
X113293192Y-80103932D01*
X113272669Y-80085331D01*
X113254068Y-80064808D01*
X113237568Y-80042560D01*
X113223328Y-80018802D01*
X113211485Y-79993762D01*
X113202154Y-79967683D01*
X113195423Y-79940814D01*
X113191359Y-79913415D01*
X113190000Y-79885750D01*
X113190000Y-79321250D01*
X113191359Y-79293585D01*
X113195423Y-79266186D01*
X113202154Y-79239317D01*
X113211485Y-79213238D01*
X113223328Y-79188198D01*
X113237568Y-79164440D01*
X113254068Y-79142192D01*
X113272669Y-79121669D01*
X113293192Y-79103068D01*
X113315440Y-79086568D01*
X113339198Y-79072328D01*
X113364238Y-79060485D01*
X113390317Y-79051154D01*
X113417186Y-79044423D01*
X113444585Y-79040359D01*
X113472250Y-79039000D01*
X114111750Y-79039000D01*
X114139415Y-79040359D01*
X114139415Y-79040359D01*
G37*
D15*
X113792000Y-79603500D03*
D14*
G36*
X108576815Y-91308759D02*
G01*
X108604214Y-91312823D01*
X108631083Y-91319554D01*
X108657162Y-91328885D01*
X108682202Y-91340728D01*
X108705960Y-91354968D01*
X108728208Y-91371468D01*
X108748731Y-91390069D01*
X108767332Y-91410592D01*
X108783832Y-91432840D01*
X108798072Y-91456598D01*
X108809915Y-91481638D01*
X108819246Y-91507717D01*
X108825977Y-91534586D01*
X108830041Y-91561985D01*
X108831400Y-91589650D01*
X108831400Y-92154150D01*
X108830041Y-92181815D01*
X108825977Y-92209214D01*
X108819246Y-92236083D01*
X108809915Y-92262162D01*
X108798072Y-92287202D01*
X108783832Y-92310960D01*
X108767332Y-92333208D01*
X108748731Y-92353731D01*
X108728208Y-92372332D01*
X108705960Y-92388832D01*
X108682202Y-92403072D01*
X108657162Y-92414915D01*
X108631083Y-92424246D01*
X108604214Y-92430977D01*
X108576815Y-92435041D01*
X108549150Y-92436400D01*
X107909650Y-92436400D01*
X107881985Y-92435041D01*
X107854586Y-92430977D01*
X107827717Y-92424246D01*
X107801638Y-92414915D01*
X107776598Y-92403072D01*
X107752840Y-92388832D01*
X107730592Y-92372332D01*
X107710069Y-92353731D01*
X107691468Y-92333208D01*
X107674968Y-92310960D01*
X107660728Y-92287202D01*
X107648885Y-92262162D01*
X107639554Y-92236083D01*
X107632823Y-92209214D01*
X107628759Y-92181815D01*
X107627400Y-92154150D01*
X107627400Y-91589650D01*
X107628759Y-91561985D01*
X107632823Y-91534586D01*
X107639554Y-91507717D01*
X107648885Y-91481638D01*
X107660728Y-91456598D01*
X107674968Y-91432840D01*
X107691468Y-91410592D01*
X107710069Y-91390069D01*
X107730592Y-91371468D01*
X107752840Y-91354968D01*
X107776598Y-91340728D01*
X107801638Y-91328885D01*
X107827717Y-91319554D01*
X107854586Y-91312823D01*
X107881985Y-91308759D01*
X107909650Y-91307400D01*
X108549150Y-91307400D01*
X108576815Y-91308759D01*
X108576815Y-91308759D01*
G37*
D15*
X108229400Y-91871900D03*
D14*
G36*
X108576815Y-89733759D02*
G01*
X108604214Y-89737823D01*
X108631083Y-89744554D01*
X108657162Y-89753885D01*
X108682202Y-89765728D01*
X108705960Y-89779968D01*
X108728208Y-89796468D01*
X108748731Y-89815069D01*
X108767332Y-89835592D01*
X108783832Y-89857840D01*
X108798072Y-89881598D01*
X108809915Y-89906638D01*
X108819246Y-89932717D01*
X108825977Y-89959586D01*
X108830041Y-89986985D01*
X108831400Y-90014650D01*
X108831400Y-90579150D01*
X108830041Y-90606815D01*
X108825977Y-90634214D01*
X108819246Y-90661083D01*
X108809915Y-90687162D01*
X108798072Y-90712202D01*
X108783832Y-90735960D01*
X108767332Y-90758208D01*
X108748731Y-90778731D01*
X108728208Y-90797332D01*
X108705960Y-90813832D01*
X108682202Y-90828072D01*
X108657162Y-90839915D01*
X108631083Y-90849246D01*
X108604214Y-90855977D01*
X108576815Y-90860041D01*
X108549150Y-90861400D01*
X107909650Y-90861400D01*
X107881985Y-90860041D01*
X107854586Y-90855977D01*
X107827717Y-90849246D01*
X107801638Y-90839915D01*
X107776598Y-90828072D01*
X107752840Y-90813832D01*
X107730592Y-90797332D01*
X107710069Y-90778731D01*
X107691468Y-90758208D01*
X107674968Y-90735960D01*
X107660728Y-90712202D01*
X107648885Y-90687162D01*
X107639554Y-90661083D01*
X107632823Y-90634214D01*
X107628759Y-90606815D01*
X107627400Y-90579150D01*
X107627400Y-90014650D01*
X107628759Y-89986985D01*
X107632823Y-89959586D01*
X107639554Y-89932717D01*
X107648885Y-89906638D01*
X107660728Y-89881598D01*
X107674968Y-89857840D01*
X107691468Y-89835592D01*
X107710069Y-89815069D01*
X107730592Y-89796468D01*
X107752840Y-89779968D01*
X107776598Y-89765728D01*
X107801638Y-89753885D01*
X107827717Y-89744554D01*
X107854586Y-89737823D01*
X107881985Y-89733759D01*
X107909650Y-89732400D01*
X108549150Y-89732400D01*
X108576815Y-89733759D01*
X108576815Y-89733759D01*
G37*
D15*
X108229400Y-90296900D03*
D14*
G36*
X99877915Y-74583359D02*
G01*
X99905314Y-74587423D01*
X99932183Y-74594154D01*
X99958262Y-74603485D01*
X99983302Y-74615328D01*
X100007060Y-74629568D01*
X100029308Y-74646068D01*
X100049831Y-74664669D01*
X100068432Y-74685192D01*
X100084932Y-74707440D01*
X100099172Y-74731198D01*
X100111015Y-74756238D01*
X100120346Y-74782317D01*
X100127077Y-74809186D01*
X100131141Y-74836585D01*
X100132500Y-74864250D01*
X100132500Y-75503750D01*
X100131141Y-75531415D01*
X100127077Y-75558814D01*
X100120346Y-75585683D01*
X100111015Y-75611762D01*
X100099172Y-75636802D01*
X100084932Y-75660560D01*
X100068432Y-75682808D01*
X100049831Y-75703331D01*
X100029308Y-75721932D01*
X100007060Y-75738432D01*
X99983302Y-75752672D01*
X99958262Y-75764515D01*
X99932183Y-75773846D01*
X99905314Y-75780577D01*
X99877915Y-75784641D01*
X99850250Y-75786000D01*
X99285750Y-75786000D01*
X99258085Y-75784641D01*
X99230686Y-75780577D01*
X99203817Y-75773846D01*
X99177738Y-75764515D01*
X99152698Y-75752672D01*
X99128940Y-75738432D01*
X99106692Y-75721932D01*
X99086169Y-75703331D01*
X99067568Y-75682808D01*
X99051068Y-75660560D01*
X99036828Y-75636802D01*
X99024985Y-75611762D01*
X99015654Y-75585683D01*
X99008923Y-75558814D01*
X99004859Y-75531415D01*
X99003500Y-75503750D01*
X99003500Y-74864250D01*
X99004859Y-74836585D01*
X99008923Y-74809186D01*
X99015654Y-74782317D01*
X99024985Y-74756238D01*
X99036828Y-74731198D01*
X99051068Y-74707440D01*
X99067568Y-74685192D01*
X99086169Y-74664669D01*
X99106692Y-74646068D01*
X99128940Y-74629568D01*
X99152698Y-74615328D01*
X99177738Y-74603485D01*
X99203817Y-74594154D01*
X99230686Y-74587423D01*
X99258085Y-74583359D01*
X99285750Y-74582000D01*
X99850250Y-74582000D01*
X99877915Y-74583359D01*
X99877915Y-74583359D01*
G37*
D15*
X99568000Y-75184000D03*
D14*
G36*
X98302915Y-74583359D02*
G01*
X98330314Y-74587423D01*
X98357183Y-74594154D01*
X98383262Y-74603485D01*
X98408302Y-74615328D01*
X98432060Y-74629568D01*
X98454308Y-74646068D01*
X98474831Y-74664669D01*
X98493432Y-74685192D01*
X98509932Y-74707440D01*
X98524172Y-74731198D01*
X98536015Y-74756238D01*
X98545346Y-74782317D01*
X98552077Y-74809186D01*
X98556141Y-74836585D01*
X98557500Y-74864250D01*
X98557500Y-75503750D01*
X98556141Y-75531415D01*
X98552077Y-75558814D01*
X98545346Y-75585683D01*
X98536015Y-75611762D01*
X98524172Y-75636802D01*
X98509932Y-75660560D01*
X98493432Y-75682808D01*
X98474831Y-75703331D01*
X98454308Y-75721932D01*
X98432060Y-75738432D01*
X98408302Y-75752672D01*
X98383262Y-75764515D01*
X98357183Y-75773846D01*
X98330314Y-75780577D01*
X98302915Y-75784641D01*
X98275250Y-75786000D01*
X97710750Y-75786000D01*
X97683085Y-75784641D01*
X97655686Y-75780577D01*
X97628817Y-75773846D01*
X97602738Y-75764515D01*
X97577698Y-75752672D01*
X97553940Y-75738432D01*
X97531692Y-75721932D01*
X97511169Y-75703331D01*
X97492568Y-75682808D01*
X97476068Y-75660560D01*
X97461828Y-75636802D01*
X97449985Y-75611762D01*
X97440654Y-75585683D01*
X97433923Y-75558814D01*
X97429859Y-75531415D01*
X97428500Y-75503750D01*
X97428500Y-74864250D01*
X97429859Y-74836585D01*
X97433923Y-74809186D01*
X97440654Y-74782317D01*
X97449985Y-74756238D01*
X97461828Y-74731198D01*
X97476068Y-74707440D01*
X97492568Y-74685192D01*
X97511169Y-74664669D01*
X97531692Y-74646068D01*
X97553940Y-74629568D01*
X97577698Y-74615328D01*
X97602738Y-74603485D01*
X97628817Y-74594154D01*
X97655686Y-74587423D01*
X97683085Y-74583359D01*
X97710750Y-74582000D01*
X98275250Y-74582000D01*
X98302915Y-74583359D01*
X98302915Y-74583359D01*
G37*
D15*
X97993000Y-75184000D03*
D14*
G36*
X115676915Y-83346359D02*
G01*
X115704314Y-83350423D01*
X115731183Y-83357154D01*
X115757262Y-83366485D01*
X115782302Y-83378328D01*
X115806060Y-83392568D01*
X115828308Y-83409068D01*
X115848831Y-83427669D01*
X115867432Y-83448192D01*
X115883932Y-83470440D01*
X115898172Y-83494198D01*
X115910015Y-83519238D01*
X115919346Y-83545317D01*
X115926077Y-83572186D01*
X115930141Y-83599585D01*
X115931500Y-83627250D01*
X115931500Y-84266750D01*
X115930141Y-84294415D01*
X115926077Y-84321814D01*
X115919346Y-84348683D01*
X115910015Y-84374762D01*
X115898172Y-84399802D01*
X115883932Y-84423560D01*
X115867432Y-84445808D01*
X115848831Y-84466331D01*
X115828308Y-84484932D01*
X115806060Y-84501432D01*
X115782302Y-84515672D01*
X115757262Y-84527515D01*
X115731183Y-84536846D01*
X115704314Y-84543577D01*
X115676915Y-84547641D01*
X115649250Y-84549000D01*
X115084750Y-84549000D01*
X115057085Y-84547641D01*
X115029686Y-84543577D01*
X115002817Y-84536846D01*
X114976738Y-84527515D01*
X114951698Y-84515672D01*
X114927940Y-84501432D01*
X114905692Y-84484932D01*
X114885169Y-84466331D01*
X114866568Y-84445808D01*
X114850068Y-84423560D01*
X114835828Y-84399802D01*
X114823985Y-84374762D01*
X114814654Y-84348683D01*
X114807923Y-84321814D01*
X114803859Y-84294415D01*
X114802500Y-84266750D01*
X114802500Y-83627250D01*
X114803859Y-83599585D01*
X114807923Y-83572186D01*
X114814654Y-83545317D01*
X114823985Y-83519238D01*
X114835828Y-83494198D01*
X114850068Y-83470440D01*
X114866568Y-83448192D01*
X114885169Y-83427669D01*
X114905692Y-83409068D01*
X114927940Y-83392568D01*
X114951698Y-83378328D01*
X114976738Y-83366485D01*
X115002817Y-83357154D01*
X115029686Y-83350423D01*
X115057085Y-83346359D01*
X115084750Y-83345000D01*
X115649250Y-83345000D01*
X115676915Y-83346359D01*
X115676915Y-83346359D01*
G37*
D15*
X115367000Y-83947000D03*
D14*
G36*
X114101915Y-83346359D02*
G01*
X114129314Y-83350423D01*
X114156183Y-83357154D01*
X114182262Y-83366485D01*
X114207302Y-83378328D01*
X114231060Y-83392568D01*
X114253308Y-83409068D01*
X114273831Y-83427669D01*
X114292432Y-83448192D01*
X114308932Y-83470440D01*
X114323172Y-83494198D01*
X114335015Y-83519238D01*
X114344346Y-83545317D01*
X114351077Y-83572186D01*
X114355141Y-83599585D01*
X114356500Y-83627250D01*
X114356500Y-84266750D01*
X114355141Y-84294415D01*
X114351077Y-84321814D01*
X114344346Y-84348683D01*
X114335015Y-84374762D01*
X114323172Y-84399802D01*
X114308932Y-84423560D01*
X114292432Y-84445808D01*
X114273831Y-84466331D01*
X114253308Y-84484932D01*
X114231060Y-84501432D01*
X114207302Y-84515672D01*
X114182262Y-84527515D01*
X114156183Y-84536846D01*
X114129314Y-84543577D01*
X114101915Y-84547641D01*
X114074250Y-84549000D01*
X113509750Y-84549000D01*
X113482085Y-84547641D01*
X113454686Y-84543577D01*
X113427817Y-84536846D01*
X113401738Y-84527515D01*
X113376698Y-84515672D01*
X113352940Y-84501432D01*
X113330692Y-84484932D01*
X113310169Y-84466331D01*
X113291568Y-84445808D01*
X113275068Y-84423560D01*
X113260828Y-84399802D01*
X113248985Y-84374762D01*
X113239654Y-84348683D01*
X113232923Y-84321814D01*
X113228859Y-84294415D01*
X113227500Y-84266750D01*
X113227500Y-83627250D01*
X113228859Y-83599585D01*
X113232923Y-83572186D01*
X113239654Y-83545317D01*
X113248985Y-83519238D01*
X113260828Y-83494198D01*
X113275068Y-83470440D01*
X113291568Y-83448192D01*
X113310169Y-83427669D01*
X113330692Y-83409068D01*
X113352940Y-83392568D01*
X113376698Y-83378328D01*
X113401738Y-83366485D01*
X113427817Y-83357154D01*
X113454686Y-83350423D01*
X113482085Y-83346359D01*
X113509750Y-83345000D01*
X114074250Y-83345000D01*
X114101915Y-83346359D01*
X114101915Y-83346359D01*
G37*
D15*
X113792000Y-83947000D03*
D14*
G36*
X110543482Y-80678816D02*
G01*
X110563964Y-80681854D01*
X110584050Y-80686886D01*
X110603546Y-80693861D01*
X110622265Y-80702715D01*
X110640025Y-80713360D01*
X110656657Y-80725695D01*
X110672000Y-80739600D01*
X110685905Y-80754943D01*
X110698240Y-80771575D01*
X110708885Y-80789335D01*
X110717739Y-80808054D01*
X110724714Y-80827550D01*
X110729746Y-80847636D01*
X110732784Y-80868118D01*
X110733800Y-80888800D01*
X110733800Y-81310800D01*
X110732784Y-81331482D01*
X110729746Y-81351964D01*
X110724714Y-81372050D01*
X110717739Y-81391546D01*
X110708885Y-81410265D01*
X110698240Y-81428025D01*
X110685905Y-81444657D01*
X110672000Y-81460000D01*
X110656657Y-81473905D01*
X110640025Y-81486240D01*
X110622265Y-81496885D01*
X110603546Y-81505739D01*
X110584050Y-81512714D01*
X110563964Y-81517746D01*
X110543482Y-81520784D01*
X110522800Y-81521800D01*
X110050800Y-81521800D01*
X110030118Y-81520784D01*
X110009636Y-81517746D01*
X109989550Y-81512714D01*
X109970054Y-81505739D01*
X109951335Y-81496885D01*
X109933575Y-81486240D01*
X109916943Y-81473905D01*
X109901600Y-81460000D01*
X109887695Y-81444657D01*
X109875360Y-81428025D01*
X109864715Y-81410265D01*
X109855861Y-81391546D01*
X109848886Y-81372050D01*
X109843854Y-81351964D01*
X109840816Y-81331482D01*
X109839800Y-81310800D01*
X109839800Y-80888800D01*
X109840816Y-80868118D01*
X109843854Y-80847636D01*
X109848886Y-80827550D01*
X109855861Y-80808054D01*
X109864715Y-80789335D01*
X109875360Y-80771575D01*
X109887695Y-80754943D01*
X109901600Y-80739600D01*
X109916943Y-80725695D01*
X109933575Y-80713360D01*
X109951335Y-80702715D01*
X109970054Y-80693861D01*
X109989550Y-80686886D01*
X110009636Y-80681854D01*
X110030118Y-80678816D01*
X110050800Y-80677800D01*
X110522800Y-80677800D01*
X110543482Y-80678816D01*
X110543482Y-80678816D01*
G37*
D16*
X110286800Y-81099800D03*
D14*
G36*
X110543482Y-81648816D02*
G01*
X110563964Y-81651854D01*
X110584050Y-81656886D01*
X110603546Y-81663861D01*
X110622265Y-81672715D01*
X110640025Y-81683360D01*
X110656657Y-81695695D01*
X110672000Y-81709600D01*
X110685905Y-81724943D01*
X110698240Y-81741575D01*
X110708885Y-81759335D01*
X110717739Y-81778054D01*
X110724714Y-81797550D01*
X110729746Y-81817636D01*
X110732784Y-81838118D01*
X110733800Y-81858800D01*
X110733800Y-82280800D01*
X110732784Y-82301482D01*
X110729746Y-82321964D01*
X110724714Y-82342050D01*
X110717739Y-82361546D01*
X110708885Y-82380265D01*
X110698240Y-82398025D01*
X110685905Y-82414657D01*
X110672000Y-82430000D01*
X110656657Y-82443905D01*
X110640025Y-82456240D01*
X110622265Y-82466885D01*
X110603546Y-82475739D01*
X110584050Y-82482714D01*
X110563964Y-82487746D01*
X110543482Y-82490784D01*
X110522800Y-82491800D01*
X110050800Y-82491800D01*
X110030118Y-82490784D01*
X110009636Y-82487746D01*
X109989550Y-82482714D01*
X109970054Y-82475739D01*
X109951335Y-82466885D01*
X109933575Y-82456240D01*
X109916943Y-82443905D01*
X109901600Y-82430000D01*
X109887695Y-82414657D01*
X109875360Y-82398025D01*
X109864715Y-82380265D01*
X109855861Y-82361546D01*
X109848886Y-82342050D01*
X109843854Y-82321964D01*
X109840816Y-82301482D01*
X109839800Y-82280800D01*
X109839800Y-81858800D01*
X109840816Y-81838118D01*
X109843854Y-81817636D01*
X109848886Y-81797550D01*
X109855861Y-81778054D01*
X109864715Y-81759335D01*
X109875360Y-81741575D01*
X109887695Y-81724943D01*
X109901600Y-81709600D01*
X109916943Y-81695695D01*
X109933575Y-81683360D01*
X109951335Y-81672715D01*
X109970054Y-81663861D01*
X109989550Y-81656886D01*
X110009636Y-81651854D01*
X110030118Y-81648816D01*
X110050800Y-81647800D01*
X110522800Y-81647800D01*
X110543482Y-81648816D01*
X110543482Y-81648816D01*
G37*
D16*
X110286800Y-82069800D03*
D14*
G36*
X120437182Y-100519016D02*
G01*
X120457664Y-100522054D01*
X120477750Y-100527086D01*
X120497246Y-100534061D01*
X120515965Y-100542915D01*
X120533725Y-100553560D01*
X120550357Y-100565895D01*
X120565700Y-100579800D01*
X120579605Y-100595143D01*
X120591940Y-100611775D01*
X120602585Y-100629535D01*
X120611439Y-100648254D01*
X120618414Y-100667750D01*
X120623446Y-100687836D01*
X120626484Y-100708318D01*
X120627500Y-100729000D01*
X120627500Y-101201000D01*
X120626484Y-101221682D01*
X120623446Y-101242164D01*
X120618414Y-101262250D01*
X120611439Y-101281746D01*
X120602585Y-101300465D01*
X120591940Y-101318225D01*
X120579605Y-101334857D01*
X120565700Y-101350200D01*
X120550357Y-101364105D01*
X120533725Y-101376440D01*
X120515965Y-101387085D01*
X120497246Y-101395939D01*
X120477750Y-101402914D01*
X120457664Y-101407946D01*
X120437182Y-101410984D01*
X120416500Y-101412000D01*
X119994500Y-101412000D01*
X119973818Y-101410984D01*
X119953336Y-101407946D01*
X119933250Y-101402914D01*
X119913754Y-101395939D01*
X119895035Y-101387085D01*
X119877275Y-101376440D01*
X119860643Y-101364105D01*
X119845300Y-101350200D01*
X119831395Y-101334857D01*
X119819060Y-101318225D01*
X119808415Y-101300465D01*
X119799561Y-101281746D01*
X119792586Y-101262250D01*
X119787554Y-101242164D01*
X119784516Y-101221682D01*
X119783500Y-101201000D01*
X119783500Y-100729000D01*
X119784516Y-100708318D01*
X119787554Y-100687836D01*
X119792586Y-100667750D01*
X119799561Y-100648254D01*
X119808415Y-100629535D01*
X119819060Y-100611775D01*
X119831395Y-100595143D01*
X119845300Y-100579800D01*
X119860643Y-100565895D01*
X119877275Y-100553560D01*
X119895035Y-100542915D01*
X119913754Y-100534061D01*
X119933250Y-100527086D01*
X119953336Y-100522054D01*
X119973818Y-100519016D01*
X119994500Y-100518000D01*
X120416500Y-100518000D01*
X120437182Y-100519016D01*
X120437182Y-100519016D01*
G37*
D16*
X120205500Y-100965000D03*
D14*
G36*
X119467182Y-100519016D02*
G01*
X119487664Y-100522054D01*
X119507750Y-100527086D01*
X119527246Y-100534061D01*
X119545965Y-100542915D01*
X119563725Y-100553560D01*
X119580357Y-100565895D01*
X119595700Y-100579800D01*
X119609605Y-100595143D01*
X119621940Y-100611775D01*
X119632585Y-100629535D01*
X119641439Y-100648254D01*
X119648414Y-100667750D01*
X119653446Y-100687836D01*
X119656484Y-100708318D01*
X119657500Y-100729000D01*
X119657500Y-101201000D01*
X119656484Y-101221682D01*
X119653446Y-101242164D01*
X119648414Y-101262250D01*
X119641439Y-101281746D01*
X119632585Y-101300465D01*
X119621940Y-101318225D01*
X119609605Y-101334857D01*
X119595700Y-101350200D01*
X119580357Y-101364105D01*
X119563725Y-101376440D01*
X119545965Y-101387085D01*
X119527246Y-101395939D01*
X119507750Y-101402914D01*
X119487664Y-101407946D01*
X119467182Y-101410984D01*
X119446500Y-101412000D01*
X119024500Y-101412000D01*
X119003818Y-101410984D01*
X118983336Y-101407946D01*
X118963250Y-101402914D01*
X118943754Y-101395939D01*
X118925035Y-101387085D01*
X118907275Y-101376440D01*
X118890643Y-101364105D01*
X118875300Y-101350200D01*
X118861395Y-101334857D01*
X118849060Y-101318225D01*
X118838415Y-101300465D01*
X118829561Y-101281746D01*
X118822586Y-101262250D01*
X118817554Y-101242164D01*
X118814516Y-101221682D01*
X118813500Y-101201000D01*
X118813500Y-100729000D01*
X118814516Y-100708318D01*
X118817554Y-100687836D01*
X118822586Y-100667750D01*
X118829561Y-100648254D01*
X118838415Y-100629535D01*
X118849060Y-100611775D01*
X118861395Y-100595143D01*
X118875300Y-100579800D01*
X118890643Y-100565895D01*
X118907275Y-100553560D01*
X118925035Y-100542915D01*
X118943754Y-100534061D01*
X118963250Y-100527086D01*
X118983336Y-100522054D01*
X119003818Y-100519016D01*
X119024500Y-100518000D01*
X119446500Y-100518000D01*
X119467182Y-100519016D01*
X119467182Y-100519016D01*
G37*
D16*
X119235500Y-100965000D03*
D14*
G36*
X116009682Y-88390516D02*
G01*
X116030164Y-88393554D01*
X116050250Y-88398586D01*
X116069746Y-88405561D01*
X116088465Y-88414415D01*
X116106225Y-88425060D01*
X116122857Y-88437395D01*
X116138200Y-88451300D01*
X116152105Y-88466643D01*
X116164440Y-88483275D01*
X116175085Y-88501035D01*
X116183939Y-88519754D01*
X116190914Y-88539250D01*
X116195946Y-88559336D01*
X116198984Y-88579818D01*
X116200000Y-88600500D01*
X116200000Y-89072500D01*
X116198984Y-89093182D01*
X116195946Y-89113664D01*
X116190914Y-89133750D01*
X116183939Y-89153246D01*
X116175085Y-89171965D01*
X116164440Y-89189725D01*
X116152105Y-89206357D01*
X116138200Y-89221700D01*
X116122857Y-89235605D01*
X116106225Y-89247940D01*
X116088465Y-89258585D01*
X116069746Y-89267439D01*
X116050250Y-89274414D01*
X116030164Y-89279446D01*
X116009682Y-89282484D01*
X115989000Y-89283500D01*
X115567000Y-89283500D01*
X115546318Y-89282484D01*
X115525836Y-89279446D01*
X115505750Y-89274414D01*
X115486254Y-89267439D01*
X115467535Y-89258585D01*
X115449775Y-89247940D01*
X115433143Y-89235605D01*
X115417800Y-89221700D01*
X115403895Y-89206357D01*
X115391560Y-89189725D01*
X115380915Y-89171965D01*
X115372061Y-89153246D01*
X115365086Y-89133750D01*
X115360054Y-89113664D01*
X115357016Y-89093182D01*
X115356000Y-89072500D01*
X115356000Y-88600500D01*
X115357016Y-88579818D01*
X115360054Y-88559336D01*
X115365086Y-88539250D01*
X115372061Y-88519754D01*
X115380915Y-88501035D01*
X115391560Y-88483275D01*
X115403895Y-88466643D01*
X115417800Y-88451300D01*
X115433143Y-88437395D01*
X115449775Y-88425060D01*
X115467535Y-88414415D01*
X115486254Y-88405561D01*
X115505750Y-88398586D01*
X115525836Y-88393554D01*
X115546318Y-88390516D01*
X115567000Y-88389500D01*
X115989000Y-88389500D01*
X116009682Y-88390516D01*
X116009682Y-88390516D01*
G37*
D16*
X115778000Y-88836500D03*
D14*
G36*
X115039682Y-88390516D02*
G01*
X115060164Y-88393554D01*
X115080250Y-88398586D01*
X115099746Y-88405561D01*
X115118465Y-88414415D01*
X115136225Y-88425060D01*
X115152857Y-88437395D01*
X115168200Y-88451300D01*
X115182105Y-88466643D01*
X115194440Y-88483275D01*
X115205085Y-88501035D01*
X115213939Y-88519754D01*
X115220914Y-88539250D01*
X115225946Y-88559336D01*
X115228984Y-88579818D01*
X115230000Y-88600500D01*
X115230000Y-89072500D01*
X115228984Y-89093182D01*
X115225946Y-89113664D01*
X115220914Y-89133750D01*
X115213939Y-89153246D01*
X115205085Y-89171965D01*
X115194440Y-89189725D01*
X115182105Y-89206357D01*
X115168200Y-89221700D01*
X115152857Y-89235605D01*
X115136225Y-89247940D01*
X115118465Y-89258585D01*
X115099746Y-89267439D01*
X115080250Y-89274414D01*
X115060164Y-89279446D01*
X115039682Y-89282484D01*
X115019000Y-89283500D01*
X114597000Y-89283500D01*
X114576318Y-89282484D01*
X114555836Y-89279446D01*
X114535750Y-89274414D01*
X114516254Y-89267439D01*
X114497535Y-89258585D01*
X114479775Y-89247940D01*
X114463143Y-89235605D01*
X114447800Y-89221700D01*
X114433895Y-89206357D01*
X114421560Y-89189725D01*
X114410915Y-89171965D01*
X114402061Y-89153246D01*
X114395086Y-89133750D01*
X114390054Y-89113664D01*
X114387016Y-89093182D01*
X114386000Y-89072500D01*
X114386000Y-88600500D01*
X114387016Y-88579818D01*
X114390054Y-88559336D01*
X114395086Y-88539250D01*
X114402061Y-88519754D01*
X114410915Y-88501035D01*
X114421560Y-88483275D01*
X114433895Y-88466643D01*
X114447800Y-88451300D01*
X114463143Y-88437395D01*
X114479775Y-88425060D01*
X114497535Y-88414415D01*
X114516254Y-88405561D01*
X114535750Y-88398586D01*
X114555836Y-88393554D01*
X114576318Y-88390516D01*
X114597000Y-88389500D01*
X115019000Y-88389500D01*
X115039682Y-88390516D01*
X115039682Y-88390516D01*
G37*
D16*
X114808000Y-88836500D03*
D14*
G36*
X98321682Y-73468016D02*
G01*
X98342164Y-73471054D01*
X98362250Y-73476086D01*
X98381746Y-73483061D01*
X98400465Y-73491915D01*
X98418225Y-73502560D01*
X98434857Y-73514895D01*
X98450200Y-73528800D01*
X98464105Y-73544143D01*
X98476440Y-73560775D01*
X98487085Y-73578535D01*
X98495939Y-73597254D01*
X98502914Y-73616750D01*
X98507946Y-73636836D01*
X98510984Y-73657318D01*
X98512000Y-73678000D01*
X98512000Y-74150000D01*
X98510984Y-74170682D01*
X98507946Y-74191164D01*
X98502914Y-74211250D01*
X98495939Y-74230746D01*
X98487085Y-74249465D01*
X98476440Y-74267225D01*
X98464105Y-74283857D01*
X98450200Y-74299200D01*
X98434857Y-74313105D01*
X98418225Y-74325440D01*
X98400465Y-74336085D01*
X98381746Y-74344939D01*
X98362250Y-74351914D01*
X98342164Y-74356946D01*
X98321682Y-74359984D01*
X98301000Y-74361000D01*
X97879000Y-74361000D01*
X97858318Y-74359984D01*
X97837836Y-74356946D01*
X97817750Y-74351914D01*
X97798254Y-74344939D01*
X97779535Y-74336085D01*
X97761775Y-74325440D01*
X97745143Y-74313105D01*
X97729800Y-74299200D01*
X97715895Y-74283857D01*
X97703560Y-74267225D01*
X97692915Y-74249465D01*
X97684061Y-74230746D01*
X97677086Y-74211250D01*
X97672054Y-74191164D01*
X97669016Y-74170682D01*
X97668000Y-74150000D01*
X97668000Y-73678000D01*
X97669016Y-73657318D01*
X97672054Y-73636836D01*
X97677086Y-73616750D01*
X97684061Y-73597254D01*
X97692915Y-73578535D01*
X97703560Y-73560775D01*
X97715895Y-73544143D01*
X97729800Y-73528800D01*
X97745143Y-73514895D01*
X97761775Y-73502560D01*
X97779535Y-73491915D01*
X97798254Y-73483061D01*
X97817750Y-73476086D01*
X97837836Y-73471054D01*
X97858318Y-73468016D01*
X97879000Y-73467000D01*
X98301000Y-73467000D01*
X98321682Y-73468016D01*
X98321682Y-73468016D01*
G37*
D16*
X98090000Y-73914000D03*
D14*
G36*
X99291682Y-73468016D02*
G01*
X99312164Y-73471054D01*
X99332250Y-73476086D01*
X99351746Y-73483061D01*
X99370465Y-73491915D01*
X99388225Y-73502560D01*
X99404857Y-73514895D01*
X99420200Y-73528800D01*
X99434105Y-73544143D01*
X99446440Y-73560775D01*
X99457085Y-73578535D01*
X99465939Y-73597254D01*
X99472914Y-73616750D01*
X99477946Y-73636836D01*
X99480984Y-73657318D01*
X99482000Y-73678000D01*
X99482000Y-74150000D01*
X99480984Y-74170682D01*
X99477946Y-74191164D01*
X99472914Y-74211250D01*
X99465939Y-74230746D01*
X99457085Y-74249465D01*
X99446440Y-74267225D01*
X99434105Y-74283857D01*
X99420200Y-74299200D01*
X99404857Y-74313105D01*
X99388225Y-74325440D01*
X99370465Y-74336085D01*
X99351746Y-74344939D01*
X99332250Y-74351914D01*
X99312164Y-74356946D01*
X99291682Y-74359984D01*
X99271000Y-74361000D01*
X98849000Y-74361000D01*
X98828318Y-74359984D01*
X98807836Y-74356946D01*
X98787750Y-74351914D01*
X98768254Y-74344939D01*
X98749535Y-74336085D01*
X98731775Y-74325440D01*
X98715143Y-74313105D01*
X98699800Y-74299200D01*
X98685895Y-74283857D01*
X98673560Y-74267225D01*
X98662915Y-74249465D01*
X98654061Y-74230746D01*
X98647086Y-74211250D01*
X98642054Y-74191164D01*
X98639016Y-74170682D01*
X98638000Y-74150000D01*
X98638000Y-73678000D01*
X98639016Y-73657318D01*
X98642054Y-73636836D01*
X98647086Y-73616750D01*
X98654061Y-73597254D01*
X98662915Y-73578535D01*
X98673560Y-73560775D01*
X98685895Y-73544143D01*
X98699800Y-73528800D01*
X98715143Y-73514895D01*
X98731775Y-73502560D01*
X98749535Y-73491915D01*
X98768254Y-73483061D01*
X98787750Y-73476086D01*
X98807836Y-73471054D01*
X98828318Y-73468016D01*
X98849000Y-73467000D01*
X99271000Y-73467000D01*
X99291682Y-73468016D01*
X99291682Y-73468016D01*
G37*
D16*
X99060000Y-73914000D03*
D14*
G36*
X114745182Y-84834516D02*
G01*
X114765664Y-84837554D01*
X114785750Y-84842586D01*
X114805246Y-84849561D01*
X114823965Y-84858415D01*
X114841725Y-84869060D01*
X114858357Y-84881395D01*
X114873700Y-84895300D01*
X114887605Y-84910643D01*
X114899940Y-84927275D01*
X114910585Y-84945035D01*
X114919439Y-84963754D01*
X114926414Y-84983250D01*
X114931446Y-85003336D01*
X114934484Y-85023818D01*
X114935500Y-85044500D01*
X114935500Y-85516500D01*
X114934484Y-85537182D01*
X114931446Y-85557664D01*
X114926414Y-85577750D01*
X114919439Y-85597246D01*
X114910585Y-85615965D01*
X114899940Y-85633725D01*
X114887605Y-85650357D01*
X114873700Y-85665700D01*
X114858357Y-85679605D01*
X114841725Y-85691940D01*
X114823965Y-85702585D01*
X114805246Y-85711439D01*
X114785750Y-85718414D01*
X114765664Y-85723446D01*
X114745182Y-85726484D01*
X114724500Y-85727500D01*
X114302500Y-85727500D01*
X114281818Y-85726484D01*
X114261336Y-85723446D01*
X114241250Y-85718414D01*
X114221754Y-85711439D01*
X114203035Y-85702585D01*
X114185275Y-85691940D01*
X114168643Y-85679605D01*
X114153300Y-85665700D01*
X114139395Y-85650357D01*
X114127060Y-85633725D01*
X114116415Y-85615965D01*
X114107561Y-85597246D01*
X114100586Y-85577750D01*
X114095554Y-85557664D01*
X114092516Y-85537182D01*
X114091500Y-85516500D01*
X114091500Y-85044500D01*
X114092516Y-85023818D01*
X114095554Y-85003336D01*
X114100586Y-84983250D01*
X114107561Y-84963754D01*
X114116415Y-84945035D01*
X114127060Y-84927275D01*
X114139395Y-84910643D01*
X114153300Y-84895300D01*
X114168643Y-84881395D01*
X114185275Y-84869060D01*
X114203035Y-84858415D01*
X114221754Y-84849561D01*
X114241250Y-84842586D01*
X114261336Y-84837554D01*
X114281818Y-84834516D01*
X114302500Y-84833500D01*
X114724500Y-84833500D01*
X114745182Y-84834516D01*
X114745182Y-84834516D01*
G37*
D16*
X114513500Y-85280500D03*
D14*
G36*
X115715182Y-84834516D02*
G01*
X115735664Y-84837554D01*
X115755750Y-84842586D01*
X115775246Y-84849561D01*
X115793965Y-84858415D01*
X115811725Y-84869060D01*
X115828357Y-84881395D01*
X115843700Y-84895300D01*
X115857605Y-84910643D01*
X115869940Y-84927275D01*
X115880585Y-84945035D01*
X115889439Y-84963754D01*
X115896414Y-84983250D01*
X115901446Y-85003336D01*
X115904484Y-85023818D01*
X115905500Y-85044500D01*
X115905500Y-85516500D01*
X115904484Y-85537182D01*
X115901446Y-85557664D01*
X115896414Y-85577750D01*
X115889439Y-85597246D01*
X115880585Y-85615965D01*
X115869940Y-85633725D01*
X115857605Y-85650357D01*
X115843700Y-85665700D01*
X115828357Y-85679605D01*
X115811725Y-85691940D01*
X115793965Y-85702585D01*
X115775246Y-85711439D01*
X115755750Y-85718414D01*
X115735664Y-85723446D01*
X115715182Y-85726484D01*
X115694500Y-85727500D01*
X115272500Y-85727500D01*
X115251818Y-85726484D01*
X115231336Y-85723446D01*
X115211250Y-85718414D01*
X115191754Y-85711439D01*
X115173035Y-85702585D01*
X115155275Y-85691940D01*
X115138643Y-85679605D01*
X115123300Y-85665700D01*
X115109395Y-85650357D01*
X115097060Y-85633725D01*
X115086415Y-85615965D01*
X115077561Y-85597246D01*
X115070586Y-85577750D01*
X115065554Y-85557664D01*
X115062516Y-85537182D01*
X115061500Y-85516500D01*
X115061500Y-85044500D01*
X115062516Y-85023818D01*
X115065554Y-85003336D01*
X115070586Y-84983250D01*
X115077561Y-84963754D01*
X115086415Y-84945035D01*
X115097060Y-84927275D01*
X115109395Y-84910643D01*
X115123300Y-84895300D01*
X115138643Y-84881395D01*
X115155275Y-84869060D01*
X115173035Y-84858415D01*
X115191754Y-84849561D01*
X115211250Y-84842586D01*
X115231336Y-84837554D01*
X115251818Y-84834516D01*
X115272500Y-84833500D01*
X115694500Y-84833500D01*
X115715182Y-84834516D01*
X115715182Y-84834516D01*
G37*
D16*
X115483500Y-85280500D03*
D14*
G36*
X114046682Y-82104016D02*
G01*
X114067164Y-82107054D01*
X114087250Y-82112086D01*
X114106746Y-82119061D01*
X114125465Y-82127915D01*
X114143225Y-82138560D01*
X114159857Y-82150895D01*
X114175200Y-82164800D01*
X114189105Y-82180143D01*
X114201440Y-82196775D01*
X114212085Y-82214535D01*
X114220939Y-82233254D01*
X114227914Y-82252750D01*
X114232946Y-82272836D01*
X114235984Y-82293318D01*
X114237000Y-82314000D01*
X114237000Y-82786000D01*
X114235984Y-82806682D01*
X114232946Y-82827164D01*
X114227914Y-82847250D01*
X114220939Y-82866746D01*
X114212085Y-82885465D01*
X114201440Y-82903225D01*
X114189105Y-82919857D01*
X114175200Y-82935200D01*
X114159857Y-82949105D01*
X114143225Y-82961440D01*
X114125465Y-82972085D01*
X114106746Y-82980939D01*
X114087250Y-82987914D01*
X114067164Y-82992946D01*
X114046682Y-82995984D01*
X114026000Y-82997000D01*
X113604000Y-82997000D01*
X113583318Y-82995984D01*
X113562836Y-82992946D01*
X113542750Y-82987914D01*
X113523254Y-82980939D01*
X113504535Y-82972085D01*
X113486775Y-82961440D01*
X113470143Y-82949105D01*
X113454800Y-82935200D01*
X113440895Y-82919857D01*
X113428560Y-82903225D01*
X113417915Y-82885465D01*
X113409061Y-82866746D01*
X113402086Y-82847250D01*
X113397054Y-82827164D01*
X113394016Y-82806682D01*
X113393000Y-82786000D01*
X113393000Y-82314000D01*
X113394016Y-82293318D01*
X113397054Y-82272836D01*
X113402086Y-82252750D01*
X113409061Y-82233254D01*
X113417915Y-82214535D01*
X113428560Y-82196775D01*
X113440895Y-82180143D01*
X113454800Y-82164800D01*
X113470143Y-82150895D01*
X113486775Y-82138560D01*
X113504535Y-82127915D01*
X113523254Y-82119061D01*
X113542750Y-82112086D01*
X113562836Y-82107054D01*
X113583318Y-82104016D01*
X113604000Y-82103000D01*
X114026000Y-82103000D01*
X114046682Y-82104016D01*
X114046682Y-82104016D01*
G37*
D16*
X113815000Y-82550000D03*
D14*
G36*
X115016682Y-82104016D02*
G01*
X115037164Y-82107054D01*
X115057250Y-82112086D01*
X115076746Y-82119061D01*
X115095465Y-82127915D01*
X115113225Y-82138560D01*
X115129857Y-82150895D01*
X115145200Y-82164800D01*
X115159105Y-82180143D01*
X115171440Y-82196775D01*
X115182085Y-82214535D01*
X115190939Y-82233254D01*
X115197914Y-82252750D01*
X115202946Y-82272836D01*
X115205984Y-82293318D01*
X115207000Y-82314000D01*
X115207000Y-82786000D01*
X115205984Y-82806682D01*
X115202946Y-82827164D01*
X115197914Y-82847250D01*
X115190939Y-82866746D01*
X115182085Y-82885465D01*
X115171440Y-82903225D01*
X115159105Y-82919857D01*
X115145200Y-82935200D01*
X115129857Y-82949105D01*
X115113225Y-82961440D01*
X115095465Y-82972085D01*
X115076746Y-82980939D01*
X115057250Y-82987914D01*
X115037164Y-82992946D01*
X115016682Y-82995984D01*
X114996000Y-82997000D01*
X114574000Y-82997000D01*
X114553318Y-82995984D01*
X114532836Y-82992946D01*
X114512750Y-82987914D01*
X114493254Y-82980939D01*
X114474535Y-82972085D01*
X114456775Y-82961440D01*
X114440143Y-82949105D01*
X114424800Y-82935200D01*
X114410895Y-82919857D01*
X114398560Y-82903225D01*
X114387915Y-82885465D01*
X114379061Y-82866746D01*
X114372086Y-82847250D01*
X114367054Y-82827164D01*
X114364016Y-82806682D01*
X114363000Y-82786000D01*
X114363000Y-82314000D01*
X114364016Y-82293318D01*
X114367054Y-82272836D01*
X114372086Y-82252750D01*
X114379061Y-82233254D01*
X114387915Y-82214535D01*
X114398560Y-82196775D01*
X114410895Y-82180143D01*
X114424800Y-82164800D01*
X114440143Y-82150895D01*
X114456775Y-82138560D01*
X114474535Y-82127915D01*
X114493254Y-82119061D01*
X114512750Y-82112086D01*
X114532836Y-82107054D01*
X114553318Y-82104016D01*
X114574000Y-82103000D01*
X114996000Y-82103000D01*
X115016682Y-82104016D01*
X115016682Y-82104016D01*
G37*
D16*
X114785000Y-82550000D03*
D14*
G36*
X109921182Y-84478516D02*
G01*
X109941664Y-84481554D01*
X109961750Y-84486586D01*
X109981246Y-84493561D01*
X109999965Y-84502415D01*
X110017725Y-84513060D01*
X110034357Y-84525395D01*
X110049700Y-84539300D01*
X110063605Y-84554643D01*
X110075940Y-84571275D01*
X110086585Y-84589035D01*
X110095439Y-84607754D01*
X110102414Y-84627250D01*
X110107446Y-84647336D01*
X110110484Y-84667818D01*
X110111500Y-84688500D01*
X110111500Y-85110500D01*
X110110484Y-85131182D01*
X110107446Y-85151664D01*
X110102414Y-85171750D01*
X110095439Y-85191246D01*
X110086585Y-85209965D01*
X110075940Y-85227725D01*
X110063605Y-85244357D01*
X110049700Y-85259700D01*
X110034357Y-85273605D01*
X110017725Y-85285940D01*
X109999965Y-85296585D01*
X109981246Y-85305439D01*
X109961750Y-85312414D01*
X109941664Y-85317446D01*
X109921182Y-85320484D01*
X109900500Y-85321500D01*
X109428500Y-85321500D01*
X109407818Y-85320484D01*
X109387336Y-85317446D01*
X109367250Y-85312414D01*
X109347754Y-85305439D01*
X109329035Y-85296585D01*
X109311275Y-85285940D01*
X109294643Y-85273605D01*
X109279300Y-85259700D01*
X109265395Y-85244357D01*
X109253060Y-85227725D01*
X109242415Y-85209965D01*
X109233561Y-85191246D01*
X109226586Y-85171750D01*
X109221554Y-85151664D01*
X109218516Y-85131182D01*
X109217500Y-85110500D01*
X109217500Y-84688500D01*
X109218516Y-84667818D01*
X109221554Y-84647336D01*
X109226586Y-84627250D01*
X109233561Y-84607754D01*
X109242415Y-84589035D01*
X109253060Y-84571275D01*
X109265395Y-84554643D01*
X109279300Y-84539300D01*
X109294643Y-84525395D01*
X109311275Y-84513060D01*
X109329035Y-84502415D01*
X109347754Y-84493561D01*
X109367250Y-84486586D01*
X109387336Y-84481554D01*
X109407818Y-84478516D01*
X109428500Y-84477500D01*
X109900500Y-84477500D01*
X109921182Y-84478516D01*
X109921182Y-84478516D01*
G37*
D16*
X109664500Y-84899500D03*
D14*
G36*
X109921182Y-85448516D02*
G01*
X109941664Y-85451554D01*
X109961750Y-85456586D01*
X109981246Y-85463561D01*
X109999965Y-85472415D01*
X110017725Y-85483060D01*
X110034357Y-85495395D01*
X110049700Y-85509300D01*
X110063605Y-85524643D01*
X110075940Y-85541275D01*
X110086585Y-85559035D01*
X110095439Y-85577754D01*
X110102414Y-85597250D01*
X110107446Y-85617336D01*
X110110484Y-85637818D01*
X110111500Y-85658500D01*
X110111500Y-86080500D01*
X110110484Y-86101182D01*
X110107446Y-86121664D01*
X110102414Y-86141750D01*
X110095439Y-86161246D01*
X110086585Y-86179965D01*
X110075940Y-86197725D01*
X110063605Y-86214357D01*
X110049700Y-86229700D01*
X110034357Y-86243605D01*
X110017725Y-86255940D01*
X109999965Y-86266585D01*
X109981246Y-86275439D01*
X109961750Y-86282414D01*
X109941664Y-86287446D01*
X109921182Y-86290484D01*
X109900500Y-86291500D01*
X109428500Y-86291500D01*
X109407818Y-86290484D01*
X109387336Y-86287446D01*
X109367250Y-86282414D01*
X109347754Y-86275439D01*
X109329035Y-86266585D01*
X109311275Y-86255940D01*
X109294643Y-86243605D01*
X109279300Y-86229700D01*
X109265395Y-86214357D01*
X109253060Y-86197725D01*
X109242415Y-86179965D01*
X109233561Y-86161246D01*
X109226586Y-86141750D01*
X109221554Y-86121664D01*
X109218516Y-86101182D01*
X109217500Y-86080500D01*
X109217500Y-85658500D01*
X109218516Y-85637818D01*
X109221554Y-85617336D01*
X109226586Y-85597250D01*
X109233561Y-85577754D01*
X109242415Y-85559035D01*
X109253060Y-85541275D01*
X109265395Y-85524643D01*
X109279300Y-85509300D01*
X109294643Y-85495395D01*
X109311275Y-85483060D01*
X109329035Y-85472415D01*
X109347754Y-85463561D01*
X109367250Y-85456586D01*
X109387336Y-85451554D01*
X109407818Y-85448516D01*
X109428500Y-85447500D01*
X109900500Y-85447500D01*
X109921182Y-85448516D01*
X109921182Y-85448516D01*
G37*
D16*
X109664500Y-85869500D03*
D14*
G36*
X109933882Y-88067816D02*
G01*
X109954364Y-88070854D01*
X109974450Y-88075886D01*
X109993946Y-88082861D01*
X110012665Y-88091715D01*
X110030425Y-88102360D01*
X110047057Y-88114695D01*
X110062400Y-88128600D01*
X110076305Y-88143943D01*
X110088640Y-88160575D01*
X110099285Y-88178335D01*
X110108139Y-88197054D01*
X110115114Y-88216550D01*
X110120146Y-88236636D01*
X110123184Y-88257118D01*
X110124200Y-88277800D01*
X110124200Y-88699800D01*
X110123184Y-88720482D01*
X110120146Y-88740964D01*
X110115114Y-88761050D01*
X110108139Y-88780546D01*
X110099285Y-88799265D01*
X110088640Y-88817025D01*
X110076305Y-88833657D01*
X110062400Y-88849000D01*
X110047057Y-88862905D01*
X110030425Y-88875240D01*
X110012665Y-88885885D01*
X109993946Y-88894739D01*
X109974450Y-88901714D01*
X109954364Y-88906746D01*
X109933882Y-88909784D01*
X109913200Y-88910800D01*
X109441200Y-88910800D01*
X109420518Y-88909784D01*
X109400036Y-88906746D01*
X109379950Y-88901714D01*
X109360454Y-88894739D01*
X109341735Y-88885885D01*
X109323975Y-88875240D01*
X109307343Y-88862905D01*
X109292000Y-88849000D01*
X109278095Y-88833657D01*
X109265760Y-88817025D01*
X109255115Y-88799265D01*
X109246261Y-88780546D01*
X109239286Y-88761050D01*
X109234254Y-88740964D01*
X109231216Y-88720482D01*
X109230200Y-88699800D01*
X109230200Y-88277800D01*
X109231216Y-88257118D01*
X109234254Y-88236636D01*
X109239286Y-88216550D01*
X109246261Y-88197054D01*
X109255115Y-88178335D01*
X109265760Y-88160575D01*
X109278095Y-88143943D01*
X109292000Y-88128600D01*
X109307343Y-88114695D01*
X109323975Y-88102360D01*
X109341735Y-88091715D01*
X109360454Y-88082861D01*
X109379950Y-88075886D01*
X109400036Y-88070854D01*
X109420518Y-88067816D01*
X109441200Y-88066800D01*
X109913200Y-88066800D01*
X109933882Y-88067816D01*
X109933882Y-88067816D01*
G37*
D16*
X109677200Y-88488800D03*
D14*
G36*
X109933882Y-89037816D02*
G01*
X109954364Y-89040854D01*
X109974450Y-89045886D01*
X109993946Y-89052861D01*
X110012665Y-89061715D01*
X110030425Y-89072360D01*
X110047057Y-89084695D01*
X110062400Y-89098600D01*
X110076305Y-89113943D01*
X110088640Y-89130575D01*
X110099285Y-89148335D01*
X110108139Y-89167054D01*
X110115114Y-89186550D01*
X110120146Y-89206636D01*
X110123184Y-89227118D01*
X110124200Y-89247800D01*
X110124200Y-89669800D01*
X110123184Y-89690482D01*
X110120146Y-89710964D01*
X110115114Y-89731050D01*
X110108139Y-89750546D01*
X110099285Y-89769265D01*
X110088640Y-89787025D01*
X110076305Y-89803657D01*
X110062400Y-89819000D01*
X110047057Y-89832905D01*
X110030425Y-89845240D01*
X110012665Y-89855885D01*
X109993946Y-89864739D01*
X109974450Y-89871714D01*
X109954364Y-89876746D01*
X109933882Y-89879784D01*
X109913200Y-89880800D01*
X109441200Y-89880800D01*
X109420518Y-89879784D01*
X109400036Y-89876746D01*
X109379950Y-89871714D01*
X109360454Y-89864739D01*
X109341735Y-89855885D01*
X109323975Y-89845240D01*
X109307343Y-89832905D01*
X109292000Y-89819000D01*
X109278095Y-89803657D01*
X109265760Y-89787025D01*
X109255115Y-89769265D01*
X109246261Y-89750546D01*
X109239286Y-89731050D01*
X109234254Y-89710964D01*
X109231216Y-89690482D01*
X109230200Y-89669800D01*
X109230200Y-89247800D01*
X109231216Y-89227118D01*
X109234254Y-89206636D01*
X109239286Y-89186550D01*
X109246261Y-89167054D01*
X109255115Y-89148335D01*
X109265760Y-89130575D01*
X109278095Y-89113943D01*
X109292000Y-89098600D01*
X109307343Y-89084695D01*
X109323975Y-89072360D01*
X109341735Y-89061715D01*
X109360454Y-89052861D01*
X109379950Y-89045886D01*
X109400036Y-89040854D01*
X109420518Y-89037816D01*
X109441200Y-89036800D01*
X109913200Y-89036800D01*
X109933882Y-89037816D01*
X109933882Y-89037816D01*
G37*
D16*
X109677200Y-89458800D03*
D14*
G36*
X109921182Y-90701516D02*
G01*
X109941664Y-90704554D01*
X109961750Y-90709586D01*
X109981246Y-90716561D01*
X109999965Y-90725415D01*
X110017725Y-90736060D01*
X110034357Y-90748395D01*
X110049700Y-90762300D01*
X110063605Y-90777643D01*
X110075940Y-90794275D01*
X110086585Y-90812035D01*
X110095439Y-90830754D01*
X110102414Y-90850250D01*
X110107446Y-90870336D01*
X110110484Y-90890818D01*
X110111500Y-90911500D01*
X110111500Y-91333500D01*
X110110484Y-91354182D01*
X110107446Y-91374664D01*
X110102414Y-91394750D01*
X110095439Y-91414246D01*
X110086585Y-91432965D01*
X110075940Y-91450725D01*
X110063605Y-91467357D01*
X110049700Y-91482700D01*
X110034357Y-91496605D01*
X110017725Y-91508940D01*
X109999965Y-91519585D01*
X109981246Y-91528439D01*
X109961750Y-91535414D01*
X109941664Y-91540446D01*
X109921182Y-91543484D01*
X109900500Y-91544500D01*
X109428500Y-91544500D01*
X109407818Y-91543484D01*
X109387336Y-91540446D01*
X109367250Y-91535414D01*
X109347754Y-91528439D01*
X109329035Y-91519585D01*
X109311275Y-91508940D01*
X109294643Y-91496605D01*
X109279300Y-91482700D01*
X109265395Y-91467357D01*
X109253060Y-91450725D01*
X109242415Y-91432965D01*
X109233561Y-91414246D01*
X109226586Y-91394750D01*
X109221554Y-91374664D01*
X109218516Y-91354182D01*
X109217500Y-91333500D01*
X109217500Y-90911500D01*
X109218516Y-90890818D01*
X109221554Y-90870336D01*
X109226586Y-90850250D01*
X109233561Y-90830754D01*
X109242415Y-90812035D01*
X109253060Y-90794275D01*
X109265395Y-90777643D01*
X109279300Y-90762300D01*
X109294643Y-90748395D01*
X109311275Y-90736060D01*
X109329035Y-90725415D01*
X109347754Y-90716561D01*
X109367250Y-90709586D01*
X109387336Y-90704554D01*
X109407818Y-90701516D01*
X109428500Y-90700500D01*
X109900500Y-90700500D01*
X109921182Y-90701516D01*
X109921182Y-90701516D01*
G37*
D16*
X109664500Y-91122500D03*
D14*
G36*
X109921182Y-91671516D02*
G01*
X109941664Y-91674554D01*
X109961750Y-91679586D01*
X109981246Y-91686561D01*
X109999965Y-91695415D01*
X110017725Y-91706060D01*
X110034357Y-91718395D01*
X110049700Y-91732300D01*
X110063605Y-91747643D01*
X110075940Y-91764275D01*
X110086585Y-91782035D01*
X110095439Y-91800754D01*
X110102414Y-91820250D01*
X110107446Y-91840336D01*
X110110484Y-91860818D01*
X110111500Y-91881500D01*
X110111500Y-92303500D01*
X110110484Y-92324182D01*
X110107446Y-92344664D01*
X110102414Y-92364750D01*
X110095439Y-92384246D01*
X110086585Y-92402965D01*
X110075940Y-92420725D01*
X110063605Y-92437357D01*
X110049700Y-92452700D01*
X110034357Y-92466605D01*
X110017725Y-92478940D01*
X109999965Y-92489585D01*
X109981246Y-92498439D01*
X109961750Y-92505414D01*
X109941664Y-92510446D01*
X109921182Y-92513484D01*
X109900500Y-92514500D01*
X109428500Y-92514500D01*
X109407818Y-92513484D01*
X109387336Y-92510446D01*
X109367250Y-92505414D01*
X109347754Y-92498439D01*
X109329035Y-92489585D01*
X109311275Y-92478940D01*
X109294643Y-92466605D01*
X109279300Y-92452700D01*
X109265395Y-92437357D01*
X109253060Y-92420725D01*
X109242415Y-92402965D01*
X109233561Y-92384246D01*
X109226586Y-92364750D01*
X109221554Y-92344664D01*
X109218516Y-92324182D01*
X109217500Y-92303500D01*
X109217500Y-91881500D01*
X109218516Y-91860818D01*
X109221554Y-91840336D01*
X109226586Y-91820250D01*
X109233561Y-91800754D01*
X109242415Y-91782035D01*
X109253060Y-91764275D01*
X109265395Y-91747643D01*
X109279300Y-91732300D01*
X109294643Y-91718395D01*
X109311275Y-91706060D01*
X109329035Y-91695415D01*
X109347754Y-91686561D01*
X109367250Y-91679586D01*
X109387336Y-91674554D01*
X109407818Y-91671516D01*
X109428500Y-91670500D01*
X109900500Y-91670500D01*
X109921182Y-91671516D01*
X109921182Y-91671516D01*
G37*
D16*
X109664500Y-92092500D03*
D14*
G36*
X123614415Y-74519859D02*
G01*
X123641814Y-74523923D01*
X123668683Y-74530654D01*
X123694762Y-74539985D01*
X123719802Y-74551828D01*
X123743560Y-74566068D01*
X123765808Y-74582568D01*
X123786331Y-74601169D01*
X123804932Y-74621692D01*
X123821432Y-74643940D01*
X123835672Y-74667698D01*
X123847515Y-74692738D01*
X123856846Y-74718817D01*
X123863577Y-74745686D01*
X123867641Y-74773085D01*
X123869000Y-74800750D01*
X123869000Y-75440250D01*
X123867641Y-75467915D01*
X123863577Y-75495314D01*
X123856846Y-75522183D01*
X123847515Y-75548262D01*
X123835672Y-75573302D01*
X123821432Y-75597060D01*
X123804932Y-75619308D01*
X123786331Y-75639831D01*
X123765808Y-75658432D01*
X123743560Y-75674932D01*
X123719802Y-75689172D01*
X123694762Y-75701015D01*
X123668683Y-75710346D01*
X123641814Y-75717077D01*
X123614415Y-75721141D01*
X123586750Y-75722500D01*
X123022250Y-75722500D01*
X122994585Y-75721141D01*
X122967186Y-75717077D01*
X122940317Y-75710346D01*
X122914238Y-75701015D01*
X122889198Y-75689172D01*
X122865440Y-75674932D01*
X122843192Y-75658432D01*
X122822669Y-75639831D01*
X122804068Y-75619308D01*
X122787568Y-75597060D01*
X122773328Y-75573302D01*
X122761485Y-75548262D01*
X122752154Y-75522183D01*
X122745423Y-75495314D01*
X122741359Y-75467915D01*
X122740000Y-75440250D01*
X122740000Y-74800750D01*
X122741359Y-74773085D01*
X122745423Y-74745686D01*
X122752154Y-74718817D01*
X122761485Y-74692738D01*
X122773328Y-74667698D01*
X122787568Y-74643940D01*
X122804068Y-74621692D01*
X122822669Y-74601169D01*
X122843192Y-74582568D01*
X122865440Y-74566068D01*
X122889198Y-74551828D01*
X122914238Y-74539985D01*
X122940317Y-74530654D01*
X122967186Y-74523923D01*
X122994585Y-74519859D01*
X123022250Y-74518500D01*
X123586750Y-74518500D01*
X123614415Y-74519859D01*
X123614415Y-74519859D01*
G37*
D15*
X123304500Y-75120500D03*
D14*
G36*
X122039415Y-74519859D02*
G01*
X122066814Y-74523923D01*
X122093683Y-74530654D01*
X122119762Y-74539985D01*
X122144802Y-74551828D01*
X122168560Y-74566068D01*
X122190808Y-74582568D01*
X122211331Y-74601169D01*
X122229932Y-74621692D01*
X122246432Y-74643940D01*
X122260672Y-74667698D01*
X122272515Y-74692738D01*
X122281846Y-74718817D01*
X122288577Y-74745686D01*
X122292641Y-74773085D01*
X122294000Y-74800750D01*
X122294000Y-75440250D01*
X122292641Y-75467915D01*
X122288577Y-75495314D01*
X122281846Y-75522183D01*
X122272515Y-75548262D01*
X122260672Y-75573302D01*
X122246432Y-75597060D01*
X122229932Y-75619308D01*
X122211331Y-75639831D01*
X122190808Y-75658432D01*
X122168560Y-75674932D01*
X122144802Y-75689172D01*
X122119762Y-75701015D01*
X122093683Y-75710346D01*
X122066814Y-75717077D01*
X122039415Y-75721141D01*
X122011750Y-75722500D01*
X121447250Y-75722500D01*
X121419585Y-75721141D01*
X121392186Y-75717077D01*
X121365317Y-75710346D01*
X121339238Y-75701015D01*
X121314198Y-75689172D01*
X121290440Y-75674932D01*
X121268192Y-75658432D01*
X121247669Y-75639831D01*
X121229068Y-75619308D01*
X121212568Y-75597060D01*
X121198328Y-75573302D01*
X121186485Y-75548262D01*
X121177154Y-75522183D01*
X121170423Y-75495314D01*
X121166359Y-75467915D01*
X121165000Y-75440250D01*
X121165000Y-74800750D01*
X121166359Y-74773085D01*
X121170423Y-74745686D01*
X121177154Y-74718817D01*
X121186485Y-74692738D01*
X121198328Y-74667698D01*
X121212568Y-74643940D01*
X121229068Y-74621692D01*
X121247669Y-74601169D01*
X121268192Y-74582568D01*
X121290440Y-74566068D01*
X121314198Y-74551828D01*
X121339238Y-74539985D01*
X121365317Y-74530654D01*
X121392186Y-74523923D01*
X121419585Y-74519859D01*
X121447250Y-74518500D01*
X122011750Y-74518500D01*
X122039415Y-74519859D01*
X122039415Y-74519859D01*
G37*
D15*
X121729500Y-75120500D03*
D14*
G36*
X118794082Y-73518816D02*
G01*
X118814564Y-73521854D01*
X118834650Y-73526886D01*
X118854146Y-73533861D01*
X118872865Y-73542715D01*
X118890625Y-73553360D01*
X118907257Y-73565695D01*
X118922600Y-73579600D01*
X118936505Y-73594943D01*
X118948840Y-73611575D01*
X118959485Y-73629335D01*
X118968339Y-73648054D01*
X118975314Y-73667550D01*
X118980346Y-73687636D01*
X118983384Y-73708118D01*
X118984400Y-73728800D01*
X118984400Y-74200800D01*
X118983384Y-74221482D01*
X118980346Y-74241964D01*
X118975314Y-74262050D01*
X118968339Y-74281546D01*
X118959485Y-74300265D01*
X118948840Y-74318025D01*
X118936505Y-74334657D01*
X118922600Y-74350000D01*
X118907257Y-74363905D01*
X118890625Y-74376240D01*
X118872865Y-74386885D01*
X118854146Y-74395739D01*
X118834650Y-74402714D01*
X118814564Y-74407746D01*
X118794082Y-74410784D01*
X118773400Y-74411800D01*
X118351400Y-74411800D01*
X118330718Y-74410784D01*
X118310236Y-74407746D01*
X118290150Y-74402714D01*
X118270654Y-74395739D01*
X118251935Y-74386885D01*
X118234175Y-74376240D01*
X118217543Y-74363905D01*
X118202200Y-74350000D01*
X118188295Y-74334657D01*
X118175960Y-74318025D01*
X118165315Y-74300265D01*
X118156461Y-74281546D01*
X118149486Y-74262050D01*
X118144454Y-74241964D01*
X118141416Y-74221482D01*
X118140400Y-74200800D01*
X118140400Y-73728800D01*
X118141416Y-73708118D01*
X118144454Y-73687636D01*
X118149486Y-73667550D01*
X118156461Y-73648054D01*
X118165315Y-73629335D01*
X118175960Y-73611575D01*
X118188295Y-73594943D01*
X118202200Y-73579600D01*
X118217543Y-73565695D01*
X118234175Y-73553360D01*
X118251935Y-73542715D01*
X118270654Y-73533861D01*
X118290150Y-73526886D01*
X118310236Y-73521854D01*
X118330718Y-73518816D01*
X118351400Y-73517800D01*
X118773400Y-73517800D01*
X118794082Y-73518816D01*
X118794082Y-73518816D01*
G37*
D16*
X118562400Y-73964800D03*
D14*
G36*
X119764082Y-73518816D02*
G01*
X119784564Y-73521854D01*
X119804650Y-73526886D01*
X119824146Y-73533861D01*
X119842865Y-73542715D01*
X119860625Y-73553360D01*
X119877257Y-73565695D01*
X119892600Y-73579600D01*
X119906505Y-73594943D01*
X119918840Y-73611575D01*
X119929485Y-73629335D01*
X119938339Y-73648054D01*
X119945314Y-73667550D01*
X119950346Y-73687636D01*
X119953384Y-73708118D01*
X119954400Y-73728800D01*
X119954400Y-74200800D01*
X119953384Y-74221482D01*
X119950346Y-74241964D01*
X119945314Y-74262050D01*
X119938339Y-74281546D01*
X119929485Y-74300265D01*
X119918840Y-74318025D01*
X119906505Y-74334657D01*
X119892600Y-74350000D01*
X119877257Y-74363905D01*
X119860625Y-74376240D01*
X119842865Y-74386885D01*
X119824146Y-74395739D01*
X119804650Y-74402714D01*
X119784564Y-74407746D01*
X119764082Y-74410784D01*
X119743400Y-74411800D01*
X119321400Y-74411800D01*
X119300718Y-74410784D01*
X119280236Y-74407746D01*
X119260150Y-74402714D01*
X119240654Y-74395739D01*
X119221935Y-74386885D01*
X119204175Y-74376240D01*
X119187543Y-74363905D01*
X119172200Y-74350000D01*
X119158295Y-74334657D01*
X119145960Y-74318025D01*
X119135315Y-74300265D01*
X119126461Y-74281546D01*
X119119486Y-74262050D01*
X119114454Y-74241964D01*
X119111416Y-74221482D01*
X119110400Y-74200800D01*
X119110400Y-73728800D01*
X119111416Y-73708118D01*
X119114454Y-73687636D01*
X119119486Y-73667550D01*
X119126461Y-73648054D01*
X119135315Y-73629335D01*
X119145960Y-73611575D01*
X119158295Y-73594943D01*
X119172200Y-73579600D01*
X119187543Y-73565695D01*
X119204175Y-73553360D01*
X119221935Y-73542715D01*
X119240654Y-73533861D01*
X119260150Y-73526886D01*
X119280236Y-73521854D01*
X119300718Y-73518816D01*
X119321400Y-73517800D01*
X119743400Y-73517800D01*
X119764082Y-73518816D01*
X119764082Y-73518816D01*
G37*
D16*
X119532400Y-73964800D03*
D14*
G36*
X111508682Y-92624016D02*
G01*
X111529164Y-92627054D01*
X111549250Y-92632086D01*
X111568746Y-92639061D01*
X111587465Y-92647915D01*
X111605225Y-92658560D01*
X111621857Y-92670895D01*
X111637200Y-92684800D01*
X111651105Y-92700143D01*
X111663440Y-92716775D01*
X111674085Y-92734535D01*
X111682939Y-92753254D01*
X111689914Y-92772750D01*
X111694946Y-92792836D01*
X111697984Y-92813318D01*
X111699000Y-92834000D01*
X111699000Y-93256000D01*
X111697984Y-93276682D01*
X111694946Y-93297164D01*
X111689914Y-93317250D01*
X111682939Y-93336746D01*
X111674085Y-93355465D01*
X111663440Y-93373225D01*
X111651105Y-93389857D01*
X111637200Y-93405200D01*
X111621857Y-93419105D01*
X111605225Y-93431440D01*
X111587465Y-93442085D01*
X111568746Y-93450939D01*
X111549250Y-93457914D01*
X111529164Y-93462946D01*
X111508682Y-93465984D01*
X111488000Y-93467000D01*
X111016000Y-93467000D01*
X110995318Y-93465984D01*
X110974836Y-93462946D01*
X110954750Y-93457914D01*
X110935254Y-93450939D01*
X110916535Y-93442085D01*
X110898775Y-93431440D01*
X110882143Y-93419105D01*
X110866800Y-93405200D01*
X110852895Y-93389857D01*
X110840560Y-93373225D01*
X110829915Y-93355465D01*
X110821061Y-93336746D01*
X110814086Y-93317250D01*
X110809054Y-93297164D01*
X110806016Y-93276682D01*
X110805000Y-93256000D01*
X110805000Y-92834000D01*
X110806016Y-92813318D01*
X110809054Y-92792836D01*
X110814086Y-92772750D01*
X110821061Y-92753254D01*
X110829915Y-92734535D01*
X110840560Y-92716775D01*
X110852895Y-92700143D01*
X110866800Y-92684800D01*
X110882143Y-92670895D01*
X110898775Y-92658560D01*
X110916535Y-92647915D01*
X110935254Y-92639061D01*
X110954750Y-92632086D01*
X110974836Y-92627054D01*
X110995318Y-92624016D01*
X111016000Y-92623000D01*
X111488000Y-92623000D01*
X111508682Y-92624016D01*
X111508682Y-92624016D01*
G37*
D16*
X111252000Y-93045000D03*
D14*
G36*
X111508682Y-91654016D02*
G01*
X111529164Y-91657054D01*
X111549250Y-91662086D01*
X111568746Y-91669061D01*
X111587465Y-91677915D01*
X111605225Y-91688560D01*
X111621857Y-91700895D01*
X111637200Y-91714800D01*
X111651105Y-91730143D01*
X111663440Y-91746775D01*
X111674085Y-91764535D01*
X111682939Y-91783254D01*
X111689914Y-91802750D01*
X111694946Y-91822836D01*
X111697984Y-91843318D01*
X111699000Y-91864000D01*
X111699000Y-92286000D01*
X111697984Y-92306682D01*
X111694946Y-92327164D01*
X111689914Y-92347250D01*
X111682939Y-92366746D01*
X111674085Y-92385465D01*
X111663440Y-92403225D01*
X111651105Y-92419857D01*
X111637200Y-92435200D01*
X111621857Y-92449105D01*
X111605225Y-92461440D01*
X111587465Y-92472085D01*
X111568746Y-92480939D01*
X111549250Y-92487914D01*
X111529164Y-92492946D01*
X111508682Y-92495984D01*
X111488000Y-92497000D01*
X111016000Y-92497000D01*
X110995318Y-92495984D01*
X110974836Y-92492946D01*
X110954750Y-92487914D01*
X110935254Y-92480939D01*
X110916535Y-92472085D01*
X110898775Y-92461440D01*
X110882143Y-92449105D01*
X110866800Y-92435200D01*
X110852895Y-92419857D01*
X110840560Y-92403225D01*
X110829915Y-92385465D01*
X110821061Y-92366746D01*
X110814086Y-92347250D01*
X110809054Y-92327164D01*
X110806016Y-92306682D01*
X110805000Y-92286000D01*
X110805000Y-91864000D01*
X110806016Y-91843318D01*
X110809054Y-91822836D01*
X110814086Y-91802750D01*
X110821061Y-91783254D01*
X110829915Y-91764535D01*
X110840560Y-91746775D01*
X110852895Y-91730143D01*
X110866800Y-91714800D01*
X110882143Y-91700895D01*
X110898775Y-91688560D01*
X110916535Y-91677915D01*
X110935254Y-91669061D01*
X110954750Y-91662086D01*
X110974836Y-91657054D01*
X110995318Y-91654016D01*
X111016000Y-91653000D01*
X111488000Y-91653000D01*
X111508682Y-91654016D01*
X111508682Y-91654016D01*
G37*
D16*
X111252000Y-92075000D03*
D14*
G36*
X118366682Y-78169016D02*
G01*
X118387164Y-78172054D01*
X118407250Y-78177086D01*
X118426746Y-78184061D01*
X118445465Y-78192915D01*
X118463225Y-78203560D01*
X118479857Y-78215895D01*
X118495200Y-78229800D01*
X118509105Y-78245143D01*
X118521440Y-78261775D01*
X118532085Y-78279535D01*
X118540939Y-78298254D01*
X118547914Y-78317750D01*
X118552946Y-78337836D01*
X118555984Y-78358318D01*
X118557000Y-78379000D01*
X118557000Y-78801000D01*
X118555984Y-78821682D01*
X118552946Y-78842164D01*
X118547914Y-78862250D01*
X118540939Y-78881746D01*
X118532085Y-78900465D01*
X118521440Y-78918225D01*
X118509105Y-78934857D01*
X118495200Y-78950200D01*
X118479857Y-78964105D01*
X118463225Y-78976440D01*
X118445465Y-78987085D01*
X118426746Y-78995939D01*
X118407250Y-79002914D01*
X118387164Y-79007946D01*
X118366682Y-79010984D01*
X118346000Y-79012000D01*
X117874000Y-79012000D01*
X117853318Y-79010984D01*
X117832836Y-79007946D01*
X117812750Y-79002914D01*
X117793254Y-78995939D01*
X117774535Y-78987085D01*
X117756775Y-78976440D01*
X117740143Y-78964105D01*
X117724800Y-78950200D01*
X117710895Y-78934857D01*
X117698560Y-78918225D01*
X117687915Y-78900465D01*
X117679061Y-78881746D01*
X117672086Y-78862250D01*
X117667054Y-78842164D01*
X117664016Y-78821682D01*
X117663000Y-78801000D01*
X117663000Y-78379000D01*
X117664016Y-78358318D01*
X117667054Y-78337836D01*
X117672086Y-78317750D01*
X117679061Y-78298254D01*
X117687915Y-78279535D01*
X117698560Y-78261775D01*
X117710895Y-78245143D01*
X117724800Y-78229800D01*
X117740143Y-78215895D01*
X117756775Y-78203560D01*
X117774535Y-78192915D01*
X117793254Y-78184061D01*
X117812750Y-78177086D01*
X117832836Y-78172054D01*
X117853318Y-78169016D01*
X117874000Y-78168000D01*
X118346000Y-78168000D01*
X118366682Y-78169016D01*
X118366682Y-78169016D01*
G37*
D16*
X118110000Y-78590000D03*
D14*
G36*
X118366682Y-77199016D02*
G01*
X118387164Y-77202054D01*
X118407250Y-77207086D01*
X118426746Y-77214061D01*
X118445465Y-77222915D01*
X118463225Y-77233560D01*
X118479857Y-77245895D01*
X118495200Y-77259800D01*
X118509105Y-77275143D01*
X118521440Y-77291775D01*
X118532085Y-77309535D01*
X118540939Y-77328254D01*
X118547914Y-77347750D01*
X118552946Y-77367836D01*
X118555984Y-77388318D01*
X118557000Y-77409000D01*
X118557000Y-77831000D01*
X118555984Y-77851682D01*
X118552946Y-77872164D01*
X118547914Y-77892250D01*
X118540939Y-77911746D01*
X118532085Y-77930465D01*
X118521440Y-77948225D01*
X118509105Y-77964857D01*
X118495200Y-77980200D01*
X118479857Y-77994105D01*
X118463225Y-78006440D01*
X118445465Y-78017085D01*
X118426746Y-78025939D01*
X118407250Y-78032914D01*
X118387164Y-78037946D01*
X118366682Y-78040984D01*
X118346000Y-78042000D01*
X117874000Y-78042000D01*
X117853318Y-78040984D01*
X117832836Y-78037946D01*
X117812750Y-78032914D01*
X117793254Y-78025939D01*
X117774535Y-78017085D01*
X117756775Y-78006440D01*
X117740143Y-77994105D01*
X117724800Y-77980200D01*
X117710895Y-77964857D01*
X117698560Y-77948225D01*
X117687915Y-77930465D01*
X117679061Y-77911746D01*
X117672086Y-77892250D01*
X117667054Y-77872164D01*
X117664016Y-77851682D01*
X117663000Y-77831000D01*
X117663000Y-77409000D01*
X117664016Y-77388318D01*
X117667054Y-77367836D01*
X117672086Y-77347750D01*
X117679061Y-77328254D01*
X117687915Y-77309535D01*
X117698560Y-77291775D01*
X117710895Y-77275143D01*
X117724800Y-77259800D01*
X117740143Y-77245895D01*
X117756775Y-77233560D01*
X117774535Y-77222915D01*
X117793254Y-77214061D01*
X117812750Y-77207086D01*
X117832836Y-77202054D01*
X117853318Y-77199016D01*
X117874000Y-77198000D01*
X118346000Y-77198000D01*
X118366682Y-77199016D01*
X118366682Y-77199016D01*
G37*
D16*
X118110000Y-77620000D03*
D14*
G36*
X119738682Y-87565016D02*
G01*
X119759164Y-87568054D01*
X119779250Y-87573086D01*
X119798746Y-87580061D01*
X119817465Y-87588915D01*
X119835225Y-87599560D01*
X119851857Y-87611895D01*
X119867200Y-87625800D01*
X119881105Y-87641143D01*
X119893440Y-87657775D01*
X119904085Y-87675535D01*
X119912939Y-87694254D01*
X119919914Y-87713750D01*
X119924946Y-87733836D01*
X119927984Y-87754318D01*
X119929000Y-87775000D01*
X119929000Y-88247000D01*
X119927984Y-88267682D01*
X119924946Y-88288164D01*
X119919914Y-88308250D01*
X119912939Y-88327746D01*
X119904085Y-88346465D01*
X119893440Y-88364225D01*
X119881105Y-88380857D01*
X119867200Y-88396200D01*
X119851857Y-88410105D01*
X119835225Y-88422440D01*
X119817465Y-88433085D01*
X119798746Y-88441939D01*
X119779250Y-88448914D01*
X119759164Y-88453946D01*
X119738682Y-88456984D01*
X119718000Y-88458000D01*
X119296000Y-88458000D01*
X119275318Y-88456984D01*
X119254836Y-88453946D01*
X119234750Y-88448914D01*
X119215254Y-88441939D01*
X119196535Y-88433085D01*
X119178775Y-88422440D01*
X119162143Y-88410105D01*
X119146800Y-88396200D01*
X119132895Y-88380857D01*
X119120560Y-88364225D01*
X119109915Y-88346465D01*
X119101061Y-88327746D01*
X119094086Y-88308250D01*
X119089054Y-88288164D01*
X119086016Y-88267682D01*
X119085000Y-88247000D01*
X119085000Y-87775000D01*
X119086016Y-87754318D01*
X119089054Y-87733836D01*
X119094086Y-87713750D01*
X119101061Y-87694254D01*
X119109915Y-87675535D01*
X119120560Y-87657775D01*
X119132895Y-87641143D01*
X119146800Y-87625800D01*
X119162143Y-87611895D01*
X119178775Y-87599560D01*
X119196535Y-87588915D01*
X119215254Y-87580061D01*
X119234750Y-87573086D01*
X119254836Y-87568054D01*
X119275318Y-87565016D01*
X119296000Y-87564000D01*
X119718000Y-87564000D01*
X119738682Y-87565016D01*
X119738682Y-87565016D01*
G37*
D16*
X119507000Y-88011000D03*
D14*
G36*
X118768682Y-87565016D02*
G01*
X118789164Y-87568054D01*
X118809250Y-87573086D01*
X118828746Y-87580061D01*
X118847465Y-87588915D01*
X118865225Y-87599560D01*
X118881857Y-87611895D01*
X118897200Y-87625800D01*
X118911105Y-87641143D01*
X118923440Y-87657775D01*
X118934085Y-87675535D01*
X118942939Y-87694254D01*
X118949914Y-87713750D01*
X118954946Y-87733836D01*
X118957984Y-87754318D01*
X118959000Y-87775000D01*
X118959000Y-88247000D01*
X118957984Y-88267682D01*
X118954946Y-88288164D01*
X118949914Y-88308250D01*
X118942939Y-88327746D01*
X118934085Y-88346465D01*
X118923440Y-88364225D01*
X118911105Y-88380857D01*
X118897200Y-88396200D01*
X118881857Y-88410105D01*
X118865225Y-88422440D01*
X118847465Y-88433085D01*
X118828746Y-88441939D01*
X118809250Y-88448914D01*
X118789164Y-88453946D01*
X118768682Y-88456984D01*
X118748000Y-88458000D01*
X118326000Y-88458000D01*
X118305318Y-88456984D01*
X118284836Y-88453946D01*
X118264750Y-88448914D01*
X118245254Y-88441939D01*
X118226535Y-88433085D01*
X118208775Y-88422440D01*
X118192143Y-88410105D01*
X118176800Y-88396200D01*
X118162895Y-88380857D01*
X118150560Y-88364225D01*
X118139915Y-88346465D01*
X118131061Y-88327746D01*
X118124086Y-88308250D01*
X118119054Y-88288164D01*
X118116016Y-88267682D01*
X118115000Y-88247000D01*
X118115000Y-87775000D01*
X118116016Y-87754318D01*
X118119054Y-87733836D01*
X118124086Y-87713750D01*
X118131061Y-87694254D01*
X118139915Y-87675535D01*
X118150560Y-87657775D01*
X118162895Y-87641143D01*
X118176800Y-87625800D01*
X118192143Y-87611895D01*
X118208775Y-87599560D01*
X118226535Y-87588915D01*
X118245254Y-87580061D01*
X118264750Y-87573086D01*
X118284836Y-87568054D01*
X118305318Y-87565016D01*
X118326000Y-87564000D01*
X118748000Y-87564000D01*
X118768682Y-87565016D01*
X118768682Y-87565016D01*
G37*
D16*
X118537000Y-88011000D03*
D14*
G36*
X107038682Y-90359016D02*
G01*
X107059164Y-90362054D01*
X107079250Y-90367086D01*
X107098746Y-90374061D01*
X107117465Y-90382915D01*
X107135225Y-90393560D01*
X107151857Y-90405895D01*
X107167200Y-90419800D01*
X107181105Y-90435143D01*
X107193440Y-90451775D01*
X107204085Y-90469535D01*
X107212939Y-90488254D01*
X107219914Y-90507750D01*
X107224946Y-90527836D01*
X107227984Y-90548318D01*
X107229000Y-90569000D01*
X107229000Y-91041000D01*
X107227984Y-91061682D01*
X107224946Y-91082164D01*
X107219914Y-91102250D01*
X107212939Y-91121746D01*
X107204085Y-91140465D01*
X107193440Y-91158225D01*
X107181105Y-91174857D01*
X107167200Y-91190200D01*
X107151857Y-91204105D01*
X107135225Y-91216440D01*
X107117465Y-91227085D01*
X107098746Y-91235939D01*
X107079250Y-91242914D01*
X107059164Y-91247946D01*
X107038682Y-91250984D01*
X107018000Y-91252000D01*
X106596000Y-91252000D01*
X106575318Y-91250984D01*
X106554836Y-91247946D01*
X106534750Y-91242914D01*
X106515254Y-91235939D01*
X106496535Y-91227085D01*
X106478775Y-91216440D01*
X106462143Y-91204105D01*
X106446800Y-91190200D01*
X106432895Y-91174857D01*
X106420560Y-91158225D01*
X106409915Y-91140465D01*
X106401061Y-91121746D01*
X106394086Y-91102250D01*
X106389054Y-91082164D01*
X106386016Y-91061682D01*
X106385000Y-91041000D01*
X106385000Y-90569000D01*
X106386016Y-90548318D01*
X106389054Y-90527836D01*
X106394086Y-90507750D01*
X106401061Y-90488254D01*
X106409915Y-90469535D01*
X106420560Y-90451775D01*
X106432895Y-90435143D01*
X106446800Y-90419800D01*
X106462143Y-90405895D01*
X106478775Y-90393560D01*
X106496535Y-90382915D01*
X106515254Y-90374061D01*
X106534750Y-90367086D01*
X106554836Y-90362054D01*
X106575318Y-90359016D01*
X106596000Y-90358000D01*
X107018000Y-90358000D01*
X107038682Y-90359016D01*
X107038682Y-90359016D01*
G37*
D16*
X106807000Y-90805000D03*
D14*
G36*
X106068682Y-90359016D02*
G01*
X106089164Y-90362054D01*
X106109250Y-90367086D01*
X106128746Y-90374061D01*
X106147465Y-90382915D01*
X106165225Y-90393560D01*
X106181857Y-90405895D01*
X106197200Y-90419800D01*
X106211105Y-90435143D01*
X106223440Y-90451775D01*
X106234085Y-90469535D01*
X106242939Y-90488254D01*
X106249914Y-90507750D01*
X106254946Y-90527836D01*
X106257984Y-90548318D01*
X106259000Y-90569000D01*
X106259000Y-91041000D01*
X106257984Y-91061682D01*
X106254946Y-91082164D01*
X106249914Y-91102250D01*
X106242939Y-91121746D01*
X106234085Y-91140465D01*
X106223440Y-91158225D01*
X106211105Y-91174857D01*
X106197200Y-91190200D01*
X106181857Y-91204105D01*
X106165225Y-91216440D01*
X106147465Y-91227085D01*
X106128746Y-91235939D01*
X106109250Y-91242914D01*
X106089164Y-91247946D01*
X106068682Y-91250984D01*
X106048000Y-91252000D01*
X105626000Y-91252000D01*
X105605318Y-91250984D01*
X105584836Y-91247946D01*
X105564750Y-91242914D01*
X105545254Y-91235939D01*
X105526535Y-91227085D01*
X105508775Y-91216440D01*
X105492143Y-91204105D01*
X105476800Y-91190200D01*
X105462895Y-91174857D01*
X105450560Y-91158225D01*
X105439915Y-91140465D01*
X105431061Y-91121746D01*
X105424086Y-91102250D01*
X105419054Y-91082164D01*
X105416016Y-91061682D01*
X105415000Y-91041000D01*
X105415000Y-90569000D01*
X105416016Y-90548318D01*
X105419054Y-90527836D01*
X105424086Y-90507750D01*
X105431061Y-90488254D01*
X105439915Y-90469535D01*
X105450560Y-90451775D01*
X105462895Y-90435143D01*
X105476800Y-90419800D01*
X105492143Y-90405895D01*
X105508775Y-90393560D01*
X105526535Y-90382915D01*
X105545254Y-90374061D01*
X105564750Y-90367086D01*
X105584836Y-90362054D01*
X105605318Y-90359016D01*
X105626000Y-90358000D01*
X106048000Y-90358000D01*
X106068682Y-90359016D01*
X106068682Y-90359016D01*
G37*
D16*
X105837000Y-90805000D03*
D14*
G36*
X107068755Y-78312079D02*
G01*
X107096154Y-78316143D01*
X107123023Y-78322874D01*
X107149102Y-78332205D01*
X107174142Y-78344048D01*
X107197900Y-78358288D01*
X107220148Y-78374788D01*
X107240671Y-78393389D01*
X107259272Y-78413912D01*
X107275772Y-78436160D01*
X107290012Y-78459918D01*
X107301855Y-78484958D01*
X107311186Y-78511037D01*
X107317917Y-78537906D01*
X107321981Y-78565305D01*
X107323340Y-78592970D01*
X107323340Y-79232470D01*
X107321981Y-79260135D01*
X107317917Y-79287534D01*
X107311186Y-79314403D01*
X107301855Y-79340482D01*
X107290012Y-79365522D01*
X107275772Y-79389280D01*
X107259272Y-79411528D01*
X107240671Y-79432051D01*
X107220148Y-79450652D01*
X107197900Y-79467152D01*
X107174142Y-79481392D01*
X107149102Y-79493235D01*
X107123023Y-79502566D01*
X107096154Y-79509297D01*
X107068755Y-79513361D01*
X107041090Y-79514720D01*
X106476590Y-79514720D01*
X106448925Y-79513361D01*
X106421526Y-79509297D01*
X106394657Y-79502566D01*
X106368578Y-79493235D01*
X106343538Y-79481392D01*
X106319780Y-79467152D01*
X106297532Y-79450652D01*
X106277009Y-79432051D01*
X106258408Y-79411528D01*
X106241908Y-79389280D01*
X106227668Y-79365522D01*
X106215825Y-79340482D01*
X106206494Y-79314403D01*
X106199763Y-79287534D01*
X106195699Y-79260135D01*
X106194340Y-79232470D01*
X106194340Y-78592970D01*
X106195699Y-78565305D01*
X106199763Y-78537906D01*
X106206494Y-78511037D01*
X106215825Y-78484958D01*
X106227668Y-78459918D01*
X106241908Y-78436160D01*
X106258408Y-78413912D01*
X106277009Y-78393389D01*
X106297532Y-78374788D01*
X106319780Y-78358288D01*
X106343538Y-78344048D01*
X106368578Y-78332205D01*
X106394657Y-78322874D01*
X106421526Y-78316143D01*
X106448925Y-78312079D01*
X106476590Y-78310720D01*
X107041090Y-78310720D01*
X107068755Y-78312079D01*
X107068755Y-78312079D01*
G37*
D15*
X106758840Y-78912720D03*
D14*
G36*
X105493755Y-78312079D02*
G01*
X105521154Y-78316143D01*
X105548023Y-78322874D01*
X105574102Y-78332205D01*
X105599142Y-78344048D01*
X105622900Y-78358288D01*
X105645148Y-78374788D01*
X105665671Y-78393389D01*
X105684272Y-78413912D01*
X105700772Y-78436160D01*
X105715012Y-78459918D01*
X105726855Y-78484958D01*
X105736186Y-78511037D01*
X105742917Y-78537906D01*
X105746981Y-78565305D01*
X105748340Y-78592970D01*
X105748340Y-79232470D01*
X105746981Y-79260135D01*
X105742917Y-79287534D01*
X105736186Y-79314403D01*
X105726855Y-79340482D01*
X105715012Y-79365522D01*
X105700772Y-79389280D01*
X105684272Y-79411528D01*
X105665671Y-79432051D01*
X105645148Y-79450652D01*
X105622900Y-79467152D01*
X105599142Y-79481392D01*
X105574102Y-79493235D01*
X105548023Y-79502566D01*
X105521154Y-79509297D01*
X105493755Y-79513361D01*
X105466090Y-79514720D01*
X104901590Y-79514720D01*
X104873925Y-79513361D01*
X104846526Y-79509297D01*
X104819657Y-79502566D01*
X104793578Y-79493235D01*
X104768538Y-79481392D01*
X104744780Y-79467152D01*
X104722532Y-79450652D01*
X104702009Y-79432051D01*
X104683408Y-79411528D01*
X104666908Y-79389280D01*
X104652668Y-79365522D01*
X104640825Y-79340482D01*
X104631494Y-79314403D01*
X104624763Y-79287534D01*
X104620699Y-79260135D01*
X104619340Y-79232470D01*
X104619340Y-78592970D01*
X104620699Y-78565305D01*
X104624763Y-78537906D01*
X104631494Y-78511037D01*
X104640825Y-78484958D01*
X104652668Y-78459918D01*
X104666908Y-78436160D01*
X104683408Y-78413912D01*
X104702009Y-78393389D01*
X104722532Y-78374788D01*
X104744780Y-78358288D01*
X104768538Y-78344048D01*
X104793578Y-78332205D01*
X104819657Y-78322874D01*
X104846526Y-78316143D01*
X104873925Y-78312079D01*
X104901590Y-78310720D01*
X105466090Y-78310720D01*
X105493755Y-78312079D01*
X105493755Y-78312079D01*
G37*
D15*
X105183840Y-78912720D03*
D14*
G36*
X107825682Y-80755016D02*
G01*
X107846164Y-80758054D01*
X107866250Y-80763086D01*
X107885746Y-80770061D01*
X107904465Y-80778915D01*
X107922225Y-80789560D01*
X107938857Y-80801895D01*
X107954200Y-80815800D01*
X107968105Y-80831143D01*
X107980440Y-80847775D01*
X107991085Y-80865535D01*
X107999939Y-80884254D01*
X108006914Y-80903750D01*
X108011946Y-80923836D01*
X108014984Y-80944318D01*
X108016000Y-80965000D01*
X108016000Y-81387000D01*
X108014984Y-81407682D01*
X108011946Y-81428164D01*
X108006914Y-81448250D01*
X107999939Y-81467746D01*
X107991085Y-81486465D01*
X107980440Y-81504225D01*
X107968105Y-81520857D01*
X107954200Y-81536200D01*
X107938857Y-81550105D01*
X107922225Y-81562440D01*
X107904465Y-81573085D01*
X107885746Y-81581939D01*
X107866250Y-81588914D01*
X107846164Y-81593946D01*
X107825682Y-81596984D01*
X107805000Y-81598000D01*
X107333000Y-81598000D01*
X107312318Y-81596984D01*
X107291836Y-81593946D01*
X107271750Y-81588914D01*
X107252254Y-81581939D01*
X107233535Y-81573085D01*
X107215775Y-81562440D01*
X107199143Y-81550105D01*
X107183800Y-81536200D01*
X107169895Y-81520857D01*
X107157560Y-81504225D01*
X107146915Y-81486465D01*
X107138061Y-81467746D01*
X107131086Y-81448250D01*
X107126054Y-81428164D01*
X107123016Y-81407682D01*
X107122000Y-81387000D01*
X107122000Y-80965000D01*
X107123016Y-80944318D01*
X107126054Y-80923836D01*
X107131086Y-80903750D01*
X107138061Y-80884254D01*
X107146915Y-80865535D01*
X107157560Y-80847775D01*
X107169895Y-80831143D01*
X107183800Y-80815800D01*
X107199143Y-80801895D01*
X107215775Y-80789560D01*
X107233535Y-80778915D01*
X107252254Y-80770061D01*
X107271750Y-80763086D01*
X107291836Y-80758054D01*
X107312318Y-80755016D01*
X107333000Y-80754000D01*
X107805000Y-80754000D01*
X107825682Y-80755016D01*
X107825682Y-80755016D01*
G37*
D16*
X107569000Y-81176000D03*
D14*
G36*
X107825682Y-81725016D02*
G01*
X107846164Y-81728054D01*
X107866250Y-81733086D01*
X107885746Y-81740061D01*
X107904465Y-81748915D01*
X107922225Y-81759560D01*
X107938857Y-81771895D01*
X107954200Y-81785800D01*
X107968105Y-81801143D01*
X107980440Y-81817775D01*
X107991085Y-81835535D01*
X107999939Y-81854254D01*
X108006914Y-81873750D01*
X108011946Y-81893836D01*
X108014984Y-81914318D01*
X108016000Y-81935000D01*
X108016000Y-82357000D01*
X108014984Y-82377682D01*
X108011946Y-82398164D01*
X108006914Y-82418250D01*
X107999939Y-82437746D01*
X107991085Y-82456465D01*
X107980440Y-82474225D01*
X107968105Y-82490857D01*
X107954200Y-82506200D01*
X107938857Y-82520105D01*
X107922225Y-82532440D01*
X107904465Y-82543085D01*
X107885746Y-82551939D01*
X107866250Y-82558914D01*
X107846164Y-82563946D01*
X107825682Y-82566984D01*
X107805000Y-82568000D01*
X107333000Y-82568000D01*
X107312318Y-82566984D01*
X107291836Y-82563946D01*
X107271750Y-82558914D01*
X107252254Y-82551939D01*
X107233535Y-82543085D01*
X107215775Y-82532440D01*
X107199143Y-82520105D01*
X107183800Y-82506200D01*
X107169895Y-82490857D01*
X107157560Y-82474225D01*
X107146915Y-82456465D01*
X107138061Y-82437746D01*
X107131086Y-82418250D01*
X107126054Y-82398164D01*
X107123016Y-82377682D01*
X107122000Y-82357000D01*
X107122000Y-81935000D01*
X107123016Y-81914318D01*
X107126054Y-81893836D01*
X107131086Y-81873750D01*
X107138061Y-81854254D01*
X107146915Y-81835535D01*
X107157560Y-81817775D01*
X107169895Y-81801143D01*
X107183800Y-81785800D01*
X107199143Y-81771895D01*
X107215775Y-81759560D01*
X107233535Y-81748915D01*
X107252254Y-81740061D01*
X107271750Y-81733086D01*
X107291836Y-81728054D01*
X107312318Y-81725016D01*
X107333000Y-81724000D01*
X107805000Y-81724000D01*
X107825682Y-81725016D01*
X107825682Y-81725016D01*
G37*
D16*
X107569000Y-82146000D03*
D14*
G36*
X108841682Y-81725016D02*
G01*
X108862164Y-81728054D01*
X108882250Y-81733086D01*
X108901746Y-81740061D01*
X108920465Y-81748915D01*
X108938225Y-81759560D01*
X108954857Y-81771895D01*
X108970200Y-81785800D01*
X108984105Y-81801143D01*
X108996440Y-81817775D01*
X109007085Y-81835535D01*
X109015939Y-81854254D01*
X109022914Y-81873750D01*
X109027946Y-81893836D01*
X109030984Y-81914318D01*
X109032000Y-81935000D01*
X109032000Y-82357000D01*
X109030984Y-82377682D01*
X109027946Y-82398164D01*
X109022914Y-82418250D01*
X109015939Y-82437746D01*
X109007085Y-82456465D01*
X108996440Y-82474225D01*
X108984105Y-82490857D01*
X108970200Y-82506200D01*
X108954857Y-82520105D01*
X108938225Y-82532440D01*
X108920465Y-82543085D01*
X108901746Y-82551939D01*
X108882250Y-82558914D01*
X108862164Y-82563946D01*
X108841682Y-82566984D01*
X108821000Y-82568000D01*
X108349000Y-82568000D01*
X108328318Y-82566984D01*
X108307836Y-82563946D01*
X108287750Y-82558914D01*
X108268254Y-82551939D01*
X108249535Y-82543085D01*
X108231775Y-82532440D01*
X108215143Y-82520105D01*
X108199800Y-82506200D01*
X108185895Y-82490857D01*
X108173560Y-82474225D01*
X108162915Y-82456465D01*
X108154061Y-82437746D01*
X108147086Y-82418250D01*
X108142054Y-82398164D01*
X108139016Y-82377682D01*
X108138000Y-82357000D01*
X108138000Y-81935000D01*
X108139016Y-81914318D01*
X108142054Y-81893836D01*
X108147086Y-81873750D01*
X108154061Y-81854254D01*
X108162915Y-81835535D01*
X108173560Y-81817775D01*
X108185895Y-81801143D01*
X108199800Y-81785800D01*
X108215143Y-81771895D01*
X108231775Y-81759560D01*
X108249535Y-81748915D01*
X108268254Y-81740061D01*
X108287750Y-81733086D01*
X108307836Y-81728054D01*
X108328318Y-81725016D01*
X108349000Y-81724000D01*
X108821000Y-81724000D01*
X108841682Y-81725016D01*
X108841682Y-81725016D01*
G37*
D16*
X108585000Y-82146000D03*
D14*
G36*
X108841682Y-80755016D02*
G01*
X108862164Y-80758054D01*
X108882250Y-80763086D01*
X108901746Y-80770061D01*
X108920465Y-80778915D01*
X108938225Y-80789560D01*
X108954857Y-80801895D01*
X108970200Y-80815800D01*
X108984105Y-80831143D01*
X108996440Y-80847775D01*
X109007085Y-80865535D01*
X109015939Y-80884254D01*
X109022914Y-80903750D01*
X109027946Y-80923836D01*
X109030984Y-80944318D01*
X109032000Y-80965000D01*
X109032000Y-81387000D01*
X109030984Y-81407682D01*
X109027946Y-81428164D01*
X109022914Y-81448250D01*
X109015939Y-81467746D01*
X109007085Y-81486465D01*
X108996440Y-81504225D01*
X108984105Y-81520857D01*
X108970200Y-81536200D01*
X108954857Y-81550105D01*
X108938225Y-81562440D01*
X108920465Y-81573085D01*
X108901746Y-81581939D01*
X108882250Y-81588914D01*
X108862164Y-81593946D01*
X108841682Y-81596984D01*
X108821000Y-81598000D01*
X108349000Y-81598000D01*
X108328318Y-81596984D01*
X108307836Y-81593946D01*
X108287750Y-81588914D01*
X108268254Y-81581939D01*
X108249535Y-81573085D01*
X108231775Y-81562440D01*
X108215143Y-81550105D01*
X108199800Y-81536200D01*
X108185895Y-81520857D01*
X108173560Y-81504225D01*
X108162915Y-81486465D01*
X108154061Y-81467746D01*
X108147086Y-81448250D01*
X108142054Y-81428164D01*
X108139016Y-81407682D01*
X108138000Y-81387000D01*
X108138000Y-80965000D01*
X108139016Y-80944318D01*
X108142054Y-80923836D01*
X108147086Y-80903750D01*
X108154061Y-80884254D01*
X108162915Y-80865535D01*
X108173560Y-80847775D01*
X108185895Y-80831143D01*
X108199800Y-80815800D01*
X108215143Y-80801895D01*
X108231775Y-80789560D01*
X108249535Y-80778915D01*
X108268254Y-80770061D01*
X108287750Y-80763086D01*
X108307836Y-80758054D01*
X108328318Y-80755016D01*
X108349000Y-80754000D01*
X108821000Y-80754000D01*
X108841682Y-80755016D01*
X108841682Y-80755016D01*
G37*
D16*
X108585000Y-81176000D03*
D14*
G36*
X118745682Y-89597016D02*
G01*
X118766164Y-89600054D01*
X118786250Y-89605086D01*
X118805746Y-89612061D01*
X118824465Y-89620915D01*
X118842225Y-89631560D01*
X118858857Y-89643895D01*
X118874200Y-89657800D01*
X118888105Y-89673143D01*
X118900440Y-89689775D01*
X118911085Y-89707535D01*
X118919939Y-89726254D01*
X118926914Y-89745750D01*
X118931946Y-89765836D01*
X118934984Y-89786318D01*
X118936000Y-89807000D01*
X118936000Y-90279000D01*
X118934984Y-90299682D01*
X118931946Y-90320164D01*
X118926914Y-90340250D01*
X118919939Y-90359746D01*
X118911085Y-90378465D01*
X118900440Y-90396225D01*
X118888105Y-90412857D01*
X118874200Y-90428200D01*
X118858857Y-90442105D01*
X118842225Y-90454440D01*
X118824465Y-90465085D01*
X118805746Y-90473939D01*
X118786250Y-90480914D01*
X118766164Y-90485946D01*
X118745682Y-90488984D01*
X118725000Y-90490000D01*
X118303000Y-90490000D01*
X118282318Y-90488984D01*
X118261836Y-90485946D01*
X118241750Y-90480914D01*
X118222254Y-90473939D01*
X118203535Y-90465085D01*
X118185775Y-90454440D01*
X118169143Y-90442105D01*
X118153800Y-90428200D01*
X118139895Y-90412857D01*
X118127560Y-90396225D01*
X118116915Y-90378465D01*
X118108061Y-90359746D01*
X118101086Y-90340250D01*
X118096054Y-90320164D01*
X118093016Y-90299682D01*
X118092000Y-90279000D01*
X118092000Y-89807000D01*
X118093016Y-89786318D01*
X118096054Y-89765836D01*
X118101086Y-89745750D01*
X118108061Y-89726254D01*
X118116915Y-89707535D01*
X118127560Y-89689775D01*
X118139895Y-89673143D01*
X118153800Y-89657800D01*
X118169143Y-89643895D01*
X118185775Y-89631560D01*
X118203535Y-89620915D01*
X118222254Y-89612061D01*
X118241750Y-89605086D01*
X118261836Y-89600054D01*
X118282318Y-89597016D01*
X118303000Y-89596000D01*
X118725000Y-89596000D01*
X118745682Y-89597016D01*
X118745682Y-89597016D01*
G37*
D16*
X118514000Y-90043000D03*
D14*
G36*
X119715682Y-89597016D02*
G01*
X119736164Y-89600054D01*
X119756250Y-89605086D01*
X119775746Y-89612061D01*
X119794465Y-89620915D01*
X119812225Y-89631560D01*
X119828857Y-89643895D01*
X119844200Y-89657800D01*
X119858105Y-89673143D01*
X119870440Y-89689775D01*
X119881085Y-89707535D01*
X119889939Y-89726254D01*
X119896914Y-89745750D01*
X119901946Y-89765836D01*
X119904984Y-89786318D01*
X119906000Y-89807000D01*
X119906000Y-90279000D01*
X119904984Y-90299682D01*
X119901946Y-90320164D01*
X119896914Y-90340250D01*
X119889939Y-90359746D01*
X119881085Y-90378465D01*
X119870440Y-90396225D01*
X119858105Y-90412857D01*
X119844200Y-90428200D01*
X119828857Y-90442105D01*
X119812225Y-90454440D01*
X119794465Y-90465085D01*
X119775746Y-90473939D01*
X119756250Y-90480914D01*
X119736164Y-90485946D01*
X119715682Y-90488984D01*
X119695000Y-90490000D01*
X119273000Y-90490000D01*
X119252318Y-90488984D01*
X119231836Y-90485946D01*
X119211750Y-90480914D01*
X119192254Y-90473939D01*
X119173535Y-90465085D01*
X119155775Y-90454440D01*
X119139143Y-90442105D01*
X119123800Y-90428200D01*
X119109895Y-90412857D01*
X119097560Y-90396225D01*
X119086915Y-90378465D01*
X119078061Y-90359746D01*
X119071086Y-90340250D01*
X119066054Y-90320164D01*
X119063016Y-90299682D01*
X119062000Y-90279000D01*
X119062000Y-89807000D01*
X119063016Y-89786318D01*
X119066054Y-89765836D01*
X119071086Y-89745750D01*
X119078061Y-89726254D01*
X119086915Y-89707535D01*
X119097560Y-89689775D01*
X119109895Y-89673143D01*
X119123800Y-89657800D01*
X119139143Y-89643895D01*
X119155775Y-89631560D01*
X119173535Y-89620915D01*
X119192254Y-89612061D01*
X119211750Y-89605086D01*
X119231836Y-89600054D01*
X119252318Y-89597016D01*
X119273000Y-89596000D01*
X119695000Y-89596000D01*
X119715682Y-89597016D01*
X119715682Y-89597016D01*
G37*
D16*
X119484000Y-90043000D03*
D14*
G36*
X103817682Y-84898016D02*
G01*
X103838164Y-84901054D01*
X103858250Y-84906086D01*
X103877746Y-84913061D01*
X103896465Y-84921915D01*
X103914225Y-84932560D01*
X103930857Y-84944895D01*
X103946200Y-84958800D01*
X103960105Y-84974143D01*
X103972440Y-84990775D01*
X103983085Y-85008535D01*
X103991939Y-85027254D01*
X103998914Y-85046750D01*
X104003946Y-85066836D01*
X104006984Y-85087318D01*
X104008000Y-85108000D01*
X104008000Y-85580000D01*
X104006984Y-85600682D01*
X104003946Y-85621164D01*
X103998914Y-85641250D01*
X103991939Y-85660746D01*
X103983085Y-85679465D01*
X103972440Y-85697225D01*
X103960105Y-85713857D01*
X103946200Y-85729200D01*
X103930857Y-85743105D01*
X103914225Y-85755440D01*
X103896465Y-85766085D01*
X103877746Y-85774939D01*
X103858250Y-85781914D01*
X103838164Y-85786946D01*
X103817682Y-85789984D01*
X103797000Y-85791000D01*
X103375000Y-85791000D01*
X103354318Y-85789984D01*
X103333836Y-85786946D01*
X103313750Y-85781914D01*
X103294254Y-85774939D01*
X103275535Y-85766085D01*
X103257775Y-85755440D01*
X103241143Y-85743105D01*
X103225800Y-85729200D01*
X103211895Y-85713857D01*
X103199560Y-85697225D01*
X103188915Y-85679465D01*
X103180061Y-85660746D01*
X103173086Y-85641250D01*
X103168054Y-85621164D01*
X103165016Y-85600682D01*
X103164000Y-85580000D01*
X103164000Y-85108000D01*
X103165016Y-85087318D01*
X103168054Y-85066836D01*
X103173086Y-85046750D01*
X103180061Y-85027254D01*
X103188915Y-85008535D01*
X103199560Y-84990775D01*
X103211895Y-84974143D01*
X103225800Y-84958800D01*
X103241143Y-84944895D01*
X103257775Y-84932560D01*
X103275535Y-84921915D01*
X103294254Y-84913061D01*
X103313750Y-84906086D01*
X103333836Y-84901054D01*
X103354318Y-84898016D01*
X103375000Y-84897000D01*
X103797000Y-84897000D01*
X103817682Y-84898016D01*
X103817682Y-84898016D01*
G37*
D16*
X103586000Y-85344000D03*
D14*
G36*
X102847682Y-84898016D02*
G01*
X102868164Y-84901054D01*
X102888250Y-84906086D01*
X102907746Y-84913061D01*
X102926465Y-84921915D01*
X102944225Y-84932560D01*
X102960857Y-84944895D01*
X102976200Y-84958800D01*
X102990105Y-84974143D01*
X103002440Y-84990775D01*
X103013085Y-85008535D01*
X103021939Y-85027254D01*
X103028914Y-85046750D01*
X103033946Y-85066836D01*
X103036984Y-85087318D01*
X103038000Y-85108000D01*
X103038000Y-85580000D01*
X103036984Y-85600682D01*
X103033946Y-85621164D01*
X103028914Y-85641250D01*
X103021939Y-85660746D01*
X103013085Y-85679465D01*
X103002440Y-85697225D01*
X102990105Y-85713857D01*
X102976200Y-85729200D01*
X102960857Y-85743105D01*
X102944225Y-85755440D01*
X102926465Y-85766085D01*
X102907746Y-85774939D01*
X102888250Y-85781914D01*
X102868164Y-85786946D01*
X102847682Y-85789984D01*
X102827000Y-85791000D01*
X102405000Y-85791000D01*
X102384318Y-85789984D01*
X102363836Y-85786946D01*
X102343750Y-85781914D01*
X102324254Y-85774939D01*
X102305535Y-85766085D01*
X102287775Y-85755440D01*
X102271143Y-85743105D01*
X102255800Y-85729200D01*
X102241895Y-85713857D01*
X102229560Y-85697225D01*
X102218915Y-85679465D01*
X102210061Y-85660746D01*
X102203086Y-85641250D01*
X102198054Y-85621164D01*
X102195016Y-85600682D01*
X102194000Y-85580000D01*
X102194000Y-85108000D01*
X102195016Y-85087318D01*
X102198054Y-85066836D01*
X102203086Y-85046750D01*
X102210061Y-85027254D01*
X102218915Y-85008535D01*
X102229560Y-84990775D01*
X102241895Y-84974143D01*
X102255800Y-84958800D01*
X102271143Y-84944895D01*
X102287775Y-84932560D01*
X102305535Y-84921915D01*
X102324254Y-84913061D01*
X102343750Y-84906086D01*
X102363836Y-84901054D01*
X102384318Y-84898016D01*
X102405000Y-84897000D01*
X102827000Y-84897000D01*
X102847682Y-84898016D01*
X102847682Y-84898016D01*
G37*
D16*
X102616000Y-85344000D03*
D14*
G36*
X109855682Y-83374016D02*
G01*
X109876164Y-83377054D01*
X109896250Y-83382086D01*
X109915746Y-83389061D01*
X109934465Y-83397915D01*
X109952225Y-83408560D01*
X109968857Y-83420895D01*
X109984200Y-83434800D01*
X109998105Y-83450143D01*
X110010440Y-83466775D01*
X110021085Y-83484535D01*
X110029939Y-83503254D01*
X110036914Y-83522750D01*
X110041946Y-83542836D01*
X110044984Y-83563318D01*
X110046000Y-83584000D01*
X110046000Y-84056000D01*
X110044984Y-84076682D01*
X110041946Y-84097164D01*
X110036914Y-84117250D01*
X110029939Y-84136746D01*
X110021085Y-84155465D01*
X110010440Y-84173225D01*
X109998105Y-84189857D01*
X109984200Y-84205200D01*
X109968857Y-84219105D01*
X109952225Y-84231440D01*
X109934465Y-84242085D01*
X109915746Y-84250939D01*
X109896250Y-84257914D01*
X109876164Y-84262946D01*
X109855682Y-84265984D01*
X109835000Y-84267000D01*
X109413000Y-84267000D01*
X109392318Y-84265984D01*
X109371836Y-84262946D01*
X109351750Y-84257914D01*
X109332254Y-84250939D01*
X109313535Y-84242085D01*
X109295775Y-84231440D01*
X109279143Y-84219105D01*
X109263800Y-84205200D01*
X109249895Y-84189857D01*
X109237560Y-84173225D01*
X109226915Y-84155465D01*
X109218061Y-84136746D01*
X109211086Y-84117250D01*
X109206054Y-84097164D01*
X109203016Y-84076682D01*
X109202000Y-84056000D01*
X109202000Y-83584000D01*
X109203016Y-83563318D01*
X109206054Y-83542836D01*
X109211086Y-83522750D01*
X109218061Y-83503254D01*
X109226915Y-83484535D01*
X109237560Y-83466775D01*
X109249895Y-83450143D01*
X109263800Y-83434800D01*
X109279143Y-83420895D01*
X109295775Y-83408560D01*
X109313535Y-83397915D01*
X109332254Y-83389061D01*
X109351750Y-83382086D01*
X109371836Y-83377054D01*
X109392318Y-83374016D01*
X109413000Y-83373000D01*
X109835000Y-83373000D01*
X109855682Y-83374016D01*
X109855682Y-83374016D01*
G37*
D16*
X109624000Y-83820000D03*
D14*
G36*
X110825682Y-83374016D02*
G01*
X110846164Y-83377054D01*
X110866250Y-83382086D01*
X110885746Y-83389061D01*
X110904465Y-83397915D01*
X110922225Y-83408560D01*
X110938857Y-83420895D01*
X110954200Y-83434800D01*
X110968105Y-83450143D01*
X110980440Y-83466775D01*
X110991085Y-83484535D01*
X110999939Y-83503254D01*
X111006914Y-83522750D01*
X111011946Y-83542836D01*
X111014984Y-83563318D01*
X111016000Y-83584000D01*
X111016000Y-84056000D01*
X111014984Y-84076682D01*
X111011946Y-84097164D01*
X111006914Y-84117250D01*
X110999939Y-84136746D01*
X110991085Y-84155465D01*
X110980440Y-84173225D01*
X110968105Y-84189857D01*
X110954200Y-84205200D01*
X110938857Y-84219105D01*
X110922225Y-84231440D01*
X110904465Y-84242085D01*
X110885746Y-84250939D01*
X110866250Y-84257914D01*
X110846164Y-84262946D01*
X110825682Y-84265984D01*
X110805000Y-84267000D01*
X110383000Y-84267000D01*
X110362318Y-84265984D01*
X110341836Y-84262946D01*
X110321750Y-84257914D01*
X110302254Y-84250939D01*
X110283535Y-84242085D01*
X110265775Y-84231440D01*
X110249143Y-84219105D01*
X110233800Y-84205200D01*
X110219895Y-84189857D01*
X110207560Y-84173225D01*
X110196915Y-84155465D01*
X110188061Y-84136746D01*
X110181086Y-84117250D01*
X110176054Y-84097164D01*
X110173016Y-84076682D01*
X110172000Y-84056000D01*
X110172000Y-83584000D01*
X110173016Y-83563318D01*
X110176054Y-83542836D01*
X110181086Y-83522750D01*
X110188061Y-83503254D01*
X110196915Y-83484535D01*
X110207560Y-83466775D01*
X110219895Y-83450143D01*
X110233800Y-83434800D01*
X110249143Y-83420895D01*
X110265775Y-83408560D01*
X110283535Y-83397915D01*
X110302254Y-83389061D01*
X110321750Y-83382086D01*
X110341836Y-83377054D01*
X110362318Y-83374016D01*
X110383000Y-83373000D01*
X110805000Y-83373000D01*
X110825682Y-83374016D01*
X110825682Y-83374016D01*
G37*
D16*
X110594000Y-83820000D03*
D14*
G36*
X100335115Y-92007759D02*
G01*
X100362514Y-92011823D01*
X100389383Y-92018554D01*
X100415462Y-92027885D01*
X100440502Y-92039728D01*
X100464260Y-92053968D01*
X100486508Y-92070468D01*
X100507031Y-92089069D01*
X100525632Y-92109592D01*
X100542132Y-92131840D01*
X100556372Y-92155598D01*
X100568215Y-92180638D01*
X100577546Y-92206717D01*
X100584277Y-92233586D01*
X100588341Y-92260985D01*
X100589700Y-92288650D01*
X100589700Y-92928150D01*
X100588341Y-92955815D01*
X100584277Y-92983214D01*
X100577546Y-93010083D01*
X100568215Y-93036162D01*
X100556372Y-93061202D01*
X100542132Y-93084960D01*
X100525632Y-93107208D01*
X100507031Y-93127731D01*
X100486508Y-93146332D01*
X100464260Y-93162832D01*
X100440502Y-93177072D01*
X100415462Y-93188915D01*
X100389383Y-93198246D01*
X100362514Y-93204977D01*
X100335115Y-93209041D01*
X100307450Y-93210400D01*
X99742950Y-93210400D01*
X99715285Y-93209041D01*
X99687886Y-93204977D01*
X99661017Y-93198246D01*
X99634938Y-93188915D01*
X99609898Y-93177072D01*
X99586140Y-93162832D01*
X99563892Y-93146332D01*
X99543369Y-93127731D01*
X99524768Y-93107208D01*
X99508268Y-93084960D01*
X99494028Y-93061202D01*
X99482185Y-93036162D01*
X99472854Y-93010083D01*
X99466123Y-92983214D01*
X99462059Y-92955815D01*
X99460700Y-92928150D01*
X99460700Y-92288650D01*
X99462059Y-92260985D01*
X99466123Y-92233586D01*
X99472854Y-92206717D01*
X99482185Y-92180638D01*
X99494028Y-92155598D01*
X99508268Y-92131840D01*
X99524768Y-92109592D01*
X99543369Y-92089069D01*
X99563892Y-92070468D01*
X99586140Y-92053968D01*
X99609898Y-92039728D01*
X99634938Y-92027885D01*
X99661017Y-92018554D01*
X99687886Y-92011823D01*
X99715285Y-92007759D01*
X99742950Y-92006400D01*
X100307450Y-92006400D01*
X100335115Y-92007759D01*
X100335115Y-92007759D01*
G37*
D15*
X100025200Y-92608400D03*
D14*
G36*
X98760115Y-92007759D02*
G01*
X98787514Y-92011823D01*
X98814383Y-92018554D01*
X98840462Y-92027885D01*
X98865502Y-92039728D01*
X98889260Y-92053968D01*
X98911508Y-92070468D01*
X98932031Y-92089069D01*
X98950632Y-92109592D01*
X98967132Y-92131840D01*
X98981372Y-92155598D01*
X98993215Y-92180638D01*
X99002546Y-92206717D01*
X99009277Y-92233586D01*
X99013341Y-92260985D01*
X99014700Y-92288650D01*
X99014700Y-92928150D01*
X99013341Y-92955815D01*
X99009277Y-92983214D01*
X99002546Y-93010083D01*
X98993215Y-93036162D01*
X98981372Y-93061202D01*
X98967132Y-93084960D01*
X98950632Y-93107208D01*
X98932031Y-93127731D01*
X98911508Y-93146332D01*
X98889260Y-93162832D01*
X98865502Y-93177072D01*
X98840462Y-93188915D01*
X98814383Y-93198246D01*
X98787514Y-93204977D01*
X98760115Y-93209041D01*
X98732450Y-93210400D01*
X98167950Y-93210400D01*
X98140285Y-93209041D01*
X98112886Y-93204977D01*
X98086017Y-93198246D01*
X98059938Y-93188915D01*
X98034898Y-93177072D01*
X98011140Y-93162832D01*
X97988892Y-93146332D01*
X97968369Y-93127731D01*
X97949768Y-93107208D01*
X97933268Y-93084960D01*
X97919028Y-93061202D01*
X97907185Y-93036162D01*
X97897854Y-93010083D01*
X97891123Y-92983214D01*
X97887059Y-92955815D01*
X97885700Y-92928150D01*
X97885700Y-92288650D01*
X97887059Y-92260985D01*
X97891123Y-92233586D01*
X97897854Y-92206717D01*
X97907185Y-92180638D01*
X97919028Y-92155598D01*
X97933268Y-92131840D01*
X97949768Y-92109592D01*
X97968369Y-92089069D01*
X97988892Y-92070468D01*
X98011140Y-92053968D01*
X98034898Y-92039728D01*
X98059938Y-92027885D01*
X98086017Y-92018554D01*
X98112886Y-92011823D01*
X98140285Y-92007759D01*
X98167950Y-92006400D01*
X98732450Y-92006400D01*
X98760115Y-92007759D01*
X98760115Y-92007759D01*
G37*
D15*
X98450200Y-92608400D03*
D14*
G36*
X103179715Y-94852559D02*
G01*
X103207114Y-94856623D01*
X103233983Y-94863354D01*
X103260062Y-94872685D01*
X103285102Y-94884528D01*
X103308860Y-94898768D01*
X103331108Y-94915268D01*
X103351631Y-94933869D01*
X103370232Y-94954392D01*
X103386732Y-94976640D01*
X103400972Y-95000398D01*
X103412815Y-95025438D01*
X103422146Y-95051517D01*
X103428877Y-95078386D01*
X103432941Y-95105785D01*
X103434300Y-95133450D01*
X103434300Y-95772950D01*
X103432941Y-95800615D01*
X103428877Y-95828014D01*
X103422146Y-95854883D01*
X103412815Y-95880962D01*
X103400972Y-95906002D01*
X103386732Y-95929760D01*
X103370232Y-95952008D01*
X103351631Y-95972531D01*
X103331108Y-95991132D01*
X103308860Y-96007632D01*
X103285102Y-96021872D01*
X103260062Y-96033715D01*
X103233983Y-96043046D01*
X103207114Y-96049777D01*
X103179715Y-96053841D01*
X103152050Y-96055200D01*
X102587550Y-96055200D01*
X102559885Y-96053841D01*
X102532486Y-96049777D01*
X102505617Y-96043046D01*
X102479538Y-96033715D01*
X102454498Y-96021872D01*
X102430740Y-96007632D01*
X102408492Y-95991132D01*
X102387969Y-95972531D01*
X102369368Y-95952008D01*
X102352868Y-95929760D01*
X102338628Y-95906002D01*
X102326785Y-95880962D01*
X102317454Y-95854883D01*
X102310723Y-95828014D01*
X102306659Y-95800615D01*
X102305300Y-95772950D01*
X102305300Y-95133450D01*
X102306659Y-95105785D01*
X102310723Y-95078386D01*
X102317454Y-95051517D01*
X102326785Y-95025438D01*
X102338628Y-95000398D01*
X102352868Y-94976640D01*
X102369368Y-94954392D01*
X102387969Y-94933869D01*
X102408492Y-94915268D01*
X102430740Y-94898768D01*
X102454498Y-94884528D01*
X102479538Y-94872685D01*
X102505617Y-94863354D01*
X102532486Y-94856623D01*
X102559885Y-94852559D01*
X102587550Y-94851200D01*
X103152050Y-94851200D01*
X103179715Y-94852559D01*
X103179715Y-94852559D01*
G37*
D15*
X102869800Y-95453200D03*
D14*
G36*
X104754715Y-94852559D02*
G01*
X104782114Y-94856623D01*
X104808983Y-94863354D01*
X104835062Y-94872685D01*
X104860102Y-94884528D01*
X104883860Y-94898768D01*
X104906108Y-94915268D01*
X104926631Y-94933869D01*
X104945232Y-94954392D01*
X104961732Y-94976640D01*
X104975972Y-95000398D01*
X104987815Y-95025438D01*
X104997146Y-95051517D01*
X105003877Y-95078386D01*
X105007941Y-95105785D01*
X105009300Y-95133450D01*
X105009300Y-95772950D01*
X105007941Y-95800615D01*
X105003877Y-95828014D01*
X104997146Y-95854883D01*
X104987815Y-95880962D01*
X104975972Y-95906002D01*
X104961732Y-95929760D01*
X104945232Y-95952008D01*
X104926631Y-95972531D01*
X104906108Y-95991132D01*
X104883860Y-96007632D01*
X104860102Y-96021872D01*
X104835062Y-96033715D01*
X104808983Y-96043046D01*
X104782114Y-96049777D01*
X104754715Y-96053841D01*
X104727050Y-96055200D01*
X104162550Y-96055200D01*
X104134885Y-96053841D01*
X104107486Y-96049777D01*
X104080617Y-96043046D01*
X104054538Y-96033715D01*
X104029498Y-96021872D01*
X104005740Y-96007632D01*
X103983492Y-95991132D01*
X103962969Y-95972531D01*
X103944368Y-95952008D01*
X103927868Y-95929760D01*
X103913628Y-95906002D01*
X103901785Y-95880962D01*
X103892454Y-95854883D01*
X103885723Y-95828014D01*
X103881659Y-95800615D01*
X103880300Y-95772950D01*
X103880300Y-95133450D01*
X103881659Y-95105785D01*
X103885723Y-95078386D01*
X103892454Y-95051517D01*
X103901785Y-95025438D01*
X103913628Y-95000398D01*
X103927868Y-94976640D01*
X103944368Y-94954392D01*
X103962969Y-94933869D01*
X103983492Y-94915268D01*
X104005740Y-94898768D01*
X104029498Y-94884528D01*
X104054538Y-94872685D01*
X104080617Y-94863354D01*
X104107486Y-94856623D01*
X104134885Y-94852559D01*
X104162550Y-94851200D01*
X104727050Y-94851200D01*
X104754715Y-94852559D01*
X104754715Y-94852559D01*
G37*
D15*
X104444800Y-95453200D03*
D14*
G36*
X101729682Y-92947016D02*
G01*
X101750164Y-92950054D01*
X101770250Y-92955086D01*
X101789746Y-92962061D01*
X101808465Y-92970915D01*
X101826225Y-92981560D01*
X101842857Y-92993895D01*
X101858200Y-93007800D01*
X101872105Y-93023143D01*
X101884440Y-93039775D01*
X101895085Y-93057535D01*
X101903939Y-93076254D01*
X101910914Y-93095750D01*
X101915946Y-93115836D01*
X101918984Y-93136318D01*
X101920000Y-93157000D01*
X101920000Y-93579000D01*
X101918984Y-93599682D01*
X101915946Y-93620164D01*
X101910914Y-93640250D01*
X101903939Y-93659746D01*
X101895085Y-93678465D01*
X101884440Y-93696225D01*
X101872105Y-93712857D01*
X101858200Y-93728200D01*
X101842857Y-93742105D01*
X101826225Y-93754440D01*
X101808465Y-93765085D01*
X101789746Y-93773939D01*
X101770250Y-93780914D01*
X101750164Y-93785946D01*
X101729682Y-93788984D01*
X101709000Y-93790000D01*
X101237000Y-93790000D01*
X101216318Y-93788984D01*
X101195836Y-93785946D01*
X101175750Y-93780914D01*
X101156254Y-93773939D01*
X101137535Y-93765085D01*
X101119775Y-93754440D01*
X101103143Y-93742105D01*
X101087800Y-93728200D01*
X101073895Y-93712857D01*
X101061560Y-93696225D01*
X101050915Y-93678465D01*
X101042061Y-93659746D01*
X101035086Y-93640250D01*
X101030054Y-93620164D01*
X101027016Y-93599682D01*
X101026000Y-93579000D01*
X101026000Y-93157000D01*
X101027016Y-93136318D01*
X101030054Y-93115836D01*
X101035086Y-93095750D01*
X101042061Y-93076254D01*
X101050915Y-93057535D01*
X101061560Y-93039775D01*
X101073895Y-93023143D01*
X101087800Y-93007800D01*
X101103143Y-92993895D01*
X101119775Y-92981560D01*
X101137535Y-92970915D01*
X101156254Y-92962061D01*
X101175750Y-92955086D01*
X101195836Y-92950054D01*
X101216318Y-92947016D01*
X101237000Y-92946000D01*
X101709000Y-92946000D01*
X101729682Y-92947016D01*
X101729682Y-92947016D01*
G37*
D16*
X101473000Y-93368000D03*
D14*
G36*
X101729682Y-93917016D02*
G01*
X101750164Y-93920054D01*
X101770250Y-93925086D01*
X101789746Y-93932061D01*
X101808465Y-93940915D01*
X101826225Y-93951560D01*
X101842857Y-93963895D01*
X101858200Y-93977800D01*
X101872105Y-93993143D01*
X101884440Y-94009775D01*
X101895085Y-94027535D01*
X101903939Y-94046254D01*
X101910914Y-94065750D01*
X101915946Y-94085836D01*
X101918984Y-94106318D01*
X101920000Y-94127000D01*
X101920000Y-94549000D01*
X101918984Y-94569682D01*
X101915946Y-94590164D01*
X101910914Y-94610250D01*
X101903939Y-94629746D01*
X101895085Y-94648465D01*
X101884440Y-94666225D01*
X101872105Y-94682857D01*
X101858200Y-94698200D01*
X101842857Y-94712105D01*
X101826225Y-94724440D01*
X101808465Y-94735085D01*
X101789746Y-94743939D01*
X101770250Y-94750914D01*
X101750164Y-94755946D01*
X101729682Y-94758984D01*
X101709000Y-94760000D01*
X101237000Y-94760000D01*
X101216318Y-94758984D01*
X101195836Y-94755946D01*
X101175750Y-94750914D01*
X101156254Y-94743939D01*
X101137535Y-94735085D01*
X101119775Y-94724440D01*
X101103143Y-94712105D01*
X101087800Y-94698200D01*
X101073895Y-94682857D01*
X101061560Y-94666225D01*
X101050915Y-94648465D01*
X101042061Y-94629746D01*
X101035086Y-94610250D01*
X101030054Y-94590164D01*
X101027016Y-94569682D01*
X101026000Y-94549000D01*
X101026000Y-94127000D01*
X101027016Y-94106318D01*
X101030054Y-94085836D01*
X101035086Y-94065750D01*
X101042061Y-94046254D01*
X101050915Y-94027535D01*
X101061560Y-94009775D01*
X101073895Y-93993143D01*
X101087800Y-93977800D01*
X101103143Y-93963895D01*
X101119775Y-93951560D01*
X101137535Y-93940915D01*
X101156254Y-93932061D01*
X101175750Y-93925086D01*
X101195836Y-93920054D01*
X101216318Y-93917016D01*
X101237000Y-93916000D01*
X101709000Y-93916000D01*
X101729682Y-93917016D01*
X101729682Y-93917016D01*
G37*
D16*
X101473000Y-94338000D03*
D14*
G36*
X118745682Y-88581016D02*
G01*
X118766164Y-88584054D01*
X118786250Y-88589086D01*
X118805746Y-88596061D01*
X118824465Y-88604915D01*
X118842225Y-88615560D01*
X118858857Y-88627895D01*
X118874200Y-88641800D01*
X118888105Y-88657143D01*
X118900440Y-88673775D01*
X118911085Y-88691535D01*
X118919939Y-88710254D01*
X118926914Y-88729750D01*
X118931946Y-88749836D01*
X118934984Y-88770318D01*
X118936000Y-88791000D01*
X118936000Y-89263000D01*
X118934984Y-89283682D01*
X118931946Y-89304164D01*
X118926914Y-89324250D01*
X118919939Y-89343746D01*
X118911085Y-89362465D01*
X118900440Y-89380225D01*
X118888105Y-89396857D01*
X118874200Y-89412200D01*
X118858857Y-89426105D01*
X118842225Y-89438440D01*
X118824465Y-89449085D01*
X118805746Y-89457939D01*
X118786250Y-89464914D01*
X118766164Y-89469946D01*
X118745682Y-89472984D01*
X118725000Y-89474000D01*
X118303000Y-89474000D01*
X118282318Y-89472984D01*
X118261836Y-89469946D01*
X118241750Y-89464914D01*
X118222254Y-89457939D01*
X118203535Y-89449085D01*
X118185775Y-89438440D01*
X118169143Y-89426105D01*
X118153800Y-89412200D01*
X118139895Y-89396857D01*
X118127560Y-89380225D01*
X118116915Y-89362465D01*
X118108061Y-89343746D01*
X118101086Y-89324250D01*
X118096054Y-89304164D01*
X118093016Y-89283682D01*
X118092000Y-89263000D01*
X118092000Y-88791000D01*
X118093016Y-88770318D01*
X118096054Y-88749836D01*
X118101086Y-88729750D01*
X118108061Y-88710254D01*
X118116915Y-88691535D01*
X118127560Y-88673775D01*
X118139895Y-88657143D01*
X118153800Y-88641800D01*
X118169143Y-88627895D01*
X118185775Y-88615560D01*
X118203535Y-88604915D01*
X118222254Y-88596061D01*
X118241750Y-88589086D01*
X118261836Y-88584054D01*
X118282318Y-88581016D01*
X118303000Y-88580000D01*
X118725000Y-88580000D01*
X118745682Y-88581016D01*
X118745682Y-88581016D01*
G37*
D16*
X118514000Y-89027000D03*
D14*
G36*
X119715682Y-88581016D02*
G01*
X119736164Y-88584054D01*
X119756250Y-88589086D01*
X119775746Y-88596061D01*
X119794465Y-88604915D01*
X119812225Y-88615560D01*
X119828857Y-88627895D01*
X119844200Y-88641800D01*
X119858105Y-88657143D01*
X119870440Y-88673775D01*
X119881085Y-88691535D01*
X119889939Y-88710254D01*
X119896914Y-88729750D01*
X119901946Y-88749836D01*
X119904984Y-88770318D01*
X119906000Y-88791000D01*
X119906000Y-89263000D01*
X119904984Y-89283682D01*
X119901946Y-89304164D01*
X119896914Y-89324250D01*
X119889939Y-89343746D01*
X119881085Y-89362465D01*
X119870440Y-89380225D01*
X119858105Y-89396857D01*
X119844200Y-89412200D01*
X119828857Y-89426105D01*
X119812225Y-89438440D01*
X119794465Y-89449085D01*
X119775746Y-89457939D01*
X119756250Y-89464914D01*
X119736164Y-89469946D01*
X119715682Y-89472984D01*
X119695000Y-89474000D01*
X119273000Y-89474000D01*
X119252318Y-89472984D01*
X119231836Y-89469946D01*
X119211750Y-89464914D01*
X119192254Y-89457939D01*
X119173535Y-89449085D01*
X119155775Y-89438440D01*
X119139143Y-89426105D01*
X119123800Y-89412200D01*
X119109895Y-89396857D01*
X119097560Y-89380225D01*
X119086915Y-89362465D01*
X119078061Y-89343746D01*
X119071086Y-89324250D01*
X119066054Y-89304164D01*
X119063016Y-89283682D01*
X119062000Y-89263000D01*
X119062000Y-88791000D01*
X119063016Y-88770318D01*
X119066054Y-88749836D01*
X119071086Y-88729750D01*
X119078061Y-88710254D01*
X119086915Y-88691535D01*
X119097560Y-88673775D01*
X119109895Y-88657143D01*
X119123800Y-88641800D01*
X119139143Y-88627895D01*
X119155775Y-88615560D01*
X119173535Y-88604915D01*
X119192254Y-88596061D01*
X119211750Y-88589086D01*
X119231836Y-88584054D01*
X119252318Y-88581016D01*
X119273000Y-88580000D01*
X119695000Y-88580000D01*
X119715682Y-88581016D01*
X119715682Y-88581016D01*
G37*
D16*
X119484000Y-89027000D03*
D14*
G36*
X127447182Y-88161516D02*
G01*
X127467664Y-88164554D01*
X127487750Y-88169586D01*
X127507246Y-88176561D01*
X127525965Y-88185415D01*
X127543725Y-88196060D01*
X127560357Y-88208395D01*
X127575700Y-88222300D01*
X127589605Y-88237643D01*
X127601940Y-88254275D01*
X127612585Y-88272035D01*
X127621439Y-88290754D01*
X127628414Y-88310250D01*
X127633446Y-88330336D01*
X127636484Y-88350818D01*
X127637500Y-88371500D01*
X127637500Y-88793500D01*
X127636484Y-88814182D01*
X127633446Y-88834664D01*
X127628414Y-88854750D01*
X127621439Y-88874246D01*
X127612585Y-88892965D01*
X127601940Y-88910725D01*
X127589605Y-88927357D01*
X127575700Y-88942700D01*
X127560357Y-88956605D01*
X127543725Y-88968940D01*
X127525965Y-88979585D01*
X127507246Y-88988439D01*
X127487750Y-88995414D01*
X127467664Y-89000446D01*
X127447182Y-89003484D01*
X127426500Y-89004500D01*
X126954500Y-89004500D01*
X126933818Y-89003484D01*
X126913336Y-89000446D01*
X126893250Y-88995414D01*
X126873754Y-88988439D01*
X126855035Y-88979585D01*
X126837275Y-88968940D01*
X126820643Y-88956605D01*
X126805300Y-88942700D01*
X126791395Y-88927357D01*
X126779060Y-88910725D01*
X126768415Y-88892965D01*
X126759561Y-88874246D01*
X126752586Y-88854750D01*
X126747554Y-88834664D01*
X126744516Y-88814182D01*
X126743500Y-88793500D01*
X126743500Y-88371500D01*
X126744516Y-88350818D01*
X126747554Y-88330336D01*
X126752586Y-88310250D01*
X126759561Y-88290754D01*
X126768415Y-88272035D01*
X126779060Y-88254275D01*
X126791395Y-88237643D01*
X126805300Y-88222300D01*
X126820643Y-88208395D01*
X126837275Y-88196060D01*
X126855035Y-88185415D01*
X126873754Y-88176561D01*
X126893250Y-88169586D01*
X126913336Y-88164554D01*
X126933818Y-88161516D01*
X126954500Y-88160500D01*
X127426500Y-88160500D01*
X127447182Y-88161516D01*
X127447182Y-88161516D01*
G37*
D16*
X127190500Y-88582500D03*
D14*
G36*
X127447182Y-87191516D02*
G01*
X127467664Y-87194554D01*
X127487750Y-87199586D01*
X127507246Y-87206561D01*
X127525965Y-87215415D01*
X127543725Y-87226060D01*
X127560357Y-87238395D01*
X127575700Y-87252300D01*
X127589605Y-87267643D01*
X127601940Y-87284275D01*
X127612585Y-87302035D01*
X127621439Y-87320754D01*
X127628414Y-87340250D01*
X127633446Y-87360336D01*
X127636484Y-87380818D01*
X127637500Y-87401500D01*
X127637500Y-87823500D01*
X127636484Y-87844182D01*
X127633446Y-87864664D01*
X127628414Y-87884750D01*
X127621439Y-87904246D01*
X127612585Y-87922965D01*
X127601940Y-87940725D01*
X127589605Y-87957357D01*
X127575700Y-87972700D01*
X127560357Y-87986605D01*
X127543725Y-87998940D01*
X127525965Y-88009585D01*
X127507246Y-88018439D01*
X127487750Y-88025414D01*
X127467664Y-88030446D01*
X127447182Y-88033484D01*
X127426500Y-88034500D01*
X126954500Y-88034500D01*
X126933818Y-88033484D01*
X126913336Y-88030446D01*
X126893250Y-88025414D01*
X126873754Y-88018439D01*
X126855035Y-88009585D01*
X126837275Y-87998940D01*
X126820643Y-87986605D01*
X126805300Y-87972700D01*
X126791395Y-87957357D01*
X126779060Y-87940725D01*
X126768415Y-87922965D01*
X126759561Y-87904246D01*
X126752586Y-87884750D01*
X126747554Y-87864664D01*
X126744516Y-87844182D01*
X126743500Y-87823500D01*
X126743500Y-87401500D01*
X126744516Y-87380818D01*
X126747554Y-87360336D01*
X126752586Y-87340250D01*
X126759561Y-87320754D01*
X126768415Y-87302035D01*
X126779060Y-87284275D01*
X126791395Y-87267643D01*
X126805300Y-87252300D01*
X126820643Y-87238395D01*
X126837275Y-87226060D01*
X126855035Y-87215415D01*
X126873754Y-87206561D01*
X126893250Y-87199586D01*
X126913336Y-87194554D01*
X126933818Y-87191516D01*
X126954500Y-87190500D01*
X127426500Y-87190500D01*
X127447182Y-87191516D01*
X127447182Y-87191516D01*
G37*
D16*
X127190500Y-87612500D03*
D14*
G36*
X129519115Y-83271899D02*
G01*
X129546514Y-83275963D01*
X129573383Y-83282694D01*
X129599462Y-83292025D01*
X129624502Y-83303868D01*
X129648260Y-83318108D01*
X129670508Y-83334608D01*
X129691031Y-83353209D01*
X129709632Y-83373732D01*
X129726132Y-83395980D01*
X129740372Y-83419738D01*
X129752215Y-83444778D01*
X129761546Y-83470857D01*
X129768277Y-83497726D01*
X129772341Y-83525125D01*
X129773700Y-83552790D01*
X129773700Y-84117290D01*
X129772341Y-84144955D01*
X129768277Y-84172354D01*
X129761546Y-84199223D01*
X129752215Y-84225302D01*
X129740372Y-84250342D01*
X129726132Y-84274100D01*
X129709632Y-84296348D01*
X129691031Y-84316871D01*
X129670508Y-84335472D01*
X129648260Y-84351972D01*
X129624502Y-84366212D01*
X129599462Y-84378055D01*
X129573383Y-84387386D01*
X129546514Y-84394117D01*
X129519115Y-84398181D01*
X129491450Y-84399540D01*
X128851950Y-84399540D01*
X128824285Y-84398181D01*
X128796886Y-84394117D01*
X128770017Y-84387386D01*
X128743938Y-84378055D01*
X128718898Y-84366212D01*
X128695140Y-84351972D01*
X128672892Y-84335472D01*
X128652369Y-84316871D01*
X128633768Y-84296348D01*
X128617268Y-84274100D01*
X128603028Y-84250342D01*
X128591185Y-84225302D01*
X128581854Y-84199223D01*
X128575123Y-84172354D01*
X128571059Y-84144955D01*
X128569700Y-84117290D01*
X128569700Y-83552790D01*
X128571059Y-83525125D01*
X128575123Y-83497726D01*
X128581854Y-83470857D01*
X128591185Y-83444778D01*
X128603028Y-83419738D01*
X128617268Y-83395980D01*
X128633768Y-83373732D01*
X128652369Y-83353209D01*
X128672892Y-83334608D01*
X128695140Y-83318108D01*
X128718898Y-83303868D01*
X128743938Y-83292025D01*
X128770017Y-83282694D01*
X128796886Y-83275963D01*
X128824285Y-83271899D01*
X128851950Y-83270540D01*
X129491450Y-83270540D01*
X129519115Y-83271899D01*
X129519115Y-83271899D01*
G37*
D15*
X129171700Y-83835040D03*
D14*
G36*
X129519115Y-84846899D02*
G01*
X129546514Y-84850963D01*
X129573383Y-84857694D01*
X129599462Y-84867025D01*
X129624502Y-84878868D01*
X129648260Y-84893108D01*
X129670508Y-84909608D01*
X129691031Y-84928209D01*
X129709632Y-84948732D01*
X129726132Y-84970980D01*
X129740372Y-84994738D01*
X129752215Y-85019778D01*
X129761546Y-85045857D01*
X129768277Y-85072726D01*
X129772341Y-85100125D01*
X129773700Y-85127790D01*
X129773700Y-85692290D01*
X129772341Y-85719955D01*
X129768277Y-85747354D01*
X129761546Y-85774223D01*
X129752215Y-85800302D01*
X129740372Y-85825342D01*
X129726132Y-85849100D01*
X129709632Y-85871348D01*
X129691031Y-85891871D01*
X129670508Y-85910472D01*
X129648260Y-85926972D01*
X129624502Y-85941212D01*
X129599462Y-85953055D01*
X129573383Y-85962386D01*
X129546514Y-85969117D01*
X129519115Y-85973181D01*
X129491450Y-85974540D01*
X128851950Y-85974540D01*
X128824285Y-85973181D01*
X128796886Y-85969117D01*
X128770017Y-85962386D01*
X128743938Y-85953055D01*
X128718898Y-85941212D01*
X128695140Y-85926972D01*
X128672892Y-85910472D01*
X128652369Y-85891871D01*
X128633768Y-85871348D01*
X128617268Y-85849100D01*
X128603028Y-85825342D01*
X128591185Y-85800302D01*
X128581854Y-85774223D01*
X128575123Y-85747354D01*
X128571059Y-85719955D01*
X128569700Y-85692290D01*
X128569700Y-85127790D01*
X128571059Y-85100125D01*
X128575123Y-85072726D01*
X128581854Y-85045857D01*
X128591185Y-85019778D01*
X128603028Y-84994738D01*
X128617268Y-84970980D01*
X128633768Y-84948732D01*
X128652369Y-84928209D01*
X128672892Y-84909608D01*
X128695140Y-84893108D01*
X128718898Y-84878868D01*
X128743938Y-84867025D01*
X128770017Y-84857694D01*
X128796886Y-84850963D01*
X128824285Y-84846899D01*
X128851950Y-84845540D01*
X129491450Y-84845540D01*
X129519115Y-84846899D01*
X129519115Y-84846899D01*
G37*
D15*
X129171700Y-85410040D03*
D14*
G36*
X126179015Y-85415659D02*
G01*
X126206414Y-85419723D01*
X126233283Y-85426454D01*
X126259362Y-85435785D01*
X126284402Y-85447628D01*
X126308160Y-85461868D01*
X126330408Y-85478368D01*
X126350931Y-85496969D01*
X126369532Y-85517492D01*
X126386032Y-85539740D01*
X126400272Y-85563498D01*
X126412115Y-85588538D01*
X126421446Y-85614617D01*
X126428177Y-85641486D01*
X126432241Y-85668885D01*
X126433600Y-85696550D01*
X126433600Y-86261050D01*
X126432241Y-86288715D01*
X126428177Y-86316114D01*
X126421446Y-86342983D01*
X126412115Y-86369062D01*
X126400272Y-86394102D01*
X126386032Y-86417860D01*
X126369532Y-86440108D01*
X126350931Y-86460631D01*
X126330408Y-86479232D01*
X126308160Y-86495732D01*
X126284402Y-86509972D01*
X126259362Y-86521815D01*
X126233283Y-86531146D01*
X126206414Y-86537877D01*
X126179015Y-86541941D01*
X126151350Y-86543300D01*
X125511850Y-86543300D01*
X125484185Y-86541941D01*
X125456786Y-86537877D01*
X125429917Y-86531146D01*
X125403838Y-86521815D01*
X125378798Y-86509972D01*
X125355040Y-86495732D01*
X125332792Y-86479232D01*
X125312269Y-86460631D01*
X125293668Y-86440108D01*
X125277168Y-86417860D01*
X125262928Y-86394102D01*
X125251085Y-86369062D01*
X125241754Y-86342983D01*
X125235023Y-86316114D01*
X125230959Y-86288715D01*
X125229600Y-86261050D01*
X125229600Y-85696550D01*
X125230959Y-85668885D01*
X125235023Y-85641486D01*
X125241754Y-85614617D01*
X125251085Y-85588538D01*
X125262928Y-85563498D01*
X125277168Y-85539740D01*
X125293668Y-85517492D01*
X125312269Y-85496969D01*
X125332792Y-85478368D01*
X125355040Y-85461868D01*
X125378798Y-85447628D01*
X125403838Y-85435785D01*
X125429917Y-85426454D01*
X125456786Y-85419723D01*
X125484185Y-85415659D01*
X125511850Y-85414300D01*
X126151350Y-85414300D01*
X126179015Y-85415659D01*
X126179015Y-85415659D01*
G37*
D15*
X125831600Y-85978800D03*
D14*
G36*
X126179015Y-86990659D02*
G01*
X126206414Y-86994723D01*
X126233283Y-87001454D01*
X126259362Y-87010785D01*
X126284402Y-87022628D01*
X126308160Y-87036868D01*
X126330408Y-87053368D01*
X126350931Y-87071969D01*
X126369532Y-87092492D01*
X126386032Y-87114740D01*
X126400272Y-87138498D01*
X126412115Y-87163538D01*
X126421446Y-87189617D01*
X126428177Y-87216486D01*
X126432241Y-87243885D01*
X126433600Y-87271550D01*
X126433600Y-87836050D01*
X126432241Y-87863715D01*
X126428177Y-87891114D01*
X126421446Y-87917983D01*
X126412115Y-87944062D01*
X126400272Y-87969102D01*
X126386032Y-87992860D01*
X126369532Y-88015108D01*
X126350931Y-88035631D01*
X126330408Y-88054232D01*
X126308160Y-88070732D01*
X126284402Y-88084972D01*
X126259362Y-88096815D01*
X126233283Y-88106146D01*
X126206414Y-88112877D01*
X126179015Y-88116941D01*
X126151350Y-88118300D01*
X125511850Y-88118300D01*
X125484185Y-88116941D01*
X125456786Y-88112877D01*
X125429917Y-88106146D01*
X125403838Y-88096815D01*
X125378798Y-88084972D01*
X125355040Y-88070732D01*
X125332792Y-88054232D01*
X125312269Y-88035631D01*
X125293668Y-88015108D01*
X125277168Y-87992860D01*
X125262928Y-87969102D01*
X125251085Y-87944062D01*
X125241754Y-87917983D01*
X125235023Y-87891114D01*
X125230959Y-87863715D01*
X125229600Y-87836050D01*
X125229600Y-87271550D01*
X125230959Y-87243885D01*
X125235023Y-87216486D01*
X125241754Y-87189617D01*
X125251085Y-87163538D01*
X125262928Y-87138498D01*
X125277168Y-87114740D01*
X125293668Y-87092492D01*
X125312269Y-87071969D01*
X125332792Y-87053368D01*
X125355040Y-87036868D01*
X125378798Y-87022628D01*
X125403838Y-87010785D01*
X125429917Y-87001454D01*
X125456786Y-86994723D01*
X125484185Y-86990659D01*
X125511850Y-86989300D01*
X126151350Y-86989300D01*
X126179015Y-86990659D01*
X126179015Y-86990659D01*
G37*
D15*
X125831600Y-87553800D03*
D14*
G36*
X131955682Y-85812016D02*
G01*
X131976164Y-85815054D01*
X131996250Y-85820086D01*
X132015746Y-85827061D01*
X132034465Y-85835915D01*
X132052225Y-85846560D01*
X132068857Y-85858895D01*
X132084200Y-85872800D01*
X132098105Y-85888143D01*
X132110440Y-85904775D01*
X132121085Y-85922535D01*
X132129939Y-85941254D01*
X132136914Y-85960750D01*
X132141946Y-85980836D01*
X132144984Y-86001318D01*
X132146000Y-86022000D01*
X132146000Y-86444000D01*
X132144984Y-86464682D01*
X132141946Y-86485164D01*
X132136914Y-86505250D01*
X132129939Y-86524746D01*
X132121085Y-86543465D01*
X132110440Y-86561225D01*
X132098105Y-86577857D01*
X132084200Y-86593200D01*
X132068857Y-86607105D01*
X132052225Y-86619440D01*
X132034465Y-86630085D01*
X132015746Y-86638939D01*
X131996250Y-86645914D01*
X131976164Y-86650946D01*
X131955682Y-86653984D01*
X131935000Y-86655000D01*
X131463000Y-86655000D01*
X131442318Y-86653984D01*
X131421836Y-86650946D01*
X131401750Y-86645914D01*
X131382254Y-86638939D01*
X131363535Y-86630085D01*
X131345775Y-86619440D01*
X131329143Y-86607105D01*
X131313800Y-86593200D01*
X131299895Y-86577857D01*
X131287560Y-86561225D01*
X131276915Y-86543465D01*
X131268061Y-86524746D01*
X131261086Y-86505250D01*
X131256054Y-86485164D01*
X131253016Y-86464682D01*
X131252000Y-86444000D01*
X131252000Y-86022000D01*
X131253016Y-86001318D01*
X131256054Y-85980836D01*
X131261086Y-85960750D01*
X131268061Y-85941254D01*
X131276915Y-85922535D01*
X131287560Y-85904775D01*
X131299895Y-85888143D01*
X131313800Y-85872800D01*
X131329143Y-85858895D01*
X131345775Y-85846560D01*
X131363535Y-85835915D01*
X131382254Y-85827061D01*
X131401750Y-85820086D01*
X131421836Y-85815054D01*
X131442318Y-85812016D01*
X131463000Y-85811000D01*
X131935000Y-85811000D01*
X131955682Y-85812016D01*
X131955682Y-85812016D01*
G37*
D16*
X131699000Y-86233000D03*
D14*
G36*
X131955682Y-86782016D02*
G01*
X131976164Y-86785054D01*
X131996250Y-86790086D01*
X132015746Y-86797061D01*
X132034465Y-86805915D01*
X132052225Y-86816560D01*
X132068857Y-86828895D01*
X132084200Y-86842800D01*
X132098105Y-86858143D01*
X132110440Y-86874775D01*
X132121085Y-86892535D01*
X132129939Y-86911254D01*
X132136914Y-86930750D01*
X132141946Y-86950836D01*
X132144984Y-86971318D01*
X132146000Y-86992000D01*
X132146000Y-87414000D01*
X132144984Y-87434682D01*
X132141946Y-87455164D01*
X132136914Y-87475250D01*
X132129939Y-87494746D01*
X132121085Y-87513465D01*
X132110440Y-87531225D01*
X132098105Y-87547857D01*
X132084200Y-87563200D01*
X132068857Y-87577105D01*
X132052225Y-87589440D01*
X132034465Y-87600085D01*
X132015746Y-87608939D01*
X131996250Y-87615914D01*
X131976164Y-87620946D01*
X131955682Y-87623984D01*
X131935000Y-87625000D01*
X131463000Y-87625000D01*
X131442318Y-87623984D01*
X131421836Y-87620946D01*
X131401750Y-87615914D01*
X131382254Y-87608939D01*
X131363535Y-87600085D01*
X131345775Y-87589440D01*
X131329143Y-87577105D01*
X131313800Y-87563200D01*
X131299895Y-87547857D01*
X131287560Y-87531225D01*
X131276915Y-87513465D01*
X131268061Y-87494746D01*
X131261086Y-87475250D01*
X131256054Y-87455164D01*
X131253016Y-87434682D01*
X131252000Y-87414000D01*
X131252000Y-86992000D01*
X131253016Y-86971318D01*
X131256054Y-86950836D01*
X131261086Y-86930750D01*
X131268061Y-86911254D01*
X131276915Y-86892535D01*
X131287560Y-86874775D01*
X131299895Y-86858143D01*
X131313800Y-86842800D01*
X131329143Y-86828895D01*
X131345775Y-86816560D01*
X131363535Y-86805915D01*
X131382254Y-86797061D01*
X131401750Y-86790086D01*
X131421836Y-86785054D01*
X131442318Y-86782016D01*
X131463000Y-86781000D01*
X131935000Y-86781000D01*
X131955682Y-86782016D01*
X131955682Y-86782016D01*
G37*
D16*
X131699000Y-87203000D03*
D14*
G36*
X133098682Y-85812016D02*
G01*
X133119164Y-85815054D01*
X133139250Y-85820086D01*
X133158746Y-85827061D01*
X133177465Y-85835915D01*
X133195225Y-85846560D01*
X133211857Y-85858895D01*
X133227200Y-85872800D01*
X133241105Y-85888143D01*
X133253440Y-85904775D01*
X133264085Y-85922535D01*
X133272939Y-85941254D01*
X133279914Y-85960750D01*
X133284946Y-85980836D01*
X133287984Y-86001318D01*
X133289000Y-86022000D01*
X133289000Y-86444000D01*
X133287984Y-86464682D01*
X133284946Y-86485164D01*
X133279914Y-86505250D01*
X133272939Y-86524746D01*
X133264085Y-86543465D01*
X133253440Y-86561225D01*
X133241105Y-86577857D01*
X133227200Y-86593200D01*
X133211857Y-86607105D01*
X133195225Y-86619440D01*
X133177465Y-86630085D01*
X133158746Y-86638939D01*
X133139250Y-86645914D01*
X133119164Y-86650946D01*
X133098682Y-86653984D01*
X133078000Y-86655000D01*
X132606000Y-86655000D01*
X132585318Y-86653984D01*
X132564836Y-86650946D01*
X132544750Y-86645914D01*
X132525254Y-86638939D01*
X132506535Y-86630085D01*
X132488775Y-86619440D01*
X132472143Y-86607105D01*
X132456800Y-86593200D01*
X132442895Y-86577857D01*
X132430560Y-86561225D01*
X132419915Y-86543465D01*
X132411061Y-86524746D01*
X132404086Y-86505250D01*
X132399054Y-86485164D01*
X132396016Y-86464682D01*
X132395000Y-86444000D01*
X132395000Y-86022000D01*
X132396016Y-86001318D01*
X132399054Y-85980836D01*
X132404086Y-85960750D01*
X132411061Y-85941254D01*
X132419915Y-85922535D01*
X132430560Y-85904775D01*
X132442895Y-85888143D01*
X132456800Y-85872800D01*
X132472143Y-85858895D01*
X132488775Y-85846560D01*
X132506535Y-85835915D01*
X132525254Y-85827061D01*
X132544750Y-85820086D01*
X132564836Y-85815054D01*
X132585318Y-85812016D01*
X132606000Y-85811000D01*
X133078000Y-85811000D01*
X133098682Y-85812016D01*
X133098682Y-85812016D01*
G37*
D16*
X132842000Y-86233000D03*
D14*
G36*
X133098682Y-84842016D02*
G01*
X133119164Y-84845054D01*
X133139250Y-84850086D01*
X133158746Y-84857061D01*
X133177465Y-84865915D01*
X133195225Y-84876560D01*
X133211857Y-84888895D01*
X133227200Y-84902800D01*
X133241105Y-84918143D01*
X133253440Y-84934775D01*
X133264085Y-84952535D01*
X133272939Y-84971254D01*
X133279914Y-84990750D01*
X133284946Y-85010836D01*
X133287984Y-85031318D01*
X133289000Y-85052000D01*
X133289000Y-85474000D01*
X133287984Y-85494682D01*
X133284946Y-85515164D01*
X133279914Y-85535250D01*
X133272939Y-85554746D01*
X133264085Y-85573465D01*
X133253440Y-85591225D01*
X133241105Y-85607857D01*
X133227200Y-85623200D01*
X133211857Y-85637105D01*
X133195225Y-85649440D01*
X133177465Y-85660085D01*
X133158746Y-85668939D01*
X133139250Y-85675914D01*
X133119164Y-85680946D01*
X133098682Y-85683984D01*
X133078000Y-85685000D01*
X132606000Y-85685000D01*
X132585318Y-85683984D01*
X132564836Y-85680946D01*
X132544750Y-85675914D01*
X132525254Y-85668939D01*
X132506535Y-85660085D01*
X132488775Y-85649440D01*
X132472143Y-85637105D01*
X132456800Y-85623200D01*
X132442895Y-85607857D01*
X132430560Y-85591225D01*
X132419915Y-85573465D01*
X132411061Y-85554746D01*
X132404086Y-85535250D01*
X132399054Y-85515164D01*
X132396016Y-85494682D01*
X132395000Y-85474000D01*
X132395000Y-85052000D01*
X132396016Y-85031318D01*
X132399054Y-85010836D01*
X132404086Y-84990750D01*
X132411061Y-84971254D01*
X132419915Y-84952535D01*
X132430560Y-84934775D01*
X132442895Y-84918143D01*
X132456800Y-84902800D01*
X132472143Y-84888895D01*
X132488775Y-84876560D01*
X132506535Y-84865915D01*
X132525254Y-84857061D01*
X132544750Y-84850086D01*
X132564836Y-84845054D01*
X132585318Y-84842016D01*
X132606000Y-84841000D01*
X133078000Y-84841000D01*
X133098682Y-84842016D01*
X133098682Y-84842016D01*
G37*
D16*
X132842000Y-85263000D03*
D14*
G36*
X102870682Y-85914016D02*
G01*
X102891164Y-85917054D01*
X102911250Y-85922086D01*
X102930746Y-85929061D01*
X102949465Y-85937915D01*
X102967225Y-85948560D01*
X102983857Y-85960895D01*
X102999200Y-85974800D01*
X103013105Y-85990143D01*
X103025440Y-86006775D01*
X103036085Y-86024535D01*
X103044939Y-86043254D01*
X103051914Y-86062750D01*
X103056946Y-86082836D01*
X103059984Y-86103318D01*
X103061000Y-86124000D01*
X103061000Y-86596000D01*
X103059984Y-86616682D01*
X103056946Y-86637164D01*
X103051914Y-86657250D01*
X103044939Y-86676746D01*
X103036085Y-86695465D01*
X103025440Y-86713225D01*
X103013105Y-86729857D01*
X102999200Y-86745200D01*
X102983857Y-86759105D01*
X102967225Y-86771440D01*
X102949465Y-86782085D01*
X102930746Y-86790939D01*
X102911250Y-86797914D01*
X102891164Y-86802946D01*
X102870682Y-86805984D01*
X102850000Y-86807000D01*
X102428000Y-86807000D01*
X102407318Y-86805984D01*
X102386836Y-86802946D01*
X102366750Y-86797914D01*
X102347254Y-86790939D01*
X102328535Y-86782085D01*
X102310775Y-86771440D01*
X102294143Y-86759105D01*
X102278800Y-86745200D01*
X102264895Y-86729857D01*
X102252560Y-86713225D01*
X102241915Y-86695465D01*
X102233061Y-86676746D01*
X102226086Y-86657250D01*
X102221054Y-86637164D01*
X102218016Y-86616682D01*
X102217000Y-86596000D01*
X102217000Y-86124000D01*
X102218016Y-86103318D01*
X102221054Y-86082836D01*
X102226086Y-86062750D01*
X102233061Y-86043254D01*
X102241915Y-86024535D01*
X102252560Y-86006775D01*
X102264895Y-85990143D01*
X102278800Y-85974800D01*
X102294143Y-85960895D01*
X102310775Y-85948560D01*
X102328535Y-85937915D01*
X102347254Y-85929061D01*
X102366750Y-85922086D01*
X102386836Y-85917054D01*
X102407318Y-85914016D01*
X102428000Y-85913000D01*
X102850000Y-85913000D01*
X102870682Y-85914016D01*
X102870682Y-85914016D01*
G37*
D16*
X102639000Y-86360000D03*
D14*
G36*
X103840682Y-85914016D02*
G01*
X103861164Y-85917054D01*
X103881250Y-85922086D01*
X103900746Y-85929061D01*
X103919465Y-85937915D01*
X103937225Y-85948560D01*
X103953857Y-85960895D01*
X103969200Y-85974800D01*
X103983105Y-85990143D01*
X103995440Y-86006775D01*
X104006085Y-86024535D01*
X104014939Y-86043254D01*
X104021914Y-86062750D01*
X104026946Y-86082836D01*
X104029984Y-86103318D01*
X104031000Y-86124000D01*
X104031000Y-86596000D01*
X104029984Y-86616682D01*
X104026946Y-86637164D01*
X104021914Y-86657250D01*
X104014939Y-86676746D01*
X104006085Y-86695465D01*
X103995440Y-86713225D01*
X103983105Y-86729857D01*
X103969200Y-86745200D01*
X103953857Y-86759105D01*
X103937225Y-86771440D01*
X103919465Y-86782085D01*
X103900746Y-86790939D01*
X103881250Y-86797914D01*
X103861164Y-86802946D01*
X103840682Y-86805984D01*
X103820000Y-86807000D01*
X103398000Y-86807000D01*
X103377318Y-86805984D01*
X103356836Y-86802946D01*
X103336750Y-86797914D01*
X103317254Y-86790939D01*
X103298535Y-86782085D01*
X103280775Y-86771440D01*
X103264143Y-86759105D01*
X103248800Y-86745200D01*
X103234895Y-86729857D01*
X103222560Y-86713225D01*
X103211915Y-86695465D01*
X103203061Y-86676746D01*
X103196086Y-86657250D01*
X103191054Y-86637164D01*
X103188016Y-86616682D01*
X103187000Y-86596000D01*
X103187000Y-86124000D01*
X103188016Y-86103318D01*
X103191054Y-86082836D01*
X103196086Y-86062750D01*
X103203061Y-86043254D01*
X103211915Y-86024535D01*
X103222560Y-86006775D01*
X103234895Y-85990143D01*
X103248800Y-85974800D01*
X103264143Y-85960895D01*
X103280775Y-85948560D01*
X103298535Y-85937915D01*
X103317254Y-85929061D01*
X103336750Y-85922086D01*
X103356836Y-85917054D01*
X103377318Y-85914016D01*
X103398000Y-85913000D01*
X103820000Y-85913000D01*
X103840682Y-85914016D01*
X103840682Y-85914016D01*
G37*
D16*
X103609000Y-86360000D03*
D14*
G36*
X101591815Y-83053459D02*
G01*
X101619214Y-83057523D01*
X101646083Y-83064254D01*
X101672162Y-83073585D01*
X101697202Y-83085428D01*
X101720960Y-83099668D01*
X101743208Y-83116168D01*
X101763731Y-83134769D01*
X101782332Y-83155292D01*
X101798832Y-83177540D01*
X101813072Y-83201298D01*
X101824915Y-83226338D01*
X101834246Y-83252417D01*
X101840977Y-83279286D01*
X101845041Y-83306685D01*
X101846400Y-83334350D01*
X101846400Y-83898850D01*
X101845041Y-83926515D01*
X101840977Y-83953914D01*
X101834246Y-83980783D01*
X101824915Y-84006862D01*
X101813072Y-84031902D01*
X101798832Y-84055660D01*
X101782332Y-84077908D01*
X101763731Y-84098431D01*
X101743208Y-84117032D01*
X101720960Y-84133532D01*
X101697202Y-84147772D01*
X101672162Y-84159615D01*
X101646083Y-84168946D01*
X101619214Y-84175677D01*
X101591815Y-84179741D01*
X101564150Y-84181100D01*
X100924650Y-84181100D01*
X100896985Y-84179741D01*
X100869586Y-84175677D01*
X100842717Y-84168946D01*
X100816638Y-84159615D01*
X100791598Y-84147772D01*
X100767840Y-84133532D01*
X100745592Y-84117032D01*
X100725069Y-84098431D01*
X100706468Y-84077908D01*
X100689968Y-84055660D01*
X100675728Y-84031902D01*
X100663885Y-84006862D01*
X100654554Y-83980783D01*
X100647823Y-83953914D01*
X100643759Y-83926515D01*
X100642400Y-83898850D01*
X100642400Y-83334350D01*
X100643759Y-83306685D01*
X100647823Y-83279286D01*
X100654554Y-83252417D01*
X100663885Y-83226338D01*
X100675728Y-83201298D01*
X100689968Y-83177540D01*
X100706468Y-83155292D01*
X100725069Y-83134769D01*
X100745592Y-83116168D01*
X100767840Y-83099668D01*
X100791598Y-83085428D01*
X100816638Y-83073585D01*
X100842717Y-83064254D01*
X100869586Y-83057523D01*
X100896985Y-83053459D01*
X100924650Y-83052100D01*
X101564150Y-83052100D01*
X101591815Y-83053459D01*
X101591815Y-83053459D01*
G37*
D15*
X101244400Y-83616600D03*
D14*
G36*
X101591815Y-84628459D02*
G01*
X101619214Y-84632523D01*
X101646083Y-84639254D01*
X101672162Y-84648585D01*
X101697202Y-84660428D01*
X101720960Y-84674668D01*
X101743208Y-84691168D01*
X101763731Y-84709769D01*
X101782332Y-84730292D01*
X101798832Y-84752540D01*
X101813072Y-84776298D01*
X101824915Y-84801338D01*
X101834246Y-84827417D01*
X101840977Y-84854286D01*
X101845041Y-84881685D01*
X101846400Y-84909350D01*
X101846400Y-85473850D01*
X101845041Y-85501515D01*
X101840977Y-85528914D01*
X101834246Y-85555783D01*
X101824915Y-85581862D01*
X101813072Y-85606902D01*
X101798832Y-85630660D01*
X101782332Y-85652908D01*
X101763731Y-85673431D01*
X101743208Y-85692032D01*
X101720960Y-85708532D01*
X101697202Y-85722772D01*
X101672162Y-85734615D01*
X101646083Y-85743946D01*
X101619214Y-85750677D01*
X101591815Y-85754741D01*
X101564150Y-85756100D01*
X100924650Y-85756100D01*
X100896985Y-85754741D01*
X100869586Y-85750677D01*
X100842717Y-85743946D01*
X100816638Y-85734615D01*
X100791598Y-85722772D01*
X100767840Y-85708532D01*
X100745592Y-85692032D01*
X100725069Y-85673431D01*
X100706468Y-85652908D01*
X100689968Y-85630660D01*
X100675728Y-85606902D01*
X100663885Y-85581862D01*
X100654554Y-85555783D01*
X100647823Y-85528914D01*
X100643759Y-85501515D01*
X100642400Y-85473850D01*
X100642400Y-84909350D01*
X100643759Y-84881685D01*
X100647823Y-84854286D01*
X100654554Y-84827417D01*
X100663885Y-84801338D01*
X100675728Y-84776298D01*
X100689968Y-84752540D01*
X100706468Y-84730292D01*
X100725069Y-84709769D01*
X100745592Y-84691168D01*
X100767840Y-84674668D01*
X100791598Y-84660428D01*
X100816638Y-84648585D01*
X100842717Y-84639254D01*
X100869586Y-84632523D01*
X100896985Y-84628459D01*
X100924650Y-84627100D01*
X101564150Y-84627100D01*
X101591815Y-84628459D01*
X101591815Y-84628459D01*
G37*
D15*
X101244400Y-85191600D03*
D14*
G36*
X106934682Y-99503016D02*
G01*
X106955164Y-99506054D01*
X106975250Y-99511086D01*
X106994746Y-99518061D01*
X107013465Y-99526915D01*
X107031225Y-99537560D01*
X107047857Y-99549895D01*
X107063200Y-99563800D01*
X107077105Y-99579143D01*
X107089440Y-99595775D01*
X107100085Y-99613535D01*
X107108939Y-99632254D01*
X107115914Y-99651750D01*
X107120946Y-99671836D01*
X107123984Y-99692318D01*
X107125000Y-99713000D01*
X107125000Y-100185000D01*
X107123984Y-100205682D01*
X107120946Y-100226164D01*
X107115914Y-100246250D01*
X107108939Y-100265746D01*
X107100085Y-100284465D01*
X107089440Y-100302225D01*
X107077105Y-100318857D01*
X107063200Y-100334200D01*
X107047857Y-100348105D01*
X107031225Y-100360440D01*
X107013465Y-100371085D01*
X106994746Y-100379939D01*
X106975250Y-100386914D01*
X106955164Y-100391946D01*
X106934682Y-100394984D01*
X106914000Y-100396000D01*
X106492000Y-100396000D01*
X106471318Y-100394984D01*
X106450836Y-100391946D01*
X106430750Y-100386914D01*
X106411254Y-100379939D01*
X106392535Y-100371085D01*
X106374775Y-100360440D01*
X106358143Y-100348105D01*
X106342800Y-100334200D01*
X106328895Y-100318857D01*
X106316560Y-100302225D01*
X106305915Y-100284465D01*
X106297061Y-100265746D01*
X106290086Y-100246250D01*
X106285054Y-100226164D01*
X106282016Y-100205682D01*
X106281000Y-100185000D01*
X106281000Y-99713000D01*
X106282016Y-99692318D01*
X106285054Y-99671836D01*
X106290086Y-99651750D01*
X106297061Y-99632254D01*
X106305915Y-99613535D01*
X106316560Y-99595775D01*
X106328895Y-99579143D01*
X106342800Y-99563800D01*
X106358143Y-99549895D01*
X106374775Y-99537560D01*
X106392535Y-99526915D01*
X106411254Y-99518061D01*
X106430750Y-99511086D01*
X106450836Y-99506054D01*
X106471318Y-99503016D01*
X106492000Y-99502000D01*
X106914000Y-99502000D01*
X106934682Y-99503016D01*
X106934682Y-99503016D01*
G37*
D16*
X106703000Y-99949000D03*
D14*
G36*
X107904682Y-99503016D02*
G01*
X107925164Y-99506054D01*
X107945250Y-99511086D01*
X107964746Y-99518061D01*
X107983465Y-99526915D01*
X108001225Y-99537560D01*
X108017857Y-99549895D01*
X108033200Y-99563800D01*
X108047105Y-99579143D01*
X108059440Y-99595775D01*
X108070085Y-99613535D01*
X108078939Y-99632254D01*
X108085914Y-99651750D01*
X108090946Y-99671836D01*
X108093984Y-99692318D01*
X108095000Y-99713000D01*
X108095000Y-100185000D01*
X108093984Y-100205682D01*
X108090946Y-100226164D01*
X108085914Y-100246250D01*
X108078939Y-100265746D01*
X108070085Y-100284465D01*
X108059440Y-100302225D01*
X108047105Y-100318857D01*
X108033200Y-100334200D01*
X108017857Y-100348105D01*
X108001225Y-100360440D01*
X107983465Y-100371085D01*
X107964746Y-100379939D01*
X107945250Y-100386914D01*
X107925164Y-100391946D01*
X107904682Y-100394984D01*
X107884000Y-100396000D01*
X107462000Y-100396000D01*
X107441318Y-100394984D01*
X107420836Y-100391946D01*
X107400750Y-100386914D01*
X107381254Y-100379939D01*
X107362535Y-100371085D01*
X107344775Y-100360440D01*
X107328143Y-100348105D01*
X107312800Y-100334200D01*
X107298895Y-100318857D01*
X107286560Y-100302225D01*
X107275915Y-100284465D01*
X107267061Y-100265746D01*
X107260086Y-100246250D01*
X107255054Y-100226164D01*
X107252016Y-100205682D01*
X107251000Y-100185000D01*
X107251000Y-99713000D01*
X107252016Y-99692318D01*
X107255054Y-99671836D01*
X107260086Y-99651750D01*
X107267061Y-99632254D01*
X107275915Y-99613535D01*
X107286560Y-99595775D01*
X107298895Y-99579143D01*
X107312800Y-99563800D01*
X107328143Y-99549895D01*
X107344775Y-99537560D01*
X107362535Y-99526915D01*
X107381254Y-99518061D01*
X107400750Y-99511086D01*
X107420836Y-99506054D01*
X107441318Y-99503016D01*
X107462000Y-99502000D01*
X107884000Y-99502000D01*
X107904682Y-99503016D01*
X107904682Y-99503016D01*
G37*
D16*
X107673000Y-99949000D03*
D14*
G36*
X103179915Y-87181759D02*
G01*
X103207314Y-87185823D01*
X103234183Y-87192554D01*
X103260262Y-87201885D01*
X103285302Y-87213728D01*
X103309060Y-87227968D01*
X103331308Y-87244468D01*
X103351831Y-87263069D01*
X103370432Y-87283592D01*
X103386932Y-87305840D01*
X103401172Y-87329598D01*
X103413015Y-87354638D01*
X103422346Y-87380717D01*
X103429077Y-87407586D01*
X103433141Y-87434985D01*
X103434500Y-87462650D01*
X103434500Y-88102150D01*
X103433141Y-88129815D01*
X103429077Y-88157214D01*
X103422346Y-88184083D01*
X103413015Y-88210162D01*
X103401172Y-88235202D01*
X103386932Y-88258960D01*
X103370432Y-88281208D01*
X103351831Y-88301731D01*
X103331308Y-88320332D01*
X103309060Y-88336832D01*
X103285302Y-88351072D01*
X103260262Y-88362915D01*
X103234183Y-88372246D01*
X103207314Y-88378977D01*
X103179915Y-88383041D01*
X103152250Y-88384400D01*
X102587750Y-88384400D01*
X102560085Y-88383041D01*
X102532686Y-88378977D01*
X102505817Y-88372246D01*
X102479738Y-88362915D01*
X102454698Y-88351072D01*
X102430940Y-88336832D01*
X102408692Y-88320332D01*
X102388169Y-88301731D01*
X102369568Y-88281208D01*
X102353068Y-88258960D01*
X102338828Y-88235202D01*
X102326985Y-88210162D01*
X102317654Y-88184083D01*
X102310923Y-88157214D01*
X102306859Y-88129815D01*
X102305500Y-88102150D01*
X102305500Y-87462650D01*
X102306859Y-87434985D01*
X102310923Y-87407586D01*
X102317654Y-87380717D01*
X102326985Y-87354638D01*
X102338828Y-87329598D01*
X102353068Y-87305840D01*
X102369568Y-87283592D01*
X102388169Y-87263069D01*
X102408692Y-87244468D01*
X102430940Y-87227968D01*
X102454698Y-87213728D01*
X102479738Y-87201885D01*
X102505817Y-87192554D01*
X102532686Y-87185823D01*
X102560085Y-87181759D01*
X102587750Y-87180400D01*
X103152250Y-87180400D01*
X103179915Y-87181759D01*
X103179915Y-87181759D01*
G37*
D15*
X102870000Y-87782400D03*
D14*
G36*
X101604915Y-87181759D02*
G01*
X101632314Y-87185823D01*
X101659183Y-87192554D01*
X101685262Y-87201885D01*
X101710302Y-87213728D01*
X101734060Y-87227968D01*
X101756308Y-87244468D01*
X101776831Y-87263069D01*
X101795432Y-87283592D01*
X101811932Y-87305840D01*
X101826172Y-87329598D01*
X101838015Y-87354638D01*
X101847346Y-87380717D01*
X101854077Y-87407586D01*
X101858141Y-87434985D01*
X101859500Y-87462650D01*
X101859500Y-88102150D01*
X101858141Y-88129815D01*
X101854077Y-88157214D01*
X101847346Y-88184083D01*
X101838015Y-88210162D01*
X101826172Y-88235202D01*
X101811932Y-88258960D01*
X101795432Y-88281208D01*
X101776831Y-88301731D01*
X101756308Y-88320332D01*
X101734060Y-88336832D01*
X101710302Y-88351072D01*
X101685262Y-88362915D01*
X101659183Y-88372246D01*
X101632314Y-88378977D01*
X101604915Y-88383041D01*
X101577250Y-88384400D01*
X101012750Y-88384400D01*
X100985085Y-88383041D01*
X100957686Y-88378977D01*
X100930817Y-88372246D01*
X100904738Y-88362915D01*
X100879698Y-88351072D01*
X100855940Y-88336832D01*
X100833692Y-88320332D01*
X100813169Y-88301731D01*
X100794568Y-88281208D01*
X100778068Y-88258960D01*
X100763828Y-88235202D01*
X100751985Y-88210162D01*
X100742654Y-88184083D01*
X100735923Y-88157214D01*
X100731859Y-88129815D01*
X100730500Y-88102150D01*
X100730500Y-87462650D01*
X100731859Y-87434985D01*
X100735923Y-87407586D01*
X100742654Y-87380717D01*
X100751985Y-87354638D01*
X100763828Y-87329598D01*
X100778068Y-87305840D01*
X100794568Y-87283592D01*
X100813169Y-87263069D01*
X100833692Y-87244468D01*
X100855940Y-87227968D01*
X100879698Y-87213728D01*
X100904738Y-87201885D01*
X100930817Y-87192554D01*
X100957686Y-87185823D01*
X100985085Y-87181759D01*
X101012750Y-87180400D01*
X101577250Y-87180400D01*
X101604915Y-87181759D01*
X101604915Y-87181759D01*
G37*
D15*
X101295000Y-87782400D03*
D17*
X128714500Y-79061000D03*
X128714500Y-76561000D03*
X128714500Y-74061000D03*
X128714500Y-71561000D03*
D18*
X131424500Y-81861000D03*
X131424500Y-68761000D03*
D19*
X135382000Y-101346000D03*
D20*
X135382000Y-102616000D03*
X134112000Y-101346000D03*
X134112000Y-102616000D03*
X132842000Y-101346000D03*
X132842000Y-102616000D03*
X131572000Y-101346000D03*
X131572000Y-102616000D03*
X130302000Y-101346000D03*
X130302000Y-102616000D03*
X135382000Y-107315000D03*
X135382000Y-108585000D03*
X134112000Y-107315000D03*
X134112000Y-108585000D03*
X132842000Y-107315000D03*
X132842000Y-108585000D03*
X131572000Y-107315000D03*
X131572000Y-108585000D03*
X130302000Y-107315000D03*
D19*
X130302000Y-108585000D03*
D21*
X119274000Y-70148000D03*
X119274000Y-69148000D03*
X119274000Y-68148000D03*
X119974000Y-68148000D03*
X119974000Y-69148000D03*
X119974000Y-70148000D03*
X125074000Y-69148000D03*
X125074000Y-68148000D03*
X124374000Y-68148000D03*
X124374000Y-69148000D03*
X125074000Y-70148000D03*
X124374000Y-70148000D03*
D22*
X124714000Y-68580000D03*
X119634000Y-68580000D03*
X107188000Y-68580000D03*
X112268000Y-68580000D03*
D21*
X111928000Y-70148000D03*
X112628000Y-70148000D03*
X111928000Y-69148000D03*
X111928000Y-68148000D03*
X112628000Y-68148000D03*
X112628000Y-69148000D03*
X107528000Y-70148000D03*
X107528000Y-69148000D03*
X107528000Y-68148000D03*
X106828000Y-68148000D03*
X106828000Y-69148000D03*
X106828000Y-70148000D03*
D14*
G36*
X124414682Y-91565516D02*
G01*
X124435164Y-91568554D01*
X124455250Y-91573586D01*
X124474746Y-91580561D01*
X124493465Y-91589415D01*
X124511225Y-91600060D01*
X124527857Y-91612395D01*
X124543200Y-91626300D01*
X124557105Y-91641643D01*
X124569440Y-91658275D01*
X124580085Y-91676035D01*
X124588939Y-91694754D01*
X124595914Y-91714250D01*
X124600946Y-91734336D01*
X124603984Y-91754818D01*
X124605000Y-91775500D01*
X124605000Y-92247500D01*
X124603984Y-92268182D01*
X124600946Y-92288664D01*
X124595914Y-92308750D01*
X124588939Y-92328246D01*
X124580085Y-92346965D01*
X124569440Y-92364725D01*
X124557105Y-92381357D01*
X124543200Y-92396700D01*
X124527857Y-92410605D01*
X124511225Y-92422940D01*
X124493465Y-92433585D01*
X124474746Y-92442439D01*
X124455250Y-92449414D01*
X124435164Y-92454446D01*
X124414682Y-92457484D01*
X124394000Y-92458500D01*
X123972000Y-92458500D01*
X123951318Y-92457484D01*
X123930836Y-92454446D01*
X123910750Y-92449414D01*
X123891254Y-92442439D01*
X123872535Y-92433585D01*
X123854775Y-92422940D01*
X123838143Y-92410605D01*
X123822800Y-92396700D01*
X123808895Y-92381357D01*
X123796560Y-92364725D01*
X123785915Y-92346965D01*
X123777061Y-92328246D01*
X123770086Y-92308750D01*
X123765054Y-92288664D01*
X123762016Y-92268182D01*
X123761000Y-92247500D01*
X123761000Y-91775500D01*
X123762016Y-91754818D01*
X123765054Y-91734336D01*
X123770086Y-91714250D01*
X123777061Y-91694754D01*
X123785915Y-91676035D01*
X123796560Y-91658275D01*
X123808895Y-91641643D01*
X123822800Y-91626300D01*
X123838143Y-91612395D01*
X123854775Y-91600060D01*
X123872535Y-91589415D01*
X123891254Y-91580561D01*
X123910750Y-91573586D01*
X123930836Y-91568554D01*
X123951318Y-91565516D01*
X123972000Y-91564500D01*
X124394000Y-91564500D01*
X124414682Y-91565516D01*
X124414682Y-91565516D01*
G37*
D16*
X124183000Y-92011500D03*
D14*
G36*
X123444682Y-91565516D02*
G01*
X123465164Y-91568554D01*
X123485250Y-91573586D01*
X123504746Y-91580561D01*
X123523465Y-91589415D01*
X123541225Y-91600060D01*
X123557857Y-91612395D01*
X123573200Y-91626300D01*
X123587105Y-91641643D01*
X123599440Y-91658275D01*
X123610085Y-91676035D01*
X123618939Y-91694754D01*
X123625914Y-91714250D01*
X123630946Y-91734336D01*
X123633984Y-91754818D01*
X123635000Y-91775500D01*
X123635000Y-92247500D01*
X123633984Y-92268182D01*
X123630946Y-92288664D01*
X123625914Y-92308750D01*
X123618939Y-92328246D01*
X123610085Y-92346965D01*
X123599440Y-92364725D01*
X123587105Y-92381357D01*
X123573200Y-92396700D01*
X123557857Y-92410605D01*
X123541225Y-92422940D01*
X123523465Y-92433585D01*
X123504746Y-92442439D01*
X123485250Y-92449414D01*
X123465164Y-92454446D01*
X123444682Y-92457484D01*
X123424000Y-92458500D01*
X123002000Y-92458500D01*
X122981318Y-92457484D01*
X122960836Y-92454446D01*
X122940750Y-92449414D01*
X122921254Y-92442439D01*
X122902535Y-92433585D01*
X122884775Y-92422940D01*
X122868143Y-92410605D01*
X122852800Y-92396700D01*
X122838895Y-92381357D01*
X122826560Y-92364725D01*
X122815915Y-92346965D01*
X122807061Y-92328246D01*
X122800086Y-92308750D01*
X122795054Y-92288664D01*
X122792016Y-92268182D01*
X122791000Y-92247500D01*
X122791000Y-91775500D01*
X122792016Y-91754818D01*
X122795054Y-91734336D01*
X122800086Y-91714250D01*
X122807061Y-91694754D01*
X122815915Y-91676035D01*
X122826560Y-91658275D01*
X122838895Y-91641643D01*
X122852800Y-91626300D01*
X122868143Y-91612395D01*
X122884775Y-91600060D01*
X122902535Y-91589415D01*
X122921254Y-91580561D01*
X122940750Y-91573586D01*
X122960836Y-91568554D01*
X122981318Y-91565516D01*
X123002000Y-91564500D01*
X123424000Y-91564500D01*
X123444682Y-91565516D01*
X123444682Y-91565516D01*
G37*
D16*
X123213000Y-92011500D03*
D14*
G36*
X124414682Y-92708516D02*
G01*
X124435164Y-92711554D01*
X124455250Y-92716586D01*
X124474746Y-92723561D01*
X124493465Y-92732415D01*
X124511225Y-92743060D01*
X124527857Y-92755395D01*
X124543200Y-92769300D01*
X124557105Y-92784643D01*
X124569440Y-92801275D01*
X124580085Y-92819035D01*
X124588939Y-92837754D01*
X124595914Y-92857250D01*
X124600946Y-92877336D01*
X124603984Y-92897818D01*
X124605000Y-92918500D01*
X124605000Y-93390500D01*
X124603984Y-93411182D01*
X124600946Y-93431664D01*
X124595914Y-93451750D01*
X124588939Y-93471246D01*
X124580085Y-93489965D01*
X124569440Y-93507725D01*
X124557105Y-93524357D01*
X124543200Y-93539700D01*
X124527857Y-93553605D01*
X124511225Y-93565940D01*
X124493465Y-93576585D01*
X124474746Y-93585439D01*
X124455250Y-93592414D01*
X124435164Y-93597446D01*
X124414682Y-93600484D01*
X124394000Y-93601500D01*
X123972000Y-93601500D01*
X123951318Y-93600484D01*
X123930836Y-93597446D01*
X123910750Y-93592414D01*
X123891254Y-93585439D01*
X123872535Y-93576585D01*
X123854775Y-93565940D01*
X123838143Y-93553605D01*
X123822800Y-93539700D01*
X123808895Y-93524357D01*
X123796560Y-93507725D01*
X123785915Y-93489965D01*
X123777061Y-93471246D01*
X123770086Y-93451750D01*
X123765054Y-93431664D01*
X123762016Y-93411182D01*
X123761000Y-93390500D01*
X123761000Y-92918500D01*
X123762016Y-92897818D01*
X123765054Y-92877336D01*
X123770086Y-92857250D01*
X123777061Y-92837754D01*
X123785915Y-92819035D01*
X123796560Y-92801275D01*
X123808895Y-92784643D01*
X123822800Y-92769300D01*
X123838143Y-92755395D01*
X123854775Y-92743060D01*
X123872535Y-92732415D01*
X123891254Y-92723561D01*
X123910750Y-92716586D01*
X123930836Y-92711554D01*
X123951318Y-92708516D01*
X123972000Y-92707500D01*
X124394000Y-92707500D01*
X124414682Y-92708516D01*
X124414682Y-92708516D01*
G37*
D16*
X124183000Y-93154500D03*
D14*
G36*
X123444682Y-92708516D02*
G01*
X123465164Y-92711554D01*
X123485250Y-92716586D01*
X123504746Y-92723561D01*
X123523465Y-92732415D01*
X123541225Y-92743060D01*
X123557857Y-92755395D01*
X123573200Y-92769300D01*
X123587105Y-92784643D01*
X123599440Y-92801275D01*
X123610085Y-92819035D01*
X123618939Y-92837754D01*
X123625914Y-92857250D01*
X123630946Y-92877336D01*
X123633984Y-92897818D01*
X123635000Y-92918500D01*
X123635000Y-93390500D01*
X123633984Y-93411182D01*
X123630946Y-93431664D01*
X123625914Y-93451750D01*
X123618939Y-93471246D01*
X123610085Y-93489965D01*
X123599440Y-93507725D01*
X123587105Y-93524357D01*
X123573200Y-93539700D01*
X123557857Y-93553605D01*
X123541225Y-93565940D01*
X123523465Y-93576585D01*
X123504746Y-93585439D01*
X123485250Y-93592414D01*
X123465164Y-93597446D01*
X123444682Y-93600484D01*
X123424000Y-93601500D01*
X123002000Y-93601500D01*
X122981318Y-93600484D01*
X122960836Y-93597446D01*
X122940750Y-93592414D01*
X122921254Y-93585439D01*
X122902535Y-93576585D01*
X122884775Y-93565940D01*
X122868143Y-93553605D01*
X122852800Y-93539700D01*
X122838895Y-93524357D01*
X122826560Y-93507725D01*
X122815915Y-93489965D01*
X122807061Y-93471246D01*
X122800086Y-93451750D01*
X122795054Y-93431664D01*
X122792016Y-93411182D01*
X122791000Y-93390500D01*
X122791000Y-92918500D01*
X122792016Y-92897818D01*
X122795054Y-92877336D01*
X122800086Y-92857250D01*
X122807061Y-92837754D01*
X122815915Y-92819035D01*
X122826560Y-92801275D01*
X122838895Y-92784643D01*
X122852800Y-92769300D01*
X122868143Y-92755395D01*
X122884775Y-92743060D01*
X122902535Y-92732415D01*
X122921254Y-92723561D01*
X122940750Y-92716586D01*
X122960836Y-92711554D01*
X122981318Y-92708516D01*
X123002000Y-92707500D01*
X123424000Y-92707500D01*
X123444682Y-92708516D01*
X123444682Y-92708516D01*
G37*
D16*
X123213000Y-93154500D03*
D14*
G36*
X124414682Y-93851516D02*
G01*
X124435164Y-93854554D01*
X124455250Y-93859586D01*
X124474746Y-93866561D01*
X124493465Y-93875415D01*
X124511225Y-93886060D01*
X124527857Y-93898395D01*
X124543200Y-93912300D01*
X124557105Y-93927643D01*
X124569440Y-93944275D01*
X124580085Y-93962035D01*
X124588939Y-93980754D01*
X124595914Y-94000250D01*
X124600946Y-94020336D01*
X124603984Y-94040818D01*
X124605000Y-94061500D01*
X124605000Y-94533500D01*
X124603984Y-94554182D01*
X124600946Y-94574664D01*
X124595914Y-94594750D01*
X124588939Y-94614246D01*
X124580085Y-94632965D01*
X124569440Y-94650725D01*
X124557105Y-94667357D01*
X124543200Y-94682700D01*
X124527857Y-94696605D01*
X124511225Y-94708940D01*
X124493465Y-94719585D01*
X124474746Y-94728439D01*
X124455250Y-94735414D01*
X124435164Y-94740446D01*
X124414682Y-94743484D01*
X124394000Y-94744500D01*
X123972000Y-94744500D01*
X123951318Y-94743484D01*
X123930836Y-94740446D01*
X123910750Y-94735414D01*
X123891254Y-94728439D01*
X123872535Y-94719585D01*
X123854775Y-94708940D01*
X123838143Y-94696605D01*
X123822800Y-94682700D01*
X123808895Y-94667357D01*
X123796560Y-94650725D01*
X123785915Y-94632965D01*
X123777061Y-94614246D01*
X123770086Y-94594750D01*
X123765054Y-94574664D01*
X123762016Y-94554182D01*
X123761000Y-94533500D01*
X123761000Y-94061500D01*
X123762016Y-94040818D01*
X123765054Y-94020336D01*
X123770086Y-94000250D01*
X123777061Y-93980754D01*
X123785915Y-93962035D01*
X123796560Y-93944275D01*
X123808895Y-93927643D01*
X123822800Y-93912300D01*
X123838143Y-93898395D01*
X123854775Y-93886060D01*
X123872535Y-93875415D01*
X123891254Y-93866561D01*
X123910750Y-93859586D01*
X123930836Y-93854554D01*
X123951318Y-93851516D01*
X123972000Y-93850500D01*
X124394000Y-93850500D01*
X124414682Y-93851516D01*
X124414682Y-93851516D01*
G37*
D16*
X124183000Y-94297500D03*
D14*
G36*
X123444682Y-93851516D02*
G01*
X123465164Y-93854554D01*
X123485250Y-93859586D01*
X123504746Y-93866561D01*
X123523465Y-93875415D01*
X123541225Y-93886060D01*
X123557857Y-93898395D01*
X123573200Y-93912300D01*
X123587105Y-93927643D01*
X123599440Y-93944275D01*
X123610085Y-93962035D01*
X123618939Y-93980754D01*
X123625914Y-94000250D01*
X123630946Y-94020336D01*
X123633984Y-94040818D01*
X123635000Y-94061500D01*
X123635000Y-94533500D01*
X123633984Y-94554182D01*
X123630946Y-94574664D01*
X123625914Y-94594750D01*
X123618939Y-94614246D01*
X123610085Y-94632965D01*
X123599440Y-94650725D01*
X123587105Y-94667357D01*
X123573200Y-94682700D01*
X123557857Y-94696605D01*
X123541225Y-94708940D01*
X123523465Y-94719585D01*
X123504746Y-94728439D01*
X123485250Y-94735414D01*
X123465164Y-94740446D01*
X123444682Y-94743484D01*
X123424000Y-94744500D01*
X123002000Y-94744500D01*
X122981318Y-94743484D01*
X122960836Y-94740446D01*
X122940750Y-94735414D01*
X122921254Y-94728439D01*
X122902535Y-94719585D01*
X122884775Y-94708940D01*
X122868143Y-94696605D01*
X122852800Y-94682700D01*
X122838895Y-94667357D01*
X122826560Y-94650725D01*
X122815915Y-94632965D01*
X122807061Y-94614246D01*
X122800086Y-94594750D01*
X122795054Y-94574664D01*
X122792016Y-94554182D01*
X122791000Y-94533500D01*
X122791000Y-94061500D01*
X122792016Y-94040818D01*
X122795054Y-94020336D01*
X122800086Y-94000250D01*
X122807061Y-93980754D01*
X122815915Y-93962035D01*
X122826560Y-93944275D01*
X122838895Y-93927643D01*
X122852800Y-93912300D01*
X122868143Y-93898395D01*
X122884775Y-93886060D01*
X122902535Y-93875415D01*
X122921254Y-93866561D01*
X122940750Y-93859586D01*
X122960836Y-93854554D01*
X122981318Y-93851516D01*
X123002000Y-93850500D01*
X123424000Y-93850500D01*
X123444682Y-93851516D01*
X123444682Y-93851516D01*
G37*
D16*
X123213000Y-94297500D03*
D23*
X108862500Y-114885000D03*
X113362500Y-114885000D03*
D24*
X114617500Y-112395000D03*
X107607500Y-112395000D03*
X117157500Y-112381500D03*
X124167500Y-112381500D03*
D23*
X122912500Y-114871500D03*
X118412500Y-114871500D03*
X128064500Y-114885000D03*
X132564500Y-114885000D03*
D24*
X133819500Y-112395000D03*
X126809500Y-112395000D03*
M02*
