G04 #@! TF.GenerationSoftware,KiCad,Pcbnew,(5.1.2-1)-1*
G04 #@! TF.CreationDate,2019-12-03T13:00:22-07:00*
G04 #@! TF.ProjectId,luna_rev0,6c756e61-5f72-4657-9630-2e6b69636164,rev?*
G04 #@! TF.SameCoordinates,Original*
G04 #@! TF.FileFunction,Legend,Top*
G04 #@! TF.FilePolarity,Positive*
%FSLAX46Y46*%
G04 Gerber Fmt 4.6, Leading zero omitted, Abs format (unit mm)*
G04 Created by KiCad (PCBNEW (5.1.2-1)-1) date 2019-12-03 13:00:22*
%MOMM*%
%LPD*%
G04 APERTURE LIST*
%ADD10C,0.381000*%
%ADD11C,0.203200*%
%ADD12C,0.150000*%
%ADD13C,0.125000*%
%ADD14C,0.300000*%
%ADD15C,0.175000*%
%ADD16C,0.200000*%
%ADD17C,0.010000*%
%ADD18C,0.120000*%
G04 APERTURE END LIST*
D10*
X131318000Y-110490000D02*
X134620000Y-110490000D01*
X131064000Y-99441000D02*
X134366000Y-99441000D01*
D11*
X123981981Y-109347000D02*
G75*
G03X123981981Y-109347000I-283981J0D01*
G01*
X125657711Y-84504000D02*
G75*
G03X125657711Y-84504000I-323211J0D01*
G01*
X105330407Y-87581000D02*
G75*
G03X105330407Y-87581000I-350407J0D01*
G01*
X105286936Y-96344000D02*
G75*
G03X105286936Y-96344000I-306936J0D01*
G01*
X101883981Y-99949000D02*
G75*
G03X101883981Y-99949000I-283981J0D01*
G01*
X98298000Y-103378000D02*
X100965000Y-105664000D01*
X96774000Y-105664000D02*
X96774000Y-115951000D01*
D12*
X95829380Y-113315428D02*
X95353190Y-113648761D01*
X95829380Y-113886857D02*
X94829380Y-113886857D01*
X94829380Y-113505904D01*
X94877000Y-113410666D01*
X94924619Y-113363047D01*
X95019857Y-113315428D01*
X95162714Y-113315428D01*
X95257952Y-113363047D01*
X95305571Y-113410666D01*
X95353190Y-113505904D01*
X95353190Y-113886857D01*
X95305571Y-112886857D02*
X95305571Y-112553523D01*
X95829380Y-112410666D02*
X95829380Y-112886857D01*
X94829380Y-112886857D01*
X94829380Y-112410666D01*
X94829380Y-112124952D02*
X95829380Y-111791619D01*
X94829380Y-111458285D01*
X95829380Y-111124952D02*
X94829380Y-111124952D01*
X95781761Y-110696380D02*
X95829380Y-110553523D01*
X95829380Y-110315428D01*
X95781761Y-110220190D01*
X95734142Y-110172571D01*
X95638904Y-110124952D01*
X95543666Y-110124952D01*
X95448428Y-110172571D01*
X95400809Y-110220190D01*
X95353190Y-110315428D01*
X95305571Y-110505904D01*
X95257952Y-110601142D01*
X95210333Y-110648761D01*
X95115095Y-110696380D01*
X95019857Y-110696380D01*
X94924619Y-110648761D01*
X94877000Y-110601142D01*
X94829380Y-110505904D01*
X94829380Y-110267809D01*
X94877000Y-110124952D01*
X95829380Y-109696380D02*
X94829380Y-109696380D01*
X94829380Y-109029714D02*
X94829380Y-108839238D01*
X94877000Y-108744000D01*
X94972238Y-108648761D01*
X95162714Y-108601142D01*
X95496047Y-108601142D01*
X95686523Y-108648761D01*
X95781761Y-108744000D01*
X95829380Y-108839238D01*
X95829380Y-109029714D01*
X95781761Y-109124952D01*
X95686523Y-109220190D01*
X95496047Y-109267809D01*
X95162714Y-109267809D01*
X94972238Y-109220190D01*
X94877000Y-109124952D01*
X94829380Y-109029714D01*
X95829380Y-108172571D02*
X94829380Y-108172571D01*
X95829380Y-107601142D01*
X94829380Y-107601142D01*
X93432380Y-114196380D02*
X94241904Y-114196380D01*
X94337142Y-114148761D01*
X94384761Y-114101142D01*
X94432380Y-114005904D01*
X94432380Y-113815428D01*
X94384761Y-113720190D01*
X94337142Y-113672571D01*
X94241904Y-113624952D01*
X93432380Y-113624952D01*
X94432380Y-113148761D02*
X93432380Y-113148761D01*
X94432380Y-112577333D01*
X93432380Y-112577333D01*
X93432380Y-112244000D02*
X93432380Y-111672571D01*
X94432380Y-111958285D02*
X93432380Y-111958285D01*
X93908571Y-111339238D02*
X93908571Y-111005904D01*
X94432380Y-110863047D02*
X94432380Y-111339238D01*
X93432380Y-111339238D01*
X93432380Y-110863047D01*
X94384761Y-110482095D02*
X94432380Y-110339238D01*
X94432380Y-110101142D01*
X94384761Y-110005904D01*
X94337142Y-109958285D01*
X94241904Y-109910666D01*
X94146666Y-109910666D01*
X94051428Y-109958285D01*
X94003809Y-110005904D01*
X93956190Y-110101142D01*
X93908571Y-110291619D01*
X93860952Y-110386857D01*
X93813333Y-110434476D01*
X93718095Y-110482095D01*
X93622857Y-110482095D01*
X93527619Y-110434476D01*
X93480000Y-110386857D01*
X93432380Y-110291619D01*
X93432380Y-110053523D01*
X93480000Y-109910666D01*
X93432380Y-109624952D02*
X93432380Y-109053523D01*
X94432380Y-109339238D02*
X93432380Y-109339238D01*
X93908571Y-108720190D02*
X93908571Y-108386857D01*
X94432380Y-108244000D02*
X94432380Y-108720190D01*
X93432380Y-108720190D01*
X93432380Y-108244000D01*
X94432380Y-107815428D02*
X93432380Y-107815428D01*
X93432380Y-107577333D01*
X93480000Y-107434476D01*
X93575238Y-107339238D01*
X93670476Y-107291619D01*
X93860952Y-107244000D01*
X94003809Y-107244000D01*
X94194285Y-107291619D01*
X94289523Y-107339238D01*
X94384761Y-107434476D01*
X94432380Y-107577333D01*
X94432380Y-107815428D01*
D11*
X96647000Y-71120000D02*
X96647000Y-66040000D01*
D12*
X108668457Y-97227571D02*
X108624914Y-97271114D01*
X108494285Y-97314657D01*
X108407200Y-97314657D01*
X108276571Y-97271114D01*
X108189485Y-97184028D01*
X108145942Y-97096942D01*
X108102400Y-96922771D01*
X108102400Y-96792142D01*
X108145942Y-96617971D01*
X108189485Y-96530885D01*
X108276571Y-96443800D01*
X108407200Y-96400257D01*
X108494285Y-96400257D01*
X108624914Y-96443800D01*
X108668457Y-96487342D01*
X109190971Y-97314657D02*
X109103885Y-97271114D01*
X109060342Y-97227571D01*
X109016800Y-97140485D01*
X109016800Y-96879228D01*
X109060342Y-96792142D01*
X109103885Y-96748600D01*
X109190971Y-96705057D01*
X109321600Y-96705057D01*
X109408685Y-96748600D01*
X109452228Y-96792142D01*
X109495771Y-96879228D01*
X109495771Y-97140485D01*
X109452228Y-97227571D01*
X109408685Y-97271114D01*
X109321600Y-97314657D01*
X109190971Y-97314657D01*
X109887657Y-96705057D02*
X109887657Y-97314657D01*
X109887657Y-96792142D02*
X109931200Y-96748600D01*
X110018285Y-96705057D01*
X110148914Y-96705057D01*
X110236000Y-96748600D01*
X110279542Y-96835685D01*
X110279542Y-97314657D01*
X110584342Y-96705057D02*
X110932685Y-96705057D01*
X110714971Y-97314657D02*
X110714971Y-96530885D01*
X110758514Y-96443800D01*
X110845600Y-96400257D01*
X110932685Y-96400257D01*
D11*
X105918000Y-98171000D02*
X111506000Y-98171000D01*
D12*
X129606523Y-113350523D02*
X129183190Y-112745761D01*
X128880809Y-113350523D02*
X128880809Y-112080523D01*
X129364619Y-112080523D01*
X129485571Y-112141000D01*
X129546047Y-112201476D01*
X129606523Y-112322428D01*
X129606523Y-112503857D01*
X129546047Y-112624809D01*
X129485571Y-112685285D01*
X129364619Y-112745761D01*
X128880809Y-112745761D01*
X130090333Y-113290047D02*
X130271761Y-113350523D01*
X130574142Y-113350523D01*
X130695095Y-113290047D01*
X130755571Y-113229571D01*
X130816047Y-113108619D01*
X130816047Y-112987666D01*
X130755571Y-112866714D01*
X130695095Y-112806238D01*
X130574142Y-112745761D01*
X130332238Y-112685285D01*
X130211285Y-112624809D01*
X130150809Y-112564333D01*
X130090333Y-112443380D01*
X130090333Y-112322428D01*
X130150809Y-112201476D01*
X130211285Y-112141000D01*
X130332238Y-112080523D01*
X130634619Y-112080523D01*
X130816047Y-112141000D01*
X131178904Y-112080523D02*
X131904619Y-112080523D01*
X131541761Y-113350523D02*
X131541761Y-112080523D01*
X118853857Y-113350523D02*
X118853857Y-112080523D01*
X119156238Y-112080523D01*
X119337666Y-112141000D01*
X119458619Y-112261952D01*
X119519095Y-112382904D01*
X119579571Y-112624809D01*
X119579571Y-112806238D01*
X119519095Y-113048142D01*
X119458619Y-113169095D01*
X119337666Y-113290047D01*
X119156238Y-113350523D01*
X118853857Y-113350523D01*
X120547190Y-112685285D02*
X120123857Y-112685285D01*
X120123857Y-113350523D02*
X120123857Y-112080523D01*
X120728619Y-112080523D01*
X121212428Y-112080523D02*
X121212428Y-113108619D01*
X121272904Y-113229571D01*
X121333380Y-113290047D01*
X121454333Y-113350523D01*
X121696238Y-113350523D01*
X121817190Y-113290047D01*
X121877666Y-113229571D01*
X121938142Y-113108619D01*
X121938142Y-112080523D01*
X110248095Y-113350523D02*
X109824761Y-112745761D01*
X109522380Y-113350523D02*
X109522380Y-112080523D01*
X110006190Y-112080523D01*
X110127142Y-112141000D01*
X110187619Y-112201476D01*
X110248095Y-112322428D01*
X110248095Y-112503857D01*
X110187619Y-112624809D01*
X110127142Y-112685285D01*
X110006190Y-112745761D01*
X109522380Y-112745761D01*
X110610952Y-112080523D02*
X111034285Y-113350523D01*
X111457619Y-112080523D01*
X111880952Y-113350523D02*
X111880952Y-112080523D01*
X112304285Y-112987666D01*
X112727619Y-112080523D01*
X112727619Y-113350523D01*
D11*
X113665000Y-105664000D02*
X113665000Y-100076000D01*
X111506000Y-105664000D02*
X113665000Y-105664000D01*
X124079000Y-91186000D02*
X124079000Y-91440000D01*
X122301000Y-91186000D02*
X134239000Y-91186000D01*
X122682000Y-91821000D02*
X122809000Y-91948000D01*
X122682000Y-91821000D02*
X122809000Y-91694000D01*
X123571000Y-91821000D02*
X122682000Y-91821000D01*
X124079000Y-95885000D02*
X122316000Y-95900000D01*
X124079000Y-100076000D02*
X124079000Y-99314000D01*
X123825000Y-100076000D02*
X124079000Y-100076000D01*
X127762000Y-99441000D02*
X124079000Y-99441000D01*
X124079000Y-91440000D02*
X124079000Y-99441000D01*
X124079000Y-89535000D02*
X124079000Y-79756000D01*
X109474000Y-80137000D02*
X123698000Y-80137000D01*
X109474000Y-80137000D02*
X108712000Y-81280000D01*
X105918000Y-89916000D02*
X105918000Y-98044000D01*
X105918000Y-89916000D02*
X105918000Y-81280000D01*
X137922000Y-99441000D02*
X140970000Y-99441000D01*
X96774000Y-105664000D02*
X92075000Y-105664000D01*
X111506000Y-105664000D02*
X106426000Y-105664000D01*
X111506000Y-100076000D02*
X111506000Y-105664000D01*
D12*
X125755400Y-77299457D02*
X125755400Y-76864028D01*
X126016657Y-77386542D02*
X125102257Y-77081742D01*
X126016657Y-76776942D01*
X125668314Y-76472142D02*
X125668314Y-75775457D01*
X125973114Y-75383571D02*
X126016657Y-75252942D01*
X126016657Y-75035228D01*
X125973114Y-74948142D01*
X125929571Y-74904600D01*
X125842485Y-74861057D01*
X125755400Y-74861057D01*
X125668314Y-74904600D01*
X125624771Y-74948142D01*
X125581228Y-75035228D01*
X125537685Y-75209400D01*
X125494142Y-75296485D01*
X125450600Y-75340028D01*
X125363514Y-75383571D01*
X125276428Y-75383571D01*
X125189342Y-75340028D01*
X125145800Y-75296485D01*
X125102257Y-75209400D01*
X125102257Y-74991685D01*
X125145800Y-74861057D01*
X126016657Y-74469171D02*
X125407057Y-74469171D01*
X125102257Y-74469171D02*
X125145800Y-74512714D01*
X125189342Y-74469171D01*
X125145800Y-74425628D01*
X125102257Y-74469171D01*
X125189342Y-74469171D01*
X126016657Y-73641857D02*
X125102257Y-73641857D01*
X125973114Y-73641857D02*
X126016657Y-73728942D01*
X126016657Y-73903114D01*
X125973114Y-73990200D01*
X125929571Y-74033742D01*
X125842485Y-74077285D01*
X125581228Y-74077285D01*
X125494142Y-74033742D01*
X125450600Y-73990200D01*
X125407057Y-73903114D01*
X125407057Y-73728942D01*
X125450600Y-73641857D01*
X125973114Y-72858085D02*
X126016657Y-72945171D01*
X126016657Y-73119342D01*
X125973114Y-73206428D01*
X125886028Y-73249971D01*
X125537685Y-73249971D01*
X125450600Y-73206428D01*
X125407057Y-73119342D01*
X125407057Y-72945171D01*
X125450600Y-72858085D01*
X125537685Y-72814542D01*
X125624771Y-72814542D01*
X125711857Y-73249971D01*
D11*
X123825000Y-100076000D02*
X123444000Y-100076000D01*
X134366000Y-98933000D02*
X134366000Y-99441000D01*
X111506000Y-100076000D02*
X111506000Y-95885000D01*
X111506000Y-100076000D02*
X123571000Y-100076000D01*
X132969000Y-89535000D02*
X134366000Y-91313000D01*
X122428000Y-89535000D02*
X132969000Y-89535000D01*
D12*
X93181714Y-67952257D02*
X93181714Y-68692485D01*
X93225257Y-68779571D01*
X93268800Y-68823114D01*
X93355885Y-68866657D01*
X93530057Y-68866657D01*
X93617142Y-68823114D01*
X93660685Y-68779571D01*
X93704228Y-68692485D01*
X93704228Y-67952257D01*
X94096114Y-68823114D02*
X94183200Y-68866657D01*
X94357371Y-68866657D01*
X94444457Y-68823114D01*
X94488000Y-68736028D01*
X94488000Y-68692485D01*
X94444457Y-68605400D01*
X94357371Y-68561857D01*
X94226742Y-68561857D01*
X94139657Y-68518314D01*
X94096114Y-68431228D01*
X94096114Y-68387685D01*
X94139657Y-68300600D01*
X94226742Y-68257057D01*
X94357371Y-68257057D01*
X94444457Y-68300600D01*
X95228228Y-68823114D02*
X95141142Y-68866657D01*
X94966971Y-68866657D01*
X94879885Y-68823114D01*
X94836342Y-68736028D01*
X94836342Y-68387685D01*
X94879885Y-68300600D01*
X94966971Y-68257057D01*
X95141142Y-68257057D01*
X95228228Y-68300600D01*
X95271771Y-68387685D01*
X95271771Y-68474771D01*
X94836342Y-68561857D01*
X95663657Y-68866657D02*
X95663657Y-68257057D01*
X95663657Y-68431228D02*
X95707200Y-68344142D01*
X95750742Y-68300600D01*
X95837828Y-68257057D01*
X95924914Y-68257057D01*
D11*
X128905000Y-67437000D02*
X128905000Y-66040000D01*
X128270000Y-68326000D02*
X128905000Y-67437000D01*
X126111000Y-68326000D02*
X128270000Y-68326000D01*
X126111000Y-68453000D02*
X126111000Y-68326000D01*
X126111000Y-71374000D02*
X126111000Y-68453000D01*
X125730000Y-71882000D02*
X126111000Y-71374000D01*
X124333000Y-71882000D02*
X125730000Y-71882000D01*
X124333000Y-71882000D02*
X124333000Y-79375000D01*
X116713000Y-71882000D02*
X124333000Y-71882000D01*
X116078000Y-71247000D02*
X116713000Y-71882000D01*
X114427000Y-71247000D02*
X116078000Y-71247000D01*
X97028000Y-77343000D02*
X97028000Y-71501000D01*
X96647000Y-71120000D02*
X92075000Y-71120000D01*
X97536000Y-72009000D02*
X96647000Y-71120000D01*
X106045000Y-72009000D02*
X97536000Y-72009000D01*
X106807000Y-71247000D02*
X106045000Y-72009000D01*
X114427000Y-71247000D02*
X106807000Y-71247000D01*
X114427000Y-71247000D02*
X114427000Y-81915000D01*
X122301000Y-81915000D02*
X124333000Y-79375000D01*
X99187000Y-89154000D02*
X99822000Y-89916000D01*
X102616000Y-89916000D02*
X99822000Y-89916000D01*
X102616000Y-89916000D02*
X108331000Y-89916000D01*
X105664000Y-98171000D02*
X108331000Y-95885000D01*
X100711000Y-98171000D02*
X105664000Y-98171000D01*
X98298000Y-103378000D02*
X100711000Y-98171000D01*
X108712000Y-81280000D02*
X109316000Y-81900000D01*
X107442000Y-81280000D02*
X108712000Y-81280000D01*
X92202000Y-103378000D02*
X98298000Y-103378000D01*
X99187000Y-89154000D02*
X92075000Y-89154000D01*
X97028000Y-79502000D02*
X97028000Y-77343000D01*
X97790000Y-80264000D02*
X97028000Y-79502000D01*
X105156000Y-81280000D02*
X107569000Y-81280000D01*
X101854000Y-81280000D02*
X105156000Y-81280000D01*
X98806000Y-81280000D02*
X101854000Y-81280000D01*
X98679000Y-81153000D02*
X98806000Y-81280000D01*
X97790000Y-80264000D02*
X98679000Y-81153000D01*
D12*
X115885685Y-81312657D02*
X115885685Y-80398257D01*
X116190485Y-81051400D01*
X116495285Y-80398257D01*
X116495285Y-81312657D01*
X117279057Y-81269114D02*
X117191971Y-81312657D01*
X117017800Y-81312657D01*
X116930714Y-81269114D01*
X116887171Y-81182028D01*
X116887171Y-80833685D01*
X116930714Y-80746600D01*
X117017800Y-80703057D01*
X117191971Y-80703057D01*
X117279057Y-80746600D01*
X117322600Y-80833685D01*
X117322600Y-80920771D01*
X116887171Y-81007857D01*
X117714485Y-81312657D02*
X117714485Y-80703057D01*
X117714485Y-80790142D02*
X117758028Y-80746600D01*
X117845114Y-80703057D01*
X117975742Y-80703057D01*
X118062828Y-80746600D01*
X118106371Y-80833685D01*
X118106371Y-81312657D01*
X118106371Y-80833685D02*
X118149914Y-80746600D01*
X118237000Y-80703057D01*
X118367628Y-80703057D01*
X118454714Y-80746600D01*
X118498257Y-80833685D01*
X118498257Y-81312657D01*
X119064314Y-81312657D02*
X118977228Y-81269114D01*
X118933685Y-81225571D01*
X118890142Y-81138485D01*
X118890142Y-80877228D01*
X118933685Y-80790142D01*
X118977228Y-80746600D01*
X119064314Y-80703057D01*
X119194942Y-80703057D01*
X119282028Y-80746600D01*
X119325571Y-80790142D01*
X119369114Y-80877228D01*
X119369114Y-81138485D01*
X119325571Y-81225571D01*
X119282028Y-81269114D01*
X119194942Y-81312657D01*
X119064314Y-81312657D01*
X119761000Y-81312657D02*
X119761000Y-80703057D01*
X119761000Y-80877228D02*
X119804542Y-80790142D01*
X119848085Y-80746600D01*
X119935171Y-80703057D01*
X120022257Y-80703057D01*
X120239971Y-80703057D02*
X120457685Y-81312657D01*
X120675400Y-80703057D02*
X120457685Y-81312657D01*
X120370600Y-81530371D01*
X120327057Y-81573914D01*
X120239971Y-81617457D01*
D13*
X111947476Y-99712428D02*
X111947476Y-99312428D01*
X111947476Y-99426714D02*
X111974085Y-99369571D01*
X112000695Y-99341000D01*
X112053914Y-99312428D01*
X112107133Y-99312428D01*
X112399838Y-99112428D02*
X112453057Y-99112428D01*
X112506276Y-99141000D01*
X112532885Y-99169571D01*
X112559495Y-99226714D01*
X112586104Y-99341000D01*
X112586104Y-99483857D01*
X112559495Y-99598142D01*
X112532885Y-99655285D01*
X112506276Y-99683857D01*
X112453057Y-99712428D01*
X112399838Y-99712428D01*
X112346619Y-99683857D01*
X112320009Y-99655285D01*
X112293400Y-99598142D01*
X112266790Y-99483857D01*
X112266790Y-99341000D01*
X112293400Y-99226714D01*
X112320009Y-99169571D01*
X112346619Y-99141000D01*
X112399838Y-99112428D01*
X112825590Y-99655285D02*
X112852200Y-99683857D01*
X112825590Y-99712428D01*
X112798980Y-99683857D01*
X112825590Y-99655285D01*
X112825590Y-99712428D01*
X113384390Y-99712428D02*
X113065076Y-99712428D01*
X113224733Y-99712428D02*
X113224733Y-99112428D01*
X113171514Y-99198142D01*
X113118295Y-99255285D01*
X113065076Y-99283857D01*
X113623876Y-99655285D02*
X113650485Y-99683857D01*
X113623876Y-99712428D01*
X113597266Y-99683857D01*
X113623876Y-99655285D01*
X113623876Y-99712428D01*
X113623876Y-99341000D02*
X113650485Y-99369571D01*
X113623876Y-99398142D01*
X113597266Y-99369571D01*
X113623876Y-99341000D01*
X113623876Y-99398142D01*
X114315723Y-99712428D02*
X114315723Y-99112428D01*
X114635038Y-99712428D01*
X114635038Y-99112428D01*
X114980961Y-99712428D02*
X114927742Y-99683857D01*
X114901133Y-99655285D01*
X114874523Y-99598142D01*
X114874523Y-99426714D01*
X114901133Y-99369571D01*
X114927742Y-99341000D01*
X114980961Y-99312428D01*
X115060790Y-99312428D01*
X115114009Y-99341000D01*
X115140619Y-99369571D01*
X115167228Y-99426714D01*
X115167228Y-99598142D01*
X115140619Y-99655285D01*
X115114009Y-99683857D01*
X115060790Y-99712428D01*
X114980961Y-99712428D01*
X115353495Y-99312428D02*
X115486542Y-99712428D01*
X115619590Y-99312428D01*
X116045342Y-99683857D02*
X115992123Y-99712428D01*
X115885685Y-99712428D01*
X115832466Y-99683857D01*
X115805857Y-99626714D01*
X115805857Y-99398142D01*
X115832466Y-99341000D01*
X115885685Y-99312428D01*
X115992123Y-99312428D01*
X116045342Y-99341000D01*
X116071952Y-99398142D01*
X116071952Y-99455285D01*
X115805857Y-99512428D01*
X116311438Y-99712428D02*
X116311438Y-99312428D01*
X116311438Y-99369571D02*
X116338047Y-99341000D01*
X116391266Y-99312428D01*
X116471095Y-99312428D01*
X116524314Y-99341000D01*
X116550923Y-99398142D01*
X116550923Y-99712428D01*
X116550923Y-99398142D02*
X116577533Y-99341000D01*
X116630752Y-99312428D01*
X116710580Y-99312428D01*
X116763800Y-99341000D01*
X116790409Y-99398142D01*
X116790409Y-99712428D01*
X117056504Y-99712428D02*
X117056504Y-99112428D01*
X117056504Y-99341000D02*
X117109723Y-99312428D01*
X117216161Y-99312428D01*
X117269380Y-99341000D01*
X117295990Y-99369571D01*
X117322600Y-99426714D01*
X117322600Y-99598142D01*
X117295990Y-99655285D01*
X117269380Y-99683857D01*
X117216161Y-99712428D01*
X117109723Y-99712428D01*
X117056504Y-99683857D01*
X117774961Y-99683857D02*
X117721742Y-99712428D01*
X117615304Y-99712428D01*
X117562085Y-99683857D01*
X117535476Y-99626714D01*
X117535476Y-99398142D01*
X117562085Y-99341000D01*
X117615304Y-99312428D01*
X117721742Y-99312428D01*
X117774961Y-99341000D01*
X117801571Y-99398142D01*
X117801571Y-99455285D01*
X117535476Y-99512428D01*
X118041057Y-99712428D02*
X118041057Y-99312428D01*
X118041057Y-99426714D02*
X118067666Y-99369571D01*
X118094276Y-99341000D01*
X118147495Y-99312428D01*
X118200714Y-99312428D01*
X118786123Y-99169571D02*
X118812733Y-99141000D01*
X118865952Y-99112428D01*
X118999000Y-99112428D01*
X119052219Y-99141000D01*
X119078828Y-99169571D01*
X119105438Y-99226714D01*
X119105438Y-99283857D01*
X119078828Y-99369571D01*
X118759514Y-99712428D01*
X119105438Y-99712428D01*
X119584409Y-99112428D02*
X119477971Y-99112428D01*
X119424752Y-99141000D01*
X119398142Y-99169571D01*
X119344923Y-99255285D01*
X119318314Y-99369571D01*
X119318314Y-99598142D01*
X119344923Y-99655285D01*
X119371533Y-99683857D01*
X119424752Y-99712428D01*
X119531190Y-99712428D01*
X119584409Y-99683857D01*
X119611019Y-99655285D01*
X119637628Y-99598142D01*
X119637628Y-99455285D01*
X119611019Y-99398142D01*
X119584409Y-99369571D01*
X119531190Y-99341000D01*
X119424752Y-99341000D01*
X119371533Y-99369571D01*
X119344923Y-99398142D01*
X119318314Y-99455285D01*
X119797285Y-99312428D02*
X120010161Y-99312428D01*
X119877114Y-99112428D02*
X119877114Y-99626714D01*
X119903723Y-99683857D01*
X119956942Y-99712428D01*
X120010161Y-99712428D01*
X120196428Y-99712428D02*
X120196428Y-99112428D01*
X120435914Y-99712428D02*
X120435914Y-99398142D01*
X120409304Y-99341000D01*
X120356085Y-99312428D01*
X120276257Y-99312428D01*
X120223038Y-99341000D01*
X120196428Y-99369571D01*
X120728619Y-99683857D02*
X120728619Y-99712428D01*
X120702009Y-99769571D01*
X120675400Y-99798142D01*
X121367247Y-99169571D02*
X121393857Y-99141000D01*
X121447076Y-99112428D01*
X121580123Y-99112428D01*
X121633342Y-99141000D01*
X121659952Y-99169571D01*
X121686561Y-99226714D01*
X121686561Y-99283857D01*
X121659952Y-99369571D01*
X121340638Y-99712428D01*
X121686561Y-99712428D01*
X122032485Y-99112428D02*
X122085704Y-99112428D01*
X122138923Y-99141000D01*
X122165533Y-99169571D01*
X122192142Y-99226714D01*
X122218752Y-99341000D01*
X122218752Y-99483857D01*
X122192142Y-99598142D01*
X122165533Y-99655285D01*
X122138923Y-99683857D01*
X122085704Y-99712428D01*
X122032485Y-99712428D01*
X121979266Y-99683857D01*
X121952657Y-99655285D01*
X121926047Y-99598142D01*
X121899438Y-99483857D01*
X121899438Y-99341000D01*
X121926047Y-99226714D01*
X121952657Y-99169571D01*
X121979266Y-99141000D01*
X122032485Y-99112428D01*
X122750942Y-99712428D02*
X122431628Y-99712428D01*
X122591285Y-99712428D02*
X122591285Y-99112428D01*
X122538066Y-99198142D01*
X122484847Y-99255285D01*
X122431628Y-99283857D01*
X123017038Y-99712428D02*
X123123476Y-99712428D01*
X123176695Y-99683857D01*
X123203304Y-99655285D01*
X123256523Y-99569571D01*
X123283133Y-99455285D01*
X123283133Y-99226714D01*
X123256523Y-99169571D01*
X123229914Y-99141000D01*
X123176695Y-99112428D01*
X123070257Y-99112428D01*
X123017038Y-99141000D01*
X122990428Y-99169571D01*
X122963819Y-99226714D01*
X122963819Y-99369571D01*
X122990428Y-99426714D01*
X123017038Y-99455285D01*
X123070257Y-99483857D01*
X123176695Y-99483857D01*
X123229914Y-99455285D01*
X123256523Y-99426714D01*
X123283133Y-99369571D01*
D12*
X123793285Y-101131714D02*
X123793285Y-101798380D01*
X123364714Y-101131714D02*
X123364714Y-101655523D01*
X123412333Y-101750761D01*
X123507571Y-101798380D01*
X123650428Y-101798380D01*
X123745666Y-101750761D01*
X123793285Y-101703142D01*
X124840904Y-101703142D02*
X124793285Y-101750761D01*
X124650428Y-101798380D01*
X124555190Y-101798380D01*
X124412333Y-101750761D01*
X124317095Y-101655523D01*
X124269476Y-101560285D01*
X124221857Y-101369809D01*
X124221857Y-101226952D01*
X124269476Y-101036476D01*
X124317095Y-100941238D01*
X124412333Y-100846000D01*
X124555190Y-100798380D01*
X124650428Y-100798380D01*
X124793285Y-100846000D01*
X124840904Y-100893619D01*
D14*
X112855666Y-98662595D02*
X111903285Y-98662595D01*
X111903285Y-96312595D01*
X113522333Y-96312595D02*
X113522333Y-98214976D01*
X113617571Y-98438785D01*
X113712809Y-98550690D01*
X113903285Y-98662595D01*
X114284238Y-98662595D01*
X114474714Y-98550690D01*
X114569952Y-98438785D01*
X114665190Y-98214976D01*
X114665190Y-96312595D01*
X115617571Y-98662595D02*
X115617571Y-96312595D01*
X116760428Y-98662595D01*
X116760428Y-96312595D01*
X117617571Y-97991166D02*
X118569952Y-97991166D01*
X117427095Y-98662595D02*
X118093761Y-96312595D01*
X118760428Y-98662595D01*
D15*
X120071500Y-96280642D02*
X120071500Y-97009214D01*
X120104833Y-97094928D01*
X120138166Y-97137785D01*
X120204833Y-97180642D01*
X120338166Y-97180642D01*
X120404833Y-97137785D01*
X120438166Y-97094928D01*
X120471500Y-97009214D01*
X120471500Y-96280642D01*
X120771500Y-97137785D02*
X120871500Y-97180642D01*
X121038166Y-97180642D01*
X121104833Y-97137785D01*
X121138166Y-97094928D01*
X121171500Y-97009214D01*
X121171500Y-96923500D01*
X121138166Y-96837785D01*
X121104833Y-96794928D01*
X121038166Y-96752071D01*
X120904833Y-96709214D01*
X120838166Y-96666357D01*
X120804833Y-96623500D01*
X120771500Y-96537785D01*
X120771500Y-96452071D01*
X120804833Y-96366357D01*
X120838166Y-96323500D01*
X120904833Y-96280642D01*
X121071500Y-96280642D01*
X121171500Y-96323500D01*
X121704833Y-96709214D02*
X121804833Y-96752071D01*
X121838166Y-96794928D01*
X121871500Y-96880642D01*
X121871500Y-97009214D01*
X121838166Y-97094928D01*
X121804833Y-97137785D01*
X121738166Y-97180642D01*
X121471500Y-97180642D01*
X121471500Y-96280642D01*
X121704833Y-96280642D01*
X121771500Y-96323500D01*
X121804833Y-96366357D01*
X121838166Y-96452071D01*
X121838166Y-96537785D01*
X121804833Y-96623500D01*
X121771500Y-96666357D01*
X121704833Y-96709214D01*
X121471500Y-96709214D01*
X119288166Y-98705642D02*
X119288166Y-97805642D01*
X119521500Y-98448500D01*
X119754833Y-97805642D01*
X119754833Y-98705642D01*
X120388166Y-98105642D02*
X120388166Y-98705642D01*
X120088166Y-98105642D02*
X120088166Y-98577071D01*
X120121500Y-98662785D01*
X120188166Y-98705642D01*
X120288166Y-98705642D01*
X120354833Y-98662785D01*
X120388166Y-98619928D01*
X120621500Y-98105642D02*
X120888166Y-98105642D01*
X120721500Y-97805642D02*
X120721500Y-98577071D01*
X120754833Y-98662785D01*
X120821500Y-98705642D01*
X120888166Y-98705642D01*
X121121500Y-98705642D02*
X121121500Y-98105642D01*
X121121500Y-97805642D02*
X121088166Y-97848500D01*
X121121500Y-97891357D01*
X121154833Y-97848500D01*
X121121500Y-97805642D01*
X121121500Y-97891357D01*
X121354833Y-98105642D02*
X121621500Y-98105642D01*
X121454833Y-97805642D02*
X121454833Y-98577071D01*
X121488166Y-98662785D01*
X121554833Y-98705642D01*
X121621500Y-98705642D01*
X121954833Y-98705642D02*
X121888166Y-98662785D01*
X121854833Y-98619928D01*
X121821500Y-98534214D01*
X121821500Y-98277071D01*
X121854833Y-98191357D01*
X121888166Y-98148500D01*
X121954833Y-98105642D01*
X122054833Y-98105642D01*
X122121500Y-98148500D01*
X122154833Y-98191357D01*
X122188166Y-98277071D01*
X122188166Y-98534214D01*
X122154833Y-98619928D01*
X122121500Y-98662785D01*
X122054833Y-98705642D01*
X121954833Y-98705642D01*
X122588166Y-98705642D02*
X122521500Y-98662785D01*
X122488166Y-98619928D01*
X122454833Y-98534214D01*
X122454833Y-98277071D01*
X122488166Y-98191357D01*
X122521500Y-98148500D01*
X122588166Y-98105642D01*
X122688166Y-98105642D01*
X122754833Y-98148500D01*
X122788166Y-98191357D01*
X122821500Y-98277071D01*
X122821500Y-98534214D01*
X122788166Y-98619928D01*
X122754833Y-98662785D01*
X122688166Y-98705642D01*
X122588166Y-98705642D01*
X123221500Y-98705642D02*
X123154833Y-98662785D01*
X123121500Y-98577071D01*
X123121500Y-97805642D01*
D12*
X126785714Y-108108714D02*
X127452380Y-108108714D01*
X126785714Y-108537285D02*
X127309523Y-108537285D01*
X127404761Y-108489666D01*
X127452380Y-108394428D01*
X127452380Y-108251571D01*
X127404761Y-108156333D01*
X127357142Y-108108714D01*
X127357142Y-107061095D02*
X127404761Y-107108714D01*
X127452380Y-107251571D01*
X127452380Y-107346809D01*
X127404761Y-107489666D01*
X127309523Y-107584904D01*
X127214285Y-107632523D01*
X127023809Y-107680142D01*
X126880952Y-107680142D01*
X126690476Y-107632523D01*
X126595238Y-107584904D01*
X126500000Y-107489666D01*
X126452380Y-107346809D01*
X126452380Y-107251571D01*
X126500000Y-107108714D01*
X126547619Y-107061095D01*
X126928571Y-103393714D02*
X126928571Y-103727047D01*
X127452380Y-103727047D02*
X126452380Y-103727047D01*
X126452380Y-103250857D01*
X127452380Y-102869904D02*
X126452380Y-102869904D01*
X126452380Y-102488952D01*
X126500000Y-102393714D01*
X126547619Y-102346095D01*
X126642857Y-102298476D01*
X126785714Y-102298476D01*
X126880952Y-102346095D01*
X126928571Y-102393714D01*
X126976190Y-102488952D01*
X126976190Y-102869904D01*
X126500000Y-101346095D02*
X126452380Y-101441333D01*
X126452380Y-101584190D01*
X126500000Y-101727047D01*
X126595238Y-101822285D01*
X126690476Y-101869904D01*
X126880952Y-101917523D01*
X127023809Y-101917523D01*
X127214285Y-101869904D01*
X127309523Y-101822285D01*
X127404761Y-101727047D01*
X127452380Y-101584190D01*
X127452380Y-101488952D01*
X127404761Y-101346095D01*
X127357142Y-101298476D01*
X127023809Y-101298476D01*
X127023809Y-101488952D01*
X127166666Y-100917523D02*
X127166666Y-100441333D01*
X127452380Y-101012761D02*
X126452380Y-100679428D01*
X127452380Y-100346095D01*
X126198428Y-67762380D02*
X126198428Y-67095714D01*
X126198428Y-66762380D02*
X126150809Y-66810000D01*
X126198428Y-66857619D01*
X126246047Y-66810000D01*
X126198428Y-66762380D01*
X126198428Y-66857619D01*
X126817476Y-67762380D02*
X126722238Y-67714761D01*
X126674619Y-67667142D01*
X126627000Y-67571904D01*
X126627000Y-67286190D01*
X126674619Y-67190952D01*
X126722238Y-67143333D01*
X126817476Y-67095714D01*
X126960333Y-67095714D01*
X127055571Y-67143333D01*
X127103190Y-67190952D01*
X127150809Y-67286190D01*
X127150809Y-67571904D01*
X127103190Y-67667142D01*
X127055571Y-67714761D01*
X126960333Y-67762380D01*
X126817476Y-67762380D01*
X127769857Y-66762380D02*
X127865095Y-66762380D01*
X127960333Y-66810000D01*
X128007952Y-66857619D01*
X128055571Y-66952857D01*
X128103190Y-67143333D01*
X128103190Y-67381428D01*
X128055571Y-67571904D01*
X128007952Y-67667142D01*
X127960333Y-67714761D01*
X127865095Y-67762380D01*
X127769857Y-67762380D01*
X127674619Y-67714761D01*
X127627000Y-67667142D01*
X127579380Y-67571904D01*
X127531761Y-67381428D01*
X127531761Y-67143333D01*
X127579380Y-66952857D01*
X127627000Y-66857619D01*
X127674619Y-66810000D01*
X127769857Y-66762380D01*
X113625428Y-67762380D02*
X113625428Y-67095714D01*
X113625428Y-66762380D02*
X113577809Y-66810000D01*
X113625428Y-66857619D01*
X113673047Y-66810000D01*
X113625428Y-66762380D01*
X113625428Y-66857619D01*
X114244476Y-67762380D02*
X114149238Y-67714761D01*
X114101619Y-67667142D01*
X114054000Y-67571904D01*
X114054000Y-67286190D01*
X114101619Y-67190952D01*
X114149238Y-67143333D01*
X114244476Y-67095714D01*
X114387333Y-67095714D01*
X114482571Y-67143333D01*
X114530190Y-67190952D01*
X114577809Y-67286190D01*
X114577809Y-67571904D01*
X114530190Y-67667142D01*
X114482571Y-67714761D01*
X114387333Y-67762380D01*
X114244476Y-67762380D01*
X115530190Y-67762380D02*
X114958761Y-67762380D01*
X115244476Y-67762380D02*
X115244476Y-66762380D01*
X115149238Y-66905238D01*
X115054000Y-67000476D01*
X114958761Y-67048095D01*
X93657057Y-70263657D02*
X93657057Y-69349257D01*
X94745628Y-69305714D02*
X93961857Y-70481371D01*
X95224600Y-69349257D02*
X95398771Y-69349257D01*
X95485857Y-69392800D01*
X95572942Y-69479885D01*
X95616485Y-69654057D01*
X95616485Y-69958857D01*
X95572942Y-70133028D01*
X95485857Y-70220114D01*
X95398771Y-70263657D01*
X95224600Y-70263657D01*
X95137514Y-70220114D01*
X95050428Y-70133028D01*
X95006885Y-69958857D01*
X95006885Y-69654057D01*
X95050428Y-69479885D01*
X95137514Y-69392800D01*
X95224600Y-69349257D01*
X110206971Y-81312657D02*
X110206971Y-80398257D01*
X110555314Y-80398257D01*
X110642400Y-80441800D01*
X110685942Y-80485342D01*
X110729485Y-80572428D01*
X110729485Y-80703057D01*
X110685942Y-80790142D01*
X110642400Y-80833685D01*
X110555314Y-80877228D01*
X110206971Y-80877228D01*
X111252000Y-81312657D02*
X111164914Y-81269114D01*
X111121371Y-81225571D01*
X111077828Y-81138485D01*
X111077828Y-80877228D01*
X111121371Y-80790142D01*
X111164914Y-80746600D01*
X111252000Y-80703057D01*
X111382628Y-80703057D01*
X111469714Y-80746600D01*
X111513257Y-80790142D01*
X111556800Y-80877228D01*
X111556800Y-81138485D01*
X111513257Y-81225571D01*
X111469714Y-81269114D01*
X111382628Y-81312657D01*
X111252000Y-81312657D01*
X111861600Y-80703057D02*
X112035771Y-81312657D01*
X112209942Y-80877228D01*
X112384114Y-81312657D01*
X112558285Y-80703057D01*
X113254971Y-81269114D02*
X113167885Y-81312657D01*
X112993714Y-81312657D01*
X112906628Y-81269114D01*
X112863085Y-81182028D01*
X112863085Y-80833685D01*
X112906628Y-80746600D01*
X112993714Y-80703057D01*
X113167885Y-80703057D01*
X113254971Y-80746600D01*
X113298514Y-80833685D01*
X113298514Y-80920771D01*
X112863085Y-81007857D01*
X113690400Y-81312657D02*
X113690400Y-80703057D01*
X113690400Y-80877228D02*
X113733942Y-80790142D01*
X113777485Y-80746600D01*
X113864571Y-80703057D01*
X113951657Y-80703057D01*
X123128314Y-92677342D02*
X123128314Y-92372542D01*
X122649342Y-92372542D02*
X123563742Y-92372542D01*
X123563742Y-92807971D01*
X122649342Y-93156314D02*
X123563742Y-93156314D01*
X123563742Y-93504657D01*
X123520200Y-93591742D01*
X123476657Y-93635285D01*
X123389571Y-93678828D01*
X123258942Y-93678828D01*
X123171857Y-93635285D01*
X123128314Y-93591742D01*
X123084771Y-93504657D01*
X123084771Y-93156314D01*
X123520200Y-94549685D02*
X123563742Y-94462600D01*
X123563742Y-94331971D01*
X123520200Y-94201342D01*
X123433114Y-94114257D01*
X123346028Y-94070714D01*
X123171857Y-94027171D01*
X123041228Y-94027171D01*
X122867057Y-94070714D01*
X122779971Y-94114257D01*
X122692885Y-94201342D01*
X122649342Y-94331971D01*
X122649342Y-94419057D01*
X122692885Y-94549685D01*
X122736428Y-94593228D01*
X123041228Y-94593228D01*
X123041228Y-94419057D01*
X122910600Y-94941571D02*
X122910600Y-95377000D01*
X122649342Y-94854485D02*
X123563742Y-95159285D01*
X122649342Y-95464085D01*
X123817742Y-83700257D02*
X123817742Y-84222771D01*
X122903342Y-83961514D02*
X123817742Y-83961514D01*
X122903342Y-84919457D02*
X123382314Y-84919457D01*
X123469400Y-84875914D01*
X123512942Y-84788828D01*
X123512942Y-84614657D01*
X123469400Y-84527571D01*
X122946885Y-84919457D02*
X122903342Y-84832371D01*
X122903342Y-84614657D01*
X122946885Y-84527571D01*
X123033971Y-84484028D01*
X123121057Y-84484028D01*
X123208142Y-84527571D01*
X123251685Y-84614657D01*
X123251685Y-84832371D01*
X123295228Y-84919457D01*
X122903342Y-85354885D02*
X123512942Y-85354885D01*
X123338771Y-85354885D02*
X123425857Y-85398428D01*
X123469400Y-85441971D01*
X123512942Y-85529057D01*
X123512942Y-85616142D01*
X123512942Y-86312828D02*
X122772714Y-86312828D01*
X122685628Y-86269285D01*
X122642085Y-86225742D01*
X122598542Y-86138657D01*
X122598542Y-86008028D01*
X122642085Y-85920942D01*
X122946885Y-86312828D02*
X122903342Y-86225742D01*
X122903342Y-86051571D01*
X122946885Y-85964485D01*
X122990428Y-85920942D01*
X123077514Y-85877400D01*
X123338771Y-85877400D01*
X123425857Y-85920942D01*
X123469400Y-85964485D01*
X123512942Y-86051571D01*
X123512942Y-86225742D01*
X123469400Y-86312828D01*
X122946885Y-87096600D02*
X122903342Y-87009514D01*
X122903342Y-86835342D01*
X122946885Y-86748257D01*
X123033971Y-86704714D01*
X123382314Y-86704714D01*
X123469400Y-86748257D01*
X123512942Y-86835342D01*
X123512942Y-87009514D01*
X123469400Y-87096600D01*
X123382314Y-87140142D01*
X123295228Y-87140142D01*
X123208142Y-86704714D01*
X123512942Y-87401400D02*
X123512942Y-87749742D01*
X123817742Y-87532028D02*
X123033971Y-87532028D01*
X122946885Y-87575571D01*
X122903342Y-87662657D01*
X122903342Y-87749742D01*
X136343571Y-97851685D02*
X136474200Y-97895228D01*
X136517742Y-97938771D01*
X136561285Y-98025857D01*
X136561285Y-98156485D01*
X136517742Y-98243571D01*
X136474200Y-98287114D01*
X136387114Y-98330657D01*
X136038771Y-98330657D01*
X136038771Y-97416257D01*
X136343571Y-97416257D01*
X136430657Y-97459800D01*
X136474200Y-97503342D01*
X136517742Y-97590428D01*
X136517742Y-97677514D01*
X136474200Y-97764600D01*
X136430657Y-97808142D01*
X136343571Y-97851685D01*
X136038771Y-97851685D01*
X136953171Y-97982314D02*
X137649857Y-97982314D01*
X138041742Y-98287114D02*
X138172371Y-98330657D01*
X138390085Y-98330657D01*
X138477171Y-98287114D01*
X138520714Y-98243571D01*
X138564257Y-98156485D01*
X138564257Y-98069400D01*
X138520714Y-97982314D01*
X138477171Y-97938771D01*
X138390085Y-97895228D01*
X138215914Y-97851685D01*
X138128828Y-97808142D01*
X138085285Y-97764600D01*
X138041742Y-97677514D01*
X138041742Y-97590428D01*
X138085285Y-97503342D01*
X138128828Y-97459800D01*
X138215914Y-97416257D01*
X138433628Y-97416257D01*
X138564257Y-97459800D01*
X138956142Y-98330657D02*
X138956142Y-97721057D01*
X138956142Y-97416257D02*
X138912600Y-97459800D01*
X138956142Y-97503342D01*
X138999685Y-97459800D01*
X138956142Y-97416257D01*
X138956142Y-97503342D01*
X139783457Y-98330657D02*
X139783457Y-97416257D01*
X139783457Y-98287114D02*
X139696371Y-98330657D01*
X139522200Y-98330657D01*
X139435114Y-98287114D01*
X139391571Y-98243571D01*
X139348028Y-98156485D01*
X139348028Y-97895228D01*
X139391571Y-97808142D01*
X139435114Y-97764600D01*
X139522200Y-97721057D01*
X139696371Y-97721057D01*
X139783457Y-97764600D01*
X140567228Y-98287114D02*
X140480142Y-98330657D01*
X140305971Y-98330657D01*
X140218885Y-98287114D01*
X140175342Y-98200028D01*
X140175342Y-97851685D01*
X140218885Y-97764600D01*
X140305971Y-97721057D01*
X140480142Y-97721057D01*
X140567228Y-97764600D01*
X140610771Y-97851685D01*
X140610771Y-97938771D01*
X140175342Y-98025857D01*
X107601657Y-89074171D02*
X106687257Y-89074171D01*
X107340400Y-88769371D01*
X106687257Y-88464571D01*
X107601657Y-88464571D01*
X107601657Y-87637257D02*
X107122685Y-87637257D01*
X107035600Y-87680800D01*
X106992057Y-87767885D01*
X106992057Y-87942057D01*
X107035600Y-88029142D01*
X107558114Y-87637257D02*
X107601657Y-87724342D01*
X107601657Y-87942057D01*
X107558114Y-88029142D01*
X107471028Y-88072685D01*
X107383942Y-88072685D01*
X107296857Y-88029142D01*
X107253314Y-87942057D01*
X107253314Y-87724342D01*
X107209771Y-87637257D01*
X107601657Y-87201828D02*
X106992057Y-87201828D01*
X106687257Y-87201828D02*
X106730800Y-87245371D01*
X106774342Y-87201828D01*
X106730800Y-87158285D01*
X106687257Y-87201828D01*
X106774342Y-87201828D01*
X106992057Y-86766400D02*
X107601657Y-86766400D01*
X107079142Y-86766400D02*
X107035600Y-86722857D01*
X106992057Y-86635771D01*
X106992057Y-86505142D01*
X107035600Y-86418057D01*
X107122685Y-86374514D01*
X107601657Y-86374514D01*
X107601657Y-85242400D02*
X106687257Y-85242400D01*
X107122685Y-85242400D02*
X107122685Y-84719885D01*
X107601657Y-84719885D02*
X106687257Y-84719885D01*
X107601657Y-84153828D02*
X107558114Y-84240914D01*
X107514571Y-84284457D01*
X107427485Y-84328000D01*
X107166228Y-84328000D01*
X107079142Y-84284457D01*
X107035600Y-84240914D01*
X106992057Y-84153828D01*
X106992057Y-84023200D01*
X107035600Y-83936114D01*
X107079142Y-83892571D01*
X107166228Y-83849028D01*
X107427485Y-83849028D01*
X107514571Y-83892571D01*
X107558114Y-83936114D01*
X107601657Y-84023200D01*
X107601657Y-84153828D01*
X107558114Y-83500685D02*
X107601657Y-83413600D01*
X107601657Y-83239428D01*
X107558114Y-83152342D01*
X107471028Y-83108800D01*
X107427485Y-83108800D01*
X107340400Y-83152342D01*
X107296857Y-83239428D01*
X107296857Y-83370057D01*
X107253314Y-83457142D01*
X107166228Y-83500685D01*
X107122685Y-83500685D01*
X107035600Y-83457142D01*
X106992057Y-83370057D01*
X106992057Y-83239428D01*
X107035600Y-83152342D01*
X106992057Y-82847542D02*
X106992057Y-82499200D01*
X106687257Y-82716914D02*
X107471028Y-82716914D01*
X107558114Y-82673371D01*
X107601657Y-82586285D01*
X107601657Y-82499200D01*
X123317428Y-90352571D02*
X122984095Y-90352571D01*
X122984095Y-90876380D02*
X122984095Y-89876380D01*
X123460285Y-89876380D01*
X123841238Y-90876380D02*
X123841238Y-89876380D01*
X124222190Y-89876380D01*
X124317428Y-89924000D01*
X124365047Y-89971619D01*
X124412666Y-90066857D01*
X124412666Y-90209714D01*
X124365047Y-90304952D01*
X124317428Y-90352571D01*
X124222190Y-90400190D01*
X123841238Y-90400190D01*
X125365047Y-89924000D02*
X125269809Y-89876380D01*
X125126952Y-89876380D01*
X124984095Y-89924000D01*
X124888857Y-90019238D01*
X124841238Y-90114476D01*
X124793619Y-90304952D01*
X124793619Y-90447809D01*
X124841238Y-90638285D01*
X124888857Y-90733523D01*
X124984095Y-90828761D01*
X125126952Y-90876380D01*
X125222190Y-90876380D01*
X125365047Y-90828761D01*
X125412666Y-90781142D01*
X125412666Y-90447809D01*
X125222190Y-90447809D01*
X125793619Y-90590666D02*
X126269809Y-90590666D01*
X125698380Y-90876380D02*
X126031714Y-89876380D01*
X126365047Y-90876380D01*
X127936476Y-90876380D02*
X127460285Y-90876380D01*
X127460285Y-89876380D01*
X128269809Y-90352571D02*
X128603142Y-90352571D01*
X128746000Y-90876380D02*
X128269809Y-90876380D01*
X128269809Y-89876380D01*
X128746000Y-89876380D01*
X129174571Y-90876380D02*
X129174571Y-89876380D01*
X129412666Y-89876380D01*
X129555523Y-89924000D01*
X129650761Y-90019238D01*
X129698380Y-90114476D01*
X129746000Y-90304952D01*
X129746000Y-90447809D01*
X129698380Y-90638285D01*
X129650761Y-90733523D01*
X129555523Y-90828761D01*
X129412666Y-90876380D01*
X129174571Y-90876380D01*
X130126952Y-90828761D02*
X130222190Y-90876380D01*
X130412666Y-90876380D01*
X130507904Y-90828761D01*
X130555523Y-90733523D01*
X130555523Y-90685904D01*
X130507904Y-90590666D01*
X130412666Y-90543047D01*
X130269809Y-90543047D01*
X130174571Y-90495428D01*
X130126952Y-90400190D01*
X130126952Y-90352571D01*
X130174571Y-90257333D01*
X130269809Y-90209714D01*
X130412666Y-90209714D01*
X130507904Y-90257333D01*
X132921380Y-91654380D02*
X133016619Y-91654380D01*
X133111857Y-91702000D01*
X133159476Y-91749619D01*
X133207095Y-91844857D01*
X133254714Y-92035333D01*
X133254714Y-92273428D01*
X133207095Y-92463904D01*
X133159476Y-92559142D01*
X133111857Y-92606761D01*
X133016619Y-92654380D01*
X132921380Y-92654380D01*
X132826142Y-92606761D01*
X132778523Y-92559142D01*
X132730904Y-92463904D01*
X132683285Y-92273428D01*
X132683285Y-92035333D01*
X132730904Y-91844857D01*
X132778523Y-91749619D01*
X132826142Y-91702000D01*
X132921380Y-91654380D01*
X131730714Y-92654380D02*
X131159285Y-92654380D01*
X131445000Y-92654380D02*
X131445000Y-91654380D01*
X131349761Y-91797238D01*
X131254523Y-91892476D01*
X131159285Y-91940095D01*
X129508285Y-91749619D02*
X129555904Y-91702000D01*
X129651142Y-91654380D01*
X129889238Y-91654380D01*
X129984476Y-91702000D01*
X130032095Y-91749619D01*
X130079714Y-91844857D01*
X130079714Y-91940095D01*
X130032095Y-92082952D01*
X129460666Y-92654380D01*
X130079714Y-92654380D01*
X127809666Y-91654380D02*
X128428714Y-91654380D01*
X128095380Y-92035333D01*
X128238238Y-92035333D01*
X128333476Y-92082952D01*
X128381095Y-92130571D01*
X128428714Y-92225809D01*
X128428714Y-92463904D01*
X128381095Y-92559142D01*
X128333476Y-92606761D01*
X128238238Y-92654380D01*
X127952523Y-92654380D01*
X127857285Y-92606761D01*
X127809666Y-92559142D01*
X126682476Y-91987714D02*
X126682476Y-92654380D01*
X126444380Y-91606761D02*
X126206285Y-92321047D01*
X126825333Y-92321047D01*
X125079095Y-91654380D02*
X124602904Y-91654380D01*
X124555285Y-92130571D01*
X124602904Y-92082952D01*
X124698142Y-92035333D01*
X124936238Y-92035333D01*
X125031476Y-92082952D01*
X125079095Y-92130571D01*
X125126714Y-92225809D01*
X125126714Y-92463904D01*
X125079095Y-92559142D01*
X125031476Y-92606761D01*
X124936238Y-92654380D01*
X124698142Y-92654380D01*
X124602904Y-92606761D01*
X124555285Y-92559142D01*
D11*
X134366000Y-91313000D02*
X134366000Y-98933000D01*
D12*
X107558114Y-96187357D02*
X107601657Y-96055385D01*
X107601657Y-95835433D01*
X107558114Y-95747452D01*
X107514571Y-95703461D01*
X107427485Y-95659471D01*
X107340400Y-95659471D01*
X107253314Y-95703461D01*
X107209771Y-95747452D01*
X107166228Y-95835433D01*
X107122685Y-96011395D01*
X107079142Y-96099376D01*
X107035600Y-96143366D01*
X106948514Y-96187357D01*
X106861428Y-96187357D01*
X106774342Y-96143366D01*
X106730800Y-96099376D01*
X106687257Y-96011395D01*
X106687257Y-95791442D01*
X106730800Y-95659471D01*
X107601657Y-95263557D02*
X106992057Y-95263557D01*
X106687257Y-95263557D02*
X106730800Y-95307547D01*
X106774342Y-95263557D01*
X106730800Y-95219566D01*
X106687257Y-95263557D01*
X106774342Y-95263557D01*
X107601657Y-94427738D02*
X106687257Y-94427738D01*
X107558114Y-94427738D02*
X107601657Y-94515719D01*
X107601657Y-94691680D01*
X107558114Y-94779661D01*
X107514571Y-94823652D01*
X107427485Y-94867642D01*
X107166228Y-94867642D01*
X107079142Y-94823652D01*
X107035600Y-94779661D01*
X106992057Y-94691680D01*
X106992057Y-94515719D01*
X107035600Y-94427738D01*
X107558114Y-93635909D02*
X107601657Y-93723890D01*
X107601657Y-93899852D01*
X107558114Y-93987833D01*
X107471028Y-94031823D01*
X107122685Y-94031823D01*
X107035600Y-93987833D01*
X106992057Y-93899852D01*
X106992057Y-93723890D01*
X107035600Y-93635909D01*
X107122685Y-93591919D01*
X107209771Y-93591919D01*
X107296857Y-94031823D01*
X107601657Y-93196004D02*
X106687257Y-93196004D01*
X107035600Y-93196004D02*
X106992057Y-93108023D01*
X106992057Y-92932061D01*
X107035600Y-92844080D01*
X107079142Y-92800090D01*
X107166228Y-92756100D01*
X107427485Y-92756100D01*
X107514571Y-92800090D01*
X107558114Y-92844080D01*
X107601657Y-92932061D01*
X107601657Y-93108023D01*
X107558114Y-93196004D01*
X107601657Y-91964271D02*
X107122685Y-91964271D01*
X107035600Y-92008261D01*
X106992057Y-92096242D01*
X106992057Y-92272204D01*
X107035600Y-92360185D01*
X107558114Y-91964271D02*
X107601657Y-92052252D01*
X107601657Y-92272204D01*
X107558114Y-92360185D01*
X107471028Y-92404176D01*
X107383942Y-92404176D01*
X107296857Y-92360185D01*
X107253314Y-92272204D01*
X107253314Y-92052252D01*
X107209771Y-91964271D01*
X106992057Y-91524366D02*
X107601657Y-91524366D01*
X107079142Y-91524366D02*
X107035600Y-91480376D01*
X106992057Y-91392395D01*
X106992057Y-91260423D01*
X107035600Y-91172442D01*
X107122685Y-91128452D01*
X107601657Y-91128452D01*
X107601657Y-90292633D02*
X106687257Y-90292633D01*
X107558114Y-90292633D02*
X107601657Y-90380614D01*
X107601657Y-90556576D01*
X107558114Y-90644557D01*
X107514571Y-90688547D01*
X107427485Y-90732538D01*
X107166228Y-90732538D01*
X107079142Y-90688547D01*
X107035600Y-90644557D01*
X106992057Y-90556576D01*
X106992057Y-90380614D01*
X107035600Y-90292633D01*
X112974380Y-105044619D02*
X111974380Y-105044619D01*
X111974380Y-104806523D01*
X112022000Y-104663666D01*
X112117238Y-104568428D01*
X112212476Y-104520809D01*
X112402952Y-104473190D01*
X112545809Y-104473190D01*
X112736285Y-104520809D01*
X112831523Y-104568428D01*
X112926761Y-104663666D01*
X112974380Y-104806523D01*
X112974380Y-105044619D01*
X112926761Y-103663666D02*
X112974380Y-103758904D01*
X112974380Y-103949380D01*
X112926761Y-104044619D01*
X112831523Y-104092238D01*
X112450571Y-104092238D01*
X112355333Y-104044619D01*
X112307714Y-103949380D01*
X112307714Y-103758904D01*
X112355333Y-103663666D01*
X112450571Y-103616047D01*
X112545809Y-103616047D01*
X112641047Y-104092238D01*
X112974380Y-103187476D02*
X111974380Y-103187476D01*
X112355333Y-103187476D02*
X112307714Y-103092238D01*
X112307714Y-102901761D01*
X112355333Y-102806523D01*
X112402952Y-102758904D01*
X112498190Y-102711285D01*
X112783904Y-102711285D01*
X112879142Y-102758904D01*
X112926761Y-102806523D01*
X112974380Y-102901761D01*
X112974380Y-103092238D01*
X112926761Y-103187476D01*
X112307714Y-101854142D02*
X112974380Y-101854142D01*
X112307714Y-102282714D02*
X112831523Y-102282714D01*
X112926761Y-102235095D01*
X112974380Y-102139857D01*
X112974380Y-101997000D01*
X112926761Y-101901761D01*
X112879142Y-101854142D01*
X112307714Y-100949380D02*
X113117238Y-100949380D01*
X113212476Y-100997000D01*
X113260095Y-101044619D01*
X113307714Y-101139857D01*
X113307714Y-101282714D01*
X113260095Y-101377952D01*
X112926761Y-100949380D02*
X112974380Y-101044619D01*
X112974380Y-101235095D01*
X112926761Y-101330333D01*
X112879142Y-101377952D01*
X112783904Y-101425571D01*
X112498190Y-101425571D01*
X112402952Y-101377952D01*
X112355333Y-101330333D01*
X112307714Y-101235095D01*
X112307714Y-101044619D01*
X112355333Y-100949380D01*
D11*
X96774000Y-105664000D02*
X106426000Y-105664000D01*
D12*
X105068714Y-106608571D02*
X105402047Y-106608571D01*
X105544904Y-107132380D02*
X105068714Y-107132380D01*
X105068714Y-106132380D01*
X105544904Y-106132380D01*
X103243095Y-107132380D02*
X103243095Y-106132380D01*
X103481190Y-106132380D01*
X103624047Y-106180000D01*
X103719285Y-106275238D01*
X103766904Y-106370476D01*
X103814523Y-106560952D01*
X103814523Y-106703809D01*
X103766904Y-106894285D01*
X103719285Y-106989523D01*
X103624047Y-107084761D01*
X103481190Y-107132380D01*
X103243095Y-107132380D01*
X102036523Y-107037142D02*
X101988904Y-107084761D01*
X101846047Y-107132380D01*
X101750809Y-107132380D01*
X101607952Y-107084761D01*
X101512714Y-106989523D01*
X101465095Y-106894285D01*
X101417476Y-106703809D01*
X101417476Y-106560952D01*
X101465095Y-106370476D01*
X101512714Y-106275238D01*
X101607952Y-106180000D01*
X101750809Y-106132380D01*
X101846047Y-106132380D01*
X101988904Y-106180000D01*
X102036523Y-106227619D01*
X100147428Y-106608571D02*
X100290285Y-106656190D01*
X100337904Y-106703809D01*
X100385523Y-106799047D01*
X100385523Y-106941904D01*
X100337904Y-107037142D01*
X100290285Y-107084761D01*
X100195047Y-107132380D01*
X99814095Y-107132380D01*
X99814095Y-106132380D01*
X100147428Y-106132380D01*
X100242666Y-106180000D01*
X100290285Y-106227619D01*
X100337904Y-106322857D01*
X100337904Y-106418095D01*
X100290285Y-106513333D01*
X100242666Y-106560952D01*
X100147428Y-106608571D01*
X99814095Y-106608571D01*
X98059904Y-106846666D02*
X98536095Y-106846666D01*
X97964666Y-107132380D02*
X98298000Y-106132380D01*
X98631333Y-107132380D01*
X156380485Y-87360583D02*
X155713819Y-87360583D01*
X156761438Y-87122488D02*
X156047152Y-86884392D01*
X156047152Y-87503440D01*
X155713819Y-87932011D02*
X155713819Y-88122488D01*
X155761438Y-88217726D01*
X155809057Y-88265345D01*
X155951914Y-88360583D01*
X156142390Y-88408202D01*
X156523342Y-88408202D01*
X156618580Y-88360583D01*
X156666200Y-88312964D01*
X156713819Y-88217726D01*
X156713819Y-88027250D01*
X156666200Y-87932011D01*
X156618580Y-87884392D01*
X156523342Y-87836773D01*
X156285247Y-87836773D01*
X156190009Y-87884392D01*
X156142390Y-87932011D01*
X156094771Y-88027250D01*
X156094771Y-88217726D01*
X156142390Y-88312964D01*
X156190009Y-88360583D01*
X156285247Y-88408202D01*
X155809057Y-88836773D02*
X155761438Y-88884392D01*
X155713819Y-88836773D01*
X155761438Y-88789154D01*
X155809057Y-88836773D01*
X155713819Y-88836773D01*
X155713819Y-89360583D02*
X155713819Y-89551059D01*
X155761438Y-89646297D01*
X155809057Y-89693916D01*
X155951914Y-89789154D01*
X156142390Y-89836773D01*
X156523342Y-89836773D01*
X156618580Y-89789154D01*
X156666200Y-89741535D01*
X156713819Y-89646297D01*
X156713819Y-89455821D01*
X156666200Y-89360583D01*
X156618580Y-89312964D01*
X156523342Y-89265345D01*
X156285247Y-89265345D01*
X156190009Y-89312964D01*
X156142390Y-89360583D01*
X156094771Y-89455821D01*
X156094771Y-89646297D01*
X156142390Y-89741535D01*
X156190009Y-89789154D01*
X156285247Y-89836773D01*
X156713819Y-90170107D02*
X156713819Y-90836773D01*
X155713819Y-90408202D01*
X156380485Y-91646297D02*
X155713819Y-91646297D01*
X156761438Y-91408202D02*
X156047152Y-91170107D01*
X156047152Y-91789154D01*
X155713819Y-92932011D02*
X156380485Y-92932011D01*
X156285247Y-92932011D02*
X156332866Y-92979630D01*
X156380485Y-93074869D01*
X156380485Y-93217726D01*
X156332866Y-93312964D01*
X156237628Y-93360583D01*
X155713819Y-93360583D01*
X156237628Y-93360583D02*
X156332866Y-93408202D01*
X156380485Y-93503440D01*
X156380485Y-93646297D01*
X156332866Y-93741535D01*
X156237628Y-93789154D01*
X155713819Y-93789154D01*
X155713819Y-94265345D02*
X156380485Y-94265345D01*
X156285247Y-94265345D02*
X156332866Y-94312964D01*
X156380485Y-94408202D01*
X156380485Y-94551059D01*
X156332866Y-94646297D01*
X156237628Y-94693916D01*
X155713819Y-94693916D01*
X156237628Y-94693916D02*
X156332866Y-94741535D01*
X156380485Y-94836773D01*
X156380485Y-94979630D01*
X156332866Y-95074869D01*
X156237628Y-95122488D01*
X155713819Y-95122488D01*
D11*
X154813000Y-66040000D02*
X154813000Y-116014500D01*
X140970000Y-66040000D02*
X155399421Y-66040000D01*
X140970000Y-116014500D02*
X155399421Y-116014500D01*
X154813000Y-116014500D02*
X154226579Y-114887996D01*
X154813000Y-116014500D02*
X155399421Y-114887996D01*
X154813000Y-66040000D02*
X154226579Y-67166504D01*
X154813000Y-66040000D02*
X155399421Y-67166504D01*
D12*
X112919333Y-53233014D02*
X112919333Y-53899680D01*
X112681238Y-52852061D02*
X112443142Y-53566347D01*
X113062190Y-53566347D01*
X113586000Y-53328252D02*
X113490761Y-53280633D01*
X113443142Y-53233014D01*
X113395523Y-53137776D01*
X113395523Y-53090157D01*
X113443142Y-52994919D01*
X113490761Y-52947300D01*
X113586000Y-52899680D01*
X113776476Y-52899680D01*
X113871714Y-52947300D01*
X113919333Y-52994919D01*
X113966952Y-53090157D01*
X113966952Y-53137776D01*
X113919333Y-53233014D01*
X113871714Y-53280633D01*
X113776476Y-53328252D01*
X113586000Y-53328252D01*
X113490761Y-53375871D01*
X113443142Y-53423490D01*
X113395523Y-53518728D01*
X113395523Y-53709204D01*
X113443142Y-53804442D01*
X113490761Y-53852061D01*
X113586000Y-53899680D01*
X113776476Y-53899680D01*
X113871714Y-53852061D01*
X113919333Y-53804442D01*
X113966952Y-53709204D01*
X113966952Y-53518728D01*
X113919333Y-53423490D01*
X113871714Y-53375871D01*
X113776476Y-53328252D01*
X114395523Y-53804442D02*
X114443142Y-53852061D01*
X114395523Y-53899680D01*
X114347904Y-53852061D01*
X114395523Y-53804442D01*
X114395523Y-53899680D01*
X115014571Y-53328252D02*
X114919333Y-53280633D01*
X114871714Y-53233014D01*
X114824095Y-53137776D01*
X114824095Y-53090157D01*
X114871714Y-52994919D01*
X114919333Y-52947300D01*
X115014571Y-52899680D01*
X115205047Y-52899680D01*
X115300285Y-52947300D01*
X115347904Y-52994919D01*
X115395523Y-53090157D01*
X115395523Y-53137776D01*
X115347904Y-53233014D01*
X115300285Y-53280633D01*
X115205047Y-53328252D01*
X115014571Y-53328252D01*
X114919333Y-53375871D01*
X114871714Y-53423490D01*
X114824095Y-53518728D01*
X114824095Y-53709204D01*
X114871714Y-53804442D01*
X114919333Y-53852061D01*
X115014571Y-53899680D01*
X115205047Y-53899680D01*
X115300285Y-53852061D01*
X115347904Y-53804442D01*
X115395523Y-53709204D01*
X115395523Y-53518728D01*
X115347904Y-53423490D01*
X115300285Y-53375871D01*
X115205047Y-53328252D01*
X115871714Y-53899680D02*
X116062190Y-53899680D01*
X116157428Y-53852061D01*
X116205047Y-53804442D01*
X116300285Y-53661585D01*
X116347904Y-53471109D01*
X116347904Y-53090157D01*
X116300285Y-52994919D01*
X116252666Y-52947300D01*
X116157428Y-52899680D01*
X115966952Y-52899680D01*
X115871714Y-52947300D01*
X115824095Y-52994919D01*
X115776476Y-53090157D01*
X115776476Y-53328252D01*
X115824095Y-53423490D01*
X115871714Y-53471109D01*
X115966952Y-53518728D01*
X116157428Y-53518728D01*
X116252666Y-53471109D01*
X116300285Y-53423490D01*
X116347904Y-53328252D01*
X117252666Y-52899680D02*
X116776476Y-52899680D01*
X116728857Y-53375871D01*
X116776476Y-53328252D01*
X116871714Y-53280633D01*
X117109809Y-53280633D01*
X117205047Y-53328252D01*
X117252666Y-53375871D01*
X117300285Y-53471109D01*
X117300285Y-53709204D01*
X117252666Y-53804442D01*
X117205047Y-53852061D01*
X117109809Y-53899680D01*
X116871714Y-53899680D01*
X116776476Y-53852061D01*
X116728857Y-53804442D01*
X118490761Y-53899680D02*
X118490761Y-53233014D01*
X118490761Y-53328252D02*
X118538380Y-53280633D01*
X118633619Y-53233014D01*
X118776476Y-53233014D01*
X118871714Y-53280633D01*
X118919333Y-53375871D01*
X118919333Y-53899680D01*
X118919333Y-53375871D02*
X118966952Y-53280633D01*
X119062190Y-53233014D01*
X119205047Y-53233014D01*
X119300285Y-53280633D01*
X119347904Y-53375871D01*
X119347904Y-53899680D01*
X119824095Y-53899680D02*
X119824095Y-53233014D01*
X119824095Y-53328252D02*
X119871714Y-53280633D01*
X119966952Y-53233014D01*
X120109809Y-53233014D01*
X120205047Y-53280633D01*
X120252666Y-53375871D01*
X120252666Y-53899680D01*
X120252666Y-53375871D02*
X120300285Y-53280633D01*
X120395523Y-53233014D01*
X120538380Y-53233014D01*
X120633619Y-53280633D01*
X120681238Y-53375871D01*
X120681238Y-53899680D01*
D11*
X92138500Y-54800500D02*
X141033500Y-54800500D01*
X92138500Y-66040000D02*
X92138500Y-54214079D01*
X141033500Y-66040000D02*
X141033500Y-54214079D01*
X141033500Y-54800500D02*
X139906996Y-55386921D01*
X141033500Y-54800500D02*
X139906996Y-54214079D01*
X92138500Y-54800500D02*
X93265004Y-55386921D01*
X92138500Y-54800500D02*
X93265004Y-54214079D01*
D16*
X109316000Y-81900000D02*
X122316000Y-81900000D01*
X122316000Y-81900000D02*
X122316000Y-95900000D01*
X122316000Y-95900000D02*
X108316000Y-95900000D01*
X108316000Y-95900000D02*
X108316000Y-82900000D01*
X108316000Y-82900000D02*
X109316000Y-81900000D01*
X108416000Y-81900000D02*
G75*
G03X108416000Y-81900000I-100000J0D01*
G01*
D17*
G36*
X135471192Y-70407152D02*
G01*
X135523167Y-70429391D01*
X135589283Y-70475018D01*
X135674327Y-70547024D01*
X135783085Y-70648403D01*
X135920345Y-70782145D01*
X135985890Y-70846949D01*
X136110017Y-70971394D01*
X136222581Y-71086952D01*
X136318288Y-71187966D01*
X136391841Y-71268782D01*
X136437945Y-71323744D01*
X136450999Y-71343677D01*
X136460311Y-71390114D01*
X136449267Y-71441222D01*
X136413845Y-71503189D01*
X136350022Y-71582201D01*
X136253775Y-71684447D01*
X136183931Y-71754439D01*
X135966200Y-71969778D01*
X135966200Y-73641829D01*
X135966238Y-73974011D01*
X135966422Y-74258929D01*
X135966853Y-74500116D01*
X135967633Y-74701109D01*
X135968863Y-74865443D01*
X135970645Y-74996653D01*
X135973082Y-75098273D01*
X135976274Y-75173840D01*
X135980324Y-75226887D01*
X135985333Y-75260951D01*
X135991403Y-75279567D01*
X135998636Y-75286269D01*
X136007134Y-75284593D01*
X136013377Y-75280690D01*
X136060571Y-75242446D01*
X136133920Y-75176942D01*
X136226751Y-75090704D01*
X136332391Y-74990263D01*
X136444168Y-74882146D01*
X136555408Y-74772882D01*
X136659438Y-74669000D01*
X136749586Y-74577027D01*
X136819179Y-74503494D01*
X136861543Y-74454927D01*
X136870294Y-74442311D01*
X136881873Y-74409080D01*
X136890823Y-74355555D01*
X136897420Y-74276150D01*
X136901944Y-74165277D01*
X136904670Y-74017352D01*
X136905878Y-73826787D01*
X136906000Y-73723606D01*
X136906102Y-73525312D01*
X136906759Y-73371515D01*
X136908493Y-73255915D01*
X136911826Y-73172210D01*
X136917281Y-73114098D01*
X136925381Y-73075277D01*
X136936647Y-73049445D01*
X136951604Y-73030301D01*
X136964559Y-73017495D01*
X137003627Y-72979985D01*
X137070902Y-72915235D01*
X137158040Y-72831283D01*
X137256694Y-72736169D01*
X137292999Y-72701149D01*
X137416622Y-72584049D01*
X137512780Y-72501992D01*
X137589457Y-72453630D01*
X137654633Y-72437617D01*
X137716292Y-72452605D01*
X137782415Y-72497248D01*
X137860984Y-72570198D01*
X137890983Y-72600233D01*
X137977001Y-72691035D01*
X138030817Y-72764087D01*
X138051251Y-72828276D01*
X138037127Y-72892488D01*
X137987265Y-72965609D01*
X137900488Y-73056525D01*
X137820400Y-73132480D01*
X137591800Y-73345792D01*
X137591424Y-73839446D01*
X137589049Y-74082740D01*
X137580090Y-74283976D01*
X137561185Y-74451791D01*
X137528974Y-74594824D01*
X137480096Y-74721715D01*
X137411191Y-74841101D01*
X137318897Y-74961622D01*
X137199853Y-75091916D01*
X137050698Y-75240622D01*
X137043622Y-75247500D01*
X136904968Y-75381248D01*
X136749359Y-75529870D01*
X136592057Y-75678879D01*
X136448322Y-75813787D01*
X136388069Y-75869800D01*
X136249812Y-76001864D01*
X136139260Y-76116009D01*
X136060597Y-76207695D01*
X136019359Y-76269573D01*
X136005477Y-76299630D01*
X135994245Y-76331450D01*
X135985384Y-76370482D01*
X135978614Y-76422174D01*
X135973653Y-76491974D01*
X135970223Y-76585330D01*
X135968043Y-76707691D01*
X135966832Y-76864503D01*
X135966311Y-77061216D01*
X135966200Y-77303277D01*
X135966200Y-78229622D01*
X136084826Y-78282097D01*
X136261002Y-78385729D01*
X136417254Y-78527472D01*
X136543746Y-78696257D01*
X136630645Y-78881014D01*
X136638361Y-78905100D01*
X136663623Y-79032541D01*
X136674807Y-79187520D01*
X136671913Y-79348763D01*
X136654941Y-79494996D01*
X136638361Y-79565500D01*
X136556263Y-79753280D01*
X136432708Y-79924931D01*
X136276586Y-80071080D01*
X136096790Y-80182352D01*
X136023402Y-80213809D01*
X135863465Y-80257241D01*
X135684745Y-80278508D01*
X135508417Y-80276407D01*
X135361614Y-80251447D01*
X135146481Y-80166637D01*
X134961490Y-80042810D01*
X134810411Y-79882651D01*
X134777305Y-79835621D01*
X134701117Y-79710865D01*
X134651479Y-79600515D01*
X134621567Y-79484128D01*
X134604557Y-79341257D01*
X134602362Y-79311500D01*
X134608916Y-79075364D01*
X134660543Y-78857011D01*
X134754692Y-78660868D01*
X134888811Y-78491363D01*
X135060349Y-78352920D01*
X135197850Y-78278428D01*
X135305800Y-78229622D01*
X135305800Y-77992686D01*
X135303990Y-77877084D01*
X135299158Y-77771217D01*
X135292199Y-77692150D01*
X135288970Y-77671603D01*
X135280676Y-77642093D01*
X135265213Y-77609840D01*
X135239086Y-77571162D01*
X135198802Y-77522375D01*
X135140867Y-77459795D01*
X135061789Y-77379740D01*
X134958074Y-77278525D01*
X134826227Y-77152469D01*
X134662757Y-76997886D01*
X134543667Y-76885800D01*
X134374103Y-76725930D01*
X134237334Y-76595467D01*
X134128816Y-76489370D01*
X134044008Y-76402595D01*
X133978370Y-76330102D01*
X133927359Y-76266848D01*
X133886434Y-76207791D01*
X133851054Y-76147889D01*
X133816677Y-76082101D01*
X133812815Y-76074393D01*
X133718300Y-75885287D01*
X133692900Y-73793963D01*
X133496050Y-73583973D01*
X133394845Y-73471358D01*
X133330100Y-73383759D01*
X133300177Y-73312583D01*
X133303442Y-73249237D01*
X133338260Y-73185130D01*
X133402995Y-73111668D01*
X133405648Y-73108959D01*
X133512097Y-73000496D01*
X133456448Y-72941261D01*
X133409136Y-72869620D01*
X133402299Y-72793389D01*
X133437241Y-72706285D01*
X133515265Y-72602024D01*
X133530413Y-72584908D01*
X133603518Y-72507947D01*
X133658035Y-72463685D01*
X133705756Y-72444109D01*
X133742427Y-72440800D01*
X133781161Y-72442607D01*
X133815798Y-72451716D01*
X133853310Y-72473661D01*
X133900669Y-72513973D01*
X133964848Y-72578184D01*
X134052819Y-72671827D01*
X134105790Y-72729123D01*
X134202315Y-72839318D01*
X134262266Y-72924826D01*
X134287877Y-72993742D01*
X134281383Y-73054160D01*
X134245016Y-73114173D01*
X134219950Y-73142726D01*
X134149384Y-73218543D01*
X134111473Y-73270421D01*
X134106349Y-73312744D01*
X134134147Y-73359896D01*
X134194997Y-73426262D01*
X134222838Y-73455338D01*
X134366000Y-73605428D01*
X134366000Y-74636830D01*
X134366310Y-74904768D01*
X134367339Y-75126450D01*
X134369232Y-75306417D01*
X134372136Y-75449210D01*
X134376196Y-75559369D01*
X134381560Y-75641436D01*
X134388373Y-75699950D01*
X134396781Y-75739454D01*
X134401979Y-75754343D01*
X134416202Y-75782147D01*
X134439448Y-75815818D01*
X134475278Y-75858997D01*
X134527255Y-75915324D01*
X134598938Y-75988442D01*
X134693892Y-76081991D01*
X134815676Y-76199612D01*
X134967852Y-76344946D01*
X135133915Y-76502617D01*
X135305800Y-76665534D01*
X135305800Y-73579203D01*
X135305824Y-73118594D01*
X135305922Y-72706092D01*
X135306136Y-72339008D01*
X135306504Y-72014651D01*
X135307067Y-71730327D01*
X135307864Y-71483347D01*
X135308936Y-71271019D01*
X135310322Y-71090652D01*
X135312063Y-70939554D01*
X135314198Y-70815034D01*
X135316768Y-70714400D01*
X135319812Y-70634962D01*
X135323370Y-70574028D01*
X135327483Y-70528906D01*
X135332190Y-70496906D01*
X135337531Y-70475335D01*
X135343546Y-70461503D01*
X135350275Y-70452719D01*
X135352250Y-70450836D01*
X135390520Y-70420867D01*
X135428572Y-70405308D01*
X135471192Y-70407152D01*
X135471192Y-70407152D01*
G37*
X135471192Y-70407152D02*
X135523167Y-70429391D01*
X135589283Y-70475018D01*
X135674327Y-70547024D01*
X135783085Y-70648403D01*
X135920345Y-70782145D01*
X135985890Y-70846949D01*
X136110017Y-70971394D01*
X136222581Y-71086952D01*
X136318288Y-71187966D01*
X136391841Y-71268782D01*
X136437945Y-71323744D01*
X136450999Y-71343677D01*
X136460311Y-71390114D01*
X136449267Y-71441222D01*
X136413845Y-71503189D01*
X136350022Y-71582201D01*
X136253775Y-71684447D01*
X136183931Y-71754439D01*
X135966200Y-71969778D01*
X135966200Y-73641829D01*
X135966238Y-73974011D01*
X135966422Y-74258929D01*
X135966853Y-74500116D01*
X135967633Y-74701109D01*
X135968863Y-74865443D01*
X135970645Y-74996653D01*
X135973082Y-75098273D01*
X135976274Y-75173840D01*
X135980324Y-75226887D01*
X135985333Y-75260951D01*
X135991403Y-75279567D01*
X135998636Y-75286269D01*
X136007134Y-75284593D01*
X136013377Y-75280690D01*
X136060571Y-75242446D01*
X136133920Y-75176942D01*
X136226751Y-75090704D01*
X136332391Y-74990263D01*
X136444168Y-74882146D01*
X136555408Y-74772882D01*
X136659438Y-74669000D01*
X136749586Y-74577027D01*
X136819179Y-74503494D01*
X136861543Y-74454927D01*
X136870294Y-74442311D01*
X136881873Y-74409080D01*
X136890823Y-74355555D01*
X136897420Y-74276150D01*
X136901944Y-74165277D01*
X136904670Y-74017352D01*
X136905878Y-73826787D01*
X136906000Y-73723606D01*
X136906102Y-73525312D01*
X136906759Y-73371515D01*
X136908493Y-73255915D01*
X136911826Y-73172210D01*
X136917281Y-73114098D01*
X136925381Y-73075277D01*
X136936647Y-73049445D01*
X136951604Y-73030301D01*
X136964559Y-73017495D01*
X137003627Y-72979985D01*
X137070902Y-72915235D01*
X137158040Y-72831283D01*
X137256694Y-72736169D01*
X137292999Y-72701149D01*
X137416622Y-72584049D01*
X137512780Y-72501992D01*
X137589457Y-72453630D01*
X137654633Y-72437617D01*
X137716292Y-72452605D01*
X137782415Y-72497248D01*
X137860984Y-72570198D01*
X137890983Y-72600233D01*
X137977001Y-72691035D01*
X138030817Y-72764087D01*
X138051251Y-72828276D01*
X138037127Y-72892488D01*
X137987265Y-72965609D01*
X137900488Y-73056525D01*
X137820400Y-73132480D01*
X137591800Y-73345792D01*
X137591424Y-73839446D01*
X137589049Y-74082740D01*
X137580090Y-74283976D01*
X137561185Y-74451791D01*
X137528974Y-74594824D01*
X137480096Y-74721715D01*
X137411191Y-74841101D01*
X137318897Y-74961622D01*
X137199853Y-75091916D01*
X137050698Y-75240622D01*
X137043622Y-75247500D01*
X136904968Y-75381248D01*
X136749359Y-75529870D01*
X136592057Y-75678879D01*
X136448322Y-75813787D01*
X136388069Y-75869800D01*
X136249812Y-76001864D01*
X136139260Y-76116009D01*
X136060597Y-76207695D01*
X136019359Y-76269573D01*
X136005477Y-76299630D01*
X135994245Y-76331450D01*
X135985384Y-76370482D01*
X135978614Y-76422174D01*
X135973653Y-76491974D01*
X135970223Y-76585330D01*
X135968043Y-76707691D01*
X135966832Y-76864503D01*
X135966311Y-77061216D01*
X135966200Y-77303277D01*
X135966200Y-78229622D01*
X136084826Y-78282097D01*
X136261002Y-78385729D01*
X136417254Y-78527472D01*
X136543746Y-78696257D01*
X136630645Y-78881014D01*
X136638361Y-78905100D01*
X136663623Y-79032541D01*
X136674807Y-79187520D01*
X136671913Y-79348763D01*
X136654941Y-79494996D01*
X136638361Y-79565500D01*
X136556263Y-79753280D01*
X136432708Y-79924931D01*
X136276586Y-80071080D01*
X136096790Y-80182352D01*
X136023402Y-80213809D01*
X135863465Y-80257241D01*
X135684745Y-80278508D01*
X135508417Y-80276407D01*
X135361614Y-80251447D01*
X135146481Y-80166637D01*
X134961490Y-80042810D01*
X134810411Y-79882651D01*
X134777305Y-79835621D01*
X134701117Y-79710865D01*
X134651479Y-79600515D01*
X134621567Y-79484128D01*
X134604557Y-79341257D01*
X134602362Y-79311500D01*
X134608916Y-79075364D01*
X134660543Y-78857011D01*
X134754692Y-78660868D01*
X134888811Y-78491363D01*
X135060349Y-78352920D01*
X135197850Y-78278428D01*
X135305800Y-78229622D01*
X135305800Y-77992686D01*
X135303990Y-77877084D01*
X135299158Y-77771217D01*
X135292199Y-77692150D01*
X135288970Y-77671603D01*
X135280676Y-77642093D01*
X135265213Y-77609840D01*
X135239086Y-77571162D01*
X135198802Y-77522375D01*
X135140867Y-77459795D01*
X135061789Y-77379740D01*
X134958074Y-77278525D01*
X134826227Y-77152469D01*
X134662757Y-76997886D01*
X134543667Y-76885800D01*
X134374103Y-76725930D01*
X134237334Y-76595467D01*
X134128816Y-76489370D01*
X134044008Y-76402595D01*
X133978370Y-76330102D01*
X133927359Y-76266848D01*
X133886434Y-76207791D01*
X133851054Y-76147889D01*
X133816677Y-76082101D01*
X133812815Y-76074393D01*
X133718300Y-75885287D01*
X133692900Y-73793963D01*
X133496050Y-73583973D01*
X133394845Y-73471358D01*
X133330100Y-73383759D01*
X133300177Y-73312583D01*
X133303442Y-73249237D01*
X133338260Y-73185130D01*
X133402995Y-73111668D01*
X133405648Y-73108959D01*
X133512097Y-73000496D01*
X133456448Y-72941261D01*
X133409136Y-72869620D01*
X133402299Y-72793389D01*
X133437241Y-72706285D01*
X133515265Y-72602024D01*
X133530413Y-72584908D01*
X133603518Y-72507947D01*
X133658035Y-72463685D01*
X133705756Y-72444109D01*
X133742427Y-72440800D01*
X133781161Y-72442607D01*
X133815798Y-72451716D01*
X133853310Y-72473661D01*
X133900669Y-72513973D01*
X133964848Y-72578184D01*
X134052819Y-72671827D01*
X134105790Y-72729123D01*
X134202315Y-72839318D01*
X134262266Y-72924826D01*
X134287877Y-72993742D01*
X134281383Y-73054160D01*
X134245016Y-73114173D01*
X134219950Y-73142726D01*
X134149384Y-73218543D01*
X134111473Y-73270421D01*
X134106349Y-73312744D01*
X134134147Y-73359896D01*
X134194997Y-73426262D01*
X134222838Y-73455338D01*
X134366000Y-73605428D01*
X134366000Y-74636830D01*
X134366310Y-74904768D01*
X134367339Y-75126450D01*
X134369232Y-75306417D01*
X134372136Y-75449210D01*
X134376196Y-75559369D01*
X134381560Y-75641436D01*
X134388373Y-75699950D01*
X134396781Y-75739454D01*
X134401979Y-75754343D01*
X134416202Y-75782147D01*
X134439448Y-75815818D01*
X134475278Y-75858997D01*
X134527255Y-75915324D01*
X134598938Y-75988442D01*
X134693892Y-76081991D01*
X134815676Y-76199612D01*
X134967852Y-76344946D01*
X135133915Y-76502617D01*
X135305800Y-76665534D01*
X135305800Y-73579203D01*
X135305824Y-73118594D01*
X135305922Y-72706092D01*
X135306136Y-72339008D01*
X135306504Y-72014651D01*
X135307067Y-71730327D01*
X135307864Y-71483347D01*
X135308936Y-71271019D01*
X135310322Y-71090652D01*
X135312063Y-70939554D01*
X135314198Y-70815034D01*
X135316768Y-70714400D01*
X135319812Y-70634962D01*
X135323370Y-70574028D01*
X135327483Y-70528906D01*
X135332190Y-70496906D01*
X135337531Y-70475335D01*
X135343546Y-70461503D01*
X135350275Y-70452719D01*
X135352250Y-70450836D01*
X135390520Y-70420867D01*
X135428572Y-70405308D01*
X135471192Y-70407152D01*
D16*
X138384000Y-85818000D02*
G75*
G03X138384000Y-85818000I-100000J0D01*
G01*
D12*
X139484000Y-85418000D02*
X139484000Y-88318000D01*
X139484000Y-88318000D02*
X137884000Y-88318000D01*
X137884000Y-88318000D02*
X137884000Y-85418000D01*
X137884000Y-85418000D02*
X139484000Y-85418000D01*
D16*
X136771000Y-84743000D02*
G75*
G03X136771000Y-84743000I-100000J0D01*
G01*
D12*
X135471000Y-85143000D02*
X135471000Y-82243000D01*
X135471000Y-82243000D02*
X137071000Y-82243000D01*
X137071000Y-82243000D02*
X137071000Y-85143000D01*
X137071000Y-85143000D02*
X135471000Y-85143000D01*
D18*
X138609000Y-83307422D02*
X138609000Y-83824578D01*
X140029000Y-83307422D02*
X140029000Y-83824578D01*
X95214221Y-72519000D02*
X95539779Y-72519000D01*
X95214221Y-71499000D02*
X95539779Y-71499000D01*
X137880500Y-96931000D02*
X136330500Y-96931000D01*
X137880500Y-96931000D02*
X137880500Y-96631000D01*
X140680500Y-96631000D02*
X137880500Y-96631000D01*
X137880500Y-88631000D02*
X136330500Y-88631000D01*
X137880500Y-88931000D02*
X137880500Y-88631000D01*
X140680500Y-88931000D02*
X137880500Y-88931000D01*
X92261000Y-88724500D02*
X95061000Y-88724500D01*
X95061000Y-88724500D02*
X95061000Y-89024500D01*
X95061000Y-89024500D02*
X96611000Y-89024500D01*
X92261000Y-81024500D02*
X95061000Y-81024500D01*
X95061000Y-80724500D02*
X95061000Y-81024500D01*
X95061000Y-80724500D02*
X96611000Y-80724500D01*
X94997500Y-93805500D02*
X96547500Y-93805500D01*
X94997500Y-93805500D02*
X94997500Y-94105500D01*
X92197500Y-94105500D02*
X94997500Y-94105500D01*
X94997500Y-102105500D02*
X96547500Y-102105500D01*
X94997500Y-101805500D02*
X94997500Y-102105500D01*
X92197500Y-101805500D02*
X94997500Y-101805500D01*
D12*
X123657000Y-77850000D02*
X123657000Y-79350000D01*
X123657000Y-79350000D02*
X121657000Y-79350000D01*
X123657000Y-77850000D02*
X123657000Y-79350000D01*
X123657000Y-79350000D02*
X121657000Y-79350000D01*
X115357000Y-77850000D02*
X115357000Y-79350000D01*
X115357000Y-79350000D02*
X117357000Y-79350000D01*
X123657000Y-77850000D02*
X123657000Y-79350000D01*
X123657000Y-79350000D02*
X121657000Y-79350000D01*
X115357000Y-74550000D02*
X115357000Y-73050000D01*
X115357000Y-73050000D02*
X117357000Y-73050000D01*
X123657000Y-74550000D02*
X123657000Y-74200000D01*
X123657000Y-74200000D02*
X122507000Y-73050000D01*
X122507000Y-73050000D02*
X121657000Y-73050000D01*
D16*
X123607000Y-73200000D02*
G75*
G03X123607000Y-73200000I-100000J0D01*
G01*
D18*
X100736800Y-78432000D02*
X100736800Y-80882000D01*
X103956800Y-80232000D02*
X103956800Y-78432000D01*
X98917979Y-77264800D02*
X98592421Y-77264800D01*
X98917979Y-78284800D02*
X98592421Y-78284800D01*
D12*
X123005000Y-108908000D02*
X123005000Y-108483000D01*
X115755000Y-108908000D02*
X115755000Y-108383000D01*
X115755000Y-101658000D02*
X115755000Y-102183000D01*
X123005000Y-101658000D02*
X123005000Y-102183000D01*
X123005000Y-108908000D02*
X122480000Y-108908000D01*
X123005000Y-101658000D02*
X122480000Y-101658000D01*
X115755000Y-101658000D02*
X116280000Y-101658000D01*
X115755000Y-108908000D02*
X116280000Y-108908000D01*
X123005000Y-108483000D02*
X124380000Y-108483000D01*
D18*
X97349000Y-66378000D02*
X105089000Y-66378000D01*
X105089000Y-66378000D02*
X105089000Y-63718000D01*
X105089000Y-63718000D02*
X97349000Y-63718000D01*
X97349000Y-63718000D02*
X97349000Y-66378000D01*
X98299000Y-63718000D02*
X98299000Y-57718000D01*
X98299000Y-57718000D02*
X99059000Y-57718000D01*
X99059000Y-57718000D02*
X99059000Y-63718000D01*
X98359000Y-63718000D02*
X98359000Y-57718000D01*
X98479000Y-63718000D02*
X98479000Y-57718000D01*
X98599000Y-63718000D02*
X98599000Y-57718000D01*
X98719000Y-63718000D02*
X98719000Y-57718000D01*
X98839000Y-63718000D02*
X98839000Y-57718000D01*
X98959000Y-63718000D02*
X98959000Y-57718000D01*
X98299000Y-66775071D02*
X98299000Y-66378000D01*
X99059000Y-66775071D02*
X99059000Y-66378000D01*
X98299000Y-69248000D02*
X98299000Y-68860929D01*
X99059000Y-69248000D02*
X99059000Y-68860929D01*
X99949000Y-66378000D02*
X99949000Y-63718000D01*
X100839000Y-63718000D02*
X100839000Y-57718000D01*
X100839000Y-57718000D02*
X101599000Y-57718000D01*
X101599000Y-57718000D02*
X101599000Y-63718000D01*
X100839000Y-66775071D02*
X100839000Y-66378000D01*
X101599000Y-66775071D02*
X101599000Y-66378000D01*
X100839000Y-69315071D02*
X100839000Y-68860929D01*
X101599000Y-69315071D02*
X101599000Y-68860929D01*
X102489000Y-66378000D02*
X102489000Y-63718000D01*
X103379000Y-63718000D02*
X103379000Y-57718000D01*
X103379000Y-57718000D02*
X104139000Y-57718000D01*
X104139000Y-57718000D02*
X104139000Y-63718000D01*
X103379000Y-66775071D02*
X103379000Y-66378000D01*
X104139000Y-66775071D02*
X104139000Y-66378000D01*
X103379000Y-69315071D02*
X103379000Y-68860929D01*
X104139000Y-69315071D02*
X104139000Y-68860929D01*
X98679000Y-71628000D02*
X97409000Y-71628000D01*
X97409000Y-71628000D02*
X97409000Y-70358000D01*
X106763000Y-104579000D02*
X109488000Y-104579000D01*
X109488000Y-104579000D02*
X109488000Y-104319000D01*
X106763000Y-104579000D02*
X104038000Y-104579000D01*
X104038000Y-104579000D02*
X104038000Y-104319000D01*
X106763000Y-99129000D02*
X109488000Y-99129000D01*
X109488000Y-99129000D02*
X109488000Y-99389000D01*
X106763000Y-99129000D02*
X104038000Y-99129000D01*
X104038000Y-99129000D02*
X104038000Y-99389000D01*
X104038000Y-99389000D02*
X102363000Y-99389000D01*
X99189000Y-74203779D02*
X99189000Y-73878221D01*
X98169000Y-74203779D02*
X98169000Y-73878221D01*
X114200400Y-72862121D02*
X114200400Y-73187679D01*
X113180400Y-72862121D02*
X113180400Y-73187679D01*
X107431721Y-80393000D02*
X107757279Y-80393000D01*
X107431721Y-79373000D02*
X107757279Y-79373000D01*
X112778221Y-76265500D02*
X113103779Y-76265500D01*
X112778221Y-75245500D02*
X113103779Y-75245500D01*
X105864779Y-75948000D02*
X105539221Y-75948000D01*
X105864779Y-74928000D02*
X105539221Y-74928000D01*
D11*
X93505500Y-77144500D02*
X94005500Y-76144500D01*
X94505500Y-77144500D02*
X93505500Y-77144500D01*
X94005500Y-76144500D02*
X94505500Y-77144500D01*
X94505500Y-76144500D02*
X93505500Y-76144500D01*
X96505500Y-74544500D02*
X96505500Y-78744500D01*
X93105500Y-78744500D02*
X93105500Y-74544500D01*
X96055500Y-74544500D02*
X96055500Y-73544500D01*
X96055500Y-73544500D02*
X93555500Y-73544500D01*
X93555500Y-73544500D02*
X93555500Y-74544500D01*
X96505500Y-74544500D02*
X96055500Y-74544500D01*
X93555500Y-74544500D02*
X93105500Y-74544500D01*
X96505500Y-78744500D02*
X96055500Y-78744500D01*
X96055500Y-78744500D02*
X96055500Y-79744500D01*
X96055500Y-79744500D02*
X93555500Y-79744500D01*
X93555500Y-79744500D02*
X93555500Y-78744500D01*
X93555500Y-78744500D02*
X93105500Y-78744500D01*
D18*
X133831000Y-98547000D02*
X133831000Y-96087000D01*
X132361000Y-98547000D02*
X133831000Y-98547000D01*
X132361000Y-96087000D02*
X132361000Y-98547000D01*
X130710000Y-96101000D02*
X130710000Y-98561000D01*
X130710000Y-98561000D02*
X132180000Y-98561000D01*
X132180000Y-98561000D02*
X132180000Y-96101000D01*
X130529000Y-98561000D02*
X130529000Y-96101000D01*
X129059000Y-98561000D02*
X130529000Y-98561000D01*
X129059000Y-96101000D02*
X129059000Y-98561000D01*
X128878000Y-98547000D02*
X128878000Y-96087000D01*
X127408000Y-98547000D02*
X128878000Y-98547000D01*
X127408000Y-96087000D02*
X127408000Y-98547000D01*
X125757000Y-96087000D02*
X125757000Y-98547000D01*
X125757000Y-98547000D02*
X127227000Y-98547000D01*
X127227000Y-98547000D02*
X127227000Y-96087000D01*
X124106000Y-96087000D02*
X124106000Y-98547000D01*
X124106000Y-98547000D02*
X125576000Y-98547000D01*
X125576000Y-98547000D02*
X125576000Y-96087000D01*
D11*
X98452000Y-92499500D02*
X98452000Y-92949500D01*
X99452000Y-92499500D02*
X98452000Y-92499500D01*
X99452000Y-89999500D02*
X99452000Y-92499500D01*
X98452000Y-89999500D02*
X99452000Y-89999500D01*
X98452000Y-89549500D02*
X98452000Y-89999500D01*
X94252000Y-92499500D02*
X94252000Y-92949500D01*
X94252000Y-89549500D02*
X94252000Y-89999500D01*
X93252000Y-92499500D02*
X94252000Y-92499500D01*
X93252000Y-89999500D02*
X93252000Y-92499500D01*
X94252000Y-89999500D02*
X93252000Y-89999500D01*
X98452000Y-92949500D02*
X94252000Y-92949500D01*
X94252000Y-89549500D02*
X98452000Y-89549500D01*
X95852000Y-91549500D02*
X95852000Y-92549500D01*
X95852000Y-92049500D02*
X96852000Y-91549500D01*
X96852000Y-91549500D02*
X96852000Y-92549500D01*
X96852000Y-92549500D02*
X95852000Y-92049500D01*
D18*
X98906000Y-112433000D02*
X98906000Y-109973000D01*
X98906000Y-109973000D02*
X97436000Y-109973000D01*
X97436000Y-109973000D02*
X97436000Y-112433000D01*
X100684000Y-112433000D02*
X100684000Y-109973000D01*
X100684000Y-109973000D02*
X99214000Y-109973000D01*
X99214000Y-109973000D02*
X99214000Y-112433000D01*
X100992000Y-109973000D02*
X100992000Y-112433000D01*
X102462000Y-109973000D02*
X100992000Y-109973000D01*
X102462000Y-112433000D02*
X102462000Y-109973000D01*
X102770000Y-109973000D02*
X102770000Y-112433000D01*
X104240000Y-109973000D02*
X102770000Y-109973000D01*
X104240000Y-112433000D02*
X104240000Y-109973000D01*
X106018000Y-112433000D02*
X106018000Y-109973000D01*
X106018000Y-109973000D02*
X104548000Y-109973000D01*
X104548000Y-109973000D02*
X104548000Y-112433000D01*
D12*
X126514500Y-81811000D02*
X127214500Y-81811000D01*
X126514500Y-68811000D02*
X126514500Y-81811000D01*
X127214500Y-68811000D02*
X126514500Y-68811000D01*
X140814500Y-81811000D02*
X140814500Y-68811000D01*
X141714500Y-68811000D02*
X141714500Y-81811000D01*
X127214500Y-68811000D02*
X141714500Y-68811000D01*
X127214500Y-81811000D02*
X127214500Y-68811000D01*
X141714500Y-81811000D02*
X127214500Y-81811000D01*
D11*
X127762000Y-104521000D02*
X137922000Y-104521000D01*
X127762000Y-104521000D02*
X127762000Y-99441000D01*
X137922000Y-104521000D02*
X137922000Y-99441000D01*
X137922000Y-99441000D02*
X127762000Y-99441000D01*
D18*
X135382000Y-99441000D02*
X135382000Y-100711000D01*
X130302000Y-110490000D02*
X130302000Y-109220000D01*
D11*
X127762000Y-110490000D02*
X137922000Y-110490000D01*
X127762000Y-105410000D02*
X127762000Y-110490000D01*
X137922000Y-105410000D02*
X137922000Y-110490000D01*
X137922000Y-105410000D02*
X127762000Y-105410000D01*
X109362500Y-117485000D02*
X109362500Y-117785000D01*
X109362500Y-117785000D02*
X112862500Y-117785000D01*
X112862500Y-117785000D02*
X112862500Y-117485000D01*
X107612500Y-117485000D02*
X107612500Y-110885000D01*
X114612500Y-110885000D02*
X114612500Y-117485000D01*
X114212500Y-110885000D02*
X114212500Y-113785000D01*
X108012500Y-110885000D02*
X108012500Y-113785000D01*
X107612500Y-113785000D02*
X114612500Y-113785000D01*
X107612500Y-117485000D02*
X114612500Y-117485000D01*
X107612500Y-110885000D02*
X108012500Y-110885000D01*
X114612500Y-110885000D02*
X114212500Y-110885000D01*
X124162500Y-110871500D02*
X123762500Y-110871500D01*
X117162500Y-110871500D02*
X117562500Y-110871500D01*
X117162500Y-117471500D02*
X124162500Y-117471500D01*
X117162500Y-113771500D02*
X124162500Y-113771500D01*
X117562500Y-110871500D02*
X117562500Y-113771500D01*
X123762500Y-110871500D02*
X123762500Y-113771500D01*
X124162500Y-110871500D02*
X124162500Y-117471500D01*
X117162500Y-117471500D02*
X117162500Y-110871500D01*
X122412500Y-117771500D02*
X122412500Y-117471500D01*
X118912500Y-117771500D02*
X122412500Y-117771500D01*
X118912500Y-117471500D02*
X118912500Y-117771500D01*
X128564500Y-117485000D02*
X128564500Y-117785000D01*
X128564500Y-117785000D02*
X132064500Y-117785000D01*
X132064500Y-117785000D02*
X132064500Y-117485000D01*
X126814500Y-117485000D02*
X126814500Y-110885000D01*
X133814500Y-110885000D02*
X133814500Y-117485000D01*
X133414500Y-110885000D02*
X133414500Y-113785000D01*
X127214500Y-110885000D02*
X127214500Y-113785000D01*
X126814500Y-113785000D02*
X133814500Y-113785000D01*
X126814500Y-117485000D02*
X133814500Y-117485000D01*
X126814500Y-110885000D02*
X127214500Y-110885000D01*
X133814500Y-110885000D02*
X133414500Y-110885000D01*
D18*
X111898000Y-71478500D02*
X109448000Y-71478500D01*
X110098000Y-74698500D02*
X111898000Y-74698500D01*
X107393500Y-78878000D02*
X106093500Y-78878000D01*
X105843500Y-77078000D02*
X107393500Y-77078000D01*
X100716400Y-74131600D02*
X100716400Y-75931600D01*
X103936400Y-75931600D02*
X103936400Y-73481600D01*
X101235000Y-96344000D02*
X100760000Y-96344000D01*
X100760000Y-96344000D02*
X100760000Y-95869000D01*
X104505000Y-92124000D02*
X104980000Y-92124000D01*
X104980000Y-92124000D02*
X104980000Y-92599000D01*
X101235000Y-92124000D02*
X100760000Y-92124000D01*
X100760000Y-92124000D02*
X100760000Y-92599000D01*
X104505000Y-96344000D02*
X104980000Y-96344000D01*
X125809500Y-84504000D02*
X125334500Y-84504000D01*
X129554500Y-88724000D02*
X129554500Y-88249000D01*
X129079500Y-88724000D02*
X129554500Y-88724000D01*
X125334500Y-88724000D02*
X125334500Y-88249000D01*
X125809500Y-88724000D02*
X125334500Y-88724000D01*
X129554500Y-84504000D02*
X129554500Y-84979000D01*
X129079500Y-84504000D02*
X129554500Y-84504000D01*
X101235000Y-87581000D02*
X100760000Y-87581000D01*
X100760000Y-87581000D02*
X100760000Y-87106000D01*
X104505000Y-83361000D02*
X104980000Y-83361000D01*
X104980000Y-83361000D02*
X104980000Y-83836000D01*
X101235000Y-83361000D02*
X100760000Y-83361000D01*
X100760000Y-83361000D02*
X100760000Y-83836000D01*
X104505000Y-87581000D02*
X104980000Y-87581000D01*
X114053000Y-76691500D02*
X111753000Y-76691500D01*
X111753000Y-76691500D02*
X111753000Y-79391500D01*
M02*
